<svg width="100" height="101" viewBox="0 0 100 101" fill="none" xmlns="http://www.w3.org/2000/svg">
<g clip-path="url(#clip0_4444_45415)">
<path d="M28.5057 42.4102C28.5057 43.6038 28.6361 44.5715 28.8643 45.2812C29.125 45.9909 29.4509 46.7651 29.9072 47.6038C30.0701 47.8618 30.1353 48.1199 30.1353 48.3457C30.1353 48.6683 29.9398 48.9909 29.5161 49.3135L27.4628 50.6683C27.1695 50.8618 26.8762 50.9586 26.6154 50.9586C26.2895 50.9586 25.9636 50.7973 25.6377 50.507C25.1814 50.0231 24.7903 49.507 24.4644 48.9909C24.1384 48.4425 23.8125 47.8296 23.454 47.0876C20.9119 50.0554 17.7179 51.5393 13.872 51.5393C11.1343 51.5393 8.95068 50.7651 7.35369 49.2167C5.75669 47.6683 4.94189 45.6038 4.94189 43.0231C4.94189 40.2812 5.91965 38.0554 7.90775 36.378C9.89584 34.7005 12.5358 33.8618 15.8927 33.8618C17.0008 33.8618 18.1416 33.9586 19.3475 34.1199C20.5534 34.2812 21.7918 34.5393 23.0955 34.8296V32.4747C23.0955 30.0231 22.574 28.3134 21.5637 27.3134C20.5208 26.3134 18.7608 25.8296 16.2512 25.8296C15.1105 25.8296 13.9372 25.9586 12.7313 26.2489C11.5254 26.5393 10.3521 26.8941 9.21142 27.3457C8.68995 27.5715 8.29885 27.7005 8.0707 27.7651C7.84256 27.8296 7.6796 27.8618 7.54924 27.8618C7.09295 27.8618 6.86481 27.5393 6.86481 26.8618V25.2812C6.86481 24.7651 6.92999 24.378 7.09295 24.1522C7.25591 23.9263 7.54924 23.7005 8.00552 23.4747C9.14623 22.8941 10.5151 22.4102 12.1121 22.0231C13.7091 21.6038 15.4039 21.4102 17.1964 21.4102C21.0748 21.4102 23.9103 22.2812 25.7354 24.0231C27.528 25.7651 28.4406 28.4102 28.4406 31.9586V42.4102H28.5057ZM15.2735 47.3134C16.349 47.3134 17.4571 47.1199 18.6304 46.7328C19.8037 46.3457 20.8467 45.636 21.7267 44.6683C22.2481 44.0554 22.6392 43.378 22.8348 42.6038C23.0303 41.8296 23.1607 40.8941 23.1607 39.7973V38.4425C22.2155 38.2167 21.2052 38.0231 20.1622 37.8941C19.1193 37.7651 18.109 37.7005 17.0986 37.7005C14.915 37.7005 13.318 38.1199 12.2425 38.9909C11.1669 39.8618 10.6455 41.0876 10.6455 42.7005C10.6455 44.2167 11.0366 45.3457 11.8513 46.1199C12.6336 46.9264 13.7743 47.3134 15.2735 47.3134ZM41.4447 50.7973C40.858 50.7973 40.4669 50.7005 40.2062 50.4747C39.9455 50.2812 39.7173 49.8296 39.5218 49.2167L31.8627 24.2812C31.6671 23.636 31.5694 23.2167 31.5694 22.9909C31.5694 22.4747 31.8301 22.1844 32.3516 22.1844H35.5456C36.1648 22.1844 36.5885 22.2812 36.8166 22.507C37.0774 22.7005 37.2729 23.1522 37.4685 23.7651L42.9439 45.1199L48.0282 23.7651C48.1912 23.1199 48.3867 22.7005 48.6475 22.507C48.9082 22.3134 49.3645 22.1844 49.9511 22.1844H52.5585C53.1777 22.1844 53.6014 22.2812 53.8621 22.507C54.1229 22.7005 54.351 23.1522 54.4814 23.7651L59.6309 45.378L65.2693 23.7651C65.4648 23.1199 65.6929 22.7005 65.9211 22.507C66.1818 22.3134 66.6055 22.1844 67.1922 22.1844H70.2232C70.7447 22.1844 71.038 22.4425 71.038 22.9909C71.038 23.1522 71.0054 23.3134 70.9728 23.507C70.9402 23.7005 70.875 23.9586 70.7447 24.3134L62.8901 49.2489C62.6945 49.8941 62.4664 50.3134 62.2056 50.507C61.9449 50.7005 61.5212 50.8296 60.9671 50.8296H58.1642C57.545 50.8296 57.1213 50.7328 56.8606 50.507C56.5998 50.2812 56.3717 49.8618 56.2413 49.2167L51.1896 28.4102L46.1705 49.1844C46.0075 49.8296 45.812 50.2489 45.5512 50.4747C45.2905 50.7005 44.8342 50.7973 44.2476 50.7973H41.4447ZM83.3251 51.6683C81.6303 51.6683 79.9356 51.4747 78.306 51.0876C76.6764 50.7005 75.4053 50.2812 74.5579 49.7973C74.0364 49.507 73.6779 49.1844 73.5476 48.8941C73.4172 48.6038 73.352 48.2812 73.352 47.9909V46.3457C73.352 45.6683 73.6128 45.3457 74.1016 45.3457C74.2972 45.3457 74.4927 45.378 74.6883 45.4425C74.8838 45.507 75.1772 45.636 75.5031 45.7651C76.6112 46.2489 77.8171 46.636 79.0882 46.8941C80.3918 47.1522 81.6629 47.2812 82.9666 47.2812C85.0199 47.2812 86.6169 46.9264 87.725 46.2167C88.8331 45.507 89.4198 44.4747 89.4198 43.1522C89.4198 42.2489 89.1264 41.507 88.5398 40.8941C87.9531 40.2812 86.845 39.7328 85.248 39.2167L80.5222 37.7651C78.143 37.0231 76.383 35.9264 75.3075 34.4747C74.232 33.0554 73.6779 31.4747 73.6779 29.7973C73.6779 28.4425 73.9713 27.2489 74.5579 26.2167C75.1446 25.1844 75.9268 24.2812 76.9045 23.5715C77.8823 22.8296 78.9904 22.2812 80.2941 21.8941C81.5977 21.507 82.9666 21.3457 84.4006 21.3457C85.1176 21.3457 85.8673 21.378 86.5843 21.4747C87.3339 21.5715 88.0183 21.7005 88.7027 21.8296C89.3546 21.9909 89.9738 22.1522 90.5605 22.3457C91.1471 22.5393 91.6034 22.7328 91.9293 22.9263C92.3856 23.1844 92.7115 23.4425 92.9071 23.7328C93.1026 23.9909 93.2004 24.3457 93.2004 24.7973V26.3134C93.2004 26.9909 92.9397 27.3457 92.4508 27.3457C92.1901 27.3457 91.7664 27.2167 91.2123 26.9586C89.3546 26.1199 87.2687 25.7005 84.9547 25.7005C83.097 25.7005 81.6303 25.9909 80.62 26.6038C79.6096 27.2167 79.0882 28.1522 79.0882 29.4747C79.0882 30.378 79.4141 31.1522 80.0659 31.7651C80.7178 32.378 81.9237 32.9909 83.651 33.5393L88.279 34.9909C90.6256 35.7328 92.3204 36.7651 93.3308 38.0876C94.3411 39.4102 94.83 40.9264 94.83 42.6038C94.83 43.9909 94.5367 45.2489 93.9826 46.3457C93.396 47.4425 92.6138 48.4102 91.6034 49.1844C90.5931 49.9909 89.3872 50.5715 87.9857 50.9909C86.5191 51.4425 84.9873 51.6683 83.3251 51.6683Z" fill="#252F3E"/>
<path fill-rule="evenodd" clip-rule="evenodd" d="M89.485 67.3464C78.7623 75.1851 63.1834 79.3464 49.7882 79.3464C31.0154 79.3464 14.1002 72.4755 1.32426 61.0561C0.31392 60.1529 1.22649 58.9271 2.43238 59.6368C16.2513 67.5722 33.2968 72.3787 50.9289 72.3787C62.8249 72.3787 75.8942 69.9271 87.9206 64.8948C89.7132 64.0884 91.245 66.0561 89.485 67.3464Z" fill="#FF9900"/>
<path fill-rule="evenodd" clip-rule="evenodd" d="M93.9502 62.3138C92.5814 60.5719 84.8897 61.4751 81.4024 61.8945C80.3595 62.0235 80.1965 61.1203 81.1417 60.4429C87.2689 56.1848 97.3398 57.4106 98.5131 58.83C99.6864 60.2816 98.1872 70.2493 92.451 75.0235C91.571 75.7654 90.7236 75.3784 91.1147 74.4106C92.4184 71.2171 95.3191 64.0235 93.9502 62.3138Z" fill="#FF9900"/>
</g>
<defs>
<clipPath id="clip0_4444_45415">
<rect width="100" height="58" fill="white" transform="translate(0 21.3457)"/>
</clipPath>
</defs>
</svg>
