<svg width="100" height="101" viewBox="0 0 100 101" fill="none" xmlns="http://www.w3.org/2000/svg">
<path d="M7.10691 55.8242C6.20905 55.8242 5.39282 55.0938 5.39282 54.2011C5.39282 53.3083 6.12743 52.5779 7.10691 52.5779C8.08639 52.5779 8.821 53.3083 8.821 54.2011C8.821 55.0938 8.00476 55.8242 7.10691 55.8242ZM28.1657 46.9779C28.0024 45.6793 27.1862 44.6242 26.1251 43.8126L25.717 43.488L25.3905 43.8938C24.7375 44.6242 24.4926 45.9228 24.5743 46.8967C24.6559 47.6271 24.9008 48.3576 25.3089 48.9257C24.9824 49.088 24.5743 49.2503 24.2478 49.4126C23.5132 49.6561 22.7786 49.7373 22.044 49.7373H0.903546L0.821923 50.2242C0.658677 51.7663 0.903546 53.3895 1.55653 54.8503L1.88302 55.4184V55.4996C3.84198 58.746 7.35178 60.2069 11.1881 60.2069C18.5342 60.2069 24.5743 57.0416 27.4311 50.2242C29.3084 50.3054 31.1858 49.8184 32.0836 48.0329L32.3285 47.6271L31.9204 47.3837C30.8593 46.7344 29.39 46.6532 28.1657 46.9779ZM17.6363 45.6793H14.453V48.8445H17.6363V45.6793ZM17.6363 41.7025H14.453V44.8677H17.6363V41.7025ZM17.6363 37.6445H14.453V40.8097H17.6363V37.6445ZM21.5542 45.6793H18.3709V48.8445H21.5542V45.6793ZM9.71885 45.6793H6.53555V48.8445H9.71885V45.6793ZM13.7184 45.6793H10.5351V48.8445H13.7184V45.6793ZM5.80094 45.6793H2.61763V48.8445H5.80094V45.6793ZM13.7184 41.7025H10.5351V44.8677H13.7184V41.7025ZM9.71885 41.7025H6.53555V44.8677H9.71885V41.7025Z" fill="#061D2F"/>
<mask id="mask0_4444_43981" style="mask-type:luminance" maskUnits="userSpaceOnUse" x="0" y="37" width="33" height="24">
<path d="M7.10691 55.8242C6.20905 55.8242 5.39282 55.0938 5.39282 54.2011C5.39282 53.3083 6.12743 52.5779 7.10691 52.5779C8.08639 52.5779 8.821 53.3083 8.821 54.2011C8.821 55.0938 8.00476 55.8242 7.10691 55.8242ZM28.1657 46.9779C28.0024 45.6793 27.1862 44.6242 26.1251 43.8126L25.717 43.488L25.3905 43.8938C24.7375 44.6242 24.4926 45.9228 24.5743 46.8967C24.6559 47.6271 24.9008 48.3576 25.3089 48.9257C24.9824 49.088 24.5743 49.2503 24.2478 49.4126C23.5132 49.6561 22.7786 49.7373 22.044 49.7373H0.903546L0.821923 50.2242C0.658677 51.7663 0.903546 53.3895 1.55653 54.8503L1.88302 55.4184V55.4996C3.84198 58.746 7.35178 60.2069 11.1881 60.2069C18.5342 60.2069 24.5743 57.0416 27.4311 50.2242C29.3084 50.3054 31.1858 49.8184 32.0836 48.0329L32.3285 47.6271L31.9204 47.3837C30.8593 46.7344 29.39 46.6532 28.1657 46.9779ZM17.6363 45.6793H14.453V48.8445H17.6363V45.6793ZM17.6363 41.7025H14.453V44.8677H17.6363V41.7025ZM17.6363 37.6445H14.453V40.8097H17.6363V37.6445ZM21.5542 45.6793H18.3709V48.8445H21.5542V45.6793ZM9.71885 45.6793H6.53555V48.8445H9.71885V45.6793ZM13.7184 45.6793H10.5351V48.8445H13.7184V45.6793ZM5.80094 45.6793H2.61763V48.8445H5.80094V45.6793ZM13.7184 41.7025H10.5351V44.8677H13.7184V41.7025ZM9.71885 41.7025H6.53555V44.8677H9.71885V41.7025Z" fill="white"/>
</mask>
<g mask="url(#mask0_4444_43981)">
<path d="M-39.8267 19.3027H1000.71V142.178H-39.8267V19.3027Z" fill="#061D2F"/>
</g>
<path d="M83.1798 53.8761C84.5674 52.6587 85.955 51.5225 87.3426 50.3051C87.8323 49.8993 88.322 49.4935 88.8118 49.0065C88.4037 48.5196 87.8323 48.1949 87.2609 47.9515C86.1998 47.5457 85.1387 47.708 84.0776 48.2761C82.7717 49.0065 82.2003 50.2239 82.2819 51.6848C82.2819 52.2529 82.4452 52.821 82.7717 53.308C83.0165 53.5515 83.0981 53.7138 83.1798 53.8761ZM84.8122 55.0123C85.4652 55.2558 86.2815 55.2558 87.0161 55.0935C87.3426 54.9312 88.322 54.5254 88.6485 54.6065H88.8118C89.0566 54.6877 89.2199 54.85 89.3015 55.0935C89.5464 55.5804 89.4648 56.0674 88.975 56.3109L88.8118 56.392C87.0161 57.4471 85.1387 57.2848 83.343 56.3109C82.5268 55.8239 81.8738 55.1746 81.3841 54.3631L81.3024 54.2007C80.1597 52.2529 80.323 50.1428 81.6289 48.2761C82.037 47.6268 82.69 47.1399 83.343 46.7341L83.5879 46.5717C85.302 45.5978 87.0977 45.679 88.8118 46.4906C89.7096 46.9775 90.5259 47.6268 91.0156 48.5196L91.0972 48.6819C91.5053 49.3312 91.0156 49.8993 90.4442 50.3051L88.7301 51.766C87.2609 52.9022 86.0366 53.9573 84.8122 55.0123ZM98.1168 46.0848H98.2801C98.8514 46.0848 99.2595 46.4906 99.2595 47.0587C99.2595 47.8703 98.5249 48.0326 97.8719 48.0326C97.0557 48.0326 96.2395 48.5196 95.6681 49.0877C94.9335 49.8181 94.607 50.7109 94.607 51.6848V56.2297C94.607 56.7167 94.2805 57.2036 93.7092 57.2036H93.5459C92.9746 57.2036 92.6481 56.7978 92.6481 56.2297V51.4413C92.6481 49.5746 93.5459 48.1138 95.0151 47.0587C96.0762 46.4094 97.0557 46.0848 98.1168 46.0848ZM74.7726 49.25L76.9764 47.0587C77.2213 46.8964 77.9559 46.0036 78.2824 46.0036H78.6089C79.017 46.0848 79.3435 46.3283 79.3435 46.8152V46.9775C79.3435 47.3022 78.9354 47.6268 78.7721 47.8703C78.364 48.3573 77.8743 48.7631 77.4661 49.25L75.1807 51.5225L78.1191 54.4442L78.9354 55.2558L79.2619 55.5804C79.3435 55.7428 79.4251 55.8239 79.4251 55.9862V56.2297C79.3435 56.6355 79.017 56.9602 78.6089 56.9602H78.4456C78.1191 56.9602 77.7926 56.6355 77.5478 56.392C77.1397 55.9862 76.6499 55.5804 76.2418 55.0935L74.7726 53.7138V55.9862C74.7726 56.4732 74.4461 56.9602 73.8747 56.9602H73.7115C73.1401 56.9602 72.8136 56.5544 72.8136 55.9862V43.4877C72.8136 43.0007 73.1401 42.5949 73.7115 42.5949H73.8747C74.4461 42.5949 74.7726 43.0007 74.7726 43.4877V49.25ZM68.7325 48.0326C68.4876 47.8703 67.9162 47.8703 67.5897 47.8703C66.0389 47.7891 64.8962 48.6819 64.2432 50.0616C63.9983 50.5486 63.9167 51.0355 63.9167 51.6036C63.9167 53.2268 64.7329 54.3631 66.2021 55.0123C66.6919 55.2558 67.4265 55.337 67.9979 55.337C68.4876 55.337 69.2222 55.0123 69.6303 54.85H70.0384C70.4466 54.9312 70.773 55.1746 70.773 55.6616V55.8239C70.773 56.9602 68.6508 57.2036 67.9162 57.2848C65.141 57.4471 63.0188 55.9051 62.2026 53.308C62.0394 52.821 62.0394 52.4152 62.0394 51.9283V51.5225C62.0394 49.4935 63.0188 47.8703 64.8146 46.8964C65.6308 46.4094 66.5286 46.166 67.5081 46.166H67.9162C68.8957 46.166 69.8752 46.4094 70.6914 46.9775L70.773 47.0587L70.8547 47.1399C70.9363 47.3022 71.0179 47.4645 71.0179 47.6268V47.7891C71.0179 48.2761 70.6914 48.5196 70.2017 48.6007H70.1201C69.5487 48.4384 68.8957 48.1138 68.7325 48.0326ZM51.5916 51.5225C51.5916 52.9022 52.3262 53.9573 53.4689 54.6877C54.0403 55.0123 54.6933 55.1746 55.3463 55.1746C56.7339 55.1746 57.795 54.4442 58.5296 53.308C58.8561 52.7399 59.0193 52.0906 59.0193 51.4413C59.0193 50.1428 58.3663 49.0877 57.3052 48.3573C56.7339 47.9515 55.9993 47.7891 55.3463 47.7891C53.7954 47.7891 52.6527 48.6007 51.9997 49.9804C51.5916 50.5486 51.5916 51.0355 51.5916 51.5225ZM55.0198 46.0036H55.2646C57.4685 46.0036 59.1009 47.0587 60.162 48.9254C60.5701 49.6558 60.815 50.4674 60.815 51.3602V51.766C60.815 53.7949 59.8355 55.4181 58.0398 56.392C57.2236 56.879 56.3257 57.1225 55.3463 57.1225H54.9381C52.8976 57.1225 51.2651 56.1486 50.2856 54.3631C49.7959 53.5515 49.551 52.6587 49.551 51.6848V51.279C49.551 49.25 50.5305 47.6268 52.3262 46.6529C53.2241 46.2471 54.0403 46.0036 55.0198 46.0036ZM39.1849 51.5225C39.1849 52.9833 39.9195 54.1196 41.2255 54.7688C41.7152 55.0123 42.2866 55.1746 42.9395 55.1746C44.4088 55.1746 45.4699 54.5254 46.2045 53.308C46.531 52.7399 46.6942 52.0906 46.6942 51.4413C46.6942 50.1428 46.1228 49.1688 45.0617 48.4384C44.4088 48.0326 43.7558 47.7891 42.9395 47.7891C41.3887 47.7891 40.246 48.6007 39.593 49.9804C39.3481 50.5486 39.1849 51.0355 39.1849 51.5225ZM46.6942 47.3833V43.4065C46.6942 42.9196 47.0207 42.4326 47.5921 42.4326H47.7553C48.3267 42.4326 48.6532 42.8384 48.6532 43.4065V51.766C48.6532 53.7949 47.6737 55.4181 45.878 56.392C45.0617 56.879 44.1639 57.1225 43.1844 57.1225H42.7763C40.7357 57.1225 39.1032 56.1486 38.1238 54.3631C37.634 53.5515 37.3892 52.6587 37.3892 51.6848V51.279C37.3892 49.25 38.3686 47.6268 40.1643 46.6529C40.9806 46.166 41.8784 45.9225 42.8579 45.9225H43.266C44.4904 46.0036 45.7147 46.4906 46.6942 47.3833Z" fill="#061D2F"/>
</svg>
