<svg width="100" height="101" viewBox="0 0 100 101" fill="none" xmlns="http://www.w3.org/2000/svg">
<g clip-path="url(#clip0_4444_15852)">
<g clip-path="url(#clip1_4444_15852)">
<path d="M99.8443 48.2624C99.9588 50.9744 99.6361 53.676 98.8867 56.2841C98.1478 58.8922 96.9821 61.3548 95.4417 63.5888C93.9114 65.8243 92.0272 67.7965 89.863 69.4284L89.8109 69.4699L69.0052 85.0353L58.7741 92.7764L52.5397 97.473C52.1754 97.7535 51.7695 97.9613 51.3428 98.1068C50.916 98.2523 50.4581 98.325 50.0001 98.325C49.5526 98.325 49.0946 98.2523 48.6679 98.1068C48.2412 97.9613 47.8353 97.7535 47.471 97.473L41.2365 92.7764L31.0054 85.0353L10.3246 69.5635L10.1997 69.4803L10.1581 69.4388C7.98282 67.8074 6.09897 65.8332 4.55857 63.5992C3.01818 61.3652 1.85248 58.8922 1.1031 56.2841C0.35372 53.676 0.0310706 50.964 0.145559 48.2521C0.270456 45.5401 0.822082 42.8697 1.79003 40.3343L1.92534 39.9706L15.5287 4.59019C15.598 4.41701 15.6813 4.25076 15.7785 4.09143C15.8687 3.93211 15.9762 3.78318 16.1011 3.64463C16.2191 3.49916 16.3474 3.36408 16.4862 3.23939C16.625 3.12163 16.7707 3.0108 16.9233 2.90689C17.246 2.70947 17.579 2.564 17.9433 2.48087C18.2972 2.38735 18.6719 2.34579 19.0362 2.36657C19.4109 2.38735 19.7751 2.46009 20.1186 2.59517C20.4621 2.71986 20.7951 2.90689 21.0866 3.13549C21.2253 3.25325 21.3606 3.37794 21.4925 3.50955C21.6174 3.6481 21.7284 3.79703 21.8255 3.95635C21.9296 4.10875 22.0198 4.27154 22.0961 4.44472C22.1725 4.61097 22.2349 4.78415 22.2835 4.96426L31.453 32.9881H68.5681L77.7376 4.96426C77.7862 4.78415 77.8521 4.61097 77.9353 4.44472C78.0117 4.27847 78.1019 4.11568 78.2059 3.95635C78.3031 3.80396 78.4141 3.65849 78.539 3.51994C78.6639 3.3814 78.7992 3.25325 78.9449 3.13549C79.2363 2.90689 79.559 2.73025 79.9025 2.59517C80.2563 2.47048 80.6206 2.39774 80.9849 2.37696C81.3596 2.35618 81.7239 2.38735 82.0882 2.48087C82.442 2.57439 82.7855 2.71986 83.0977 2.91728C83.2573 3.01426 83.4065 3.1251 83.5453 3.24979C83.6841 3.36755 83.8124 3.49916 83.9304 3.64463C84.0483 3.7901 84.1559 3.9425 84.253 4.10183C84.3432 4.26115 84.423 4.4274 84.4924 4.60058L98.0749 39.9914L98.2102 40.3551C99.1782 42.88 99.7298 45.5505 99.8443 48.2624Z" fill="#E24329"/>
<path d="M99.8546 48.2726C99.9691 50.9742 99.6464 53.6862 98.897 56.2943C98.1477 58.9024 96.9819 61.3753 95.4416 63.6094C93.9012 65.8434 92.0173 67.8176 89.8524 69.4489L89.8004 69.4905L68.9947 85.0558C68.9947 85.0558 60.1583 78.3954 50 70.7166L79.8191 48.1895C81.1617 47.1816 82.5668 46.2568 84.0135 45.4048C85.4602 44.5424 86.959 43.7734 88.489 43.0877C90.0294 42.4019 91.601 41.7888 93.1934 41.2797C94.7963 40.7601 96.4199 40.3341 98.0748 39.9912L98.2101 40.3549C99.1781 42.8902 99.7297 45.5606 99.8546 48.2726Z" fill="#FC6D26"/>
<path d="M49.9996 70.7168C60.1578 78.3748 69.0047 85.056 69.0047 85.056L58.7736 92.7971L52.5391 97.4937C52.1749 97.7743 51.7689 97.9821 51.3422 98.1276C50.9155 98.273 50.4575 98.3458 49.9996 98.3458C49.552 98.3458 49.0941 98.273 48.6673 98.1276C48.2406 97.9821 47.8347 97.7743 47.4704 97.4937L41.236 92.7971L31.0049 85.056C31.0049 85.056 39.8413 78.3748 49.9996 70.7168Z" fill="#FCA326"/>
<path d="M50.0001 70.6961C39.8315 78.3749 31.0054 85.0353 31.0054 85.0353L10.3246 69.5635L10.1997 69.4804L10.1581 69.4388C7.98282 67.8075 6.09897 65.8332 4.55857 63.5992C3.01818 61.3652 1.85248 58.8922 1.1031 56.2842C0.35372 53.6761 0.0310705 50.9641 0.145559 48.2521C0.270456 45.5401 0.822083 42.8697 1.79003 40.3344L1.92534 39.9707C3.58022 40.3136 5.20387 40.7396 6.80671 41.2592C8.39915 41.7787 9.97076 42.3814 11.5112 43.0775C13.0411 43.7633 14.5399 44.5426 15.9866 45.3947C17.4333 46.2467 18.828 47.1819 20.1811 48.1898L50.0001 70.6961Z" fill="#FC6D26"/>
</g>
</g>
<defs>
<clipPath id="clip0_4444_15852">
<rect width="100" height="100" fill="white" transform="translate(0 0.345703)"/>
</clipPath>
<clipPath id="clip1_4444_15852">
<rect width="100" height="96" fill="white" transform="translate(0 2.3457)"/>
</clipPath>
</defs>
</svg>
