<svg width="100" height="101" viewBox="0 0 100 101" fill="none" xmlns="http://www.w3.org/2000/svg">
<g clip-path="url(#clip0_4444_19624)">
<path d="M32.0643 97.7382C29.7416 97.7382 27.5482 96.6985 26.0643 94.8136L3.48418 66.5414C2.0002 64.6565 1.41973 62.2521 2.0002 59.9118L10.0646 24.6205C10.5807 22.2807 12.1291 20.3957 14.2584 19.3561L46.9033 3.62721C47.9357 3.10777 49.0971 2.84766 50.2584 2.84766C51.4197 2.84766 52.5807 3.10738 53.6131 3.62761L86.2584 19.2911C88.3873 20.3308 89.9357 22.2157 90.4518 24.5556L98.5162 59.8469C99.0326 62.1867 98.5162 64.5915 97.0326 66.4765L74.4518 94.7486C72.9678 96.5683 70.7744 97.6732 68.4518 97.6732L32.065 97.7382H32.0643Z" fill="#326DE6"/>
<path d="M50.1937 4.47283C51.0972 4.47283 52.0003 4.66762 52.839 5.0576L85.4843 20.7211C87.1617 21.566 88.4519 23.1259 88.839 24.9459L96.9035 60.2372C97.355 62.1222 96.9035 64.072 95.6777 65.5666L73.0972 93.8392C71.9359 95.3337 70.1292 96.1786 68.2585 96.1786H32.0648C30.1937 96.1786 28.3874 95.3337 27.2261 93.8392L4.64564 65.5666C3.48432 64.072 3.03236 62.1222 3.41986 60.2372L11.4843 24.9459C11.9359 23.061 13.1617 21.5011 14.839 20.7211L47.4847 4.99306C48.3234 4.66802 49.291 4.47323 50.1941 4.47323L50.1937 4.47283ZM50.1937 1.41797C48.839 1.41797 47.4843 1.74301 46.1937 2.32778L13.5488 18.0566C10.9679 19.2915 9.16166 21.566 8.51635 24.3607L0.451894 59.6525C-0.193028 62.4472 0.451894 65.3069 2.25853 67.5818L24.839 95.854C26.5812 98.0636 29.2261 99.2984 32.0003 99.2984H68.1937C70.9679 99.2984 73.6132 98.0636 75.355 95.854L97.9359 67.5814C99.7421 65.3718 100.387 62.4472 99.7421 59.6521L91.6777 24.3607C91.0328 21.566 89.2261 19.2915 86.6456 18.0566L54.1292 2.32738C52.9035 1.74301 51.5488 1.41797 50.1937 1.41797Z" fill="white"/>
<path d="M82.9026 57.4423C82.8382 57.4423 82.8382 57.4423 82.9026 57.4423H82.8382C82.7737 57.4423 82.7093 57.4423 82.7093 57.3774C82.5804 57.3774 82.4515 57.3125 82.3222 57.3125C81.8706 57.2475 81.4835 57.1826 81.0964 57.1826C80.9026 57.1826 80.7093 57.1826 80.4511 57.1173H80.3866C79.0319 56.9874 77.9351 56.8576 76.9026 56.5325C76.4511 56.3373 76.3222 56.0776 76.1929 55.8175C76.1929 55.7526 76.1284 55.7526 76.1284 55.6876L75.2897 55.4279C75.686 52.3705 75.533 49.2662 74.8382 46.2633C74.1337 43.2355 72.9112 40.3544 71.2253 37.7492L71.8706 37.1644V37.0346C71.8706 36.7095 71.9351 36.3845 72.1929 36.0594C72.9671 35.3444 73.9351 34.7597 75.0964 34.0446C75.2897 33.9148 75.4831 33.8498 75.6768 33.7196C76.064 33.5248 76.3866 33.33 76.7737 33.0699C76.8382 33.005 76.9671 32.94 77.0964 32.8102C77.1608 32.7449 77.2253 32.7449 77.2253 32.6799C78.1284 31.9 78.3222 30.6002 77.6769 29.7549C77.3542 29.3 76.7737 29.0403 76.1929 29.0403C75.6772 29.0403 75.2253 29.2351 74.7737 29.5601L74.6448 29.69C74.5159 29.7549 74.4511 29.8852 74.3222 29.9501C73.9995 30.2751 73.7413 30.5349 73.4835 30.8599C73.3546 30.9898 73.2257 31.185 73.0319 31.3148C72.1284 32.2899 71.2897 33.0699 70.4511 33.6547C70.2577 33.7845 70.0644 33.8498 69.8706 33.8498C69.7417 33.8498 69.6124 33.8498 69.4835 33.7845H69.3546L68.58 34.3048C67.7413 33.3949 66.8382 32.615 65.9351 31.835C62.0461 28.7727 57.3659 26.9003 52.4511 26.4403L52.3866 25.5955L52.2577 25.4656C52.064 25.2704 51.8062 25.0756 51.7413 24.6207C51.6769 23.5806 51.8062 22.4107 51.9351 21.1109V21.046C51.9351 20.8508 51.9995 20.5911 52.064 20.3959C52.1284 20.0063 52.1929 19.616 52.2577 19.1611V18.5763C52.2577 17.4064 51.3542 16.4316 50.2577 16.4316C49.7413 16.4316 49.2253 16.6914 48.8382 17.0813C48.4515 17.4713 48.2577 17.9911 48.2577 18.5763V19.0961C48.2577 19.551 48.3222 19.941 48.4511 20.331C48.5155 20.5262 48.5155 20.721 48.58 20.9811V21.046C48.7089 22.3458 48.9026 23.5157 48.7737 24.5558C48.7093 25.0107 48.4511 25.2055 48.2577 25.4007L48.1288 25.5305L48.064 26.3754C46.9026 26.5053 45.7413 26.6351 44.58 26.8952C39.6124 28.0002 35.2253 30.5353 31.8062 34.1745L31.1608 33.7196H31.0319C30.903 33.7196 30.7737 33.7845 30.6448 33.7845C30.4511 33.7845 30.2577 33.7196 30.064 33.5897C29.2253 33.005 28.3866 32.1597 27.4835 31.185C27.3546 31.0551 27.2257 30.8599 27.0319 30.7301C26.7737 30.405 26.5155 30.1449 26.1929 29.8202C26.1284 29.7549 25.9995 29.6904 25.8706 29.5601C25.8062 29.4952 25.7417 29.4952 25.7417 29.4303C25.342 29.0976 24.8406 28.9139 24.3222 28.91C23.7413 28.91 23.1608 29.1702 22.8382 29.6251C22.1929 30.4699 22.3866 31.7697 23.2897 32.5497C23.3542 32.5497 23.3542 32.615 23.4187 32.615C23.5476 32.6799 23.6124 32.8098 23.7413 32.8747C24.1284 33.1344 24.4511 33.3296 24.8382 33.5248C25.0319 33.5897 25.2253 33.7196 25.419 33.8498C26.58 34.5645 27.548 35.1496 28.3222 35.8646C28.6448 36.1893 28.6448 36.5143 28.6448 36.8394V36.9692L29.2897 37.5544C29.1608 37.7492 29.0319 37.8795 28.9671 38.0742C25.7413 43.2088 24.5155 49.2533 25.3542 55.2327L24.5155 55.4924C24.5155 55.5578 24.4511 55.5578 24.4511 55.6223C24.3222 55.8824 24.1284 56.1425 23.7413 56.3373C22.7737 56.6624 21.6124 56.7926 20.2577 56.9225H20.1929C19.9995 56.9225 19.7413 56.9225 19.548 56.9874C19.1608 56.9874 18.7737 57.0523 18.3222 57.1173C18.1933 57.1173 18.0644 57.1826 17.9351 57.1826C17.8706 57.1826 17.8062 57.1826 17.7413 57.2475C16.58 57.5073 15.8702 58.6122 16.064 59.6519C16.2577 60.5621 17.0964 61.1473 18.1284 61.1473C18.3222 61.1473 18.4511 61.1473 18.6448 61.082C18.7093 61.082 18.7737 61.0819 18.7737 61.017C18.9026 61.017 19.0315 60.9521 19.1605 60.9521C19.6124 60.8222 19.9351 60.6924 20.3222 60.4972C20.5155 60.4323 20.7089 60.302 20.9026 60.2375H20.9671C22.1929 59.7822 23.2897 59.3922 24.3222 59.2623H24.4511C24.8382 59.2623 25.0964 59.4571 25.2897 59.5874C25.3542 59.5874 25.3542 59.6523 25.4187 59.6523L26.3222 59.5224C27.8706 64.3316 30.8382 68.6213 34.7737 71.7411C35.6769 72.4557 36.58 73.0409 37.548 73.6261L37.1608 74.4706C37.1608 74.5359 37.2253 74.5359 37.2253 74.6004C37.3542 74.8605 37.4831 75.1856 37.3542 75.6405C36.9675 76.6156 36.3866 77.5903 35.6769 78.6953V78.7603C35.548 78.9555 35.419 79.0853 35.2901 79.2801C35.0319 79.6051 34.8382 79.9302 34.58 80.3202C34.5155 80.3851 34.4511 80.515 34.3866 80.6452C34.3866 80.7101 34.3222 80.7751 34.3222 80.7751C33.8062 81.8801 34.1933 83.1149 35.1608 83.5698C35.4187 83.6997 35.6769 83.765 35.9351 83.765C36.7093 83.765 37.4835 83.2448 37.8706 82.5298C37.8706 82.4648 37.9351 82.3999 37.9351 82.3999C37.9995 82.27 38.064 82.1402 38.1284 82.0749C38.3222 81.62 38.3866 81.2949 38.5155 80.9049L38.7093 80.3202C39.1608 79.0204 39.4835 77.9803 40.064 77.0705C40.3218 76.6805 40.6448 76.6156 40.9026 76.4854C40.9671 76.4854 40.9671 76.4854 41.0315 76.4204L41.4835 75.5755C44.3222 76.6805 47.419 77.2653 50.5155 77.2653C52.3866 77.2653 54.3222 77.0705 56.1288 76.6156C57.2657 76.3595 58.386 76.0339 59.4835 75.6405L59.8702 76.3555C59.9351 76.3555 59.9351 76.3555 59.9995 76.4204C60.3222 76.4854 60.58 76.6156 60.8382 77.0056C61.3542 77.9154 61.7413 79.0204 62.1929 80.2552V80.3202L62.3866 80.9049C62.5155 81.2949 62.58 81.6849 62.7733 82.0749C62.8382 82.2047 62.9026 82.27 62.9671 82.3999C62.9671 82.4648 63.0319 82.5298 63.0319 82.5298C63.4187 83.3097 64.1929 83.765 64.9671 83.765C65.2253 83.765 65.4835 83.6997 65.7413 83.5698C66.1929 83.3101 66.58 82.9197 66.7093 82.3999C66.8382 81.8801 66.8382 81.2949 66.5804 80.7751C66.5804 80.7101 66.5155 80.7101 66.5155 80.6452C66.4511 80.5154 66.3866 80.3855 66.3222 80.3202C66.1284 79.9302 65.8706 79.6051 65.6124 79.2801C65.4835 79.0853 65.3546 78.9554 65.2257 78.7607V78.6953C64.5155 77.5903 63.8702 76.6156 63.548 75.6405C63.419 75.1856 63.548 74.9258 63.6124 74.6008C63.6124 74.5359 63.6769 74.5359 63.6769 74.471L63.3542 73.691C66.7737 71.6762 69.6769 68.8161 71.8706 65.3067C73.0319 63.4867 73.9351 61.4719 74.58 59.4571L75.3542 59.587C75.419 59.587 75.419 59.5221 75.4831 59.5221C75.7413 59.3922 75.9351 59.1974 76.3222 59.1974H76.4511C77.4835 59.3273 78.58 59.7168 79.8061 60.1721H79.8706C80.064 60.2371 80.2573 60.3669 80.4511 60.4319C80.8382 60.627 81.1608 60.7569 81.6124 60.8872C81.7413 60.8872 81.8702 60.9521 81.9995 60.9521C82.064 60.9521 82.1284 60.9521 82.1929 61.017C82.3866 61.0819 82.5155 61.082 82.7093 61.082C83.6768 61.082 84.5155 60.4323 84.7737 59.5874C84.7737 58.8074 84.064 57.7674 82.9026 57.4427V57.4423ZM53.0315 54.2576L50.1929 55.6227L47.3542 54.2576L46.6448 51.2031L48.58 48.7334H51.7413L53.6769 51.2031L53.0319 54.2576H53.0315ZM69.8706 47.4986C70.3711 49.6477 70.5236 51.8642 70.3222 54.0624L60.4511 51.2031C59.5479 50.9434 59.0319 50.0332 59.2253 49.1234C59.2897 48.8633 59.419 48.6032 59.6124 48.4084L67.419 41.3239C68.5155 43.1439 69.3542 45.224 69.8706 47.4986ZM64.3222 37.4245L55.8706 43.469C55.1608 43.9239 54.1929 43.7936 53.6124 43.079C53.419 42.8838 53.3546 42.6237 53.2897 42.364L52.7093 31.7697C57.1031 32.2794 61.1962 34.2725 64.3222 37.4245ZM45.6124 32.0944C46.3222 31.9645 46.9671 31.8346 47.6769 31.7048L47.0964 42.1035C47.0319 43.0133 46.3222 43.7932 45.3542 43.7932C45.0964 43.7932 44.7737 43.7283 44.58 43.5984L35.9995 37.4245C38.6448 34.7597 41.9351 32.9393 45.6124 32.0944ZM32.9026 41.3235L40.58 48.2128C41.2897 48.798 41.3542 49.9025 40.7737 50.6176C40.58 50.8773 40.3222 51.0725 39.9995 51.1378L29.9995 54.0624C29.6124 49.6428 30.58 45.1583 32.9026 41.3235ZM31.1605 58.9369L41.419 57.1818C42.2577 57.1169 43.0319 57.702 43.2253 58.5469C43.2897 58.9365 43.2897 59.2619 43.1608 59.587L39.2253 69.1408C35.6124 66.8009 32.7089 63.2262 31.1605 58.9369ZM54.7093 71.8706C53.2253 72.1956 51.7413 72.3904 50.1929 72.3904C47.9351 72.3904 45.7413 72.0008 43.6772 71.3508L48.7737 62.0567C49.2897 61.4715 50.1284 61.2118 50.8382 61.6018C51.1394 61.7877 51.4023 62.0303 51.6124 62.3164L56.58 71.3508C55.9995 71.5455 55.3542 71.6758 54.7089 71.8706H54.7093ZM67.2897 62.8366C65.6769 65.4362 63.5476 67.5159 61.0964 69.1408L57.0319 59.3265C56.8382 58.5469 57.1608 57.702 57.9351 57.3117C58.1929 57.1818 58.5155 57.1169 58.8382 57.1169L69.1608 58.872C68.7737 60.3016 68.1284 61.6018 67.2897 62.8366Z" fill="white"/>
</g>
<defs>
<clipPath id="clip0_4444_19624">
<rect width="100" height="98" fill="white" transform="translate(0 1.3457)"/>
</clipPath>
</defs>
</svg>
