<svg width="188" height="70" viewBox="0 0 188 70" fill="none" xmlns="http://www.w3.org/2000/svg">
<path d="M55.0757 1.81818H94.3055L97.6227 2.11337L100.94 2.70375L103.969 3.49092L106.276 4.27809L107.863 4.86846L109.882 5.85242L111.901 6.93478L113.92 8.21393L114.93 9.0011L116.661 10.477L117.959 11.8546L119.257 13.3305L120.411 15.2L121.42 17.2664L122.141 19.7263L122.43 21.6942V23.9573L122.141 26.0236L121.42 28.2867L120.555 30.2546L119.401 32.0258L117.814 34.0921L115.94 35.8632L114.065 37.3392L112.334 38.5199L110.747 39.4055L109.017 40.291L106.132 41.4718L103.392 42.3574L100.94 42.9477L98.3438 43.4397L96.0362 43.7349L92.5747 43.9317H55.22L55.0757 43.8333L54.9315 42.259V11.461L55.0757 11.1658H93.1516L95.892 11.461L98.7765 12.1498L101.084 13.0353L102.959 14.0193L104.401 14.9049L105.699 16.0856L106.565 16.9712L107.719 18.5455L108.44 20.2182L108.872 22.383V23.4653L108.584 25.0397L108.007 26.614L106.997 28.1883L105.844 29.5659L103.969 31.1402L102.526 32.0258L100.363 33.0097L98.3438 33.6985L96.1804 34.1905L93.8728 34.4857H68.7773V19.7263H75.556L75.7002 19.8247V29.8611L87.671 29.7627L93.5843 29.6643L95.6035 29.2707L97.6227 28.5819L99.2092 27.6964L100.651 26.3188L101.373 25.2364L101.805 24.0557L101.949 22.383L101.517 20.8086L100.507 19.2343L99.4976 18.3487L98.9207 17.8567L97.19 16.9712L95.1708 16.2824L93.5843 15.9872L61.8544 15.8888V39.2087L93.7286 39.1103L95.892 38.9135L98.3438 38.5199L101.517 37.7327L104.401 36.6504L106.421 35.6664L108.151 34.5841L109.882 33.4033L111.324 32.1242L112.911 30.2546L113.632 29.1723L114.641 27.106L115.074 25.8268L115.363 24.2525V21.399L114.786 18.9391L114.065 17.3648L113.055 15.692L111.613 13.9209L109.882 12.3466L108.295 11.1658L106.709 10.1818L104.546 9.09949L101.373 7.91874L98.1996 7.13157L94.5939 6.63959L92.4305 6.5412H55.7969L55.0757 6.4428L54.9315 5.75403V2.11337L55.0757 1.81818Z" fill="#60AAF6"/>
<path d="M55.7434 62.3711H57.9068L60.2144 66.4054L60.9356 67.6845L61.224 67.4877L63.5317 63.3551L64.1086 62.3711H66.272L66.7047 65.7166L67.1373 69.6524L66.9931 69.7508H65.6951L65.5508 69.6524L65.1182 66.5038L64.8297 64.339L64.6855 64.1423L62.5221 68.0781L61.6567 69.554L61.224 69.8492L60.6471 69.7508L59.7818 68.5701L57.4741 64.339L57.3299 64.1423L57.0415 65.6182L56.6088 69.1605L56.4645 69.7508H54.8781L55.5992 63.2567L55.7434 62.3711Z" fill="#60AAF6"/>
<path d="M99.8768 62.3711H101.608L102.761 63.4535L105.934 66.7006L107.088 67.9797H107.232V64.0439L107.377 62.3711H108.819V69.7508H107.232L106.511 69.1605L102.329 64.831L101.608 64.1423L101.463 69.7508H99.8768V62.3711Z" fill="#60AAF6"/>
<path d="M129.155 62.2727H131.463L133.049 62.6663L134.203 63.2567L135.212 64.2407L135.645 65.1262V66.9957L135.068 68.0781L133.914 69.0621L132.472 69.6524L131.318 69.8492H129.011L127.424 69.4556L126.126 68.7669L125.261 67.7829L124.828 66.8974V65.1262L125.405 64.1423L125.982 63.5519L126.703 63.0599L128.001 62.4695L129.155 62.2727ZM129.299 63.2567L128.145 63.5519L127.136 64.1423L126.559 64.9294L126.415 65.2246V66.8974L126.991 67.7829L127.713 68.3733L128.722 68.7669L129.299 68.8653H131.174L132.328 68.5701L133.482 67.8813L134.059 67.0941V65.2246L133.482 64.2407L132.328 63.5519L131.318 63.2567H129.299Z" fill="#60AAF6"/>
<path d="M1.36987 62.3711H6.12936L7.71586 62.7647L8.86967 63.4535L9.59081 64.2406L10.0235 65.1262V66.7989L9.59081 67.8813L8.72545 68.8653L7.4274 69.4556L5.98513 69.7508H1.36987V62.3711ZM3.1006 63.2567L2.81214 63.4535L2.95637 68.8653H5.11977L6.56204 68.6685L7.57163 68.1765L8.29277 67.1925L8.43699 66.7006V65.4214L8.00431 64.4374L6.99472 63.6503L6.12936 63.3551L5.40823 63.2567H3.1006Z" fill="#60AAF6"/>
<path d="M15.2156 62.3711H16.8021V65.6182H22.1385V62.3711H23.5808L23.725 62.4695V69.6524L23.5808 69.7508H22.1385V66.5038H16.8021V69.7508H15.2156V62.3711Z" fill="#60AAF6"/>
<path d="M42.9072 62.3711H47.5225L48.8205 62.7647L49.6859 63.6503L49.8301 63.9455V65.0278L49.3974 65.6182L48.6763 66.1102L48.0994 66.307H47.5225L48.9648 67.9797L50.407 69.4556V69.7508H48.6763L46.5129 67.1925L45.936 66.5038H44.4937L44.3495 69.7508H42.9072L42.763 65.0278V62.4695L42.9072 62.3711ZM44.4937 63.2567L44.3495 63.3551V65.6182H47.0898L47.9552 65.323L48.3878 64.7326L48.2436 63.8471L47.3783 63.3551L46.9456 63.2567H44.4937Z" fill="#60AAF6"/>
<path d="M176.894 62.3711H178.336V65.6182L183.673 65.5198L183.817 62.3711H185.259V69.7508H183.817V66.5038H178.336V69.7508H176.75V62.4695L176.894 62.3711Z" fill="#60AAF6"/>
<path d="M75.3583 62.3711H77.2332L78.8197 65.2246L80.5504 68.4717L81.1273 69.4556V69.7508H79.5408L78.8197 68.2749L78.6755 68.1765L73.7718 68.0781L73.3391 69.1605L72.9064 69.7508H71.3199L72.4737 67.4877L74.6371 63.4535L75.3583 62.3711ZM76.0794 63.5519L74.7814 66.1102L74.3487 67.0941H78.2428L76.5121 63.7487L76.3679 63.5519H76.0794Z" fill="#60AAF6"/>
<path d="M32.2344 62.3711H34.2536L35.8401 65.2246L37.8593 68.9637L38.1477 69.4556V69.7508H36.7055L36.2728 69.2588L35.6959 68.1765L32.6671 68.0781H30.9364L30.5037 68.8653L29.9268 69.7508H28.3403L29.6383 67.1925L31.6575 63.4535L32.2344 62.3711ZM33.0998 63.5519L31.5133 66.6022L31.3691 67.0941L34.8305 67.1925L35.119 67.0941L34.8305 66.2086L33.3882 63.5519H33.0998Z" fill="#60AAF6"/>
<path d="M165.933 62.2727H168.24L169.827 62.6663L170.981 63.2567L171.846 64.0439V64.3391L170.548 64.6342L169.394 63.7487L167.952 63.3551H166.077L164.779 63.7487L163.769 64.5358L163.337 65.5198V66.7006L163.769 67.5861L164.779 68.3733L166.077 68.7669H167.952L169.394 68.3733L170.26 67.6845L170.404 67.4877L171.846 67.7829L171.702 68.2749L170.548 69.1605L169.25 69.6524L168.096 69.8492H165.789L164.202 69.4556L162.76 68.5701L162.039 67.6845L161.606 66.7006V65.5198L162.039 64.3391L163.048 63.3551L164.058 62.7647L165.212 62.3711L165.933 62.2727Z" fill="#60AAF6"/>
<path d="M151.222 62.3711H157.279V63.2567H152.952V65.5198L156.702 65.6182V66.5038L152.952 66.7006V68.8653H157.279V69.6524L157.135 69.7508H151.366L151.222 69.6524V62.3711Z" fill="#60AAF6"/>
<path d="M114.732 62.3711H120.79L120.646 63.2567H116.319V65.6182H120.213V66.4054L120.069 66.5038L116.319 66.6022V69.6524L116.174 69.7508H114.732V62.3711Z" fill="#60AAF6"/>
<path d="M139.683 62.3711H146.606V63.2567L144.01 63.3551L143.866 69.7508H142.424L142.28 63.3551L139.539 63.2567V62.4695L139.683 62.3711Z" fill="#60AAF6"/>
<path d="M92.5213 62.3711H94.1078V69.7508H92.5213V62.3711Z" fill="#60AAF6"/>
</svg>
