<svg width="41" height="41" viewBox="0 0 41 41" fill="none" xmlns="http://www.w3.org/2000/svg">
<path d="M33.4112 2.51318H7.2294C4.51819 2.51318 2.32031 4.71106 2.32031 7.42227V33.6041C2.32031 36.3153 4.51819 38.5132 7.2294 38.5132H33.4112C36.1224 38.5132 38.3203 36.3153 38.3203 33.6041V7.42227C38.3203 4.71106 36.1224 2.51318 33.4112 2.51318Z" fill="#1D70FA"/>
<path d="M24.0612 13.686H30.3271V15.2451H24.0612V13.686ZM32.8203 22.4473C32.8203 19.1928 30.2999 16.5541 27.193 16.5541C24.0862 16.5541 21.5658 19.1928 21.5658 22.4473C21.5658 25.7019 23.9044 28.3382 27.193 28.3382C29.693 28.3382 31.8294 27.2382 32.5544 24.5973H29.9158C29.6735 25.0494 29.3129 25.4272 28.8726 25.6902C28.4322 25.9532 27.9287 26.0916 27.4158 26.0905C25.9408 26.0905 24.643 25.0337 24.7203 23.2564H32.7771C32.8203 22.9973 32.8203 22.7291 32.8203 22.4473ZM24.7294 21.2905C24.9249 19.8269 25.959 18.8928 27.2067 18.8928C28.4544 18.8928 29.4794 19.8269 29.6839 21.2905H24.7294ZM20.6021 22.6951C20.3976 20.436 17.843 19.6746 17.843 19.6746C18.8135 19.2201 19.9703 18.2905 19.959 16.2428C19.9408 13.2882 16.8589 12.6882 15.868 12.6882H7.82031V28.0564H15.1317C16.1476 28.0564 17.2294 27.9223 18.0862 27.4951C20.3976 26.3587 20.8021 24.9564 20.6021 22.6951ZM11.2021 15.3405H14.6612C14.6612 15.3405 16.7067 15.2928 16.7067 17.1019C16.7067 18.911 14.6612 18.861 14.6612 18.861H11.2021V15.3405ZM14.8658 25.4473H11.2021V21.2451H14.8658C14.8658 21.2451 17.3021 21.1882 17.3021 23.3451C17.3021 25.5019 14.8658 25.4473 14.8658 25.4473Z" fill="white"/>
</svg>
