<svg width="41" height="41" viewBox="0 0 41 41" fill="none" xmlns="http://www.w3.org/2000/svg">
<path fill-rule="evenodd" clip-rule="evenodd" d="M29.3203 38.5132H11.3203C8.93336 38.5132 6.64418 37.565 4.95635 35.8771C3.26852 34.1893 2.32031 31.9001 2.32031 29.5132V11.5132C2.32031 9.12623 3.26852 6.83705 4.95635 5.14922C6.64418 3.4614 8.93336 2.51318 11.3203 2.51318L29.3203 2.51318C31.7073 2.51318 33.9964 3.4614 35.6843 5.14922C37.3721 6.83705 38.3203 9.12623 38.3203 11.5132V29.5132C38.3203 31.9001 37.3721 34.1893 35.6843 35.8771C33.9964 37.565 31.7073 38.5132 29.3203 38.5132Z" fill="#E4237D"/>
<path fill-rule="evenodd" clip-rule="evenodd" d="M19.1953 12.6382H29.3203C30.6192 12.6398 31.8691 12.1421 32.8113 11.2481C33.7535 10.354 34.3161 9.13196 34.3825 7.83476C34.449 6.53756 34.0143 5.26443 33.1684 4.27874C32.3225 3.29305 31.1301 2.67021 29.8378 2.53906C29.6657 2.5295 29.4952 2.51318 29.3203 2.51318H11.3203C8.93336 2.51318 6.64418 3.4614 4.95635 5.14922C3.26852 6.83705 2.32031 9.12623 2.32031 11.5132L2.32031 29.5132C2.32031 25.0377 4.09821 20.7454 7.26289 17.5808C10.4276 14.4161 14.7198 12.6382 19.1953 12.6382Z" fill="#FF4696"/>
<path fill-rule="evenodd" clip-rule="evenodd" d="M29.3203 20.5132C27.5403 20.5132 25.8002 21.041 24.3202 22.03C22.8401 23.0189 21.6866 24.4245 21.0054 26.069C20.3242 27.7136 20.146 29.5232 20.4932 31.269C20.8405 33.0148 21.6977 34.6185 22.9564 35.8771C24.215 37.1358 25.8187 37.993 27.5645 38.3403C29.3103 38.6875 31.1199 38.5093 32.7645 37.8281C34.409 37.1469 35.8146 35.9934 36.8035 34.5133C37.7925 33.0333 38.3203 31.2932 38.3203 29.5132V11.5132C38.3203 13.9001 37.3721 16.1893 35.6843 17.8771C33.9965 19.565 31.7073 20.5132 29.3203 20.5132Z" fill="#C80064"/>
<path d="M20.3203 8.41943C17.9284 8.41943 15.5902 9.12872 13.6014 10.4576C11.6126 11.7865 10.0625 13.6753 9.14715 15.8851C8.2318 18.0949 7.99231 20.5266 8.45895 22.8726C8.92559 25.2185 10.0774 27.3734 11.7687 29.0648C13.4601 30.7561 15.615 31.9079 17.9609 32.3746C20.3069 32.8412 22.7386 32.6017 24.9484 31.6863C27.1582 30.771 29.047 29.2209 30.3759 27.2321C31.7048 25.2433 32.4141 22.9051 32.4141 20.5132C32.4105 17.3068 31.1352 14.2328 28.8679 11.9656C26.6007 9.69831 23.5267 8.42301 20.3203 8.41943ZM18.9405 10.8151C19.3979 10.7539 19.8589 10.7234 20.3203 10.724C22.5123 10.7238 24.641 11.4586 26.3661 12.8109C26.4002 12.838 26.4284 12.8718 26.449 12.9102C26.4696 12.9487 26.4822 12.9909 26.4859 13.0343C26.4897 13.0777 26.4845 13.1215 26.4708 13.1629C26.457 13.2042 26.435 13.2424 26.406 13.2749C25.2049 14.5422 23.738 15.5277 22.1108 16.1606C22.0378 16.19 21.9567 16.1919 21.8825 16.1659C21.8083 16.1399 21.7461 16.0878 21.7074 16.0194C20.7939 14.4018 19.7997 12.8312 18.7284 11.3135C18.697 11.2692 18.6774 11.2176 18.6716 11.1636C18.6657 11.1096 18.6738 11.055 18.6951 11.005C18.7164 10.955 18.7501 10.9113 18.793 10.8781C18.836 10.8448 18.8868 10.8232 18.9405 10.8151ZM10.9086 17.7507C11.2808 16.5056 11.8947 15.3461 12.7152 14.3383C13.5357 13.3305 14.5467 12.4942 15.6904 11.8771C15.759 11.8399 15.8388 11.8292 15.9148 11.8469C15.9908 11.8647 16.0576 11.9096 16.1027 11.9733C17.1759 13.4956 18.1852 15.0621 19.1278 16.6685C19.1528 16.7119 19.1674 16.7605 19.1704 16.8105C19.1734 16.8605 19.1647 16.9106 19.1451 16.9566C19.1254 17.0027 19.0954 17.0436 19.0572 17.0761C19.0191 17.1086 18.9739 17.1318 18.9253 17.1438C16.3988 17.7402 13.8184 18.0798 11.2236 18.1574C11.1735 18.1588 11.1238 18.1483 11.0785 18.1268C11.0333 18.1053 10.9937 18.0735 10.963 18.0339C10.9323 17.9943 10.9114 17.948 10.902 17.8988C10.8925 17.8496 10.8948 17.7989 10.9086 17.7507ZM12.5038 26.4588C11.2735 24.8337 10.5773 22.8671 10.5109 20.8299C10.5098 20.7873 10.5172 20.745 10.5326 20.7053C10.5481 20.6656 10.5712 20.6293 10.6007 20.5986C10.6302 20.5679 10.6655 20.5434 10.7045 20.5264C10.7435 20.5094 10.7856 20.5003 10.8281 20.4997C13.9915 20.453 17.1369 20.0137 20.1921 19.1919C20.2628 19.1709 20.3386 19.1754 20.4064 19.2046C20.4741 19.2338 20.5294 19.2858 20.5628 19.3516C20.6618 19.5513 20.7624 19.7617 20.8676 19.9878C20.8866 20.0286 20.8968 20.0729 20.8975 20.1179C20.8982 20.1629 20.8895 20.2076 20.8718 20.2489C20.8541 20.2903 20.828 20.3275 20.795 20.3581C20.762 20.3887 20.7229 20.412 20.6803 20.4266C17.5544 21.5686 14.871 23.6723 13.0157 26.4352C12.9884 26.4771 12.9515 26.512 12.908 26.5368C12.8646 26.5617 12.8158 26.5759 12.7658 26.5782C12.7158 26.5805 12.666 26.5709 12.6204 26.5501C12.5748 26.5294 12.5349 26.4981 12.5038 26.4588ZM23.6981 29.7269C22.2211 30.2696 20.635 30.4483 19.0743 30.2479C17.5135 30.0476 16.024 29.4741 14.7319 28.5761C14.6655 28.5289 14.6195 28.4584 14.603 28.3786C14.5865 28.2989 14.6008 28.2159 14.643 28.1463C16.3159 25.5954 18.7731 23.6578 21.6439 22.6259C21.7249 22.596 21.8145 22.5992 21.8932 22.6349C21.9719 22.6706 22.0333 22.7359 22.0641 22.8166C22.8503 24.9459 23.4643 27.1349 23.9001 29.3624C23.9147 29.4372 23.9024 29.5148 23.8655 29.5815C23.8285 29.6481 23.7693 29.6996 23.6981 29.7269ZM29.8839 22.6259C29.4178 24.7644 28.2449 26.6835 26.5545 28.0737C26.512 28.1078 26.4614 28.1304 26.4076 28.1393C26.3538 28.1481 26.2987 28.143 26.2475 28.1245C26.1962 28.1059 26.1506 28.0744 26.1151 28.0331C26.0795 27.9918 26.0551 27.9421 26.0443 27.8887C25.6482 25.9958 25.1321 24.1299 24.4991 22.3025C24.4831 22.2569 24.4775 22.2083 24.4829 22.1603C24.4882 22.1123 24.5042 22.0661 24.5299 22.0252C24.5555 21.9842 24.59 21.9495 24.6308 21.9237C24.6716 21.8979 24.7178 21.8817 24.7658 21.8761C26.4028 21.7311 28.0527 21.8569 29.6488 22.2485C29.7293 22.2687 29.7988 22.3193 29.8426 22.3897C29.8865 22.4601 29.9013 22.5448 29.8839 22.6259ZM29.7135 20.0142C27.7573 19.6849 25.7674 19.6042 23.7909 19.7741C23.7238 19.7813 23.656 19.7664 23.5982 19.7316C23.5403 19.6967 23.4954 19.6439 23.4703 19.5811C23.3275 19.2361 23.1769 18.8944 23.0186 18.5562C23.0011 18.5176 22.9914 18.476 22.9901 18.4336C22.9888 18.3912 22.996 18.349 23.0111 18.3094C23.0262 18.2698 23.049 18.2336 23.0782 18.2029C23.1074 18.1722 23.1424 18.1475 23.1812 18.1304C24.9406 17.3682 26.5314 16.2645 27.8612 14.8831C27.8933 14.8484 27.9327 14.8212 27.9766 14.8037C28.0205 14.7862 28.0678 14.7786 28.1149 14.7817C28.1621 14.7848 28.208 14.7984 28.2493 14.8215C28.2905 14.8446 28.3261 14.8766 28.3534 14.9152C29.3367 16.3242 29.9336 17.9663 30.0848 19.6779C30.0883 19.726 30.0808 19.7744 30.0628 19.8192C30.0449 19.864 30.017 19.9042 29.9812 19.9366C29.9454 19.969 29.9027 19.9929 29.8563 20.0063C29.8099 20.0198 29.7611 20.0225 29.7135 20.0142Z" fill="white"/>
</svg>
