<svg width="40" height="41" viewBox="0 0 40 41" fill="none" xmlns="http://www.w3.org/2000/svg">
<g clip-path="url(#clip0_4146_17292)">
<path d="M33.5 2.63867H6.5C4.01825 2.63867 2 4.65692 2 7.13867V34.1387C2 36.6204 4.01825 38.6387 6.5 38.6387H33.5C35.9818 38.6387 38 36.6204 38 34.1387V7.13867C38 4.65692 35.9818 2.63867 33.5 2.63867Z" fill="#1976D2"/>
<path d="M32.375 20.6387H26.75V16.1387C26.75 14.8967 27.758 15.0137 29 15.0137H31.25V9.38867H26.75C23.0217 9.38867 20 12.4104 20 16.1387V20.6387H15.5V26.2637H20V38.6387H26.75V26.2637H30.125L32.375 20.6387Z" fill="#FAFAFA"/>
</g>
<defs>
<clipPath id="clip0_4146_17292">
<rect width="36" height="36" fill="white" transform="translate(2 2.63867)"/>
</clipPath>
</defs>
</svg>
