<svg width="40" height="41" viewBox="0 0 40 41" fill="none" xmlns="http://www.w3.org/2000/svg">
<g clip-path="url(#clip0_4146_17297)">
<path d="M4.25005 5.08812C1.42105 8.02662 2.00005 11.1481 2.00005 20.6311C2.00005 28.5061 0.626055 36.4006 7.81705 38.2591C10.0626 38.8366 29.9586 38.8366 32.2011 38.2561C35.1951 37.4836 37.6311 35.0551 37.9641 30.8206C38.0106 30.2296 38.0106 11.0431 37.9626 10.4401C37.6086 5.92962 34.8321 3.33012 31.1736 2.80362C30.3351 2.68212 30.1671 2.64612 25.8651 2.63862C10.6056 2.64612 7.26055 1.96662 4.25005 5.08812Z" fill="url(#paint0_linear_4146_17297)"/>
<path d="M19.9972 7.34681C14.5507 7.34681 9.37871 6.86231 7.40321 11.9323C6.58721 14.0263 6.70571 16.7458 6.70571 20.6398C6.70571 24.0568 6.59621 27.2683 7.40321 29.3458C9.37421 34.4188 14.5882 33.9328 19.9942 33.9328C25.2097 33.9328 30.5872 34.4758 32.5867 29.3458C33.4042 27.2308 33.2842 24.5518 33.2842 20.6398C33.2842 15.4468 33.5707 12.0943 31.0522 9.57731C28.5022 7.02731 25.0537 7.34681 19.9912 7.34681H19.9972ZM18.8062 9.74231C30.1672 9.72431 31.6132 8.46131 30.8152 26.0068C30.5317 32.2123 25.8067 31.5313 19.9987 31.5313C9.40871 31.5313 9.10421 31.2283 9.10421 20.6338C9.10421 9.91631 9.94421 9.74831 18.8062 9.73931V9.74231ZM27.0922 11.9488C26.6693 11.9488 26.2638 12.1168 25.9647 12.4158C25.6657 12.7149 25.4977 13.1204 25.4977 13.5433C25.4977 13.9662 25.6657 14.3718 25.9647 14.6708C26.2638 14.9698 26.6693 15.1378 27.0922 15.1378C27.5151 15.1378 27.9207 14.9698 28.2197 14.6708C28.5187 14.3718 28.6867 13.9662 28.6867 13.5433C28.6867 13.1204 28.5187 12.7149 28.2197 12.4158C27.9207 12.1168 27.5151 11.9488 27.0922 11.9488ZM19.9972 13.8133C19.1008 13.8134 18.2133 13.9901 17.3852 14.3332C16.5571 14.6763 15.8047 15.1792 15.1709 15.8131C13.891 17.0933 13.172 18.8295 13.1722 20.6398C13.1724 22.4501 13.8917 24.1862 15.172 25.4661C16.4522 26.7461 18.1884 27.465 19.9987 27.4648C21.809 27.4646 23.5451 26.7453 24.825 25.4651C26.105 24.1849 26.8239 22.4486 26.8237 20.6383C26.8235 18.828 26.1042 17.0919 24.824 15.812C23.5437 14.5321 21.8075 13.8131 19.9972 13.8133ZM19.9972 16.2088C25.8547 16.2088 25.8622 25.0708 19.9972 25.0708C14.1412 25.0708 14.1322 16.2088 19.9972 16.2088Z" fill="white"/>
</g>
<defs>
<linearGradient id="paint0_linear_4146_17297" x1="4.31908" y1="36.3393" x2="37.7773" y2="7.38158" gradientUnits="userSpaceOnUse">
<stop stop-color="#FFDD55"/>
<stop offset="0.5" stop-color="#FF543E"/>
<stop offset="1" stop-color="#C837AB"/>
</linearGradient>
<clipPath id="clip0_4146_17297">
<rect width="36" height="36" fill="white" transform="translate(2 2.63867)"/>
</clipPath>
</defs>
</svg>
