<svg width="40" height="41" viewBox="0 0 40 41" fill="none" xmlns="http://www.w3.org/2000/svg">
<g clip-path="url(#clip0_4146_17302)">
<path d="M33.0909 2.63867H6.90909C4.19787 2.63867 2 4.83655 2 7.54776V33.7296C2 36.4408 4.19787 38.6387 6.90909 38.6387H33.0909C35.8021 38.6387 38 36.4408 38 33.7296V7.54776C38 4.83655 35.8021 2.63867 33.0909 2.63867Z" fill="#0077B5"/>
<path d="M14.9684 12.4569C14.9684 13.0637 14.7885 13.6569 14.4513 14.1614C14.1142 14.666 13.635 15.0593 13.0744 15.2915C12.5137 15.5237 11.8968 15.5845 11.3016 15.4661C10.7065 15.3477 10.1598 15.0555 9.73068 14.6264C9.30159 14.1973 9.00937 13.6506 8.89099 13.0554C8.7726 12.4603 8.83336 11.8433 9.06558 11.2827C9.29781 10.7221 9.69106 10.2429 10.1956 9.90575C10.7002 9.56862 11.2934 9.38867 11.9002 9.38867C12.7139 9.38867 13.4944 9.71193 14.0697 10.2873C14.6451 10.8627 14.9684 11.6431 14.9684 12.4569ZM14.2729 17.5705V31.1257C14.2735 31.2257 14.2543 31.3248 14.2164 31.4174C14.1785 31.5099 14.1226 31.5941 14.0521 31.665C13.9816 31.7359 13.8978 31.7921 13.8054 31.8305C13.7131 31.8689 13.6141 31.8887 13.5141 31.8887H10.2802C10.1802 31.8889 10.0811 31.8694 9.98871 31.8313C9.89627 31.7932 9.81228 31.7371 9.74157 31.6664C9.67086 31.5957 9.61482 31.5117 9.57668 31.4193C9.53853 31.3268 9.51904 31.2278 9.51931 31.1278V17.5705C9.51931 17.3687 9.59947 17.1751 9.74217 17.0324C9.88487 16.8897 10.0784 16.8096 10.2802 16.8096H13.5141C13.7155 16.8101 13.9085 16.8905 14.0508 17.0332C14.1931 17.1758 14.2729 17.369 14.2729 17.5705ZM31.1766 24.6273V31.1891C31.1768 31.2811 31.1589 31.3722 31.1239 31.4572C31.0888 31.5421 31.0373 31.6194 30.9723 31.6844C30.9073 31.7494 30.8301 31.8009 30.7451 31.836C30.6601 31.871 30.569 31.8889 30.477 31.8887H26.9998C26.9078 31.8889 26.8167 31.871 26.7317 31.836C26.6467 31.8009 26.5695 31.7494 26.5045 31.6844C26.4395 31.6194 26.388 31.5421 26.3529 31.4572C26.3179 31.3722 26.2999 31.2811 26.3002 31.1891V24.8298C26.3002 23.8807 26.5784 20.6734 23.8191 20.6734C21.6816 20.6734 21.2459 22.8682 21.16 23.8541V31.1891C21.16 31.3729 21.0877 31.5493 20.9587 31.6802C20.8297 31.8111 20.6544 31.886 20.4707 31.8887H17.112C17.0203 31.8887 16.9294 31.8706 16.8446 31.8354C16.7599 31.8002 16.6829 31.7486 16.6181 31.6837C16.5533 31.6187 16.502 31.5415 16.467 31.4567C16.4321 31.3718 16.4143 31.2809 16.4145 31.1891V17.5112C16.4143 17.4194 16.4321 17.3285 16.467 17.2436C16.502 17.1588 16.5533 17.0816 16.6181 17.0166C16.6829 16.9517 16.7599 16.9001 16.8446 16.8649C16.9294 16.8297 17.0203 16.8116 17.112 16.8116H20.4707C20.6562 16.8116 20.8341 16.8853 20.9653 17.0165C21.0965 17.1477 21.1702 17.3256 21.1702 17.5112V18.6934C21.9639 17.503 23.14 16.5846 25.6498 16.5846C31.2093 16.5846 31.1766 21.7759 31.1766 24.6273Z" fill="white"/>
</g>
<defs>
<clipPath id="clip0_4146_17302">
<rect width="36" height="36" fill="white" transform="translate(2 2.63867)"/>
</clipPath>
</defs>
</svg>
