<svg width="144" height="144" viewBox="0 0 144 144" fill="none" xmlns="http://www.w3.org/2000/svg">
<g clip-path="url(#clip0_51_48)">
<path d="M138.638 36.3093V107.691L72.1814 143.381L5.72461 107.691V36.3093L72.1814 0.618652L138.638 36.3093Z" fill="white"/>
<path d="M72 144L71.7465 143.863L5 108.017V36L5.28571 35.8493L72 0L72.2535 0.137333L139 36V108.036L72 144ZM6.08649 107.363L72 142.761L137.914 107.363V36.6373L72 1.23867L6.08649 36.6373V107.363Z" fill="#6A797D"/>
<path d="M135.378 38.2507V105.749L71.9995 139.5L8.62109 105.749V38.2507L71.9995 4.5L135.378 38.2507Z" fill="#6A797D"/>
<path d="M135.378 52.2002H8.62109V91.8002H135.378V52.2002Z" fill="#17313B"/>
<path d="M129.222 40.9492V103.051L72.1812 134.1L15.1406 103.051V40.9492L72.1812 9.8999L129.222 40.9492Z" fill="white" stroke="#17313B" stroke-width="0.266667" stroke-miterlimit="10"/>
<path d="M133.567 55.7998H10.4316V88.1998H133.567V55.7998Z" fill="#17313B"/>
<path d="M24.0137 91.7998H119.987" stroke="#17313B" stroke-width="0.133333" stroke-miterlimit="10"/>
<path d="M24.0137 52.2002H119.987" stroke="#17313B" stroke-width="0.133333" stroke-miterlimit="10"/>
<path d="M58.9938 63.3599H55.7344V80.2799H58.9938V63.3599Z" fill="white"/>
<path d="M69.4969 75.2401C69.4969 77.8748 66.9872 78.0841 66.2844 78.0841C64.5245 78.0841 64.0644 76.5428 64.0644 75.6148V69.1201H61.5293V75.6001C61.5293 77.2348 62.0471 78.5841 63.0101 79.4814C63.9585 80.3134 65.1898 80.7548 66.4547 80.7121C67.5331 80.6855 68.5848 80.3694 69.4969 79.7974V80.2801H72.3942V69.1201H69.4969V75.2401Z" fill="white"/>
<path d="M78.5507 65.1602H75.2913V69.1202H73.4805V71.2802H75.2913V80.2802H78.5507V71.2802H80.7237V69.1202H78.5507V65.1602Z" fill="white"/>
<path d="M90.1085 77.1772C89.4231 77.7332 88.5633 78.0305 87.678 78.0159C85.6136 78.0159 84.0993 76.6079 84.0993 74.6745C84.0993 72.7412 85.5479 71.3945 87.678 71.3945C88.5659 71.3785 89.4311 71.6705 90.1259 72.2185L90.5753 72.5785L92.5739 70.7212L92.0735 70.3039C90.8328 69.2865 89.2675 68.7385 87.6592 68.7599C83.9544 68.7599 81.2637 71.2479 81.2637 74.6639C81.2637 78.0799 84.0201 80.6399 87.6592 80.6399C89.2755 80.6652 90.8476 80.1119 92.0883 79.0812L92.5698 78.6599L90.5417 76.8025L90.1071 77.1772H90.1085Z" fill="white"/>
<path d="M103.229 70.1705C102.263 69.3399 101.018 68.9012 99.7414 68.9425C98.6442 68.9292 97.5698 69.2479 96.659 69.8572V63.3599H93.7617V80.2799H96.659V74.4119C96.659 71.7772 98.9876 71.5639 99.6904 71.5639C101.45 71.5639 101.729 73.1079 101.729 74.0372V80.2799H104.627V74.0519C104.627 72.4172 104.207 71.0705 103.229 70.1705Z" fill="white"/>
<path d="M87.5627 76.6988C88.745 76.6988 89.7034 75.8058 89.7034 74.7041C89.7034 73.6025 88.745 72.7095 87.5627 72.7095C86.3803 72.7095 85.4219 73.6025 85.4219 74.7041C85.4219 75.8058 86.3803 76.6988 87.5627 76.6988Z" fill="#FF3D2E"/>
<path d="M52.1594 76.3518C51.0086 77.4345 49.4781 78.0318 47.8926 78.0145C44.5903 78.0145 42.1893 75.6025 42.1893 72.2905C42.1893 68.9785 44.5903 66.5518 47.8926 66.5518C49.4687 66.5438 50.9898 67.1345 52.1447 68.2011L52.594 68.6225L54.5752 66.7798L54.1406 66.3585C52.4545 64.7731 50.2132 63.9038 47.8926 63.9318C43.0289 63.9318 39.3711 67.5318 39.3711 72.3051C39.3711 77.0785 43.0437 80.6398 47.8926 80.6398C50.2212 80.6665 52.4693 79.7891 54.158 78.1958L54.5926 77.7785L52.6262 75.9065L52.1594 76.3531V76.3518Z" fill="white"/>
<path d="M63.877 17.9269V17.2602H68.5315V17.9269H66.58V23.4663H65.8285V17.9269H63.877ZM74.6694 20.3633C74.6694 21.0178 74.5512 21.5835 74.3148 22.0602C74.0785 22.537 73.7542 22.9047 73.3421 23.1633C72.93 23.4219 72.4593 23.5512 71.93 23.5512C71.4007 23.5512 70.93 23.4219 70.5179 23.1633C70.1058 22.9047 69.7815 22.537 69.5451 22.0602C69.3088 21.5835 69.1906 21.0178 69.1906 20.3633C69.1906 19.7087 69.3088 19.1431 69.5451 18.6663C69.7815 18.1895 70.1058 17.8219 70.5179 17.5633C70.93 17.3047 71.4007 17.1754 71.93 17.1754C72.4593 17.1754 72.93 17.3047 73.3421 17.5633C73.7542 17.8219 74.0785 18.1895 74.3148 18.6663C74.5512 19.1431 74.6694 19.7087 74.6694 20.3633ZM73.9421 20.3633C73.9421 19.8259 73.8522 19.3724 73.6724 19.0027C73.4946 18.633 73.2532 18.3532 72.9482 18.1633C72.6451 17.9734 72.3058 17.8784 71.93 17.8784C71.5542 17.8784 71.2138 17.9734 70.9088 18.1633C70.6058 18.3532 70.3643 18.633 70.1845 19.0027C70.0068 19.3724 69.9179 19.8259 69.9179 20.3633C69.9179 20.9007 70.0068 21.3542 70.1845 21.7239C70.3643 22.0936 70.6058 22.3734 70.9088 22.5633C71.2138 22.7532 71.5542 22.8481 71.93 22.8481C72.3058 22.8481 72.6451 22.7532 72.9482 22.5633C73.2532 22.3734 73.4946 22.0936 73.6724 21.7239C73.8522 21.3542 73.9421 20.9007 73.9421 20.3633ZM75.933 23.4663V17.2602H78.03C78.5169 17.2602 78.9148 17.3481 79.2239 17.5239C79.535 17.6976 79.7653 17.933 79.9148 18.2299C80.0643 18.5269 80.1391 18.8582 80.1391 19.2239C80.1391 19.5895 80.0643 19.9219 79.9148 20.2209C79.7674 20.5198 79.5391 20.7582 79.23 20.936C78.9209 21.1118 78.5249 21.1996 78.0421 21.1996H76.5391V20.533H78.0179C78.3512 20.533 78.6189 20.4754 78.8209 20.3602C79.0229 20.2451 79.1694 20.0895 79.2603 19.8936C79.3532 19.6956 79.3997 19.4724 79.3997 19.2239C79.3997 18.9754 79.3532 18.7532 79.2603 18.5572C79.1694 18.3613 79.0219 18.2077 78.8179 18.0966C78.6138 17.9835 78.3431 17.9269 78.0058 17.9269H76.6845V23.4663H75.933Z" fill="#17313B"/>
<path d="M52.4736 30.8118C52.4372 30.5047 52.2897 30.2663 52.0312 30.0966C51.7726 29.9269 51.4554 29.8421 51.0796 29.8421C50.8049 29.8421 50.5645 29.8865 50.3584 29.9754C50.1544 30.0643 49.9948 30.1865 49.8796 30.3421C49.7665 30.4976 49.7099 30.6744 49.7099 30.8724C49.7099 31.038 49.7493 31.1804 49.8281 31.2996C49.9089 31.4168 50.012 31.5148 50.1372 31.5936C50.2625 31.6703 50.3938 31.734 50.5312 31.7845C50.6685 31.833 50.7948 31.8724 50.9099 31.9027L51.5402 32.0724C51.7019 32.1148 51.8817 32.1734 52.0796 32.2481C52.2796 32.3229 52.4705 32.4249 52.6524 32.5542C52.8362 32.6815 52.9877 32.8451 53.1069 33.0451C53.2261 33.2451 53.2857 33.4906 53.2857 33.7815C53.2857 34.1168 53.1978 34.4198 53.0221 34.6906C52.8483 34.9613 52.5938 35.1764 52.2584 35.336C51.9251 35.4956 51.52 35.5754 51.0433 35.5754C50.5988 35.5754 50.214 35.5037 49.8887 35.3602C49.5655 35.2168 49.311 35.0168 49.1251 34.7602C48.9413 34.5037 48.8372 34.2057 48.813 33.8663H49.5887C49.6089 34.1007 49.6877 34.2946 49.8251 34.4481C49.9645 34.5996 50.1402 34.7128 50.3524 34.7875C50.5665 34.8602 50.7968 34.8966 51.0433 34.8966C51.3301 34.8966 51.5877 34.8501 51.816 34.7572C52.0443 34.6623 52.2251 34.531 52.3584 34.3633C52.4918 34.1936 52.5584 33.9956 52.5584 33.7693C52.5584 33.5633 52.5009 33.3956 52.3857 33.2663C52.2705 33.137 52.119 33.032 51.9312 32.9512C51.7433 32.8703 51.5402 32.7996 51.3221 32.739L50.5584 32.5209C50.0736 32.3815 49.6897 32.1825 49.4069 31.9239C49.1241 31.6653 48.9827 31.3269 48.9827 30.9087C48.9827 30.5613 49.0766 30.2582 49.2645 29.9996C49.4544 29.739 49.7089 29.537 50.0281 29.3936C50.3493 29.2481 50.7079 29.1754 51.1039 29.1754C51.5039 29.1754 51.8594 29.2471 52.1705 29.3906C52.4817 29.532 52.7281 29.7259 52.9099 29.9724C53.0938 30.2188 53.1908 30.4986 53.2009 30.8118H52.4736ZM59.7577 32.3633C59.7577 33.0178 59.6395 33.5835 59.4031 34.0602C59.1668 34.537 58.8425 34.9047 58.4304 35.1633C58.0183 35.4219 57.5476 35.5512 57.0183 35.5512C56.489 35.5512 56.0183 35.4219 55.6062 35.1633C55.194 34.9047 54.8698 34.537 54.6334 34.0602C54.3971 33.5835 54.2789 33.0178 54.2789 32.3633C54.2789 31.7087 54.3971 31.1431 54.6334 30.6663C54.8698 30.1895 55.194 29.8219 55.6062 29.5633C56.0183 29.3047 56.489 29.1754 57.0183 29.1754C57.5476 29.1754 58.0183 29.3047 58.4304 29.5633C58.8425 29.8219 59.1668 30.1895 59.4031 30.6663C59.6395 31.1431 59.7577 31.7087 59.7577 32.3633ZM59.0304 32.3633C59.0304 31.8259 58.9405 31.3724 58.7607 31.0027C58.5829 30.633 58.3415 30.3532 58.0365 30.1633C57.7334 29.9734 57.394 29.8784 57.0183 29.8784C56.6425 29.8784 56.3021 29.9734 55.9971 30.1633C55.694 30.3532 55.4526 30.633 55.2728 31.0027C55.095 31.3724 55.0062 31.8259 55.0062 32.3633C55.0062 32.9007 55.095 33.3542 55.2728 33.7239C55.4526 34.0936 55.694 34.3734 55.9971 34.5633C56.3021 34.7532 56.6425 34.8481 57.0183 34.8481C57.394 34.8481 57.7334 34.7532 58.0365 34.5633C58.3415 34.3734 58.5829 34.0936 58.7607 33.7239C58.9405 33.3542 59.0304 32.9007 59.0304 32.3633ZM61.0213 35.4663V29.2602H64.7425V29.9269H61.7728V32.0239H64.4637V32.6906H61.7728V35.4663H61.0213ZM65.6902 29.9269V29.2602H70.3448V29.9269H68.3933V35.4663H67.6418V29.9269H65.6902ZM72.6319 35.4663L70.9349 29.2602H71.6986L72.9956 34.3148H73.0562L74.3774 29.2602H75.2259L76.5471 34.3148H76.6077L77.9046 29.2602H78.6683L76.9713 35.4663H76.1956L74.8259 30.5209H74.7774L73.4077 35.4663H72.6319ZM79.3759 35.4663H78.588L80.8668 29.2602H81.6425L83.9213 35.4663H83.1334L81.2789 30.2421H81.2304L79.3759 35.4663ZM79.6668 33.0421H82.8425V33.7087H79.6668V33.0421ZM84.888 35.4663V29.2602H86.9849C87.4698 29.2602 87.8678 29.3431 88.1789 29.5087C88.49 29.6724 88.7203 29.8976 88.8698 30.1845C89.0193 30.4714 89.094 30.7976 89.094 31.1633C89.094 31.5289 89.0193 31.8532 88.8698 32.136C88.7203 32.4188 88.491 32.6411 88.1819 32.8027C87.8728 32.9623 87.4779 33.0421 86.9971 33.0421H85.3001V32.3633H86.9728C87.3041 32.3633 87.5708 32.3148 87.7728 32.2178C87.9769 32.1209 88.1243 31.9835 88.2152 31.8057C88.3082 31.6259 88.3546 31.4118 88.3546 31.1633C88.3546 30.9148 88.3082 30.6976 88.2152 30.5118C88.1223 30.3259 87.9738 30.1825 87.7698 30.0815C87.5658 29.9784 87.2961 29.9269 86.9607 29.9269H85.6395V35.4663H84.888ZM87.8092 32.6784L89.3365 35.4663H88.4637L86.9607 32.6784H87.8092ZM90.3463 35.4663V29.2602H94.0918V29.9269H91.0978V32.0239H93.8978V32.6906H91.0978V34.7996H94.1403V35.4663H90.3463Z" fill="#17313B"/>
<path d="M46.5143 47.4663H44.5992V41.2602H46.5992C47.2012 41.2602 47.7163 41.3845 48.1446 41.633C48.5729 41.8794 48.9012 42.234 49.1295 42.6966C49.3578 43.1572 49.4719 43.7087 49.4719 44.3512C49.4719 44.9976 49.3567 45.5542 49.1264 46.0209C48.8961 46.4855 48.5608 46.8431 48.1204 47.0936C47.68 47.3421 47.1446 47.4663 46.5143 47.4663ZM45.3507 46.7996H46.4658C46.979 46.7996 47.4042 46.7007 47.7416 46.5027C48.079 46.3047 48.3305 46.0229 48.4961 45.6572C48.6618 45.2916 48.7446 44.8562 48.7446 44.3512C48.7446 43.8501 48.6628 43.4188 48.4992 43.0572C48.3355 42.6936 48.0911 42.4148 47.7658 42.2209C47.4406 42.0249 47.0355 41.9269 46.5507 41.9269H45.3507V46.7996ZM50.7325 47.4663V41.2602H54.478V41.9269H51.484V44.0239H54.284V44.6906H51.484V46.7996H54.5264V47.4663H50.7325ZM56.0871 41.2602L57.9295 46.4845H58.0022L59.8446 41.2602H60.6325L58.3537 47.4663H57.578L55.2992 41.2602H56.0871ZM61.5992 47.4663V41.2602H65.3446V41.9269H62.3507V44.0239H65.1507V44.6906H62.3507V46.7996H65.3931V47.4663H61.5992ZM66.6992 47.4663V41.2602H67.4507V46.7996H70.3355V47.4663H66.6992ZM76.4939 44.3633C76.4939 45.0178 76.3757 45.5835 76.1393 46.0602C75.903 46.537 75.5787 46.9047 75.1666 47.1633C74.7545 47.4219 74.2838 47.5512 73.7545 47.5512C73.2252 47.5512 72.7545 47.4219 72.3424 47.1633C71.9302 46.9047 71.606 46.537 71.3696 46.0602C71.1333 45.5835 71.0151 45.0178 71.0151 44.3633C71.0151 43.7087 71.1333 43.1431 71.3696 42.6663C71.606 42.1895 71.9302 41.8219 72.3424 41.5633C72.7545 41.3047 73.2252 41.1754 73.7545 41.1754C74.2838 41.1754 74.7545 41.3047 75.1666 41.5633C75.5787 41.8219 75.903 42.1895 76.1393 42.6663C76.3757 43.1431 76.4939 43.7087 76.4939 44.3633ZM75.7666 44.3633C75.7666 43.8259 75.6767 43.3724 75.4969 43.0027C75.3191 42.633 75.0777 42.3532 74.7727 42.1633C74.4696 41.9734 74.1302 41.8784 73.7545 41.8784C73.3787 41.8784 73.0383 41.9734 72.7333 42.1633C72.4302 42.3532 72.1888 42.633 72.009 43.0027C71.8312 43.3724 71.7424 43.8259 71.7424 44.3633C71.7424 44.9007 71.8312 45.3542 72.009 45.7239C72.1888 46.0936 72.4302 46.3734 72.7333 46.5633C73.0383 46.7532 73.3787 46.8481 73.7545 46.8481C74.1302 46.8481 74.4696 46.7532 74.7727 46.5633C75.0777 46.3734 75.3191 46.0936 75.4969 45.7239C75.6767 45.3542 75.7666 44.9007 75.7666 44.3633ZM77.7575 47.4663V41.2602H79.8545C80.3413 41.2602 80.7393 41.3481 81.0484 41.5239C81.3595 41.6976 81.5898 41.933 81.7393 42.2299C81.8888 42.5269 81.9636 42.8582 81.9636 43.2239C81.9636 43.5895 81.8888 43.9219 81.7393 44.2209C81.5919 44.5198 81.3636 44.7582 81.0545 44.936C80.7454 45.1118 80.3494 45.1996 79.8666 45.1996H78.3636V44.533H79.8424C80.1757 44.533 80.4434 44.4754 80.6454 44.3602C80.8474 44.2451 80.9939 44.0895 81.0848 43.8936C81.1777 43.6956 81.2242 43.4724 81.2242 43.2239C81.2242 42.9754 81.1777 42.7532 81.0848 42.5572C80.9939 42.3613 80.8464 42.2077 80.6424 42.0966C80.4383 41.9835 80.1676 41.9269 79.8302 41.9269H78.509V47.4663H77.7575ZM83.1742 47.4663V41.2602H86.9196V41.9269H83.9257V44.0239H86.7257V44.6906H83.9257V46.7996H86.9681V47.4663H83.1742ZM88.2742 47.4663V41.2602H90.3711C90.856 41.2602 91.254 41.3431 91.5651 41.5087C91.8762 41.6724 92.1065 41.8976 92.256 42.1845C92.4055 42.4714 92.4802 42.7976 92.4802 43.1633C92.4802 43.5289 92.4055 43.8532 92.256 44.136C92.1065 44.4188 91.8772 44.6411 91.5681 44.8027C91.259 44.9623 90.8641 45.0421 90.3833 45.0421H88.6863V44.3633H90.359C90.6903 44.3633 90.957 44.3148 91.159 44.2178C91.3631 44.1209 91.5105 43.9835 91.6014 43.8057C91.6944 43.6259 91.7408 43.4118 91.7408 43.1633C91.7408 42.9148 91.6944 42.6976 91.6014 42.5118C91.5085 42.3259 91.36 42.1825 91.156 42.0815C90.952 41.9784 90.6823 41.9269 90.3469 41.9269H89.0257V47.4663H88.2742ZM91.1954 44.6784L92.7227 47.4663H91.8499L90.3469 44.6784H91.1954ZM97.1264 42.8118C97.0901 42.5047 96.9426 42.2663 96.684 42.0966C96.4254 41.9269 96.1083 41.8421 95.7325 41.8421C95.4578 41.8421 95.2174 41.8865 95.0113 41.9754C94.8073 42.0643 94.6477 42.1865 94.5325 42.3421C94.4194 42.4976 94.3628 42.6744 94.3628 42.8724C94.3628 43.038 94.4022 43.1804 94.481 43.2996C94.5618 43.4168 94.6648 43.5148 94.7901 43.5936C94.9153 43.6703 95.0466 43.734 95.184 43.7845C95.3214 43.833 95.4477 43.8724 95.5628 43.9027L96.1931 44.0724C96.3547 44.1148 96.5345 44.1734 96.7325 44.2481C96.9325 44.3229 97.1234 44.4249 97.3052 44.5542C97.4891 44.6815 97.6406 44.8451 97.7598 45.0451C97.879 45.2451 97.9386 45.4906 97.9386 45.7815C97.9386 46.1168 97.8507 46.4198 97.6749 46.6906C97.5012 46.9613 97.2466 47.1764 96.9113 47.336C96.578 47.4956 96.1729 47.5754 95.6961 47.5754C95.2517 47.5754 94.8669 47.5037 94.5416 47.3602C94.2184 47.2168 93.9638 47.0168 93.778 46.7602C93.5941 46.5037 93.4901 46.2057 93.4658 45.8663H94.2416C94.2618 46.1007 94.3406 46.2946 94.478 46.4481C94.6174 46.5996 94.7931 46.7128 95.0052 46.7875C95.2194 46.8602 95.4497 46.8966 95.6961 46.8966C95.983 46.8966 96.2406 46.8501 96.4689 46.7572C96.6972 46.6623 96.878 46.531 97.0113 46.3633C97.1446 46.1936 97.2113 45.9956 97.2113 45.7693C97.2113 45.5633 97.1537 45.3956 97.0386 45.2663C96.9234 45.137 96.7719 45.032 96.584 44.9512C96.3961 44.8703 96.1931 44.7996 95.9749 44.739L95.2113 44.5209C94.7264 44.3815 94.3426 44.1825 94.0598 43.9239C93.777 43.6653 93.6355 43.3269 93.6355 42.9087C93.6355 42.5613 93.7295 42.2582 93.9174 41.9996C94.1073 41.739 94.3618 41.537 94.681 41.3936C95.0022 41.2481 95.3608 41.1754 95.7567 41.1754C96.1567 41.1754 96.5123 41.2471 96.8234 41.3906C97.1345 41.532 97.381 41.7259 97.5628 41.9724C97.7466 42.2188 97.8436 42.4986 97.8537 42.8118H97.1264Z" fill="#17313B"/>
<path d="M55.8711 99.2602H56.6226V103.369C56.6226 103.794 56.5226 104.172 56.3226 104.506C56.1247 104.837 55.8449 105.099 55.4832 105.291C55.1216 105.48 54.6974 105.575 54.2105 105.575C53.7236 105.575 53.2994 105.48 52.9378 105.291C52.5762 105.099 52.2954 104.837 52.0954 104.506C51.8974 104.172 51.7984 103.794 51.7984 103.369V99.2602H52.5499V103.309C52.5499 103.612 52.6166 103.881 52.7499 104.118C52.8832 104.352 53.0731 104.537 53.3196 104.672C53.5681 104.806 53.8651 104.872 54.2105 104.872C54.556 104.872 54.8529 104.806 55.1014 104.672C55.3499 104.537 55.5398 104.352 55.6711 104.118C55.8045 103.881 55.8711 103.612 55.8711 103.309V99.2602ZM57.784 99.9269V99.2602H62.4385V99.9269H60.487V105.466H59.7355V99.9269H57.784ZM64.3499 99.2602V105.466H63.5984V99.2602H64.3499ZM65.8567 105.466V99.2602H66.6082V104.8H69.4931V105.466H65.8567ZM71.4082 99.2602V105.466H70.6567V99.2602H71.4082ZM72.5757 99.9269V99.2602H77.2302V99.9269H75.2787V105.466H74.5272V99.9269H72.5757ZM79.1416 99.2602V105.466H78.3901V99.2602H79.1416ZM80.6484 105.466V99.2602H84.3938V99.9269H81.3999V102.024H84.1999V102.691H81.3999V104.8H84.4423V105.466H80.6484ZM89.1423 100.812C89.106 100.505 88.9585 100.266 88.6999 100.097C88.4413 99.9269 88.1241 99.8421 87.7484 99.8421C87.4736 99.8421 87.2332 99.8865 87.0272 99.9754C86.8231 100.064 86.6635 100.187 86.5484 100.342C86.4353 100.498 86.3787 100.674 86.3787 100.872C86.3787 101.038 86.4181 101.18 86.4969 101.3C86.5777 101.417 86.6807 101.515 86.806 101.594C86.9312 101.67 87.0625 101.734 87.1999 101.784C87.3373 101.833 87.4635 101.872 87.5787 101.903L88.209 102.072C88.3706 102.115 88.5504 102.173 88.7484 102.248C88.9484 102.323 89.1393 102.425 89.3211 102.554C89.505 102.681 89.6565 102.845 89.7757 103.045C89.8949 103.245 89.9545 103.491 89.9545 103.781C89.9545 104.117 89.8666 104.42 89.6908 104.691C89.5171 104.961 89.2625 105.176 88.9272 105.336C88.5938 105.496 88.1888 105.575 87.712 105.575C87.2676 105.575 86.8827 105.504 86.5575 105.36C86.2342 105.217 85.9797 105.017 85.7938 104.76C85.61 104.504 85.506 104.206 85.4817 103.866H86.2575C86.2777 104.101 86.3565 104.295 86.4938 104.448C86.6332 104.6 86.809 104.713 87.0211 104.788C87.2353 104.86 87.4656 104.897 87.712 104.897C87.9989 104.897 88.2565 104.85 88.4848 104.757C88.713 104.662 88.8938 104.531 89.0272 104.363C89.1605 104.194 89.2272 103.996 89.2272 103.769C89.2272 103.563 89.1696 103.396 89.0545 103.266C88.9393 103.137 88.7878 103.032 88.5999 102.951C88.412 102.87 88.209 102.8 87.9908 102.739L87.2272 102.521C86.7423 102.381 86.3585 102.182 86.0757 101.924C85.7928 101.665 85.6514 101.327 85.6514 100.909C85.6514 100.561 85.7454 100.258 85.9332 99.9996C86.1231 99.739 86.3777 99.537 86.6969 99.3936C87.0181 99.2481 87.3767 99.1754 87.7726 99.1754C88.1726 99.1754 88.5282 99.2471 88.8393 99.3906C89.1504 99.532 89.3969 99.7259 89.5787 99.9724C89.7625 100.219 89.8595 100.499 89.8696 100.812H89.1423Z" fill="#17313B"/>
<path d="M61.1222 111.26V117.466H60.3707V111.26H61.1222ZM67.5502 111.26V117.466H66.8229L63.4411 112.594H63.3805V117.466H62.629V111.26H63.3563L66.7502 116.145H66.8108V111.26H67.5502ZM70.9691 117.466H69.054V111.26H71.054C71.656 111.26 72.1712 111.384 72.5994 111.633C73.0277 111.879 73.356 112.234 73.5843 112.697C73.8126 113.157 73.9267 113.709 73.9267 114.351C73.9267 114.998 73.8116 115.554 73.5813 116.021C73.351 116.486 73.0156 116.843 72.5752 117.094C72.1348 117.342 71.5994 117.466 70.9691 117.466ZM69.8055 116.8H70.9207C71.4338 116.8 71.859 116.701 72.1964 116.503C72.5338 116.305 72.7853 116.023 72.951 115.657C73.1166 115.292 73.1994 114.856 73.1994 114.351C73.1994 113.85 73.1176 113.419 72.954 113.057C72.7904 112.694 72.5459 112.415 72.2207 112.221C71.8954 112.025 71.4904 111.927 71.0055 111.927H69.8055V116.8ZM75.9388 111.26V117.466H75.1873V111.26H75.9388ZM77.7002 117.466H76.9123L79.1911 111.26H79.9669L82.2457 117.466H81.4578L79.6032 112.242H79.5547L77.7002 117.466ZM77.9911 115.042H81.1669V115.709H77.9911V115.042Z" fill="#17313B"/>
</g>
<defs>
<clipPath id="clip0_51_48">
<rect width="134" height="144" fill="white" transform="translate(5)"/>
</clipPath>
</defs>
</svg>
