<svg width="144" height="144" viewBox="0 0 144 144" fill="none" xmlns="http://www.w3.org/2000/svg">
<g clip-path="url(#clip0_51_49)">
<path d="M138.638 36.3093V107.691L72.1814 143.381L5.72461 107.691V36.3093L72.1814 0.618652L138.638 36.3093Z" fill="white"/>
<path d="M72 144L71.7465 143.863L5 108.017V36L5.28571 35.8493L72 0L72.2535 0.137333L139 36V108.036L72 144ZM6.08649 107.363L72 142.761L137.914 107.363V36.6373L72 1.23867L6.08649 36.6373V107.363Z" fill="#6A797D"/>
<path d="M135.378 38.2507V105.749L71.9995 139.5L8.62109 105.749V38.2507L71.9995 4.5L135.378 38.2507Z" fill="#6A797D"/>
<path d="M135.378 52.2002H8.62109V91.8002H135.378V52.2002Z" fill="#17313B"/>
<path d="M129.222 40.9492V103.051L72.1812 134.1L15.1406 103.051V40.9492L72.1812 9.8999L129.222 40.9492Z" fill="white" stroke="#17313B" stroke-width="0.266667" stroke-miterlimit="10"/>
<path d="M133.567 55.7998H10.4316V88.1998H133.567V55.7998Z" fill="#17313B"/>
<path d="M24.0137 91.7998H119.987" stroke="#17313B" stroke-width="0.133333" stroke-miterlimit="10"/>
<path d="M24.0137 52.2002H119.987" stroke="#17313B" stroke-width="0.133333" stroke-miterlimit="10"/>
<path d="M58.9938 63.3599H55.7344V80.2799H58.9938V63.3599Z" fill="white"/>
<path d="M69.4969 75.2401C69.4969 77.8748 66.9872 78.0841 66.2844 78.0841C64.5245 78.0841 64.0644 76.5428 64.0644 75.6148V69.1201H61.5293V75.6001C61.5293 77.2348 62.0471 78.5841 63.0101 79.4814C63.9585 80.3134 65.1898 80.7548 66.4547 80.7121C67.5331 80.6855 68.5848 80.3694 69.4969 79.7974V80.2801H72.3942V69.1201H69.4969V75.2401Z" fill="white"/>
<path d="M78.5507 65.1602H75.2913V69.1202H73.4805V71.2802H75.2913V80.2802H78.5507V71.2802H80.7237V69.1202H78.5507V65.1602Z" fill="white"/>
<path d="M90.1085 77.1772C89.4231 77.7332 88.5633 78.0305 87.678 78.0159C85.6136 78.0159 84.0993 76.6079 84.0993 74.6745C84.0993 72.7412 85.5479 71.3945 87.678 71.3945C88.5659 71.3785 89.4311 71.6705 90.1259 72.2185L90.5753 72.5785L92.5739 70.7212L92.0735 70.3039C90.8328 69.2865 89.2675 68.7385 87.6592 68.7599C83.9544 68.7599 81.2637 71.2479 81.2637 74.6639C81.2637 78.0799 84.0201 80.6399 87.6592 80.6399C89.2755 80.6652 90.8476 80.1119 92.0883 79.0812L92.5698 78.6599L90.5417 76.8025L90.1071 77.1772H90.1085Z" fill="white"/>
<path d="M103.229 70.1705C102.263 69.3399 101.018 68.9012 99.7414 68.9425C98.6442 68.9292 97.5698 69.2479 96.659 69.8572V63.3599H93.7617V80.2799H96.659V74.4119C96.659 71.7772 98.9876 71.5639 99.6904 71.5639C101.45 71.5639 101.729 73.1079 101.729 74.0372V80.2799H104.627V74.0519C104.627 72.4172 104.207 71.0705 103.229 70.1705Z" fill="white"/>
<path d="M87.5627 76.6988C88.745 76.6988 89.7034 75.8058 89.7034 74.7041C89.7034 73.6025 88.745 72.7095 87.5627 72.7095C86.3803 72.7095 85.4219 73.6025 85.4219 74.7041C85.4219 75.8058 86.3803 76.6988 87.5627 76.6988Z" fill="#FF3D2E"/>
<path d="M52.1594 76.3518C51.0086 77.4345 49.4781 78.0318 47.8926 78.0145C44.5903 78.0145 42.1893 75.6025 42.1893 72.2905C42.1893 68.9785 44.5903 66.5518 47.8926 66.5518C49.4687 66.5438 50.9898 67.1345 52.1447 68.2011L52.594 68.6225L54.5752 66.7798L54.1406 66.3585C52.4545 64.7731 50.2132 63.9038 47.8926 63.9318C43.0289 63.9318 39.3711 67.5318 39.3711 72.3051C39.3711 77.0785 43.0437 80.6398 47.8926 80.6398C50.2212 80.6665 52.4693 79.7891 54.158 78.1958L54.5926 77.7785L52.6262 75.9065L52.1594 76.3531V76.3518Z" fill="white"/>
<path d="M65.1348 19.1259V18.5634H69.0621V19.1259H67.4155V23.7998H66.7814V19.1259H65.1348ZM74.2409 21.1816C74.2409 21.7339 74.1412 22.2112 73.9418 22.6134C73.7424 23.0157 73.4688 23.3259 73.1211 23.5441C72.7733 23.7623 72.3762 23.8714 71.9296 23.8714C71.483 23.8714 71.0858 23.7623 70.7381 23.5441C70.3904 23.3259 70.1168 23.0157 69.9174 22.6134C69.7179 22.2112 69.6182 21.7339 69.6182 21.1816C69.6182 20.6293 69.7179 20.1521 69.9174 19.7498C70.1168 19.3475 70.3904 19.0373 70.7381 18.8191C71.0858 18.6009 71.483 18.4918 71.9296 18.4918C72.3762 18.4918 72.7733 18.6009 73.1211 18.8191C73.4688 19.0373 73.7424 19.3475 73.9418 19.7498C74.1412 20.1521 74.2409 20.6293 74.2409 21.1816ZM73.6273 21.1816C73.6273 20.7282 73.5515 20.3455 73.3998 20.0336C73.2498 19.7217 73.0461 19.4856 72.7887 19.3254C72.533 19.1651 72.2466 19.085 71.9296 19.085C71.6125 19.085 71.3253 19.1651 71.0679 19.3254C70.8123 19.4856 70.6086 19.7217 70.4569 20.0336C70.3069 20.3455 70.2319 20.7282 70.2319 21.1816C70.2319 21.635 70.3069 22.0177 70.4569 22.3296C70.6086 22.6416 70.8123 22.8776 71.0679 23.0379C71.3253 23.1981 71.6125 23.2782 71.9296 23.2782C72.2466 23.2782 72.533 23.1981 72.7887 23.0379C73.0461 22.8776 73.2498 22.6416 73.3998 22.3296C73.5515 22.0177 73.6273 21.635 73.6273 21.1816ZM75.3071 23.7998V18.5634H77.0765C77.4873 18.5634 77.823 18.6376 78.0838 18.7859C78.3463 18.9325 78.5407 19.1311 78.6668 19.3816C78.7929 19.6322 78.856 19.9117 78.856 20.2203C78.856 20.5288 78.7929 20.8092 78.6668 21.0615C78.5424 21.3137 78.3498 21.5149 78.089 21.6649C77.8282 21.8132 77.4941 21.8873 77.0867 21.8873H75.8185V21.3248H77.0662C77.3475 21.3248 77.5733 21.2762 77.7438 21.1791C77.9142 21.0819 78.0378 20.9507 78.1145 20.7853C78.1929 20.6183 78.2321 20.4299 78.2321 20.2203C78.2321 20.0106 78.1929 19.8231 78.1145 19.6578C78.0378 19.4924 77.9134 19.3629 77.7412 19.2691C77.5691 19.1737 77.3407 19.1259 77.056 19.1259H75.9412V23.7998H75.3071Z" fill="#17313B"/>
<path d="M51.0189 30.5634H51.7757L53.5552 34.91H53.6166L55.3961 30.5634H56.1529V35.7998H55.5598V31.8214H55.5086L53.8723 35.7998H53.2995L51.6632 31.8214H51.612V35.7998H51.0189V30.5634ZM57.4243 35.7998V30.5634H60.5846V31.1259H58.0584V32.8953H60.4209V33.4578H58.0584V35.2373H60.6255V35.7998H57.4243ZM61.4411 31.1259V30.5634H65.3684V31.1259H63.7218V35.7998H63.0877V31.1259H61.4411ZM65.95 35.7998H65.2853L67.208 30.5634H67.8625L69.7853 35.7998H69.1205L67.5557 31.3918H67.5148L65.95 35.7998ZM66.1955 33.7544H68.875V34.3168H66.1955V33.7544ZM70.3235 30.5634L71.878 34.9714H71.9394L73.4939 30.5634H74.1587L72.236 35.7998H71.5814L69.6587 30.5634H70.3235ZM74.9743 35.7998V30.5634H78.1346V31.1259H75.6084V32.8953H77.9709V33.4578H75.6084V35.2373H78.1755V35.7998H74.9743ZM79.2775 35.7998V30.5634H81.0468C81.4559 30.5634 81.7917 30.6333 82.0542 30.7731C82.3167 30.9112 82.511 31.1012 82.6371 31.3433C82.7632 31.5853 82.8263 31.8606 82.8263 32.1691C82.8263 32.4776 82.7632 32.7512 82.6371 32.9899C82.511 33.2285 82.3175 33.416 82.0567 33.5524C81.7959 33.687 81.4627 33.7544 81.057 33.7544H79.6252V33.1816H81.0365C81.3161 33.1816 81.5411 33.1407 81.7115 33.0589C81.8837 32.9771 82.0081 32.8612 82.0848 32.7112C82.1632 32.5595 82.2025 32.3788 82.2025 32.1691C82.2025 31.9595 82.1632 31.7762 82.0848 31.6194C82.0064 31.4626 81.8811 31.3416 81.709 31.2563C81.5368 31.1694 81.3093 31.1259 81.0263 31.1259H79.9115V35.7998H79.2775ZM81.7422 33.4475L83.0309 35.7998H82.2945L81.0263 33.4475H81.7422ZM86.7466 31.8725C86.7159 31.6134 86.5914 31.4123 86.3733 31.2691C86.1551 31.1259 85.8875 31.0543 85.5704 31.0543C85.3386 31.0543 85.1358 31.0918 84.9619 31.1668C84.7897 31.2418 84.6551 31.345 84.5579 31.4762C84.4625 31.6075 84.4147 31.7566 84.4147 31.9237C84.4147 32.0634 84.448 32.1836 84.5145 32.2842C84.5826 32.383 84.6696 32.4657 84.7752 32.5322C84.8809 32.597 84.9917 32.6507 85.1076 32.6933C85.2235 32.7342 85.3301 32.7674 85.4272 32.793L85.9591 32.9362C86.0954 32.972 86.2471 33.0214 86.4142 33.0845C86.5829 33.1475 86.744 33.2336 86.8974 33.3427C87.0525 33.4501 87.1804 33.5882 87.2809 33.7569C87.3815 33.9257 87.4318 34.1328 87.4318 34.3782C87.4318 34.6612 87.3576 34.9169 87.2093 35.1453C87.0627 35.3737 86.848 35.5552 86.565 35.6899C86.2838 35.8245 85.942 35.8919 85.5397 35.8919C85.1647 35.8919 84.84 35.8313 84.5656 35.7103C84.2929 35.5893 84.0781 35.4205 83.9213 35.2041C83.7662 34.9876 83.6784 34.7362 83.6579 34.4498H84.3125C84.3295 34.6475 84.396 34.8112 84.5119 34.9407C84.6295 35.0686 84.7778 35.164 84.9568 35.2271C85.1375 35.2884 85.3318 35.3191 85.5397 35.3191C85.7818 35.3191 85.9991 35.2799 86.1917 35.2015C86.3843 35.1214 86.5369 35.0106 86.6494 34.8691C86.7619 34.7259 86.8181 34.5589 86.8181 34.368C86.8181 34.1941 86.7696 34.0526 86.6724 33.9436C86.5752 33.8345 86.4474 33.7458 86.2889 33.6776C86.1304 33.6095 85.9591 33.5498 85.775 33.4987L85.1306 33.3146C84.7216 33.197 84.3977 33.0291 84.1591 32.8109C83.9204 32.5927 83.8011 32.3072 83.8011 31.9543C83.8011 31.6612 83.8804 31.4055 84.0389 31.1873C84.1991 30.9674 84.4139 30.797 84.6832 30.6759C84.9542 30.5532 85.2568 30.4918 85.5909 30.4918C85.9284 30.4918 86.2284 30.5524 86.4909 30.6734C86.7534 30.7927 86.9613 30.9563 87.1147 31.1643C87.2699 31.3722 87.3517 31.6083 87.3602 31.8725H86.7466ZM88.4743 35.7998V30.5634H91.6346V31.1259H89.1084V32.8953H91.4709V33.4578H89.1084V35.2373H91.6755V35.7998H88.4743Z" fill="#17313B"/>
<path d="M26.918 47.7998H25.3021V42.5634H26.9896C27.4975 42.5634 27.9322 42.6683 28.2935 42.8779C28.6549 43.0859 28.9319 43.385 29.1245 43.7754C29.3171 44.164 29.4134 44.6293 29.4134 45.1714C29.4134 45.7168 29.3163 46.1865 29.1219 46.5802C28.9276 46.9722 28.6447 47.274 28.2731 47.4853C27.9015 47.695 27.4498 47.7998 26.918 47.7998ZM25.9362 47.2373H26.8771C27.31 47.2373 27.6688 47.1538 27.9535 46.9867C28.2381 46.8197 28.4504 46.5819 28.5901 46.2734C28.7299 45.9649 28.7998 45.5975 28.7998 45.1714C28.7998 44.7487 28.7308 44.3847 28.5927 44.0796C28.4546 43.7728 28.2484 43.5376 27.9739 43.374C27.6995 43.2086 27.3577 43.1259 26.9487 43.1259H25.9362V47.2373ZM30.4771 47.7998V42.5634H33.6373V43.1259H31.1112V44.8953H33.4737V45.4578H31.1112V47.2373H33.6782V47.7998H30.4771ZM34.995 42.5634L36.5495 46.9714H36.6109L38.1654 42.5634H38.8302L36.9075 47.7998H36.2529L34.3302 42.5634H34.995ZM39.6458 47.7998V42.5634H42.806V43.1259H40.2799V44.8953H42.6424V45.4578H40.2799V47.2373H42.8469V47.7998H39.6458ZM43.9489 47.7998V42.5634H44.583V47.2373H47.0171V47.7998H43.9489ZM52.2132 45.1816C52.2132 45.7339 52.1135 46.2112 51.9141 46.6134C51.7146 47.0157 51.4411 47.3259 51.0933 47.5441C50.7456 47.7623 50.3484 47.8714 49.9018 47.8714C49.4553 47.8714 49.0581 47.7623 48.7104 47.5441C48.3626 47.3259 48.0891 47.0157 47.8896 46.6134C47.6902 46.2112 47.5905 45.7339 47.5905 45.1816C47.5905 44.6293 47.6902 44.1521 47.8896 43.7498C48.0891 43.3475 48.3626 43.0373 48.7104 42.8191C49.0581 42.6009 49.4553 42.4918 49.9018 42.4918C50.3484 42.4918 50.7456 42.6009 51.0933 42.8191C51.4411 43.0373 51.7146 43.3475 51.9141 43.7498C52.1135 44.1521 52.2132 44.6293 52.2132 45.1816ZM51.5996 45.1816C51.5996 44.7282 51.5237 44.3455 51.372 44.0336C51.222 43.7217 51.0183 43.4856 50.7609 43.3254C50.5053 43.1651 50.2189 43.085 49.9018 43.085C49.5848 43.085 49.2976 43.1651 49.0402 43.3254C48.7845 43.4856 48.5808 43.7217 48.4291 44.0336C48.2791 44.3455 48.2041 44.7282 48.2041 45.1816C48.2041 45.635 48.2791 46.0177 48.4291 46.3296C48.5808 46.6416 48.7845 46.8776 49.0402 47.0379C49.2976 47.1981 49.5848 47.2782 49.9018 47.2782C50.2189 47.2782 50.5053 47.1981 50.7609 47.0379C51.0183 46.8776 51.222 46.6416 51.372 46.3296C51.5237 46.0177 51.5996 45.635 51.5996 45.1816ZM53.2794 47.7998V42.5634H55.0487C55.4595 42.5634 55.7953 42.6376 56.0561 42.7859C56.3186 42.9325 56.5129 43.1311 56.6391 43.3816C56.7652 43.6322 56.8283 43.9117 56.8283 44.2203C56.8283 44.5288 56.7652 44.8092 56.6391 45.0615C56.5146 45.3137 56.322 45.5149 56.0612 45.6649C55.8004 45.8132 55.4663 45.8873 55.0589 45.8873H53.7908V45.3248H55.0385C55.3197 45.3248 55.5456 45.2762 55.7161 45.1791C55.8865 45.0819 56.0101 44.9507 56.0868 44.7853C56.1652 44.6183 56.2044 44.4299 56.2044 44.2203C56.2044 44.0106 56.1652 43.8231 56.0868 43.6578C56.0101 43.4924 55.8857 43.3629 55.7135 43.2691C55.5413 43.1737 55.3129 43.1259 55.0283 43.1259H53.9135V47.7998H53.2794ZM57.8497 42.5634H58.6065L60.3861 46.91H60.4474L62.227 42.5634H62.9838V47.7998H62.3906V43.8214H62.3395L60.7031 47.7998H60.1304L58.494 43.8214H58.4429V47.7998H57.8497V42.5634ZM64.2552 47.7998V42.5634H67.4154V43.1259H64.8893V44.8953H67.2518V45.4578H64.8893V47.2373H67.4563V47.7998H64.2552ZM72.7106 42.5634V47.7998H72.0969L69.2435 43.6884H69.1924V47.7998H68.5583V42.5634H69.1719L72.0356 46.685H72.0867V42.5634H72.7106ZM73.693 43.1259V42.5634H77.6203V43.1259H75.9737V47.7998H75.3396V43.1259H73.693ZM84.8376 44.1998H84.2035C84.166 44.0174 84.1004 43.8572 84.0066 43.7191C83.9146 43.5811 83.8021 43.4651 83.6691 43.3714C83.5379 43.2759 83.3921 43.2043 83.2319 43.1566C83.0717 43.1089 82.9046 43.085 82.7308 43.085C82.4137 43.085 82.1265 43.1651 81.8691 43.3254C81.6134 43.4856 81.4097 43.7217 81.258 44.0336C81.108 44.3455 81.033 44.7282 81.033 45.1816C81.033 45.635 81.108 46.0177 81.258 46.3296C81.4097 46.6416 81.6134 46.8776 81.8691 47.0379C82.1265 47.1981 82.4137 47.2782 82.7308 47.2782C82.9046 47.2782 83.0717 47.2544 83.2319 47.2066C83.3921 47.1589 83.5379 47.0882 83.6691 46.9944C83.8021 46.899 83.9146 46.7822 84.0066 46.6441C84.1004 46.5044 84.166 46.3441 84.2035 46.1634H84.8376C84.7898 46.4311 84.7029 46.6705 84.5768 46.8819C84.4506 47.0933 84.2938 47.2731 84.1063 47.4214C83.9188 47.568 83.7083 47.6796 83.4748 47.7563C83.243 47.833 82.995 47.8714 82.7308 47.8714C82.2842 47.8714 81.887 47.7623 81.5393 47.5441C81.1915 47.3259 80.918 47.0157 80.7185 46.6134C80.5191 46.2112 80.4194 45.7339 80.4194 45.1816C80.4194 44.6293 80.5191 44.1521 80.7185 43.7498C80.918 43.3475 81.1915 43.0373 81.5393 42.8191C81.887 42.6009 82.2842 42.4918 82.7308 42.4918C82.995 42.4918 83.243 42.5302 83.4748 42.6069C83.7083 42.6836 83.9188 42.7961 84.1063 42.9444C84.2938 43.091 84.4506 43.27 84.5768 43.4813C84.7029 43.691 84.7898 43.9305 84.8376 44.1998ZM90.2804 45.1816C90.2804 45.7339 90.1807 46.2112 89.9813 46.6134C89.7818 47.0157 89.5082 47.3259 89.1605 47.5441C88.8128 47.7623 88.4156 47.8714 87.969 47.8714C87.5224 47.8714 87.1253 47.7623 86.7776 47.5441C86.4298 47.3259 86.1563 47.0157 85.9568 46.6134C85.7574 46.2112 85.6577 45.7339 85.6577 45.1816C85.6577 44.6293 85.7574 44.1521 85.9568 43.7498C86.1563 43.3475 86.4298 43.0373 86.7776 42.8191C87.1253 42.6009 87.5224 42.4918 87.969 42.4918C88.4156 42.4918 88.8128 42.6009 89.1605 42.8191C89.5082 43.0373 89.7818 43.3475 89.9813 43.7498C90.1807 44.1521 90.2804 44.6293 90.2804 45.1816ZM89.6668 45.1816C89.6668 44.7282 89.5909 44.3455 89.4392 44.0336C89.2892 43.7217 89.0855 43.4856 88.8281 43.3254C88.5724 43.1651 88.2861 43.085 87.969 43.085C87.652 43.085 87.3648 43.1651 87.1074 43.3254C86.8517 43.4856 86.648 43.7217 86.4963 44.0336C86.3463 44.3455 86.2713 44.7282 86.2713 45.1816C86.2713 45.635 86.3463 46.0177 86.4963 46.3296C86.648 46.6416 86.8517 46.8776 87.1074 47.0379C87.3648 47.1981 87.652 47.2782 87.969 47.2782C88.2861 47.2782 88.5724 47.1981 88.8281 47.0379C89.0855 46.8776 89.2892 46.6416 89.4392 46.3296C89.5909 46.0177 89.6668 45.635 89.6668 45.1816ZM91.3466 42.5634H92.1034L93.883 46.91H93.9443L95.7239 42.5634H96.4807V47.7998H95.8875V43.8214H95.8364L94.2 47.7998H93.6273L91.9909 43.8214H91.9398V47.7998H91.3466V42.5634ZM97.7521 47.7998V42.5634H99.5214C99.9322 42.5634 100.268 42.6376 100.529 42.7859C100.791 42.9325 100.986 43.1311 101.112 43.3816C101.238 43.6322 101.301 43.9117 101.301 44.2203C101.301 44.5288 101.238 44.8092 101.112 45.0615C100.987 45.3137 100.795 45.5149 100.534 45.6649C100.273 45.8132 99.939 45.8873 99.5316 45.8873H98.2634V45.3248H99.5112C99.7924 45.3248 100.018 45.2762 100.189 45.1791C100.359 45.0819 100.483 44.9507 100.559 44.7853C100.638 44.6183 100.677 44.4299 100.677 44.2203C100.677 44.0106 100.638 43.8231 100.559 43.6578C100.483 43.4924 100.358 43.3629 100.186 43.2691C100.014 43.1737 99.7856 43.1259 99.5009 43.1259H98.3862V47.7998H97.7521ZM102.003 47.7998H101.338L103.261 42.5634H103.915L105.838 47.7998H105.173L103.608 43.3918H103.568L102.003 47.7998ZM102.248 45.7544H104.928V46.3168H102.248V45.7544ZM110.806 42.5634V47.7998H110.192L107.339 43.6884H107.288V47.7998H106.654V42.5634H107.267L110.131 46.685H110.182V42.5634H110.806ZM111.625 42.5634H112.351L113.803 45.0078H113.864L115.317 42.5634H116.043L114.151 45.6419V47.7998H113.517V45.6419L111.625 42.5634Z" fill="#17313B"/>
<path d="M62.8092 97.8969V103.133H62.1751V97.8969H62.8092ZM68.2328 97.8969V103.133H67.6192L64.7658 99.0219H64.7147V103.133H64.0806V97.8969H64.6942L67.5578 102.019H67.609V97.8969H68.2328ZM71.1176 103.133H69.5017V97.8969H71.1892C71.6971 97.8969 72.1318 98.0018 72.4931 98.2114C72.8545 98.4194 73.1315 98.7185 73.3241 99.1089C73.5167 99.4975 73.613 99.9628 73.613 100.505C73.613 101.05 73.5159 101.52 73.3216 101.914C73.1272 102.306 72.8443 102.607 72.4727 102.819C72.1011 103.028 71.6494 103.133 71.1176 103.133ZM70.1358 102.571H71.0767C71.5096 102.571 71.8684 102.487 72.1531 102.32C72.4377 102.153 72.65 101.915 72.7897 101.607C72.9295 101.298 72.9994 100.931 72.9994 100.505C72.9994 100.082 72.9304 99.7182 72.7923 99.4131C72.6542 99.1063 72.448 98.8711 72.1735 98.7074C71.8991 98.5421 71.5574 98.4594 71.1483 98.4594H70.1358V102.571ZM75.3108 97.8969V103.133H74.6767V97.8969H75.3108ZM76.7969 103.133H76.1321L78.0549 97.8969H78.7094L80.6321 103.133H79.9674L78.4026 98.7253H78.3617L76.7969 103.133ZM77.0424 101.088H79.7219V101.65H77.0424V101.088Z" fill="#17313B"/>
<path d="M63.376 115.133V114.673L65.1044 112.781C65.3073 112.559 65.4743 112.367 65.6056 112.203C65.7368 112.038 65.834 111.883 65.8971 111.738C65.9618 111.591 65.9942 111.438 65.9942 111.278C65.9942 111.094 65.9499 110.934 65.8613 110.799C65.7743 110.665 65.655 110.561 65.5033 110.488C65.3516 110.414 65.1811 110.378 64.9919 110.378C64.7908 110.378 64.6152 110.419 64.4652 110.503C64.3169 110.585 64.2019 110.7 64.1201 110.848C64.04 110.996 63.9999 111.17 63.9999 111.37H63.3965C63.3965 111.063 63.4672 110.794 63.6087 110.562C63.7502 110.33 63.9428 110.149 64.1865 110.02C64.432 109.89 64.7073 109.825 65.0124 109.825C65.3192 109.825 65.5911 109.89 65.828 110.02C66.065 110.149 66.2507 110.324 66.3854 110.544C66.5201 110.764 66.5874 111.008 66.5874 111.278C66.5874 111.47 66.5525 111.659 66.4826 111.843C66.4144 112.025 66.2951 112.229 66.1246 112.454C65.9559 112.677 65.7215 112.95 65.4215 113.272L64.2453 114.53V114.571H66.6794V115.133H63.376ZM69.4434 115.205C69.0581 115.205 68.73 115.1 68.459 114.89C68.188 114.679 67.9809 114.373 67.8377 113.973C67.6945 113.57 67.6229 113.084 67.6229 112.515C67.6229 111.949 67.6945 111.466 67.8377 111.065C67.9826 110.663 68.1905 110.356 68.4615 110.145C68.7343 109.932 69.0615 109.825 69.4434 109.825C69.8252 109.825 70.1516 109.932 70.4226 110.145C70.6953 110.356 70.9033 110.663 71.0465 111.065C71.1914 111.466 71.2638 111.949 71.2638 112.515C71.2638 113.084 71.1922 113.57 71.049 113.973C70.9059 114.373 70.6988 114.679 70.4277 114.89C70.1567 115.1 69.8286 115.205 69.4434 115.205ZM69.4434 114.642C69.8252 114.642 70.1218 114.458 70.3331 114.09C70.5445 113.722 70.6502 113.197 70.6502 112.515C70.6502 112.062 70.6016 111.676 70.5044 111.357C70.409 111.038 70.2709 110.795 70.0902 110.628C69.9113 110.461 69.6956 110.378 69.4434 110.378C69.065 110.378 68.7692 110.564 68.5561 110.938C68.3431 111.309 68.2365 111.835 68.2365 112.515C68.2365 112.969 68.2843 113.354 68.3797 113.671C68.4752 113.988 68.6124 114.229 68.7914 114.394C68.9721 114.56 69.1894 114.642 69.4434 114.642ZM72.2354 115.133V114.673L73.9638 112.781C74.1667 112.559 74.3337 112.367 74.465 112.203C74.5962 112.038 74.6934 111.883 74.7564 111.738C74.8212 111.591 74.8536 111.438 74.8536 111.278C74.8536 111.094 74.8093 110.934 74.7206 110.799C74.6337 110.665 74.5144 110.561 74.3627 110.488C74.211 110.414 74.0405 110.378 73.8513 110.378C73.6502 110.378 73.4746 110.419 73.3246 110.503C73.1763 110.585 73.0613 110.7 72.9794 110.848C72.8993 110.996 72.8593 111.17 72.8593 111.37H72.2559C72.2559 111.063 72.3266 110.794 72.4681 110.562C72.6096 110.33 72.8022 110.149 73.0459 110.02C73.2914 109.89 73.5667 109.825 73.8718 109.825C74.1786 109.825 74.4505 109.89 74.6874 110.02C74.9243 110.149 75.1101 110.324 75.2448 110.544C75.3794 110.764 75.4468 111.008 75.4468 111.278C75.4468 111.47 75.4118 111.659 75.3419 111.843C75.2738 112.025 75.1544 112.229 74.984 112.454C74.8152 112.677 74.5809 112.95 74.2809 113.272L73.1047 114.53V114.571H75.5388V115.133H72.2354ZM76.3596 114.059V113.538L78.6607 109.897H79.0391V110.705H78.7834L77.0448 113.456V113.497H80.1436V114.059H76.3596ZM78.8243 115.133V113.901V113.658V109.897H79.4277V115.133H78.8243Z" fill="#17313B"/>
</g>
<defs>
<clipPath id="clip0_51_49">
<rect width="134" height="144" fill="white" transform="translate(5)"/>
</clipPath>
</defs>
</svg>
