<svg width="40" height="41" viewBox="0 0 40 41" fill="none" xmlns="http://www.w3.org/2000/svg">
<path d="M33.498 2.48682H6.49805C4.0163 2.48682 1.99805 4.50507 1.99805 6.98682V33.9868C1.99805 36.4686 4.0163 38.4868 6.49805 38.4868H33.498C35.9798 38.4868 37.998 36.4686 37.998 33.9868V6.98682C37.998 4.50507 35.9798 2.48682 33.498 2.48682Z" fill="black"/>
<path d="M22.4716 18.496L32.1507 7.48682H29.857L21.4527 17.046L14.7402 7.48682H6.99805L17.1487 21.9419L6.99805 33.4868H9.29181L18.167 23.392L25.2559 33.4868H32.998L22.471 18.496H22.4716ZM10.1183 9.17642H13.6413L29.8581 31.8741H26.335L10.1183 9.17642Z" fill="white"/>
</svg>
