<svg width="36" height="37" viewBox="0 0 36 37" fill="none" xmlns="http://www.w3.org/2000/svg">
<g clip-path="url(#clip0_5758_38026)">
<path d="M31.7939 1.26367H4.79395C2.3122 1.26367 0.293945 3.28192 0.293945 5.76367V32.7637C0.293945 35.2454 2.3122 37.2637 4.79395 37.2637H31.7939C34.2757 37.2637 36.2939 35.2454 36.2939 32.7637V5.76367C36.2939 3.28192 34.2757 1.26367 31.7939 1.26367Z" fill="white"/>
<path d="M20.5279 17.426L29.2703 7.26367H27.1987L19.6076 16.0875L13.5446 7.26367H6.55176L15.7201 20.6069L6.55176 31.2637H8.62355L16.6399 21.9454L23.0428 31.2637H30.0357L20.5274 17.426H20.5279ZM9.37003 8.8233H12.5522L27.1996 29.775H24.0174L9.37003 8.8233Z" fill="black"/>
</g>
<defs>
<clipPath id="clip0_5758_38026">
<rect width="36" height="36" fill="white" transform="translate(0 0.829102)"/>
</clipPath>
</defs>
</svg>
