<svg width="100" height="101" viewBox="0 0 100 101" fill="none" xmlns="http://www.w3.org/2000/svg">
<g clip-path="url(#clip0_4444_5808)">
<g clip-path="url(#clip1_4444_5808)">
<path d="M14 81.4774L14.5971 80.6308L42.8357 26.3641L42.8953 25.7896L30.4475 2.10849C29.4041 0.124842 26.4678 0.626452 26.1258 2.84709L14 81.4774Z" fill="#FFC24A"/>
<path d="M14.3525 80.8323L14.8039 79.9405L42.747 26.2423L30.3298 2.46497C29.2979 0.502113 26.6772 1.00258 26.3386 3.19987L14.3525 80.8323Z" fill="#FFA712"/>
<path d="M51.9702 43.7019L61.2388 34.0884L51.9674 16.1632C51.0874 14.4664 48.6301 14.4613 47.7593 16.1632L42.8057 25.7303V26.5449L51.9699 43.7019H51.9702Z" fill="#F4BD62"/>
<path d="M51.8049 43.302L60.8159 33.9557L51.8049 16.5782C50.9494 14.9287 48.8707 14.7558 48.0241 16.4102L43.0446 26.1259L42.8955 26.6227L51.8049 43.302Z" fill="#FFA50E"/>
<path d="M14 81.4776L14.2706 81.2019L15.2538 80.7974L51.388 44.3374L51.8458 43.0753L42.8318 25.6787L14 81.4776Z" fill="#F6820C"/>
<path d="M53.1278 99.8654L85.8301 81.3942L76.4915 23.1451C76.1993 21.3226 73.9918 20.6023 72.7036 21.9088L14 81.4779L46.5148 99.864C47.5254 100.435 48.6636 100.736 49.8211 100.736C50.9786 100.736 52.1169 100.436 53.1278 99.8654Z" fill="#FDE068"/>
<path d="M85.5375 81.2389L76.2698 23.4321C75.9801 21.6234 74.1441 20.8751 72.8658 22.172L14.3633 81.3642L46.5211 99.568C47.5241 100.135 48.6536 100.433 49.8022 100.433C50.9509 100.434 52.0806 100.136 53.0838 99.5697L85.5378 81.2386L85.5375 81.2389Z" fill="#FCCA3F"/>
<path d="M53.1272 99.3205C52.1164 99.8915 50.9781 100.191 49.8207 100.191C48.6632 100.191 47.5251 99.8905 46.5145 99.3191L14.2616 81.1973L14 81.4773L46.5145 99.8634C47.5251 100.435 48.6633 100.735 49.8208 100.735C50.9783 100.736 52.1166 100.436 53.1275 99.8648L85.8298 81.3936L85.7497 80.8945L53.1275 99.3208L53.1272 99.3205Z" fill="#EEAB37"/>
</g>
</g>
<defs>
<clipPath id="clip0_4444_5808">
<rect width="100" height="100" fill="white" transform="translate(0 0.857422)"/>
</clipPath>
<clipPath id="clip1_4444_5808">
<rect width="72" height="100" fill="white" transform="translate(14 0.857422)"/>
</clipPath>
</defs>
</svg>
