<svg width="100" height="101" viewBox="0 0 100 101" fill="none" xmlns="http://www.w3.org/2000/svg">
<path d="M50.0208 10.8584L52.188 14.9288C52.6752 15.68 53.2031 16.3448 53.8248 16.964C55.6476 18.7641 57.3466 20.6852 58.9103 22.7144C62.5823 27.536 65.0591 32.8905 66.8278 38.6814C67.8886 42.219 68.4646 45.8478 68.5078 49.5173C68.6854 60.4877 64.9246 69.9075 57.342 77.7362C56.1086 78.9777 54.7762 80.1166 53.3579 81.1418C52.6067 81.1418 52.2514 80.5657 51.9419 80.0353C51.3781 79.0519 51.0028 77.9718 50.8354 76.8506C50.569 75.5234 50.3939 74.1962 50.4802 72.8258V72.2066C50.4192 72.0747 49.7569 11.1705 50.0208 10.8584Z" fill="#599636"/>
<path d="M50.0208 10.724C49.932 10.5464 49.8432 10.6809 49.7544 10.7672C49.7975 11.6553 49.4879 12.4471 49.0032 13.2033C48.4703 13.9545 47.7648 14.5305 47.0568 15.1497C43.1234 18.5553 40.0275 22.6688 37.5482 27.2696C34.2492 33.4616 32.5489 40.0976 32.0668 47.0838C31.846 49.6037 32.8636 58.4957 33.6579 61.0613C35.8251 67.8724 39.7179 73.5796 44.7602 78.5331C45.9986 79.7259 47.3233 80.8323 48.6936 81.8956C49.092 81.8956 49.1352 81.5403 49.2265 81.2764C49.4012 80.7116 49.5344 80.1349 49.6249 79.5508L50.5131 72.9173L50.0208 10.724Z" fill="#6CAC48"/>
<path d="M52.1877 83.8363C52.2766 82.8212 52.7638 81.9787 53.2942 81.1388C52.7613 80.918 52.3654 80.479 52.0558 79.9892C51.7888 79.5255 51.5678 79.0368 51.396 78.53C50.7768 76.6725 50.6448 74.7235 50.4672 72.8253V71.6758C50.2464 71.8534 50.2007 73.3557 50.2007 73.579C50.0716 75.5853 49.8054 77.5803 49.4039 79.5502C49.2719 80.347 49.1831 81.1413 48.6934 81.8493C48.6934 81.9381 48.6934 82.0269 48.7365 82.1589C49.5333 84.5037 49.7516 86.8917 49.8861 89.3253V90.2135C49.8861 91.2742 49.8429 91.0509 50.7235 91.4062C51.0788 91.5381 51.4747 91.5838 51.8299 91.8477C52.0964 91.8477 52.1395 91.627 52.1395 91.4493L52.0076 89.9902V85.9197C51.9644 85.2092 52.0964 84.5037 52.1852 83.8388L52.1877 83.8363Z" fill="#C2BFBF"/>
</svg>
