<svg width="100" height="101" viewBox="0 0 100 101" fill="none" xmlns="http://www.w3.org/2000/svg">
<g clip-path="url(#clip0_4444_6146)">
<path d="M92.0502 77.3824C86.6135 77.2474 82.3999 77.7887 78.8659 79.277C77.8463 79.6826 76.2151 79.683 76.0791 80.9686C76.6229 81.5099 76.6909 82.3896 77.1667 83.1335C77.9831 84.4864 79.4092 86.3134 80.7006 87.2611C82.1276 88.3433 83.5553 89.4256 85.0499 90.3729C87.7006 91.9968 90.6913 92.9437 93.2737 94.5677C94.7694 95.5142 96.2635 96.733 97.7588 97.7476C98.5065 98.2881 98.9819 99.1685 99.9338 99.5065V99.3039C99.4577 98.6945 99.3217 97.8152 98.8463 97.1386C98.1674 96.4619 97.487 95.8529 96.8073 95.1763C94.8366 92.5381 92.3901 90.2375 89.7397 88.3433C87.5651 86.8547 82.8073 84.8251 81.9241 82.3215C81.9241 82.3215 81.8557 82.2542 81.7881 82.1866C83.2831 82.0512 85.0499 81.5099 86.4776 81.1039C88.7881 80.4946 90.8948 80.6303 93.2737 80.0213C94.3608 79.7506 95.4483 79.4123 96.5354 79.074V78.4654C95.3128 77.2474 94.4292 75.6238 93.1377 74.4735C89.6717 71.4959 85.8655 68.5871 81.9241 66.1515C79.817 64.7982 77.0983 63.9186 74.8557 62.7687C74.0409 62.3623 72.6811 62.1597 72.2057 61.483C70.9819 59.9948 70.3022 58.0329 69.419 56.2736C67.4487 52.552 65.5452 48.4253 63.846 44.5015C62.6233 41.8625 61.8756 39.2236 60.3803 36.7884C53.3803 25.2866 45.7686 18.3179 34.0795 11.4841C31.5647 10.0635 28.5745 9.45453 25.3803 8.71061C23.6819 8.64255 21.9823 8.50761 20.2835 8.43956C19.196 7.9659 18.1085 6.68066 17.1569 6.07167C13.2838 3.63573 3.29283 -1.64096 0.438529 5.32775C-1.39663 9.72519 3.15728 14.055 4.71978 16.2883C5.87603 17.8442 7.37056 19.6031 8.18618 21.3624C8.66197 22.5119 8.79751 23.7307 9.27329 24.9482C10.3612 27.9243 11.3799 31.2403 12.8077 34.0146C13.5553 35.4352 14.3706 36.9234 15.3221 38.209C15.8659 38.9529 16.817 39.2917 17.0213 40.5092C16.0702 41.8625 16.0018 43.8925 15.4577 45.5837C13.0112 53.2291 13.9631 62.701 17.4288 68.3164C18.5159 70.0073 21.0987 73.7296 24.5647 72.3083C27.6233 71.0907 26.9436 67.2342 27.8264 63.8513C28.0311 63.0386 27.8952 62.498 28.3026 61.9567V62.0924C29.2542 63.9863 30.2053 65.8136 31.0889 67.7078C33.1959 71.0226 36.8655 74.4735 39.9237 76.7742C41.5553 77.9913 42.8463 80.089 44.8854 80.8333V80.6299H44.7491C44.3413 80.0209 43.7295 79.7506 43.1862 79.2766C41.9631 78.0594 40.6034 76.5708 39.6522 75.2175C36.7983 71.4282 34.2831 67.2338 32.0405 62.9036C30.9534 60.8068 30.0014 58.5062 29.1182 56.409C28.71 55.5962 28.71 54.379 28.0307 53.9734C27.0112 55.4616 25.5163 56.7473 24.7686 58.5738C23.478 61.483 23.3417 65.0689 22.8659 68.7897C22.594 68.8581 22.7295 68.7897 22.5936 68.9258C20.4194 68.3837 19.6717 66.1515 18.8557 64.2569C16.8167 59.4535 16.4768 51.7405 18.2444 46.1927C18.7202 44.7717 20.7592 40.3066 19.9436 38.9533C19.5358 37.6677 18.176 36.9234 17.4288 35.9088C16.5456 34.6232 15.5936 33 14.9823 31.5786C13.351 27.7898 12.5354 23.5949 10.7686 19.8061C9.95298 18.0468 8.52642 16.2206 7.37056 14.5967C6.07954 12.7701 4.6522 11.4841 3.63267 9.3192C3.29322 8.57528 2.81704 7.35731 3.36079 6.54533C3.49673 6.00401 3.76822 5.8014 4.31236 5.66607C5.19595 4.92137 7.71079 5.86868 8.59361 6.27467C11.1085 7.28886 13.2151 8.23695 15.3221 9.65753C16.2733 10.3342 17.2928 11.6198 18.5159 11.9581H19.9432C22.1182 12.4314 24.5643 12.0935 26.6034 12.7021C30.2057 13.852 33.4674 15.5436 36.3901 17.3706C45.2932 22.986 52.6323 30.9697 57.594 40.5092C58.4096 42.0648 58.7491 43.4865 59.4967 45.1097C60.9245 48.4253 62.6913 51.8081 64.1178 55.0556C65.5452 58.2351 66.9042 61.483 68.9432 64.122C69.9627 65.5422 74.0401 66.2869 75.8753 67.0312C77.2346 67.6398 79.3417 68.1815 80.5647 68.9254C82.8752 70.3456 85.1858 71.9703 87.3608 73.5258C88.4483 74.3378 91.8459 76.0294 92.0502 77.3824Z" fill="#00546B"/>
<path d="M22.7293 18.5879C21.5742 18.5879 20.759 18.724 19.9434 18.9266V19.0619H20.0793C20.6234 20.1446 21.5742 20.8889 22.2535 21.8358C22.7977 22.9181 23.273 24.0011 23.8172 25.0837C23.8848 25.0157 23.9527 24.9484 23.9527 24.9484C24.9047 24.2714 25.3801 23.1891 25.3801 21.5651C24.9723 21.0919 24.9043 20.6182 24.5645 20.1446C24.157 19.4675 23.273 19.1296 22.7293 18.5879Z" fill="#00546B"/>
</g>
<defs>
<clipPath id="clip0_4444_6146">
<rect width="100" height="98" fill="white" transform="translate(0 1.85742)"/>
</clipPath>
</defs>
</svg>
