<svg width="96" height="101" viewBox="0 0 96 101" fill="none" xmlns="http://www.w3.org/2000/svg">
<g clip-path="url(#clip0_4444_11294)">
<path d="M95.6278 60.7322C95.0522 58.9713 93.5443 57.7449 91.5944 57.4507C90.6749 57.312 89.6218 57.3711 88.3757 57.6306C86.2037 58.0832 84.5924 58.2555 83.4164 58.2888C87.8552 50.7195 91.4646 42.0878 93.5425 33.9625C96.9025 20.824 95.107 14.8386 93.0089 12.1313C87.4562 4.96538 79.3551 1.11576 69.5819 0.997969C64.3682 0.933582 59.7914 1.97325 57.4037 2.7209C55.1807 2.32473 52.7905 2.10354 50.2825 2.06264C45.5811 1.98689 41.4272 3.02201 37.8779 5.14945C35.9129 4.4783 32.7591 3.53219 29.1171 2.92846C20.5514 1.50815 13.6476 2.61485 8.59786 6.2179C2.48311 10.5803 -0.351516 18.1599 0.172734 28.746C0.339234 32.107 2.20073 42.3332 5.13173 52.0315C6.81623 57.6059 8.61248 62.235 10.4706 65.7915C13.1057 70.8345 15.9254 73.8043 19.0907 74.8709C20.8649 75.4678 24.0884 75.8859 27.4787 73.034C27.9085 73.5597 28.4819 74.082 29.2427 74.5671C30.2091 75.1826 31.3907 75.6856 32.5709 75.9837C36.8237 77.0574 40.8074 76.7889 44.206 75.2837C44.227 75.8943 44.2431 76.4775 44.2566 76.9813C44.2791 77.7982 44.3016 78.5993 44.3312 79.3485C44.5326 84.4139 44.8739 88.3525 45.8849 91.1083C45.9404 91.2598 46.015 91.4908 46.0937 91.7359C46.5981 93.2956 47.4415 95.9067 49.5872 97.9515C51.8091 100.07 54.4967 100.719 56.9582 100.719C58.1927 100.719 59.3706 100.556 60.4037 100.332C64.0862 99.5351 68.2686 98.3208 71.2941 93.9697C74.1546 89.8565 75.5451 83.6613 75.7967 73.8998C75.8294 73.6237 75.8594 73.3601 75.8882 73.1089L75.9482 72.5931L76.6221 72.6529L76.7957 72.6647C80.5465 72.8374 85.1327 72.034 87.9493 70.7126C90.175 69.6695 97.3071 65.8665 95.6278 60.7322Z" fill="black"/>
<path d="M89.2148 61.7313C78.0623 64.0549 77.2954 60.2413 77.2954 60.2413C89.0704 42.5942 93.993 20.1938 89.7454 14.7114C78.1564 -0.243594 58.0958 6.82918 57.7609 7.0125L57.6533 7.03219C55.4498 6.57012 52.9842 6.29515 50.2126 6.24932C45.1665 6.16599 41.3386 7.58555 38.4338 9.81033C38.4338 9.81033 2.64756 -5.07985 4.31218 28.5372C4.66618 35.6888 14.4612 82.6504 26.1439 68.4658C30.4141 63.2788 34.5402 58.8933 34.5402 58.8933C36.5892 60.2682 39.0424 60.9696 41.6142 60.7177L41.8141 60.5465C41.7518 61.1904 41.7803 61.8203 41.8939 62.566C38.8842 65.9623 39.7688 66.5584 33.7523 67.8095C27.6642 69.0767 31.2406 71.3326 33.5757 71.9227C36.4066 72.6374 42.9556 73.6502 47.3806 67.3936L47.2043 68.1075C48.3833 69.0616 49.2113 74.3126 49.0726 79.0731C48.9338 83.8332 48.8412 87.1015 49.7701 89.6542C50.6997 92.207 51.6255 97.9508 59.535 96.2392C66.1437 94.8086 69.5686 91.1018 70.0452 84.9183C70.383 80.5226 71.1484 81.1725 71.1964 77.2422L71.8103 75.3818C72.5179 69.4229 71.9228 67.5004 75.9942 68.3946L76.9842 68.4825C79.9804 68.62 83.9029 67.9954 86.205 66.9148C91.1618 64.5916 94.1018 60.7121 89.2141 61.7313H89.2148Z" fill="#336791"/>
<path d="M40.5285 31.7355C39.5235 31.5942 38.6134 31.7249 38.1529 32.0771C37.8941 32.2752 37.8139 32.5047 37.7921 32.6626C37.7344 33.0812 38.0246 33.544 38.2031 33.7826C38.7079 34.4583 39.4451 34.9226 40.1749 35.0249C40.2806 35.0401 40.386 35.0469 40.4906 35.0469C41.7075 35.0469 42.8141 34.0898 42.9116 33.3834C43.0335 32.4986 41.7619 31.9085 40.5285 31.7355ZM73.8225 31.7635C73.7265 31.07 72.5048 30.8723 71.3453 31.0352C70.1873 31.198 69.0645 31.726 69.1583 32.421C69.2333 32.9615 70.1996 33.8841 71.3434 33.8841C71.4401 33.8841 71.5377 33.8777 71.6359 33.8637C72.3994 33.7568 72.9596 33.2671 73.2259 32.985C73.6309 32.5547 73.8656 32.0752 73.8225 31.7635Z" fill="white"/>
<path d="M92.9257 61.4666C92.5005 60.1679 91.1317 59.7501 88.8577 60.2243C82.1059 61.6318 79.6879 60.6569 78.894 60.0664C84.1421 51.9914 88.4595 42.2303 90.7886 33.1233C91.8919 28.8093 92.5012 24.8029 92.5511 21.5373C92.6062 17.9532 92.0017 15.3194 90.7552 13.7104C85.7295 7.22433 78.3532 3.74513 69.4245 3.64969C63.2861 3.58 58.0999 5.16658 57.0945 5.61275C54.9772 5.08098 52.6691 4.7545 50.1562 4.71284C45.5482 4.63747 41.565 5.75175 38.2672 8.02311C36.8347 7.48453 33.1327 6.20095 28.6054 5.46428C20.7784 4.19168 14.5586 5.15598 10.1201 8.33179C4.82398 12.1216 2.37898 18.8959 2.8526 28.4661C3.01198 31.6859 4.82848 41.591 7.69498 51.0768C11.4682 63.5619 15.57 70.6297 19.8855 72.0838C20.3906 72.2538 20.973 72.3727 21.6154 72.3727C23.1896 72.3727 25.1197 71.6561 27.1279 69.2178C29.5772 66.2501 32.1109 63.3545 34.7257 60.5345C36.4222 61.4541 38.286 61.9677 40.1921 62.0192C40.1959 62.0696 40.2007 62.12 40.2052 62.17C39.8771 62.5652 39.5558 62.9661 39.2415 63.3725C37.9207 65.0659 37.6459 65.4185 33.3945 66.3025C32.1851 66.5548 28.9732 67.2233 28.926 69.4973C28.875 71.9819 32.7229 73.0253 33.1612 73.1359C34.689 73.5222 36.1609 73.7128 37.5645 73.7128C40.9781 73.7128 43.9822 72.5795 46.383 70.3869C46.3091 79.2444 46.6747 87.9723 47.7277 90.6315C48.5902 92.8086 50.697 98.1289 57.3517 98.1285C58.3282 98.1285 59.403 98.0137 60.5854 97.7577C67.5307 96.2541 70.5469 93.1536 71.7135 86.3183C72.3379 82.6653 73.4092 73.9423 73.9132 69.2632C74.9767 69.5984 76.3459 69.7518 77.826 69.7514C80.913 69.7514 84.4751 69.089 86.709 68.0417C89.2185 66.8646 93.747 63.9762 92.9257 61.4666ZM76.386 29.8486C76.3631 31.2299 76.1749 32.4839 75.9754 33.7929C75.7605 35.2007 75.5385 36.6562 75.4826 38.4231C75.4275 40.1426 75.6401 41.9303 75.8456 43.6593C76.2611 47.1514 76.6875 50.7465 75.0371 54.2939C74.763 53.8032 74.5188 53.2962 74.3059 52.7755C74.1007 52.2732 73.6552 51.4665 73.0384 50.3499C70.6387 46.0034 65.0194 35.8249 67.896 31.6715C68.7529 30.4353 70.9275 29.1642 76.386 29.8486ZM69.7695 6.44676C77.7697 6.62515 84.0982 9.64795 88.5787 15.4307C92.0152 19.8662 88.2311 40.0487 77.2762 57.4602C77.1661 57.3187 77.0553 57.1777 76.944 57.0372L76.8052 56.8622C79.6361 52.1403 79.0826 47.4684 78.5899 43.3264C78.3874 41.6266 78.1961 40.021 78.2449 38.5129C78.2951 36.9145 78.5044 35.5435 78.7069 34.2178C78.9555 32.5843 79.2086 30.8939 79.1389 28.9013C79.191 28.6923 79.212 28.4453 79.1846 28.1522C79.0065 26.2414 76.8465 20.5226 72.444 15.3466C70.0357 12.5155 66.5239 9.34722 61.7287 7.21032C63.7912 6.77854 66.6116 6.37593 69.7695 6.44676ZM25.0027 67.4331C22.7902 70.1199 21.2625 69.6048 20.76 69.4359C17.4862 68.333 13.6875 61.3443 10.3384 50.2621C7.44035 40.6729 5.74685 31.0303 5.6126 28.3264C5.1896 19.775 7.24198 13.8153 11.7131 10.6126C18.9896 5.40103 30.9529 8.52041 35.76 10.1025C35.691 10.1714 35.619 10.2358 35.5507 10.3058C27.6622 18.352 27.8494 32.0991 27.8689 32.9396C27.8681 33.2638 27.8951 33.7228 27.9319 34.3542C28.0676 36.6665 28.3204 40.9698 27.6454 45.8432C27.0184 50.3719 28.4006 54.8044 31.437 58.0045C31.7486 58.3323 32.0761 58.6442 32.4184 58.9392C31.0669 60.4012 28.1295 63.6342 25.0027 67.4331ZM33.4324 56.0732C30.9851 53.4939 29.8736 49.9064 30.3825 46.2295C31.095 41.0815 30.8321 36.5979 30.6907 34.1891C30.6709 33.852 30.6532 33.5565 30.6431 33.3236C31.7955 32.2915 37.1359 29.4017 40.9444 30.283C42.6821 30.6849 43.7411 31.8802 44.1814 33.9361C46.4599 44.5801 44.4829 49.0164 42.8944 52.5815C42.567 53.3159 42.2576 54.0102 41.9936 54.7283L41.7889 55.2835C41.2706 56.6872 40.7884 57.9924 40.4895 59.2316C37.8877 59.224 35.3569 58.1014 33.4324 56.0728V56.0732ZM33.8317 70.4279C33.072 70.2362 32.3887 69.9033 31.9879 69.6272C32.3227 69.4681 32.9186 69.2515 33.9521 69.0363C38.9535 67.9967 39.726 67.2626 41.4127 65.0996C41.7994 64.6034 42.2377 64.0414 42.8449 63.3566L42.8456 63.3558C43.7497 62.3332 44.1634 62.5067 44.9134 62.821C45.5212 63.0748 46.1134 63.8444 46.3534 64.6913C46.467 65.0913 46.5945 65.8503 46.1771 66.4411C42.6536 71.424 37.5191 71.36 33.8317 70.4279ZM60.0064 95.0284C53.8879 96.3525 51.7215 93.1994 50.2939 89.5949C49.3725 87.2678 48.9195 76.7742 49.2409 65.1856C49.245 65.0314 49.2232 64.8826 49.1812 64.7424C49.1437 64.4657 49.0865 64.1921 49.0102 63.9236C48.5325 62.2374 47.3681 60.8269 45.9712 60.2421C45.4162 60.01 44.3977 59.5839 43.1737 59.9001C43.4347 58.8139 43.8874 57.5871 44.3782 56.2588L44.5841 55.7002C44.8159 55.0703 45.1069 54.4177 45.4144 53.7269C47.0767 49.9969 49.3534 44.888 46.8825 33.3463C45.957 29.0233 42.8662 26.9121 38.181 27.4026C35.3722 27.6961 32.8024 28.8407 31.5206 29.4971C31.245 29.638 30.993 29.7743 30.7575 29.9069C31.1152 25.5513 32.4667 17.4112 37.5225 12.2609C40.7059 9.01885 44.9452 7.41749 50.1105 7.50385C60.288 7.67201 66.8145 12.9472 70.4977 17.3434C73.6717 21.1313 75.3904 24.9472 76.0762 27.0053C70.9181 26.4754 67.41 27.5037 65.6317 30.0717C61.7629 35.6575 67.7482 46.4988 70.6249 51.7093C71.1525 52.6641 71.6077 53.4894 71.751 53.8401C72.6877 56.1331 73.9005 57.664 74.7859 58.7813C75.0574 59.1237 75.3206 59.4558 75.5209 59.746C73.9586 60.2008 71.1525 61.2519 71.4082 66.5055C71.202 69.1416 69.7354 81.4836 68.9902 85.8441C68.0066 91.6049 65.9077 93.7505 60.0064 95.0288V95.0284ZM85.5454 65.5102C83.9479 66.259 81.2745 66.8206 78.735 66.9415C75.93 67.074 74.502 66.6241 74.166 66.3472C74.0085 63.0733 75.2149 62.7313 76.4917 62.3692C76.6924 62.3124 76.8881 62.2567 77.0771 62.19C77.1945 62.2866 77.3231 62.3824 77.4641 62.4764C79.7186 63.9793 83.7397 64.1414 89.4169 62.9578L89.4791 62.9453C88.7134 63.6683 87.4031 64.6387 85.5454 65.5102Z" fill="white"/>
</g>
<defs>
<clipPath id="clip0_4444_11294">
<rect width="96" height="100" fill="white" transform="translate(0 0.857422)"/>
</clipPath>
</defs>
</svg>
