<svg width="100" height="101" viewBox="0 0 100 101" fill="none" xmlns="http://www.w3.org/2000/svg">
<g clip-path="url(#clip0_4444_1073)">
<path d="M37.9953 50.4795C36.6634 50.4795 35.5803 50.8693 34.7501 51.648C33.92 52.4277 33.4988 53.4495 33.4988 54.7018C33.4988 55.3506 33.6033 55.9422 33.8093 56.4843C34.0155 57.0276 34.3363 57.5309 34.7674 57.9857C35.1986 58.4408 36.0616 59.0589 37.3478 59.8451C38.9263 60.7973 39.9591 61.5702 40.4549 62.1737C40.9508 62.7765 41.1971 63.4084 41.1971 64.0672C41.1971 64.9491 40.9034 65.6533 40.2994 66.1825C39.6947 66.712 38.8857 66.9756 37.8831 66.9756C36.8253 66.9756 35.9039 66.6072 35.1127 65.8756C34.3215 65.1427 33.9219 64.1733 33.913 62.9583H33.4209V67.3682H33.913C34.0633 66.9505 34.2711 66.7371 34.5431 66.7371C34.6739 66.7371 34.9805 66.8261 35.4579 66.9928C36.6195 67.4014 37.5734 67.5984 38.3232 67.5984C39.6152 67.5984 40.7183 67.1512 41.6372 66.2423C42.5549 65.3337 43.0181 64.2378 43.0181 62.9583C43.0181 61.9664 42.7123 61.0835 42.1121 60.3143C41.5116 59.5439 40.3441 58.6479 38.5993 57.6189C37.0979 56.7273 36.1233 56.0013 35.6736 55.4353C35.2232 54.87 34.9918 54.2448 34.9918 53.5587C34.9918 52.8167 35.2677 52.2206 35.8117 51.7759C36.3557 51.3311 37.0686 51.1107 37.9608 51.1107C38.9644 51.1107 39.8013 51.4052 40.4635 51.9979C41.125 52.5915 41.5075 53.4142 41.62 54.4713H42.1121V50.6503H41.6546C41.5985 50.845 41.5468 50.9695 41.4991 51.0254C41.4529 51.081 41.3638 51.1107 41.2316 51.1107C41.0725 51.1107 40.7888 51.0445 40.3857 50.9145C39.5227 50.6273 38.727 50.4795 37.9951 50.4795H37.9953ZM54.0737 50.4795C52.4509 50.4795 50.9774 50.8577 49.6463 51.614C48.313 52.369 47.2576 53.4175 46.4789 54.7529C45.7004 56.0883 45.3138 57.5064 45.3138 59.0178C45.3138 61.048 45.9863 62.857 47.342 64.4425C48.6983 66.0269 50.3237 67.0142 52.2095 67.3938C52.6406 67.6158 53.2575 68.1889 54.0651 69.1168C54.975 70.1637 55.7449 70.9188 56.378 71.3685C56.9968 71.8094 57.6849 72.1466 58.4146 72.3666C59.1371 72.5839 59.9179 72.6908 60.7622 72.6908C61.7848 72.6908 62.7002 72.515 63.5067 72.1534L63.3255 71.7097C62.8574 71.8766 62.3581 71.9571 61.8325 71.9571C61.1188 71.9571 60.3977 71.7245 59.6748 71.2577C58.9529 70.7895 58.0502 69.8966 56.9735 68.5793C56.4674 67.9483 56.1181 67.5499 55.9205 67.3938C57.984 66.9955 59.6807 66.0072 61.004 64.4254C62.3267 62.8445 62.9888 61.0401 62.9888 59.0176C62.9888 56.6165 62.1244 54.5983 60.4084 52.9531C58.6909 51.3076 56.5789 50.4795 54.0737 50.4795ZM64.1108 50.4795L64.1368 50.9998C65.2172 50.9998 65.8225 51.3143 65.9578 51.9465C66.0082 52.1729 66.0312 52.5905 66.0353 53.1919L66.0267 64.6984C66.0177 65.5578 65.8939 66.1064 65.6557 66.3446C65.4171 66.581 65.0139 66.7292 64.4302 66.7881L64.4043 67.3085H75.175L75.4513 64.6984H74.9592C74.8186 65.4094 74.4967 65.9189 73.9841 66.2081C73.47 66.4995 72.561 66.6431 71.2482 66.6431H70.2298C69.0484 66.6431 68.365 66.2211 68.1844 65.3721C68.1473 65.2042 68.1344 65.0242 68.1326 64.8264L68.1756 53.1919C68.1756 52.3339 68.2851 51.759 68.5124 51.4774C68.7419 51.197 69.1558 51.0401 69.7551 50.9998L69.7293 50.4795H64.1108ZM54.2461 51.1105C56.0767 51.1105 57.571 51.8232 58.7254 53.2602C59.8794 54.6977 60.4516 56.6679 60.4516 59.1627C60.4516 61.5268 59.8712 63.4195 58.7083 64.8434C57.5451 66.2668 55.9972 66.9758 54.0737 66.9758C52.2257 66.9758 50.7271 66.2446 49.5772 64.7752C48.4282 63.3057 47.8598 61.3979 47.8598 59.0518C47.8598 56.641 48.4353 54.7112 49.5945 53.2687C50.753 51.8279 52.3044 51.1107 54.2463 51.1107L54.2461 51.1105ZM79.0156 53.5844C78.7528 53.5844 78.5527 53.672 78.4029 53.8488C78.2496 54.0248 78.2025 54.238 78.2561 54.497C78.3078 54.7483 78.4513 54.9683 78.679 55.1537C78.9055 55.339 79.1498 55.4353 79.4126 55.4353C79.6666 55.4353 79.8603 55.339 79.9994 55.1537C80.1386 54.9685 80.181 54.7483 80.1288 54.497C80.0753 54.238 79.9369 54.0248 79.7233 53.8486C79.5071 53.672 79.2697 53.5844 79.0156 53.5844ZM86.1183 55.35C85.6719 57.0471 84.7044 57.9655 83.2187 58.1135L83.2358 58.5998H84.9706L84.936 64.3488C84.9387 65.3316 84.9692 65.986 85.0395 66.3191C85.2105 67.1163 85.7374 67.5218 86.619 67.5218C87.8946 67.5218 89.2326 66.7537 90.632 65.2187L90.2093 64.8605C89.1988 65.8714 88.3055 66.3787 87.5252 66.3787C87.0456 66.3787 86.7484 66.1062 86.6362 65.5684C86.6055 65.4378 86.5932 65.2851 86.5932 65.1078L86.6104 58.5998H89.2599L89.2339 57.8234H86.619V55.35H86.1183ZM96.3626 57.5164C94.8806 57.5164 93.6752 58.2275 92.7379 59.6404C91.8055 61.0555 91.517 62.6235 91.8835 64.3488C92.0992 65.3592 92.529 66.1423 93.1867 66.6943C93.8433 67.2462 94.6763 67.5218 95.6723 67.5218C96.5995 67.5218 97.8905 67.2896 98.434 66.8222C98.9787 66.3552 99.4806 65.5983 99.9443 64.562L99.5733 64.178C98.8337 65.5227 97.3415 66.1997 96.216 66.1997C94.6687 66.1997 93.7211 65.3606 93.3679 63.6918C93.3204 63.4665 93.2858 63.2387 93.2644 63.0095C95.1051 62.7215 96.5001 62.2115 97.4414 61.4743C98.3822 60.7365 99.3267 59.9545 99.1504 59.1286C99.0453 58.6376 98.7876 58.2517 98.3908 57.9601C97.989 57.6685 96.9459 57.5164 96.3626 57.5164ZM80.1636 57.5762L76.9702 58.3013V58.8642L78.0748 58.7278C78.6099 58.7278 78.9248 58.9671 79.0242 59.4441C79.0576 59.6037 79.0789 59.8281 79.0847 60.1095L79.05 65.2699C79.0412 65.9839 78.961 66.399 78.7999 66.5237C78.6372 66.6485 78.2084 66.7114 77.5139 66.7114L77.4967 67.1976H82.5626L82.554 66.7112C81.8501 66.7112 81.3937 66.6564 81.1905 66.5491C80.9905 66.443 80.8527 66.2491 80.7935 65.9522C80.7476 65.7384 80.7275 65.3698 80.7244 64.8605L80.7418 57.5762H80.1634H80.1636ZM95.5515 58.5315C95.8598 58.5315 96.1576 58.6492 96.4575 58.8812C96.7535 59.1124 96.9338 59.3694 96.9927 59.6489C97.2817 61.021 96.051 61.9693 93.2816 62.4977C93.2027 61.4974 93.378 60.5891 93.8254 59.7683C94.2694 58.9481 94.8476 58.5315 95.5515 58.5315Z" fill="#003B57"/>
<path d="M30.8424 30.7783H3.36146C1.51954 30.7783 0.0126953 32.2678 0.0126953 34.088V64.0404C0.0126953 65.8606 1.51954 67.35 3.36146 67.35H21.461C21.2556 58.4493 24.331 41.1758 30.8424 30.7783Z" fill="#0F80CC"/>
<path d="M29.8439 31.7432H3.36131C2.05344 31.7432 0.989258 32.7947 0.989258 34.0875V61.8544C6.98696 59.5795 15.9888 57.6165 22.213 57.7057C23.4639 51.2419 27.1399 38.5746 29.8439 31.7432Z" fill="url(#paint0_linear_4444_1073)"/>
<path d="M37.2519 29.7976C35.3698 28.139 33.0909 28.8051 30.842 30.778C30.5081 31.0709 30.175 31.3961 29.8436 31.7435C25.9962 35.7774 22.4248 43.2491 21.3153 48.9556C21.7476 49.8219 22.0852 50.9273 22.3075 51.7718C22.3645 51.9883 22.4158 52.1917 22.457 52.3646C22.5547 52.7741 22.6072 53.0395 22.6072 53.0395C22.6072 53.0395 22.5726 52.9106 22.4311 52.5049C22.4041 52.4272 22.374 52.3422 22.3385 52.2423C22.32 52.1934 22.3002 52.145 22.2791 52.0972C22.0282 51.5205 21.3341 50.3036 21.0285 49.7736C20.7863 50.4758 20.5577 51.1824 20.3429 51.8932C21.2249 53.4882 21.7625 56.2216 21.7625 56.2216C21.7625 56.2216 21.7158 56.0444 21.4942 55.4261C21.2974 54.8794 20.3173 53.1821 20.0852 52.7853C19.688 54.2344 19.5302 55.2127 19.6726 55.4508C19.9489 55.9122 20.2119 56.7087 20.4431 57.5892C20.965 59.5731 21.3276 61.9885 21.3276 61.9885C21.3276 61.9885 21.3393 62.1486 21.3593 62.3949C21.2866 64.0609 21.3302 65.7883 21.4608 67.3495C21.6336 69.4164 21.9591 71.1918 22.374 72.142L22.6558 71.9904C22.0466 70.1182 21.799 67.6649 21.9074 64.8353C22.0714 60.5106 23.0784 55.2949 24.939 49.8587C28.0828 41.6526 32.4441 35.0684 36.4359 31.9239C32.7976 35.1714 27.8734 45.683 26.3994 49.5755C24.7488 53.9345 23.5792 58.025 22.8743 61.9441C24.0906 58.2699 28.023 56.6907 28.023 56.6907C28.023 56.6907 29.9516 54.3398 32.2055 50.9811C30.8555 51.2855 28.6385 51.8065 27.8959 52.1149C26.8005 52.569 26.5054 52.724 26.5054 52.724C26.5054 52.724 30.0533 50.5884 33.0975 49.6216C37.2839 43.1049 41.8451 33.8472 37.2519 29.7976Z" fill="#003B57"/>
</g>
<defs>
<linearGradient id="paint0_linear_4444_1073" x1="1664.8" y1="93.3508" x2="1664.8" y2="2875.42" gradientUnits="userSpaceOnUse">
<stop stop-color="#97D9F6"/>
<stop offset="0.92024" stop-color="#0F80CC"/>
<stop offset="1" stop-color="#0F80CC"/>
</linearGradient>
<clipPath id="clip0_4444_1073">
<rect width="100" height="44" fill="white" transform="translate(0 28.8574)"/>
</clipPath>
</defs>
</svg>
