<svg width="1212" height="823" viewBox="0 0 1212 823" fill="none" xmlns="http://www.w3.org/2000/svg">
<rect width="1212" height="823" rx="20" fill="#FFF5EA"/>
<g opacity="0.3" clip-path="url(#clip0_1096_451)">
<path d="M461.182 514.233H424.212V579.116H334.578V514.233H200.999V447.954L340.507 243.884H424.212V446.558H461.182V514.233ZM334.578 446.558V407.488C334.578 400.163 334.927 390.395 335.276 377.837C335.973 365.279 336.322 359 336.671 358.302H334.229C328.998 370.163 323.069 380.977 316.442 391.442L279.472 446.558H334.578Z" fill="#EE8711"/>
<path d="M726.945 412.023C726.945 471.326 716.831 514.93 697.3 542.488C677.42 570.047 647.077 584 605.922 584C565.813 584 535.819 569.698 515.241 540.744C495.013 511.791 484.898 468.884 484.898 412.023C484.898 352.372 494.664 308.767 514.893 280.86C534.773 252.953 565.116 239 606.271 239C646.03 239 676.373 253.651 696.602 282.605C716.831 311.558 726.945 354.465 726.945 412.023ZM574.881 412.023C574.881 450.047 577.323 476.209 581.857 490.163C586.739 504.465 594.412 511.442 605.573 511.442C616.734 511.442 624.755 504.116 629.638 489.465C634.172 474.814 636.614 449 636.614 412.023C636.614 374.698 634.172 348.884 629.638 333.884C624.755 318.884 617.082 311.558 605.922 311.558C594.761 311.558 586.739 318.884 582.205 333.186C577.323 347.488 574.881 373.651 574.881 412.023Z" fill="#EE8711"/>
<path d="M1011.54 514.233H974.572V579.116H884.938V514.233H751.359V447.954L890.867 243.884H974.572V446.558H1011.54V514.233ZM885.287 446.558V407.488C885.287 400.163 885.636 390.395 885.985 377.837C886.682 365.279 887.031 359 887.38 358.302H884.938C879.707 370.163 873.778 380.977 867.151 391.442L829.833 446.907H885.287V446.558Z" fill="#EE8711"/>
</g>
<path d="M345.65 519.24C345.65 519.24 494.629 526.239 636.731 526.239C778.834 526.239 868.221 519.24 868.221 519.24" stroke="black" stroke-width="2.49398" stroke-miterlimit="10"/>
<path d="M618.396 414.259V444.587C618.396 456.251 611.52 463.25 611.52 463.25H604.644L588.6 481.913L581.724 509.908H577.14V519.24H551.929L553.304 516.44C555.367 512.474 559.263 509.908 563.847 509.908H567.973L584.016 460.917V421.258" stroke="black" stroke-width="2.49398" stroke-miterlimit="10"/>
<path d="M609.228 463.25L639.024 505.242L636.045 507.575L639.024 512.241V519.24H616.104V519.007C617.48 513.641 622.064 509.908 627.564 509.908V507.575L597.769 472.582" stroke="black" stroke-width="2.49398" stroke-miterlimit="10"/>
<path d="M584.017 442.254H618.396" stroke="black" stroke-width="2.49398" stroke-miterlimit="10"/>
<path d="M563.389 414.259L574.849 437.588H577.141V415.892C577.141 402.361 585.85 376.932 585.85 376.932V365.268" stroke="black" stroke-width="2.49398" stroke-miterlimit="10"/>
<path d="M611.519 414.259H451.081" stroke="black" stroke-width="2.49398" stroke-miterlimit="10"/>
<path d="M657.359 374.6H664.235" stroke="black" stroke-width="2.49398" stroke-miterlimit="10"/>
<path d="M657.359 381.599H664.235" stroke="black" stroke-width="2.49398" stroke-miterlimit="10"/>
<path d="M657.359 388.597H664.235" stroke="black" stroke-width="2.49398" stroke-miterlimit="10"/>
<path d="M618.395 374.6H652.775V388.597H645.212C633.752 388.597 622.75 384.864 613.353 378.099L611.52 376.933" stroke="black" stroke-width="2.49398" stroke-miterlimit="10"/>
<path d="M618.396 360.602C618.396 360.602 618.396 372.266 618.396 374.599L616.792 375.066C608.77 377.865 600.06 378.565 591.809 377.632L586.309 376.932" stroke="black" stroke-width="2.49398" stroke-miterlimit="10"/>
<path d="M571.411 341.471C570.723 345.67 572.786 349.636 576.911 351.502C580.808 353.135 585.162 351.969 587.684 348.703" stroke="black" stroke-width="2.49398" stroke-miterlimit="10"/>
<path d="M629.627 339.138C629.627 339.138 621.834 328.174 607.165 321.642C592.497 315.109 579.203 316.976 579.203 316.976C585.162 302.745 608.77 294.347 617.25 298.079C626.418 302.278 635.586 324.908 629.627 339.138Z" stroke="black" stroke-width="2.49398" stroke-miterlimit="10"/>
<path d="M587.683 308.111C586.766 308.111 585.85 308.111 585.162 308.111" stroke="black" stroke-width="2.49398" stroke-miterlimit="10"/>
<path d="M629.856 326.541C626.189 322.809 619.771 316.976 610.603 313.01C601.435 309.044 592.955 308.111 587.684 308.111" stroke="black" stroke-width="2.49398" stroke-miterlimit="10"/>
<path d="M631.46 328.407C631.001 327.941 630.543 327.241 629.855 326.541" stroke="black" stroke-width="2.49398" stroke-miterlimit="10"/>
<path d="M648.88 358.969C645.442 360.368 641.316 358.735 639.941 355.003L639.024 352.903C635.586 354.303 631.461 352.67 630.086 348.937L629.169 346.837V337.272" stroke="black" stroke-width="2.49398" stroke-miterlimit="10"/>
<path d="M618.626 329.341L617.48 331.907C616.105 335.173 617.48 338.906 620.689 340.306L621.147 340.539L620.23 342.638C618.626 346.138 620.23 350.337 623.897 351.737C617.938 365.968 601.665 372.5 587.684 366.434C573.703 360.369 567.286 343.805 573.245 329.574" stroke="black" stroke-width="2.49398" stroke-miterlimit="10"/>
<path d="M623.209 353.137C621.146 357.803 623.438 363.402 628.022 365.501" stroke="black" stroke-width="2.49398" stroke-miterlimit="10"/>
<path d="M652.547 331.675L651.631 333.774C650.026 337.274 646.13 338.907 642.692 337.507C641.088 341.006 637.191 342.64 633.753 341.24L631.69 340.307" stroke="black" stroke-width="2.49398" stroke-miterlimit="10"/>
<path d="M577.14 402.595H618.395" stroke="black" stroke-width="2.49398" stroke-miterlimit="10"/>
<path d="M611.52 414.259H771.958" stroke="black" stroke-width="2.49398" stroke-miterlimit="10"/>
<path d="M558.805 418.924V414.259L547.345 409.593L545.053 411.926V418.924L547.345 421.257H558.805L563.389 416.592" stroke="black" stroke-width="2.49398" stroke-miterlimit="10"/>
<path d="M620.688 421.257L618.396 414.259L629.856 409.593L632.148 411.926V418.924L629.856 421.257H620.688Z" stroke="black" stroke-width="2.49398" stroke-miterlimit="10"/>
<path d="M579.433 316.277C578.287 321.176 573.015 323.976 568.431 322.11L565.681 320.943" stroke="black" stroke-width="2.49398" stroke-miterlimit="10"/>
<path d="M561.146 102.36C559.394 102.36 557.846 102.132 556.502 101.676C555.182 101.22 554.066 100.548 553.154 99.66C552.242 98.748 551.558 97.62 551.102 96.276C550.646 94.932 550.418 93.372 550.418 91.596V78.672C550.418 77.88 550.61 77.292 550.994 76.908C551.402 76.524 551.978 76.332 552.722 76.332C553.466 76.332 554.03 76.524 554.414 76.908C554.822 77.292 555.026 77.88 555.026 78.672V91.56C555.026 93.84 555.542 95.556 556.574 96.708C557.63 97.836 559.154 98.4 561.146 98.4C563.138 98.4 564.65 97.836 565.682 96.708C566.714 95.556 567.23 93.84 567.23 91.56V78.672C567.23 77.88 567.422 77.292 567.806 76.908C568.214 76.524 568.79 76.332 569.534 76.332C570.254 76.332 570.806 76.524 571.19 76.908C571.598 77.292 571.802 77.88 571.802 78.672V91.596C571.802 93.948 571.394 95.928 570.578 97.536C569.786 99.144 568.598 100.356 567.014 101.172C565.43 101.964 563.474 102.36 561.146 102.36ZM578.976 102.288C578.256 102.288 577.704 102.096 577.32 101.712C576.936 101.304 576.744 100.728 576.744 99.984V78.6C576.744 77.856 576.936 77.292 577.32 76.908C577.704 76.524 578.256 76.332 578.976 76.332C579.696 76.332 580.248 76.524 580.632 76.908C581.04 77.292 581.244 77.856 581.244 78.6V87.924H580.74C581.268 86.652 582.084 85.692 583.188 85.044C584.316 84.372 585.588 84.036 587.004 84.036C588.42 84.036 589.584 84.3 590.496 84.828C591.408 85.356 592.092 86.16 592.548 87.24C593.004 88.296 593.232 89.64 593.232 91.272V99.984C593.232 100.728 593.04 101.304 592.656 101.712C592.272 102.096 591.72 102.288 591 102.288C590.28 102.288 589.716 102.096 589.308 101.712C588.924 101.304 588.732 100.728 588.732 99.984V91.488C588.732 90.12 588.468 89.124 587.94 88.5C587.436 87.876 586.644 87.564 585.564 87.564C584.244 87.564 583.188 87.984 582.396 88.824C581.628 89.64 581.244 90.732 581.244 92.1V99.984C581.244 101.52 580.488 102.288 578.976 102.288ZM599.459 94.152C598.931 94.152 598.487 93.984 598.127 93.648C597.791 93.288 597.623 92.856 597.623 92.352C597.623 91.824 597.791 91.392 598.127 91.056C598.487 90.72 598.931 90.552 599.459 90.552H607.127C607.631 90.552 608.051 90.72 608.387 91.056C608.747 91.392 608.927 91.824 608.927 92.352C608.927 92.856 608.747 93.288 608.387 93.648C608.051 93.984 607.631 94.152 607.127 94.152H599.459ZM621.968 102.36C620.144 102.36 618.56 101.988 617.216 101.244C615.872 100.5 614.828 99.444 614.084 98.076C613.34 96.684 612.968 95.052 612.968 93.18C612.968 91.764 613.172 90.504 613.58 89.4C614.012 88.272 614.624 87.312 615.416 86.52C616.208 85.704 617.156 85.092 618.26 84.684C619.364 84.252 620.6 84.036 621.968 84.036C623.792 84.036 625.376 84.408 626.72 85.152C628.064 85.896 629.108 86.952 629.852 88.32C630.596 89.688 630.968 91.308 630.968 93.18C630.968 94.596 630.752 95.868 630.32 96.996C629.912 98.124 629.312 99.096 628.52 99.912C627.728 100.704 626.78 101.316 625.676 101.748C624.572 102.156 623.336 102.36 621.968 102.36ZM621.968 98.94C622.856 98.94 623.636 98.724 624.308 98.292C624.98 97.86 625.496 97.224 625.856 96.384C626.24 95.52 626.432 94.452 626.432 93.18C626.432 91.26 626.024 89.832 625.208 88.896C624.392 87.936 623.312 87.456 621.968 87.456C621.08 87.456 620.3 87.672 619.628 88.104C618.956 88.512 618.428 89.148 618.044 90.012C617.684 90.852 617.504 91.908 617.504 93.18C617.504 95.076 617.912 96.516 618.728 97.5C619.544 98.46 620.624 98.94 621.968 98.94ZM636.914 102.288C636.194 102.288 635.642 102.096 635.258 101.712C634.874 101.304 634.682 100.728 634.682 99.984V78.6C634.682 77.856 634.874 77.292 635.258 76.908C635.642 76.524 636.194 76.332 636.914 76.332C637.634 76.332 638.186 76.524 638.57 76.908C638.978 77.292 639.182 77.856 639.182 78.6V87.924H638.678C639.206 86.652 640.022 85.692 641.126 85.044C642.254 84.372 643.526 84.036 644.942 84.036C646.358 84.036 647.522 84.3 648.434 84.828C649.346 85.356 650.03 86.16 650.486 87.24C650.942 88.296 651.17 89.64 651.17 91.272V99.984C651.17 100.728 650.978 101.304 650.594 101.712C650.21 102.096 649.658 102.288 648.938 102.288C648.218 102.288 647.654 102.096 647.246 101.712C646.862 101.304 646.67 100.728 646.67 99.984V91.488C646.67 90.12 646.406 89.124 645.878 88.5C645.374 87.876 644.582 87.564 643.502 87.564C642.182 87.564 641.126 87.984 640.334 88.824C639.566 89.64 639.182 90.732 639.182 92.1V99.984C639.182 101.52 638.426 102.288 636.914 102.288ZM359.054 147C358.521 147 358.105 146.851 357.806 146.552C357.508 146.253 357.358 145.837 357.358 145.304V126.008C357.358 125.453 357.497 125.037 357.774 124.76C358.073 124.461 358.489 124.312 359.022 124.312C359.556 124.312 359.961 124.461 360.238 124.76C360.537 125.037 360.686 125.453 360.686 126.008V144.152H370.606C371.076 144.152 371.438 144.28 371.694 144.536C371.95 144.771 372.078 145.112 372.078 145.56C372.078 146.008 371.95 146.36 371.694 146.616C371.438 146.872 371.076 147 370.606 147H359.054ZM381.29 147.288C379.712 147.288 378.346 146.957 377.194 146.296C376.064 145.635 375.178 144.696 374.538 143.48C373.898 142.264 373.578 140.835 373.578 139.192C373.578 137.933 373.76 136.813 374.122 135.832C374.485 134.851 374.997 134.008 375.658 133.304C376.341 132.579 377.152 132.035 378.09 131.672C379.05 131.288 380.117 131.096 381.29 131.096C382.848 131.096 384.192 131.427 385.322 132.088C386.474 132.749 387.37 133.688 388.01 134.904C388.65 136.099 388.97 137.528 388.97 139.192C388.97 140.429 388.789 141.549 388.426 142.552C388.064 143.555 387.541 144.408 386.858 145.112C386.197 145.816 385.386 146.36 384.426 146.744C383.488 147.107 382.442 147.288 381.29 147.288ZM381.29 144.792C382.165 144.792 382.933 144.579 383.594 144.152C384.256 143.725 384.768 143.096 385.13 142.264C385.514 141.432 385.706 140.408 385.706 139.192C385.706 137.357 385.301 135.971 384.49 135.032C383.68 134.093 382.613 133.624 381.29 133.624C380.394 133.624 379.616 133.837 378.954 134.264C378.293 134.669 377.77 135.288 377.386 136.12C377.024 136.952 376.842 137.976 376.842 139.192C376.842 141.005 377.248 142.392 378.058 143.352C378.869 144.312 379.946 144.792 381.29 144.792ZM399.384 147.288C397.805 147.288 396.44 146.957 395.288 146.296C394.157 145.635 393.272 144.696 392.632 143.48C391.992 142.264 391.672 140.835 391.672 139.192C391.672 137.933 391.853 136.813 392.216 135.832C392.579 134.851 393.091 134.008 393.752 133.304C394.435 132.579 395.245 132.035 396.184 131.672C397.144 131.288 398.211 131.096 399.384 131.096C400.941 131.096 402.285 131.427 403.416 132.088C404.568 132.749 405.464 133.688 406.104 134.904C406.744 136.099 407.064 137.528 407.064 139.192C407.064 140.429 406.883 141.549 406.52 142.552C406.157 143.555 405.635 144.408 404.952 145.112C404.291 145.816 403.48 146.36 402.52 146.744C401.581 147.107 400.536 147.288 399.384 147.288ZM399.384 144.792C400.259 144.792 401.027 144.579 401.688 144.152C402.349 143.725 402.861 143.096 403.224 142.264C403.608 141.432 403.8 140.408 403.8 139.192C403.8 137.357 403.395 135.971 402.584 135.032C401.773 134.093 400.707 133.624 399.384 133.624C398.488 133.624 397.709 133.837 397.048 134.264C396.387 134.669 395.864 135.288 395.48 136.12C395.117 136.952 394.936 137.976 394.936 139.192C394.936 141.005 395.341 142.392 396.152 143.352C396.963 144.312 398.04 144.792 399.384 144.792ZM412.294 147.224C411.782 147.224 411.387 147.085 411.11 146.808C410.833 146.509 410.694 146.104 410.694 145.592V125.848C410.694 125.315 410.833 124.909 411.11 124.632C411.387 124.355 411.782 124.216 412.294 124.216C412.806 124.216 413.201 124.355 413.478 124.632C413.777 124.909 413.926 125.315 413.926 125.848V138.2H413.99L419.974 132.248C420.315 131.907 420.625 131.64 420.902 131.448C421.179 131.256 421.542 131.16 421.99 131.16C422.438 131.16 422.779 131.277 423.014 131.512C423.249 131.747 423.366 132.035 423.366 132.376C423.366 132.696 423.206 133.027 422.886 133.368L416.55 139.64V138.136L423.462 145.016C423.803 145.357 423.963 145.699 423.942 146.04C423.921 146.381 423.782 146.669 423.526 146.904C423.27 147.117 422.95 147.224 422.566 147.224C422.075 147.224 421.681 147.128 421.382 146.936C421.105 146.744 420.774 146.456 420.39 146.072L413.99 139.864H413.926V145.592C413.926 146.68 413.382 147.224 412.294 147.224ZM440.655 147.288C438.991 147.288 437.733 146.808 436.879 145.848C436.047 144.867 435.631 143.459 435.631 141.624V125.848C435.631 125.315 435.77 124.909 436.047 124.632C436.325 124.355 436.719 124.216 437.231 124.216C437.743 124.216 438.138 124.355 438.415 124.632C438.714 124.909 438.863 125.315 438.863 125.848V141.432C438.863 142.499 439.077 143.299 439.503 143.832C439.951 144.344 440.591 144.6 441.423 144.6C441.615 144.6 441.786 144.6 441.935 144.6C442.085 144.579 442.234 144.557 442.383 144.536C442.639 144.515 442.821 144.589 442.927 144.76C443.034 144.909 443.087 145.229 443.087 145.72C443.087 146.168 442.991 146.52 442.799 146.776C442.607 147.011 442.298 147.16 441.871 147.224C441.679 147.245 441.477 147.256 441.263 147.256C441.05 147.277 440.847 147.288 440.655 147.288ZM447.013 147.192C446.501 147.192 446.106 147.043 445.829 146.744C445.551 146.424 445.413 145.987 445.413 145.432V132.952C445.413 132.397 445.551 131.971 445.829 131.672C446.106 131.373 446.501 131.224 447.013 131.224C447.525 131.224 447.919 131.373 448.197 131.672C448.495 131.971 448.645 132.397 448.645 132.952V145.432C448.645 145.987 448.506 146.424 448.229 146.744C447.951 147.043 447.546 147.192 447.013 147.192ZM447.013 127.896C446.373 127.896 445.871 127.736 445.509 127.416C445.167 127.096 444.997 126.648 444.997 126.072C444.997 125.475 445.167 125.027 445.509 124.728C445.871 124.408 446.373 124.248 447.013 124.248C447.653 124.248 448.143 124.408 448.485 124.728C448.847 125.027 449.029 125.475 449.029 126.072C449.029 126.648 448.847 127.096 448.485 127.416C448.143 127.736 447.653 127.896 447.013 127.896ZM454.794 147.224C454.282 147.224 453.887 147.085 453.61 146.808C453.333 146.509 453.194 146.104 453.194 145.592V125.848C453.194 125.315 453.333 124.909 453.61 124.632C453.887 124.355 454.282 124.216 454.794 124.216C455.306 124.216 455.701 124.355 455.978 124.632C456.277 124.909 456.426 125.315 456.426 125.848V138.2H456.49L462.474 132.248C462.815 131.907 463.125 131.64 463.402 131.448C463.679 131.256 464.042 131.16 464.49 131.16C464.938 131.16 465.279 131.277 465.514 131.512C465.749 131.747 465.866 132.035 465.866 132.376C465.866 132.696 465.706 133.027 465.386 133.368L459.05 139.64V138.136L465.962 145.016C466.303 145.357 466.463 145.699 466.442 146.04C466.421 146.381 466.282 146.669 466.026 146.904C465.77 147.117 465.45 147.224 465.066 147.224C464.575 147.224 464.181 147.128 463.882 146.936C463.605 146.744 463.274 146.456 462.89 146.072L456.49 139.864H456.426V145.592C456.426 146.68 455.882 147.224 454.794 147.224ZM476.678 147.288C474.971 147.288 473.499 146.968 472.262 146.328C471.046 145.667 470.097 144.739 469.414 143.544C468.753 142.328 468.422 140.888 468.422 139.224C468.422 137.603 468.753 136.184 469.414 134.968C470.075 133.752 470.982 132.803 472.134 132.12C473.286 131.437 474.598 131.096 476.07 131.096C477.158 131.096 478.129 131.277 478.982 131.64C479.835 131.981 480.561 132.493 481.158 133.176C481.777 133.837 482.235 134.648 482.534 135.608C482.854 136.568 483.014 137.645 483.014 138.84C483.014 139.203 482.907 139.48 482.694 139.672C482.481 139.843 482.161 139.928 481.734 139.928H470.982V137.944H480.838L480.294 138.392C480.294 137.325 480.134 136.419 479.814 135.672C479.515 134.925 479.057 134.36 478.438 133.976C477.841 133.571 477.094 133.368 476.198 133.368C475.195 133.368 474.342 133.603 473.638 134.072C472.955 134.541 472.433 135.192 472.07 136.024C471.707 136.856 471.526 137.827 471.526 138.936V139.128C471.526 141.005 471.963 142.424 472.838 143.384C473.734 144.323 475.025 144.792 476.71 144.792C477.35 144.792 478.022 144.707 478.726 144.536C479.451 144.365 480.134 144.077 480.774 143.672C481.137 143.459 481.457 143.363 481.734 143.384C482.033 143.405 482.267 143.501 482.438 143.672C482.63 143.843 482.747 144.056 482.79 144.312C482.833 144.568 482.79 144.835 482.662 145.112C482.534 145.368 482.31 145.603 481.99 145.816C481.265 146.307 480.422 146.68 479.462 146.936C478.502 147.171 477.574 147.288 476.678 147.288ZM501.631 147.288C500.351 147.288 499.274 147.064 498.399 146.616C497.524 146.168 496.874 145.507 496.447 144.632C496.02 143.757 495.807 142.691 495.807 141.432V133.88H493.887C493.46 133.88 493.13 133.773 492.895 133.56C492.66 133.325 492.543 133.016 492.543 132.632C492.543 132.227 492.66 131.917 492.895 131.704C493.13 131.491 493.46 131.384 493.887 131.384H495.807V128.088C495.807 127.555 495.946 127.149 496.223 126.872C496.522 126.595 496.927 126.456 497.439 126.456C497.951 126.456 498.346 126.595 498.623 126.872C498.9 127.149 499.039 127.555 499.039 128.088V131.384H502.783C503.21 131.384 503.54 131.491 503.775 131.704C504.01 131.917 504.127 132.227 504.127 132.632C504.127 133.016 504.01 133.325 503.775 133.56C503.54 133.773 503.21 133.88 502.783 133.88H499.039V141.176C499.039 142.307 499.274 143.16 499.743 143.736C500.234 144.312 501.023 144.6 502.111 144.6C502.495 144.6 502.826 144.568 503.103 144.504C503.402 144.419 503.647 144.365 503.839 144.344C504.074 144.344 504.266 144.429 504.415 144.6C504.564 144.749 504.639 145.048 504.639 145.496C504.639 145.816 504.575 146.115 504.447 146.392C504.34 146.669 504.138 146.851 503.839 146.936C503.583 147.021 503.231 147.096 502.783 147.16C502.356 147.245 501.972 147.288 501.631 147.288ZM508.544 147.224C508.032 147.224 507.637 147.085 507.36 146.808C507.083 146.509 506.944 146.104 506.944 145.592V125.848C506.944 125.315 507.083 124.909 507.36 124.632C507.637 124.355 508.032 124.216 508.544 124.216C509.056 124.216 509.451 124.355 509.728 124.632C510.027 124.909 510.176 125.315 510.176 125.848V134.712H509.728C510.197 133.517 510.933 132.621 511.936 132.024C512.939 131.405 514.091 131.096 515.392 131.096C516.629 131.096 517.653 131.331 518.464 131.8C519.296 132.248 519.915 132.941 520.32 133.88C520.725 134.797 520.928 135.96 520.928 137.368V145.592C520.928 146.104 520.789 146.509 520.512 146.808C520.235 147.085 519.84 147.224 519.328 147.224C518.795 147.224 518.389 147.085 518.112 146.808C517.835 146.509 517.696 146.104 517.696 145.592V137.56C517.696 136.216 517.429 135.235 516.896 134.616C516.384 133.997 515.573 133.688 514.464 133.688C513.163 133.688 512.117 134.093 511.328 134.904C510.56 135.715 510.176 136.803 510.176 138.168V145.592C510.176 146.68 509.632 147.224 508.544 147.224ZM532.709 147.288C531.003 147.288 529.531 146.968 528.293 146.328C527.077 145.667 526.128 144.739 525.445 143.544C524.784 142.328 524.453 140.888 524.453 139.224C524.453 137.603 524.784 136.184 525.445 134.968C526.107 133.752 527.013 132.803 528.165 132.12C529.317 131.437 530.629 131.096 532.101 131.096C533.189 131.096 534.16 131.277 535.013 131.64C535.867 131.981 536.592 132.493 537.189 133.176C537.808 133.837 538.267 134.648 538.565 135.608C538.885 136.568 539.045 137.645 539.045 138.84C539.045 139.203 538.939 139.48 538.725 139.672C538.512 139.843 538.192 139.928 537.765 139.928H527.013V137.944H536.869L536.325 138.392C536.325 137.325 536.165 136.419 535.845 135.672C535.547 134.925 535.088 134.36 534.469 133.976C533.872 133.571 533.125 133.368 532.229 133.368C531.227 133.368 530.373 133.603 529.669 134.072C528.987 134.541 528.464 135.192 528.101 136.024C527.739 136.856 527.557 137.827 527.557 138.936V139.128C527.557 141.005 527.995 142.424 528.869 143.384C529.765 144.323 531.056 144.792 532.741 144.792C533.381 144.792 534.053 144.707 534.757 144.536C535.483 144.365 536.165 144.077 536.805 143.672C537.168 143.459 537.488 143.363 537.765 143.384C538.064 143.405 538.299 143.501 538.469 143.672C538.661 143.843 538.779 144.056 538.821 144.312C538.864 144.568 538.821 144.835 538.693 145.112C538.565 145.368 538.341 145.603 538.021 145.816C537.296 146.307 536.453 146.68 535.493 146.936C534.533 147.171 533.605 147.288 532.709 147.288ZM552.606 152.984C552.094 152.984 551.7 152.845 551.422 152.568C551.145 152.291 551.006 151.885 551.006 151.352V132.792C551.006 132.259 551.145 131.853 551.422 131.576C551.7 131.299 552.084 131.16 552.574 131.16C553.086 131.16 553.481 131.299 553.758 131.576C554.036 131.853 554.174 132.259 554.174 132.792V135.576L553.822 134.904C554.164 133.752 554.836 132.835 555.838 132.152C556.841 131.448 558.025 131.096 559.39 131.096C560.777 131.096 561.982 131.427 563.006 132.088C564.052 132.749 564.852 133.677 565.406 134.872C565.982 136.067 566.27 137.507 566.27 139.192C566.27 140.835 565.982 142.275 565.406 143.512C564.852 144.728 564.062 145.667 563.038 146.328C562.014 146.968 560.798 147.288 559.39 147.288C558.046 147.288 556.873 146.947 555.87 146.264C554.868 145.581 554.196 144.675 553.854 143.544H554.238V151.352C554.238 151.885 554.089 152.291 553.79 152.568C553.513 152.845 553.118 152.984 552.606 152.984ZM558.59 144.792C559.486 144.792 560.265 144.579 560.926 144.152C561.588 143.725 562.1 143.096 562.462 142.264C562.825 141.432 563.006 140.408 563.006 139.192C563.006 137.357 562.601 135.971 561.79 135.032C561.001 134.093 559.934 133.624 558.59 133.624C557.716 133.624 556.937 133.837 556.254 134.264C555.593 134.669 555.081 135.288 554.718 136.12C554.356 136.952 554.174 137.976 554.174 139.192C554.174 141.005 554.58 142.392 555.39 143.352C556.201 144.312 557.268 144.792 558.59 144.792ZM574.905 147.288C573.817 147.288 572.835 147.075 571.961 146.648C571.107 146.221 570.435 145.645 569.945 144.92C569.454 144.195 569.209 143.373 569.209 142.456C569.209 141.304 569.497 140.397 570.073 139.736C570.67 139.053 571.641 138.573 572.985 138.296C574.35 137.997 576.185 137.848 578.489 137.848H579.993V139.832H578.521C576.985 139.832 575.769 139.907 574.873 140.056C573.977 140.205 573.337 140.461 572.953 140.824C572.59 141.165 572.409 141.645 572.409 142.264C572.409 143.075 572.686 143.736 573.241 144.248C573.795 144.739 574.563 144.984 575.545 144.984C576.334 144.984 577.027 144.803 577.625 144.44C578.222 144.056 578.691 143.544 579.033 142.904C579.395 142.264 579.577 141.528 579.577 140.696V137.016C579.577 135.8 579.321 134.925 578.809 134.392C578.297 133.859 577.454 133.592 576.281 133.592C575.598 133.592 574.883 133.677 574.137 133.848C573.411 134.019 572.654 134.307 571.865 134.712C571.502 134.883 571.193 134.936 570.937 134.872C570.681 134.808 570.478 134.669 570.329 134.456C570.179 134.221 570.094 133.976 570.073 133.72C570.073 133.443 570.137 133.176 570.265 132.92C570.414 132.664 570.659 132.472 571.001 132.344C571.939 131.896 572.867 131.576 573.785 131.384C574.702 131.192 575.566 131.096 576.377 131.096C577.806 131.096 578.979 131.32 579.897 131.768C580.835 132.216 581.529 132.899 581.977 133.816C582.425 134.733 582.649 135.917 582.649 137.368V145.592C582.649 146.104 582.521 146.509 582.265 146.808C582.009 147.085 581.635 147.224 581.145 147.224C580.675 147.224 580.302 147.085 580.025 146.808C579.747 146.509 579.609 146.104 579.609 145.592V143.512H579.897C579.726 144.301 579.406 144.984 578.937 145.56C578.489 146.115 577.923 146.541 577.241 146.84C576.558 147.139 575.779 147.288 574.905 147.288ZM594.172 153.048C593.02 153.048 591.9 152.931 590.812 152.696C589.745 152.461 588.775 152.077 587.9 151.544C587.58 151.373 587.367 151.16 587.26 150.904C587.153 150.669 587.121 150.424 587.164 150.168C587.228 149.912 587.345 149.688 587.516 149.496C587.687 149.304 587.889 149.176 588.124 149.112C588.38 149.048 588.647 149.091 588.924 149.24C589.863 149.752 590.748 150.093 591.58 150.264C592.433 150.456 593.223 150.552 593.948 150.552C595.441 150.552 596.561 150.168 597.308 149.4C598.055 148.653 598.428 147.544 598.428 146.072V142.808H598.716C598.396 143.981 597.724 144.909 596.7 145.592C595.676 146.275 594.492 146.616 593.148 146.616C591.74 146.616 590.513 146.296 589.468 145.656C588.423 144.995 587.612 144.088 587.036 142.936C586.46 141.763 586.172 140.397 586.172 138.84C586.172 137.667 586.332 136.611 586.652 135.672C586.993 134.733 587.463 133.923 588.06 133.24C588.679 132.557 589.415 132.035 590.268 131.672C591.143 131.288 592.103 131.096 593.148 131.096C594.513 131.096 595.697 131.437 596.7 132.12C597.724 132.803 598.385 133.731 598.684 134.904L598.364 135.448V132.792C598.364 132.259 598.503 131.853 598.78 131.576C599.079 131.299 599.473 131.16 599.964 131.16C600.476 131.16 600.871 131.299 601.148 131.576C601.425 131.853 601.564 132.259 601.564 132.792V145.688C601.564 148.12 600.935 149.955 599.676 151.192C598.417 152.429 596.583 153.048 594.172 153.048ZM593.916 144.088C594.855 144.088 595.655 143.875 596.316 143.448C596.977 143.021 597.489 142.413 597.852 141.624C598.215 140.835 598.396 139.907 598.396 138.84C598.396 137.24 597.991 135.971 597.18 135.032C596.391 134.093 595.303 133.624 593.916 133.624C592.999 133.624 592.209 133.837 591.548 134.264C590.887 134.691 590.364 135.299 589.98 136.088C589.617 136.856 589.436 137.773 589.436 138.84C589.436 140.461 589.841 141.741 590.652 142.68C591.463 143.619 592.551 144.088 593.916 144.088ZM613.428 147.288C611.721 147.288 610.249 146.968 609.012 146.328C607.796 145.667 606.847 144.739 606.164 143.544C605.503 142.328 605.172 140.888 605.172 139.224C605.172 137.603 605.503 136.184 606.164 134.968C606.825 133.752 607.732 132.803 608.884 132.12C610.036 131.437 611.348 131.096 612.82 131.096C613.908 131.096 614.879 131.277 615.732 131.64C616.585 131.981 617.311 132.493 617.908 133.176C618.527 133.837 618.985 134.648 619.284 135.608C619.604 136.568 619.764 137.645 619.764 138.84C619.764 139.203 619.657 139.48 619.444 139.672C619.231 139.843 618.911 139.928 618.484 139.928H607.732V137.944H617.588L617.044 138.392C617.044 137.325 616.884 136.419 616.564 135.672C616.265 134.925 615.807 134.36 615.188 133.976C614.591 133.571 613.844 133.368 612.948 133.368C611.945 133.368 611.092 133.603 610.388 134.072C609.705 134.541 609.183 135.192 608.82 136.024C608.457 136.856 608.276 137.827 608.276 138.936V139.128C608.276 141.005 608.713 142.424 609.588 143.384C610.484 144.323 611.775 144.792 613.46 144.792C614.1 144.792 614.772 144.707 615.476 144.536C616.201 144.365 616.884 144.077 617.524 143.672C617.887 143.459 618.207 143.363 618.484 143.384C618.783 143.405 619.017 143.501 619.188 143.672C619.38 143.843 619.497 144.056 619.54 144.312C619.583 144.568 619.54 144.835 619.412 145.112C619.284 145.368 619.06 145.603 618.74 145.816C618.015 146.307 617.172 146.68 616.212 146.936C615.252 147.171 614.324 147.288 613.428 147.288ZM633.325 147.192C632.813 147.192 632.418 147.043 632.141 146.744C631.864 146.424 631.725 145.987 631.725 145.432V132.952C631.725 132.397 631.864 131.971 632.141 131.672C632.418 131.373 632.813 131.224 633.325 131.224C633.837 131.224 634.232 131.373 634.509 131.672C634.808 131.971 634.957 132.397 634.957 132.952V145.432C634.957 145.987 634.818 146.424 634.541 146.744C634.264 147.043 633.858 147.192 633.325 147.192ZM633.325 127.896C632.685 127.896 632.184 127.736 631.821 127.416C631.48 127.096 631.309 126.648 631.309 126.072C631.309 125.475 631.48 125.027 631.821 124.728C632.184 124.408 632.685 124.248 633.325 124.248C633.965 124.248 634.456 124.408 634.797 124.728C635.16 125.027 635.341 125.475 635.341 126.072C635.341 126.648 635.16 127.096 634.797 127.416C634.456 127.736 633.965 127.896 633.325 127.896ZM644.978 147.288C644.04 147.288 643.069 147.181 642.066 146.968C641.085 146.755 640.178 146.392 639.346 145.88C639.069 145.688 638.877 145.475 638.77 145.24C638.664 145.005 638.621 144.771 638.642 144.536C638.685 144.28 638.781 144.067 638.93 143.896C639.101 143.704 639.304 143.587 639.538 143.544C639.794 143.501 640.061 143.555 640.338 143.704C641.17 144.173 641.97 144.504 642.738 144.696C643.506 144.867 644.264 144.952 645.01 144.952C646.141 144.952 646.994 144.749 647.57 144.344C648.146 143.939 648.434 143.395 648.434 142.712C648.434 142.157 648.242 141.731 647.858 141.432C647.474 141.112 646.898 140.867 646.13 140.696L643.09 140.088C641.768 139.811 640.765 139.32 640.082 138.616C639.4 137.912 639.058 137.016 639.058 135.928C639.058 134.947 639.325 134.093 639.858 133.368C640.392 132.643 641.138 132.088 642.098 131.704C643.058 131.299 644.168 131.096 645.426 131.096C646.365 131.096 647.25 131.213 648.082 131.448C648.914 131.683 649.682 132.035 650.386 132.504C650.664 132.653 650.845 132.856 650.93 133.112C651.016 133.347 651.026 133.581 650.962 133.816C650.92 134.051 650.813 134.264 650.642 134.456C650.472 134.627 650.258 134.733 650.002 134.776C649.768 134.797 649.501 134.733 649.202 134.584C648.562 134.179 647.922 133.891 647.282 133.72C646.664 133.549 646.045 133.464 645.426 133.464C644.296 133.464 643.442 133.677 642.866 134.104C642.312 134.509 642.034 135.064 642.034 135.768C642.034 136.301 642.205 136.739 642.546 137.08C642.888 137.421 643.421 137.667 644.146 137.816L647.186 138.424C648.573 138.701 649.618 139.171 650.322 139.832C651.048 140.493 651.41 141.389 651.41 142.52C651.41 143.992 650.824 145.155 649.65 146.008C648.477 146.861 646.92 147.288 644.978 147.288ZM665.044 147.224C664.532 147.224 664.137 147.085 663.86 146.808C663.583 146.509 663.444 146.104 663.444 145.592V132.792C663.444 132.259 663.583 131.853 663.86 131.576C664.137 131.299 664.521 131.16 665.012 131.16C665.524 131.16 665.908 131.299 666.164 131.576C666.441 131.853 666.58 132.259 666.58 132.792V135.288L666.228 134.712C666.697 133.517 667.433 132.621 668.436 132.024C669.439 131.405 670.591 131.096 671.892 131.096C673.129 131.096 674.153 131.331 674.964 131.8C675.796 132.248 676.415 132.941 676.82 133.88C677.225 134.797 677.428 135.96 677.428 137.368V145.592C677.428 146.104 677.289 146.509 677.012 146.808C676.735 147.085 676.34 147.224 675.828 147.224C675.295 147.224 674.889 147.085 674.612 146.808C674.335 146.509 674.196 146.104 674.196 145.592V137.56C674.196 136.216 673.929 135.235 673.396 134.616C672.884 133.997 672.073 133.688 670.964 133.688C669.663 133.688 668.617 134.093 667.828 134.904C667.06 135.715 666.676 136.803 666.676 138.168V145.592C666.676 146.68 666.132 147.224 665.044 147.224ZM688.665 147.288C687.087 147.288 685.721 146.957 684.569 146.296C683.439 145.635 682.553 144.696 681.913 143.48C681.273 142.264 680.953 140.835 680.953 139.192C680.953 137.933 681.135 136.813 681.497 135.832C681.86 134.851 682.372 134.008 683.033 133.304C683.716 132.579 684.527 132.035 685.465 131.672C686.425 131.288 687.492 131.096 688.665 131.096C690.223 131.096 691.567 131.427 692.697 132.088C693.849 132.749 694.745 133.688 695.385 134.904C696.025 136.099 696.345 137.528 696.345 139.192C696.345 140.429 696.164 141.549 695.801 142.552C695.439 143.555 694.916 144.408 694.233 145.112C693.572 145.816 692.761 146.36 691.801 146.744C690.863 147.107 689.817 147.288 688.665 147.288ZM688.665 144.792C689.54 144.792 690.308 144.579 690.969 144.152C691.631 143.725 692.143 143.096 692.505 142.264C692.889 141.432 693.081 140.408 693.081 139.192C693.081 137.357 692.676 135.971 691.865 135.032C691.055 134.093 689.988 133.624 688.665 133.624C687.769 133.624 686.991 133.837 686.329 134.264C685.668 134.669 685.145 135.288 684.761 136.12C684.399 136.952 684.217 137.976 684.217 139.192C684.217 141.005 684.623 142.392 685.433 143.352C686.244 144.312 687.321 144.792 688.665 144.792ZM706.475 147.288C705.195 147.288 704.118 147.064 703.243 146.616C702.368 146.168 701.718 145.507 701.291 144.632C700.864 143.757 700.651 142.691 700.651 141.432V133.88H698.731C698.304 133.88 697.974 133.773 697.739 133.56C697.504 133.325 697.387 133.016 697.387 132.632C697.387 132.227 697.504 131.917 697.739 131.704C697.974 131.491 698.304 131.384 698.731 131.384H700.651V128.088C700.651 127.555 700.79 127.149 701.067 126.872C701.366 126.595 701.771 126.456 702.283 126.456C702.795 126.456 703.19 126.595 703.467 126.872C703.744 127.149 703.883 127.555 703.883 128.088V131.384H707.627C708.054 131.384 708.384 131.491 708.619 131.704C708.854 131.917 708.971 132.227 708.971 132.632C708.971 133.016 708.854 133.325 708.619 133.56C708.384 133.773 708.054 133.88 707.627 133.88H703.883V141.176C703.883 142.307 704.118 143.16 704.587 143.736C705.078 144.312 705.867 144.6 706.955 144.6C707.339 144.6 707.67 144.568 707.947 144.504C708.246 144.419 708.491 144.365 708.683 144.344C708.918 144.344 709.11 144.429 709.259 144.6C709.408 144.749 709.483 145.048 709.483 145.496C709.483 145.816 709.419 146.115 709.291 146.392C709.184 146.669 708.982 146.851 708.683 146.936C708.427 147.021 708.075 147.096 707.627 147.16C707.2 147.245 706.816 147.288 706.475 147.288ZM724.936 147.288C723.848 147.288 722.867 147.075 721.992 146.648C721.139 146.221 720.467 145.645 719.976 144.92C719.485 144.195 719.24 143.373 719.24 142.456C719.24 141.304 719.528 140.397 720.104 139.736C720.701 139.053 721.672 138.573 723.016 138.296C724.381 137.997 726.216 137.848 728.52 137.848H730.024V139.832H728.552C727.016 139.832 725.8 139.907 724.904 140.056C724.008 140.205 723.368 140.461 722.984 140.824C722.621 141.165 722.44 141.645 722.44 142.264C722.44 143.075 722.717 143.736 723.272 144.248C723.827 144.739 724.595 144.984 725.576 144.984C726.365 144.984 727.059 144.803 727.656 144.44C728.253 144.056 728.723 143.544 729.064 142.904C729.427 142.264 729.608 141.528 729.608 140.696V137.016C729.608 135.8 729.352 134.925 728.84 134.392C728.328 133.859 727.485 133.592 726.312 133.592C725.629 133.592 724.915 133.677 724.168 133.848C723.443 134.019 722.685 134.307 721.896 134.712C721.533 134.883 721.224 134.936 720.968 134.872C720.712 134.808 720.509 134.669 720.36 134.456C720.211 134.221 720.125 133.976 720.104 133.72C720.104 133.443 720.168 133.176 720.296 132.92C720.445 132.664 720.691 132.472 721.032 132.344C721.971 131.896 722.899 131.576 723.816 131.384C724.733 131.192 725.597 131.096 726.408 131.096C727.837 131.096 729.011 131.32 729.928 131.768C730.867 132.216 731.56 132.899 732.008 133.816C732.456 134.733 732.68 135.917 732.68 137.368V145.592C732.68 146.104 732.552 146.509 732.296 146.808C732.04 147.085 731.667 147.224 731.176 147.224C730.707 147.224 730.333 147.085 730.056 146.808C729.779 146.509 729.64 146.104 729.64 145.592V143.512H729.928C729.757 144.301 729.437 144.984 728.968 145.56C728.52 146.115 727.955 146.541 727.272 146.84C726.589 147.139 725.811 147.288 724.936 147.288ZM743.023 147.224C742.575 147.224 742.18 147.107 741.839 146.872C741.519 146.637 741.252 146.275 741.039 145.784L735.695 133.368C735.524 132.984 735.46 132.621 735.503 132.28C735.546 131.939 735.706 131.672 735.983 131.48C736.26 131.267 736.634 131.16 737.103 131.16C737.508 131.16 737.828 131.256 738.063 131.448C738.298 131.64 738.511 131.971 738.703 132.44L743.535 144.344H742.639L747.567 132.44C747.759 131.971 747.972 131.64 748.207 131.448C748.463 131.256 748.815 131.16 749.263 131.16C749.647 131.16 749.946 131.267 750.159 131.48C750.394 131.672 750.532 131.939 750.575 132.28C750.639 132.6 750.586 132.952 750.415 133.336L745.007 145.784C744.815 146.275 744.548 146.637 744.207 146.872C743.866 147.107 743.471 147.224 743.023 147.224ZM758.28 147.288C757.192 147.288 756.21 147.075 755.336 146.648C754.482 146.221 753.81 145.645 753.32 144.92C752.829 144.195 752.584 143.373 752.584 142.456C752.584 141.304 752.872 140.397 753.448 139.736C754.045 139.053 755.016 138.573 756.36 138.296C757.725 137.997 759.56 137.848 761.864 137.848H763.368V139.832H761.896C760.36 139.832 759.144 139.907 758.248 140.056C757.352 140.205 756.712 140.461 756.328 140.824C755.965 141.165 755.784 141.645 755.784 142.264C755.784 143.075 756.061 143.736 756.616 144.248C757.17 144.739 757.938 144.984 758.92 144.984C759.709 144.984 760.402 144.803 761 144.44C761.597 144.056 762.066 143.544 762.408 142.904C762.77 142.264 762.952 141.528 762.952 140.696V137.016C762.952 135.8 762.696 134.925 762.184 134.392C761.672 133.859 760.829 133.592 759.656 133.592C758.973 133.592 758.258 133.677 757.512 133.848C756.786 134.019 756.029 134.307 755.24 134.712C754.877 134.883 754.568 134.936 754.312 134.872C754.056 134.808 753.853 134.669 753.704 134.456C753.554 134.221 753.469 133.976 753.448 133.72C753.448 133.443 753.512 133.176 753.64 132.92C753.789 132.664 754.034 132.472 754.376 132.344C755.314 131.896 756.242 131.576 757.16 131.384C758.077 131.192 758.941 131.096 759.752 131.096C761.181 131.096 762.354 131.32 763.272 131.768C764.21 132.216 764.904 132.899 765.352 133.816C765.8 134.733 766.024 135.917 766.024 137.368V145.592C766.024 146.104 765.896 146.509 765.64 146.808C765.384 147.085 765.01 147.224 764.52 147.224C764.05 147.224 763.677 147.085 763.4 146.808C763.122 146.509 762.984 146.104 762.984 145.592V143.512H763.272C763.101 144.301 762.781 144.984 762.312 145.56C761.864 146.115 761.298 146.541 760.616 146.84C759.933 147.139 759.154 147.288 758.28 147.288ZM772.075 147.192C771.563 147.192 771.168 147.043 770.891 146.744C770.614 146.424 770.475 145.987 770.475 145.432V132.952C770.475 132.397 770.614 131.971 770.891 131.672C771.168 131.373 771.563 131.224 772.075 131.224C772.587 131.224 772.982 131.373 773.259 131.672C773.558 131.971 773.707 132.397 773.707 132.952V145.432C773.707 145.987 773.568 146.424 773.291 146.744C773.014 147.043 772.608 147.192 772.075 147.192ZM772.075 127.896C771.435 127.896 770.934 127.736 770.571 127.416C770.23 127.096 770.059 126.648 770.059 126.072C770.059 125.475 770.23 125.027 770.571 124.728C770.934 124.408 771.435 124.248 772.075 124.248C772.715 124.248 773.206 124.408 773.547 124.728C773.91 125.027 774.091 125.475 774.091 126.072C774.091 126.648 773.91 127.096 773.547 127.416C773.206 127.736 772.715 127.896 772.075 127.896ZM783.28 147.288C781.616 147.288 780.358 146.808 779.504 145.848C778.672 144.867 778.256 143.459 778.256 141.624V125.848C778.256 125.315 778.395 124.909 778.672 124.632C778.95 124.355 779.344 124.216 779.856 124.216C780.368 124.216 780.763 124.355 781.04 124.632C781.339 124.909 781.488 125.315 781.488 125.848V141.432C781.488 142.499 781.702 143.299 782.128 143.832C782.576 144.344 783.216 144.6 784.048 144.6C784.24 144.6 784.411 144.6 784.56 144.6C784.71 144.579 784.859 144.557 785.008 144.536C785.264 144.515 785.446 144.589 785.552 144.76C785.659 144.909 785.712 145.229 785.712 145.72C785.712 146.168 785.616 146.52 785.424 146.776C785.232 147.011 784.923 147.16 784.496 147.224C784.304 147.245 784.102 147.256 783.888 147.256C783.675 147.277 783.472 147.288 783.28 147.288ZM793.03 147.288C791.942 147.288 790.96 147.075 790.086 146.648C789.232 146.221 788.56 145.645 788.07 144.92C787.579 144.195 787.334 143.373 787.334 142.456C787.334 141.304 787.622 140.397 788.198 139.736C788.795 139.053 789.766 138.573 791.11 138.296C792.475 137.997 794.31 137.848 796.614 137.848H798.118V139.832H796.646C795.11 139.832 793.894 139.907 792.998 140.056C792.102 140.205 791.462 140.461 791.078 140.824C790.715 141.165 790.534 141.645 790.534 142.264C790.534 143.075 790.811 143.736 791.366 144.248C791.92 144.739 792.688 144.984 793.67 144.984C794.459 144.984 795.152 144.803 795.75 144.44C796.347 144.056 796.816 143.544 797.158 142.904C797.52 142.264 797.702 141.528 797.702 140.696V137.016C797.702 135.8 797.446 134.925 796.934 134.392C796.422 133.859 795.579 133.592 794.406 133.592C793.723 133.592 793.008 133.677 792.262 133.848C791.536 134.019 790.779 134.307 789.99 134.712C789.627 134.883 789.318 134.936 789.062 134.872C788.806 134.808 788.603 134.669 788.454 134.456C788.304 134.221 788.219 133.976 788.198 133.72C788.198 133.443 788.262 133.176 788.39 132.92C788.539 132.664 788.784 132.472 789.126 132.344C790.064 131.896 790.992 131.576 791.91 131.384C792.827 131.192 793.691 131.096 794.502 131.096C795.931 131.096 797.104 131.32 798.022 131.768C798.96 132.216 799.654 132.899 800.102 133.816C800.55 134.733 800.774 135.917 800.774 137.368V145.592C800.774 146.104 800.646 146.509 800.39 146.808C800.134 147.085 799.76 147.224 799.27 147.224C798.8 147.224 798.427 147.085 798.15 146.808C797.872 146.509 797.734 146.104 797.734 145.592V143.512H798.022C797.851 144.301 797.531 144.984 797.062 145.56C796.614 146.115 796.048 146.541 795.366 146.84C794.683 147.139 793.904 147.288 793.03 147.288ZM813.609 147.288C812.244 147.288 811.06 146.947 810.057 146.264C809.054 145.56 808.382 144.632 808.041 143.48L808.393 142.904V145.592C808.393 146.104 808.254 146.509 807.977 146.808C807.7 147.085 807.316 147.224 806.825 147.224C806.313 147.224 805.918 147.085 805.641 146.808C805.364 146.509 805.225 146.104 805.225 145.592V125.848C805.225 125.315 805.364 124.909 805.641 124.632C805.918 124.355 806.313 124.216 806.825 124.216C807.337 124.216 807.732 124.355 808.009 124.632C808.308 124.909 808.457 125.315 808.457 125.848V134.808H808.073C808.414 133.677 809.086 132.781 810.089 132.12C811.092 131.437 812.265 131.096 813.609 131.096C815.017 131.096 816.233 131.427 817.257 132.088C818.281 132.749 819.07 133.677 819.625 134.872C820.201 136.067 820.489 137.507 820.489 139.192C820.489 140.835 820.201 142.275 819.625 143.512C819.07 144.728 818.27 145.667 817.225 146.328C816.201 146.968 814.996 147.288 813.609 147.288ZM812.809 144.792C813.705 144.792 814.484 144.579 815.145 144.152C815.806 143.725 816.318 143.096 816.681 142.264C817.044 141.432 817.225 140.408 817.225 139.192C817.225 137.357 816.82 135.971 816.009 135.032C815.22 134.093 814.153 133.624 812.809 133.624C811.934 133.624 811.156 133.837 810.473 134.264C809.812 134.669 809.3 135.288 808.937 136.12C808.574 136.952 808.393 137.976 808.393 139.192C808.393 141.005 808.798 142.392 809.609 143.352C810.42 144.312 811.486 144.792 812.809 144.792ZM829.155 147.288C827.491 147.288 826.233 146.808 825.379 145.848C824.547 144.867 824.131 143.459 824.131 141.624V125.848C824.131 125.315 824.27 124.909 824.547 124.632C824.825 124.355 825.219 124.216 825.731 124.216C826.243 124.216 826.638 124.355 826.915 124.632C827.214 124.909 827.363 125.315 827.363 125.848V141.432C827.363 142.499 827.577 143.299 828.003 143.832C828.451 144.344 829.091 144.6 829.923 144.6C830.115 144.6 830.286 144.6 830.435 144.6C830.585 144.579 830.734 144.557 830.883 144.536C831.139 144.515 831.321 144.589 831.427 144.76C831.534 144.909 831.587 145.229 831.587 145.72C831.587 146.168 831.491 146.52 831.299 146.776C831.107 147.011 830.798 147.16 830.371 147.224C830.179 147.245 829.977 147.256 829.763 147.256C829.55 147.277 829.347 147.288 829.155 147.288ZM841.084 147.288C839.378 147.288 837.906 146.968 836.668 146.328C835.452 145.667 834.503 144.739 833.82 143.544C833.159 142.328 832.828 140.888 832.828 139.224C832.828 137.603 833.159 136.184 833.82 134.968C834.482 133.752 835.388 132.803 836.54 132.12C837.692 131.437 839.004 131.096 840.476 131.096C841.564 131.096 842.535 131.277 843.388 131.64C844.242 131.981 844.967 132.493 845.564 133.176C846.183 133.837 846.642 134.648 846.94 135.608C847.26 136.568 847.42 137.645 847.42 138.84C847.42 139.203 847.314 139.48 847.1 139.672C846.887 139.843 846.567 139.928 846.14 139.928H835.388V137.944H845.244L844.7 138.392C844.7 137.325 844.54 136.419 844.22 135.672C843.922 134.925 843.463 134.36 842.844 133.976C842.247 133.571 841.5 133.368 840.604 133.368C839.602 133.368 838.748 133.603 838.044 134.072C837.362 134.541 836.839 135.192 836.476 136.024C836.114 136.856 835.932 137.827 835.932 138.936V139.128C835.932 141.005 836.37 142.424 837.244 143.384C838.14 144.323 839.431 144.792 841.116 144.792C841.756 144.792 842.428 144.707 843.132 144.536C843.858 144.365 844.54 144.077 845.18 143.672C845.543 143.459 845.863 143.363 846.14 143.384C846.439 143.405 846.674 143.501 846.844 143.672C847.036 143.843 847.154 144.056 847.196 144.312C847.239 144.568 847.196 144.835 847.068 145.112C846.94 145.368 846.716 145.603 846.396 145.816C845.671 146.307 844.828 146.68 843.868 146.936C842.908 147.171 841.98 147.288 841.084 147.288ZM852.512 147.128C851.893 147.128 851.392 146.936 851.008 146.552C850.624 146.168 850.432 145.677 850.432 145.08C850.432 144.483 850.624 144.003 851.008 143.64C851.392 143.256 851.893 143.064 852.512 143.064C853.131 143.064 853.621 143.256 853.984 143.64C854.347 144.003 854.528 144.483 854.528 145.08C854.528 145.677 854.347 146.168 853.984 146.552C853.621 146.936 853.131 147.128 852.512 147.128Z" fill="#2B2B2B"/>
<g filter="url(#filter0_i_1096_451)">
<rect x="503" y="706" width="206" height="57" rx="28.5" fill="#FFF7EE"/>
</g>
<rect x="501.5" y="704.5" width="209" height="60" rx="30" stroke="black" stroke-width="3"/>
<path d="M581.27 724.34C582.887 724.34 584.285 724.652 585.465 725.277C587.176 726.176 588.223 727.75 588.605 730H586.297C586.016 728.742 585.434 727.828 584.551 727.258C583.668 726.68 582.555 726.391 581.211 726.391C579.617 726.391 578.273 726.988 577.18 728.184C576.094 729.379 575.551 731.16 575.551 733.527C575.551 735.574 576 737.242 576.898 738.531C577.797 739.812 579.262 740.453 581.293 740.453C582.848 740.453 584.133 740.004 585.148 739.105C586.172 738.199 586.695 736.738 586.719 734.723H581.328V732.789H588.887V742H587.387L586.824 739.785C586.035 740.652 585.336 741.254 584.727 741.59C583.703 742.168 582.402 742.457 580.824 742.457C578.785 742.457 577.031 741.797 575.562 740.477C573.961 738.82 573.16 736.547 573.16 733.656C573.16 730.773 573.941 728.48 575.504 726.777C576.988 725.152 578.91 724.34 581.27 724.34ZM597.207 740.641C598.605 740.641 599.562 740.113 600.078 739.059C600.602 737.996 600.863 736.816 600.863 735.52C600.863 734.348 600.676 733.395 600.301 732.66C599.707 731.504 598.684 730.926 597.23 730.926C595.941 730.926 595.004 731.418 594.418 732.402C593.832 733.387 593.539 734.574 593.539 735.965C593.539 737.301 593.832 738.414 594.418 739.305C595.004 740.195 595.934 740.641 597.207 740.641ZM597.289 729.086C598.906 729.086 600.273 729.625 601.391 730.703C602.508 731.781 603.066 733.367 603.066 735.461C603.066 737.484 602.574 739.156 601.59 740.477C600.605 741.797 599.078 742.457 597.008 742.457C595.281 742.457 593.91 741.875 592.895 740.711C591.879 739.539 591.371 737.969 591.371 736C591.371 733.891 591.906 732.211 592.977 730.961C594.047 729.711 595.484 729.086 597.289 729.086ZM612.605 724.785H614.961V731.898H623.914V724.785H626.27V742H623.914V733.949H614.961V742H612.605V724.785ZM634.59 740.641C635.988 740.641 636.945 740.113 637.461 739.059C637.984 737.996 638.246 736.816 638.246 735.52C638.246 734.348 638.059 733.395 637.684 732.66C637.09 731.504 636.066 730.926 634.613 730.926C633.324 730.926 632.387 731.418 631.801 732.402C631.215 733.387 630.922 734.574 630.922 735.965C630.922 737.301 631.215 738.414 631.801 739.305C632.387 740.195 633.316 740.641 634.59 740.641ZM634.672 729.086C636.289 729.086 637.656 729.625 638.773 730.703C639.891 731.781 640.449 733.367 640.449 735.461C640.449 737.484 639.957 739.156 638.973 740.477C637.988 741.797 636.461 742.457 634.391 742.457C632.664 742.457 631.293 741.875 630.277 740.711C629.262 739.539 628.754 737.969 628.754 736C628.754 733.891 629.289 732.211 630.359 730.961C631.43 729.711 632.867 729.086 634.672 729.086ZM642.969 729.449H645.055V731.23C645.555 730.613 646.008 730.164 646.414 729.883C647.109 729.406 647.898 729.168 648.781 729.168C649.781 729.168 650.586 729.414 651.195 729.906C651.539 730.188 651.852 730.602 652.133 731.148C652.602 730.477 653.152 729.98 653.785 729.66C654.418 729.332 655.129 729.168 655.918 729.168C657.605 729.168 658.754 729.777 659.363 730.996C659.691 731.652 659.855 732.535 659.855 733.645V742H657.664V733.281C657.664 732.445 657.453 731.871 657.031 731.559C656.617 731.246 656.109 731.09 655.508 731.09C654.68 731.09 653.965 731.367 653.363 731.922C652.77 732.477 652.473 733.402 652.473 734.699V742H650.328V733.809C650.328 732.957 650.227 732.336 650.023 731.945C649.703 731.359 649.105 731.066 648.23 731.066C647.434 731.066 646.707 731.375 646.051 731.992C645.402 732.609 645.078 733.727 645.078 735.344V742H642.969V729.449ZM668.188 729.168C669.078 729.168 669.941 729.379 670.777 729.801C671.613 730.215 672.25 730.754 672.688 731.418C673.109 732.051 673.391 732.789 673.531 733.633C673.656 734.211 673.719 735.133 673.719 736.398H664.52C664.559 737.672 664.859 738.695 665.422 739.469C665.984 740.234 666.855 740.617 668.035 740.617C669.137 740.617 670.016 740.254 670.672 739.527C671.047 739.105 671.312 738.617 671.469 738.062H673.543C673.488 738.523 673.305 739.039 672.992 739.609C672.688 740.172 672.344 740.633 671.961 740.992C671.32 741.617 670.527 742.039 669.582 742.258C669.074 742.383 668.5 742.445 667.859 742.445C666.297 742.445 664.973 741.879 663.887 740.746C662.801 739.605 662.258 738.012 662.258 735.965C662.258 733.949 662.805 732.312 663.898 731.055C664.992 729.797 666.422 729.168 668.188 729.168ZM671.551 734.723C671.465 733.809 671.266 733.078 670.953 732.531C670.375 731.516 669.41 731.008 668.059 731.008C667.09 731.008 666.277 731.359 665.621 732.062C664.965 732.758 664.617 733.645 664.578 734.723H671.551Z" fill="black"/>
<path d="M535.198 730.948L553.643 730.948C555.94 730.948 557.802 732.81 557.802 735.107L557.802 736.633C557.802 738.93 555.94 740.792 553.643 740.792H539.209" stroke="black" stroke-width="2.08134" stroke-linejoin="round"/>
<path d="M538.844 726.573C537.135 728.282 536.177 729.24 534.469 730.948L538.844 735.323" stroke="black" stroke-width="2.08134" stroke-linejoin="round"/>
<defs>
<filter id="filter0_i_1096_451" x="500" y="703" width="212" height="63" filterUnits="userSpaceOnUse" color-interpolation-filters="sRGB">
<feFlood flood-opacity="0" result="BackgroundImageFix"/>
<feBlend mode="normal" in="SourceGraphic" in2="BackgroundImageFix" result="shape"/>
<feColorMatrix in="SourceAlpha" type="matrix" values="0 0 0 0 0 0 0 0 0 0 0 0 0 0 0 0 0 0 127 0" result="hardAlpha"/>
<feMorphology radius="7" operator="erode" in="SourceAlpha" result="effect1_innerShadow_1096_451"/>
<feOffset/>
<feComposite in2="hardAlpha" operator="arithmetic" k2="-1" k3="1"/>
<feColorMatrix type="matrix" values="0 0 0 0 1 0 0 0 0 1 0 0 0 0 1 0 0 0 1 0"/>
<feBlend mode="normal" in2="shape" result="effect1_innerShadow_1096_451"/>
</filter>
<clipPath id="clip0_1096_451">
<rect width="810.542" height="345" fill="white" transform="translate(201 239)"/>
</clipPath>
</defs>
</svg>
