<svg width="375" height="812" viewBox="0 0 375 812" fill="none" xmlns="http://www.w3.org/2000/svg">
<g clip-path="url(#clip0_1113_1183)">
<rect width="375" height="812" fill="white"/>
<rect opacity="0.4" width="375" height="812" fill="#1A1A1A"/>
<rect width="375" height="812" fill="#FFF5EA"/>
<path d="M159.831 129.24C157.845 129.24 156.291 128.687 155.171 127.58C154.051 126.473 153.491 124.893 153.491 122.84V115H156.731V122.72C156.731 124.053 157.005 125.013 157.551 125.6C158.098 126.187 158.865 126.48 159.851 126.48C160.838 126.48 161.605 126.187 162.151 125.6C162.698 125.013 162.971 124.053 162.971 122.72V115H166.171V122.84C166.171 124.893 165.611 126.473 164.491 127.58C163.371 128.687 161.818 129.24 159.831 129.24ZM175.693 118.08C176.546 118.08 177.306 118.253 177.973 118.6C178.653 118.933 179.186 119.453 179.573 120.16C179.96 120.853 180.153 121.747 180.153 122.84V129H177.033V123.32C177.033 122.453 176.84 121.813 176.453 121.4C176.08 120.987 175.546 120.78 174.853 120.78C174.36 120.78 173.913 120.887 173.513 121.1C173.126 121.3 172.82 121.613 172.593 122.04C172.38 122.467 172.273 123.013 172.273 123.68V129H169.153V114.16H172.273V121.22L171.573 120.32C171.96 119.6 172.513 119.047 173.233 118.66C173.953 118.273 174.773 118.08 175.693 118.08ZM182.581 124.62V122.12H188.241V124.62H182.581ZM196.011 129.16C194.865 129.16 193.845 128.92 192.951 128.44C192.071 127.96 191.371 127.307 190.851 126.48C190.345 125.64 190.091 124.687 190.091 123.62C190.091 122.54 190.345 121.587 190.851 120.76C191.371 119.92 192.071 119.267 192.951 118.8C193.845 118.32 194.865 118.08 196.011 118.08C197.145 118.08 198.158 118.32 199.051 118.8C199.945 119.267 200.645 119.913 201.151 120.74C201.658 121.567 201.911 122.527 201.911 123.62C201.911 124.687 201.658 125.64 201.151 126.48C200.645 127.307 199.945 127.96 199.051 128.44C198.158 128.92 197.145 129.16 196.011 129.16ZM196.011 126.6C196.531 126.6 196.998 126.48 197.411 126.24C197.825 126 198.151 125.66 198.391 125.22C198.631 124.767 198.751 124.233 198.751 123.62C198.751 122.993 198.631 122.46 198.391 122.02C198.151 121.58 197.825 121.24 197.411 121C196.998 120.76 196.531 120.64 196.011 120.64C195.491 120.64 195.025 120.76 194.611 121C194.198 121.24 193.865 121.58 193.611 122.02C193.371 122.46 193.251 122.993 193.251 123.62C193.251 124.233 193.371 124.767 193.611 125.22C193.865 125.66 194.198 126 194.611 126.24C195.025 126.48 195.491 126.6 196.011 126.6ZM210.537 118.08C211.39 118.08 212.15 118.253 212.817 118.6C213.497 118.933 214.03 119.453 214.417 120.16C214.803 120.853 214.997 121.747 214.997 122.84V129H211.877V123.32C211.877 122.453 211.683 121.813 211.297 121.4C210.923 120.987 210.39 120.78 209.697 120.78C209.203 120.78 208.757 120.887 208.357 121.1C207.97 121.3 207.663 121.613 207.437 122.04C207.223 122.467 207.117 123.013 207.117 123.68V129H203.997V114.16H207.117V121.22L206.417 120.32C206.803 119.6 207.357 119.047 208.077 118.66C208.797 118.273 209.617 118.08 210.537 118.08ZM46.9493 155V143.8H49.0293V153.24H54.8853V155H46.9493ZM60.0973 155.112C59.2226 155.112 58.444 154.925 57.7613 154.552C57.0786 154.168 56.54 153.645 56.1453 152.984C55.7506 152.323 55.5533 151.571 55.5533 150.728C55.5533 149.875 55.7506 149.123 56.1453 148.472C56.54 147.811 57.0786 147.293 57.7613 146.92C58.444 146.547 59.2226 146.36 60.0973 146.36C60.9826 146.36 61.7666 146.547 62.4493 146.92C63.1426 147.293 63.6813 147.805 64.0653 148.456C64.46 149.107 64.6573 149.864 64.6573 150.728C64.6573 151.571 64.46 152.323 64.0653 152.984C63.6813 153.645 63.1426 154.168 62.4493 154.552C61.7666 154.925 60.9826 155.112 60.0973 155.112ZM60.0973 153.4C60.588 153.4 61.0253 153.293 61.4093 153.08C61.7933 152.867 62.092 152.557 62.3053 152.152C62.5293 151.747 62.6413 151.272 62.6413 150.728C62.6413 150.173 62.5293 149.699 62.3053 149.304C62.092 148.899 61.7933 148.589 61.4093 148.376C61.0253 148.163 60.5933 148.056 60.1133 148.056C59.6226 148.056 59.1853 148.163 58.8013 148.376C58.428 148.589 58.1293 148.899 57.9053 149.304C57.6813 149.699 57.5693 150.173 57.5693 150.728C57.5693 151.272 57.6813 151.747 57.9053 152.152C58.1293 152.557 58.428 152.867 58.8013 153.08C59.1853 153.293 59.6173 153.4 60.0973 153.4ZM70.4098 155.112C69.5351 155.112 68.7565 154.925 68.0738 154.552C67.3911 154.168 66.8525 153.645 66.4578 152.984C66.0631 152.323 65.8658 151.571 65.8658 150.728C65.8658 149.875 66.0631 149.123 66.4578 148.472C66.8525 147.811 67.3911 147.293 68.0738 146.92C68.7565 146.547 69.5351 146.36 70.4098 146.36C71.2951 146.36 72.0791 146.547 72.7618 146.92C73.4551 147.293 73.9938 147.805 74.3778 148.456C74.7725 149.107 74.9698 149.864 74.9698 150.728C74.9698 151.571 74.7725 152.323 74.3778 152.984C73.9938 153.645 73.4551 154.168 72.7618 154.552C72.0791 154.925 71.2951 155.112 70.4098 155.112ZM70.4098 153.4C70.9005 153.4 71.3378 153.293 71.7218 153.08C72.1058 152.867 72.4045 152.557 72.6178 152.152C72.8418 151.747 72.9538 151.272 72.9538 150.728C72.9538 150.173 72.8418 149.699 72.6178 149.304C72.4045 148.899 72.1058 148.589 71.7218 148.376C71.3378 148.163 70.9058 148.056 70.4258 148.056C69.9351 148.056 69.4978 148.163 69.1138 148.376C68.7405 148.589 68.4418 148.899 68.2178 149.304C67.9938 149.699 67.8818 150.173 67.8818 150.728C67.8818 151.272 67.9938 151.747 68.2178 152.152C68.4418 152.557 68.7405 152.867 69.1138 153.08C69.4978 153.293 69.9298 153.4 70.4098 153.4ZM78.5143 153.096L78.5623 150.584L83.0263 146.456H85.4263L81.6343 150.264L80.5783 151.144L78.5143 153.096ZM76.8823 155V143.128H78.8823V155H76.8823ZM83.3303 155L80.2103 151.144L81.4743 149.544L85.7623 155H83.3303ZM91.4761 155V143.128H93.4761V155H91.4761ZM96.1011 155V146.456H98.1011V155H96.1011ZM97.1091 145.048C96.7357 145.048 96.4264 144.931 96.1811 144.696C95.9464 144.461 95.8291 144.179 95.8291 143.848C95.8291 143.507 95.9464 143.224 96.1811 143C96.4264 142.765 96.7357 142.648 97.1091 142.648C97.4824 142.648 97.7864 142.76 98.0211 142.984C98.2664 143.197 98.3891 143.469 98.3891 143.8C98.3891 144.152 98.2717 144.451 98.0371 144.696C97.8024 144.931 97.4931 145.048 97.1091 145.048ZM102.358 153.096L102.406 150.584L106.87 146.456H109.27L105.478 150.264L104.422 151.144L102.358 153.096ZM100.726 155V143.128H102.726V155H100.726ZM107.174 155L104.054 151.144L105.318 149.544L109.606 155H107.174ZM114.57 155.112C113.621 155.112 112.789 154.925 112.074 154.552C111.37 154.168 110.821 153.645 110.426 152.984C110.042 152.323 109.85 151.571 109.85 150.728C109.85 149.875 110.037 149.123 110.41 148.472C110.794 147.811 111.317 147.293 111.978 146.92C112.65 146.547 113.413 146.36 114.266 146.36C115.098 146.36 115.84 146.541 116.49 146.904C117.141 147.267 117.653 147.779 118.026 148.44C118.4 149.101 118.586 149.88 118.586 150.776C118.586 150.861 118.581 150.957 118.57 151.064C118.57 151.171 118.565 151.272 118.554 151.368H111.434V150.04H117.498L116.714 150.456C116.725 149.965 116.624 149.533 116.41 149.16C116.197 148.787 115.904 148.493 115.53 148.28C115.168 148.067 114.746 147.96 114.266 147.96C113.776 147.96 113.344 148.067 112.97 148.28C112.608 148.493 112.32 148.792 112.106 149.176C111.904 149.549 111.802 149.992 111.802 150.504V150.824C111.802 151.336 111.92 151.789 112.154 152.184C112.389 152.579 112.72 152.883 113.146 153.096C113.573 153.309 114.064 153.416 114.618 153.416C115.098 153.416 115.53 153.341 115.914 153.192C116.298 153.043 116.64 152.808 116.938 152.488L118.01 153.72C117.626 154.168 117.141 154.515 116.554 154.76C115.978 154.995 115.317 155.112 114.57 155.112ZM128.145 155.112C127.207 155.112 126.481 154.872 125.969 154.392C125.457 153.901 125.201 153.181 125.201 152.232V144.568H127.201V152.184C127.201 152.589 127.303 152.904 127.505 153.128C127.719 153.352 128.012 153.464 128.385 153.464C128.833 153.464 129.207 153.347 129.505 153.112L130.065 154.536C129.831 154.728 129.543 154.872 129.201 154.968C128.86 155.064 128.508 155.112 128.145 155.112ZM123.793 148.12V146.52H129.489V148.12H123.793ZM136.558 146.36C137.241 146.36 137.849 146.493 138.382 146.76C138.926 147.027 139.353 147.437 139.662 147.992C139.972 148.536 140.126 149.24 140.126 150.104V155H138.126V150.36C138.126 149.603 137.945 149.037 137.582 148.664C137.23 148.291 136.734 148.104 136.094 148.104C135.625 148.104 135.209 148.2 134.846 148.392C134.484 148.584 134.201 148.872 133.998 149.256C133.806 149.629 133.71 150.104 133.71 150.68V155H131.71V143.128H133.71V148.76L133.278 148.056C133.577 147.512 134.009 147.096 134.574 146.808C135.15 146.509 135.812 146.36 136.558 146.36ZM146.695 155.112C145.746 155.112 144.914 154.925 144.199 154.552C143.495 154.168 142.946 153.645 142.551 152.984C142.167 152.323 141.975 151.571 141.975 150.728C141.975 149.875 142.162 149.123 142.535 148.472C142.919 147.811 143.442 147.293 144.103 146.92C144.775 146.547 145.538 146.36 146.391 146.36C147.223 146.36 147.965 146.541 148.615 146.904C149.266 147.267 149.778 147.779 150.151 148.44C150.525 149.101 150.711 149.88 150.711 150.776C150.711 150.861 150.706 150.957 150.695 151.064C150.695 151.171 150.69 151.272 150.679 151.368H143.559V150.04H149.623L148.839 150.456C148.85 149.965 148.749 149.533 148.535 149.16C148.322 148.787 148.029 148.493 147.655 148.28C147.293 148.067 146.871 147.96 146.391 147.96C145.901 147.96 145.469 148.067 145.095 148.28C144.733 148.493 144.445 148.792 144.231 149.176C144.029 149.549 143.927 149.992 143.927 150.504V150.824C143.927 151.336 144.045 151.789 144.279 152.184C144.514 152.579 144.845 152.883 145.271 153.096C145.698 153.309 146.189 153.416 146.743 153.416C147.223 153.416 147.655 153.341 148.039 153.192C148.423 153.043 148.765 152.808 149.063 152.488L150.135 153.72C149.751 154.168 149.266 154.515 148.679 154.76C148.103 154.995 147.442 155.112 146.695 155.112ZM161.79 155.112C161.097 155.112 160.462 154.952 159.886 154.632C159.321 154.312 158.868 153.832 158.526 153.192C158.196 152.541 158.03 151.72 158.03 150.728C158.03 149.725 158.19 148.904 158.51 148.264C158.841 147.624 159.289 147.149 159.854 146.84C160.42 146.52 161.065 146.36 161.79 146.36C162.633 146.36 163.374 146.541 164.014 146.904C164.665 147.267 165.177 147.773 165.55 148.424C165.934 149.075 166.126 149.843 166.126 150.728C166.126 151.613 165.934 152.387 165.55 153.048C165.177 153.699 164.665 154.205 164.014 154.568C163.374 154.931 162.633 155.112 161.79 155.112ZM157.054 158.104V146.456H158.958V148.472L158.894 150.744L159.054 153.016V158.104H157.054ZM161.566 153.4C162.046 153.4 162.473 153.293 162.846 153.08C163.23 152.867 163.534 152.557 163.758 152.152C163.982 151.747 164.094 151.272 164.094 150.728C164.094 150.173 163.982 149.699 163.758 149.304C163.534 148.899 163.23 148.589 162.846 148.376C162.473 148.163 162.046 148.056 161.566 148.056C161.086 148.056 160.654 148.163 160.27 148.376C159.886 148.589 159.582 148.899 159.358 149.304C159.134 149.699 159.022 150.173 159.022 150.728C159.022 151.272 159.134 151.747 159.358 152.152C159.582 152.557 159.886 152.867 160.27 153.08C160.654 153.293 161.086 153.4 161.566 153.4ZM173.178 155V153.272L173.066 152.904V149.88C173.066 149.293 172.89 148.84 172.538 148.52C172.186 148.189 171.652 148.024 170.938 148.024C170.458 148.024 169.983 148.099 169.514 148.248C169.055 148.397 168.666 148.605 168.346 148.872L167.562 147.416C168.02 147.064 168.564 146.803 169.194 146.632C169.834 146.451 170.495 146.36 171.178 146.36C172.415 146.36 173.37 146.659 174.042 147.256C174.724 147.843 175.066 148.755 175.066 149.992V155H173.178ZM170.49 155.112C169.85 155.112 169.29 155.005 168.81 154.792C168.33 154.568 167.956 154.264 167.69 153.88C167.434 153.485 167.306 153.043 167.306 152.552C167.306 152.072 167.418 151.64 167.642 151.256C167.876 150.872 168.255 150.568 168.778 150.344C169.3 150.12 169.994 150.008 170.858 150.008H173.338V151.336H171.002C170.319 151.336 169.86 151.448 169.626 151.672C169.391 151.885 169.274 152.152 169.274 152.472C169.274 152.835 169.418 153.123 169.706 153.336C169.994 153.549 170.394 153.656 170.906 153.656C171.396 153.656 171.834 153.544 172.218 153.32C172.612 153.096 172.895 152.765 173.066 152.328L173.402 153.528C173.21 154.029 172.863 154.419 172.362 154.696C171.871 154.973 171.247 155.112 170.49 155.112ZM181.52 158.216C180.731 158.216 179.957 158.109 179.2 157.896C178.453 157.693 177.84 157.395 177.36 157L178.256 155.496C178.629 155.805 179.099 156.051 179.664 156.232C180.24 156.424 180.821 156.52 181.408 156.52C182.347 156.52 183.035 156.301 183.472 155.864C183.909 155.437 184.128 154.792 184.128 153.928V152.408L184.288 150.472L184.224 148.536V146.456H186.128V153.704C186.128 155.251 185.733 156.387 184.944 157.112C184.155 157.848 183.013 158.216 181.52 158.216ZM181.264 154.616C180.453 154.616 179.717 154.445 179.056 154.104C178.405 153.752 177.888 153.267 177.504 152.648C177.131 152.029 176.944 151.304 176.944 150.472C176.944 149.651 177.131 148.931 177.504 148.312C177.888 147.693 178.405 147.213 179.056 146.872C179.717 146.531 180.453 146.36 181.264 146.36C181.989 146.36 182.64 146.504 183.216 146.792C183.792 147.08 184.251 147.528 184.592 148.136C184.944 148.744 185.12 149.523 185.12 150.472C185.12 151.421 184.944 152.205 184.592 152.824C184.251 153.432 183.792 153.885 183.216 154.184C182.64 154.472 181.989 154.616 181.264 154.616ZM181.568 152.92C182.069 152.92 182.517 152.819 182.912 152.616C183.307 152.403 183.611 152.115 183.824 151.752C184.048 151.379 184.16 150.952 184.16 150.472C184.16 149.992 184.048 149.571 183.824 149.208C183.611 148.835 183.307 148.552 182.912 148.36C182.517 148.157 182.069 148.056 181.568 148.056C181.067 148.056 180.613 148.157 180.208 148.36C179.813 148.552 179.504 148.835 179.28 149.208C179.067 149.571 178.96 149.992 178.96 150.472C178.96 150.952 179.067 151.379 179.28 151.752C179.504 152.115 179.813 152.403 180.208 152.616C180.613 152.819 181.067 152.92 181.568 152.92ZM192.773 155.112C191.824 155.112 190.992 154.925 190.277 154.552C189.573 154.168 189.024 153.645 188.629 152.984C188.245 152.323 188.053 151.571 188.053 150.728C188.053 149.875 188.24 149.123 188.613 148.472C188.997 147.811 189.52 147.293 190.181 146.92C190.853 146.547 191.616 146.36 192.469 146.36C193.301 146.36 194.043 146.541 194.693 146.904C195.344 147.267 195.856 147.779 196.229 148.44C196.603 149.101 196.789 149.88 196.789 150.776C196.789 150.861 196.784 150.957 196.773 151.064C196.773 151.171 196.768 151.272 196.757 151.368H189.637V150.04H195.701L194.917 150.456C194.928 149.965 194.827 149.533 194.613 149.16C194.4 148.787 194.107 148.493 193.733 148.28C193.371 148.067 192.949 147.96 192.469 147.96C191.979 147.96 191.547 148.067 191.173 148.28C190.811 148.493 190.523 148.792 190.309 149.176C190.107 149.549 190.005 149.992 190.005 150.504V150.824C190.005 151.336 190.123 151.789 190.357 152.184C190.592 152.579 190.923 152.883 191.349 153.096C191.776 153.309 192.267 153.416 192.821 153.416C193.301 153.416 193.733 153.341 194.117 153.192C194.501 153.043 194.843 152.808 195.141 152.488L196.213 153.72C195.829 154.168 195.344 154.515 194.757 154.76C194.181 154.995 193.52 155.112 192.773 155.112ZM203.132 155V146.456H205.132V155H203.132ZM204.14 145.048C203.767 145.048 203.458 144.931 203.212 144.696C202.978 144.461 202.86 144.179 202.86 143.848C202.86 143.507 202.978 143.224 203.212 143C203.458 142.765 203.767 142.648 204.14 142.648C204.514 142.648 204.818 142.76 205.052 142.984C205.298 143.197 205.42 143.469 205.42 143.8C205.42 144.152 205.303 144.451 205.068 144.696C204.834 144.931 204.524 145.048 204.14 145.048ZM210.397 155.112C209.683 155.112 208.995 155.021 208.333 154.84C207.683 154.648 207.165 154.419 206.781 154.152L207.549 152.632C207.933 152.877 208.392 153.08 208.925 153.24C209.459 153.4 209.992 153.48 210.525 153.48C211.155 153.48 211.608 153.395 211.885 153.224C212.173 153.053 212.317 152.824 212.317 152.536C212.317 152.301 212.221 152.125 212.029 152.008C211.837 151.88 211.587 151.784 211.277 151.72C210.968 151.656 210.621 151.597 210.237 151.544C209.864 151.491 209.485 151.421 209.101 151.336C208.728 151.24 208.387 151.107 208.077 150.936C207.768 150.755 207.517 150.515 207.325 150.216C207.133 149.917 207.037 149.523 207.037 149.032C207.037 148.488 207.192 148.019 207.501 147.624C207.811 147.219 208.243 146.909 208.797 146.696C209.363 146.472 210.029 146.36 210.797 146.36C211.373 146.36 211.955 146.424 212.541 146.552C213.128 146.68 213.613 146.861 213.997 147.096L213.229 148.616C212.824 148.371 212.413 148.205 211.997 148.12C211.592 148.024 211.187 147.976 210.781 147.976C210.173 147.976 209.72 148.067 209.421 148.248C209.133 148.429 208.989 148.659 208.989 148.936C208.989 149.192 209.085 149.384 209.277 149.512C209.469 149.64 209.72 149.741 210.029 149.816C210.339 149.891 210.68 149.955 211.053 150.008C211.437 150.051 211.816 150.12 212.189 150.216C212.563 150.312 212.904 150.445 213.213 150.616C213.533 150.776 213.789 151.005 213.981 151.304C214.173 151.603 214.269 151.992 214.269 152.472C214.269 153.005 214.109 153.469 213.789 153.864C213.48 154.259 213.037 154.568 212.461 154.792C211.885 155.005 211.197 155.112 210.397 155.112ZM225.262 146.36C225.944 146.36 226.552 146.493 227.086 146.76C227.63 147.027 228.056 147.437 228.366 147.992C228.675 148.536 228.83 149.24 228.83 150.104V155H226.83V150.36C226.83 149.603 226.648 149.037 226.286 148.664C225.934 148.291 225.438 148.104 224.798 148.104C224.328 148.104 223.912 148.2 223.55 148.392C223.187 148.584 222.904 148.872 222.702 149.256C222.51 149.629 222.414 150.104 222.414 150.68V155H220.414V146.456H222.318V148.76L221.982 148.056C222.28 147.512 222.712 147.096 223.278 146.808C223.854 146.509 224.515 146.36 225.262 146.36ZM235.222 155.112C234.348 155.112 233.569 154.925 232.886 154.552C232.204 154.168 231.665 153.645 231.27 152.984C230.876 152.323 230.678 151.571 230.678 150.728C230.678 149.875 230.876 149.123 231.27 148.472C231.665 147.811 232.204 147.293 232.886 146.92C233.569 146.547 234.348 146.36 235.222 146.36C236.108 146.36 236.892 146.547 237.574 146.92C238.268 147.293 238.806 147.805 239.19 148.456C239.585 149.107 239.782 149.864 239.782 150.728C239.782 151.571 239.585 152.323 239.19 152.984C238.806 153.645 238.268 154.168 237.574 154.552C236.892 154.925 236.108 155.112 235.222 155.112ZM235.222 153.4C235.713 153.4 236.15 153.293 236.534 153.08C236.918 152.867 237.217 152.557 237.43 152.152C237.654 151.747 237.766 151.272 237.766 150.728C237.766 150.173 237.654 149.699 237.43 149.304C237.217 148.899 236.918 148.589 236.534 148.376C236.15 148.163 235.718 148.056 235.238 148.056C234.748 148.056 234.31 148.163 233.926 148.376C233.553 148.589 233.254 148.899 233.03 149.304C232.806 149.699 232.694 150.173 232.694 150.728C232.694 151.272 232.806 151.747 233.03 152.152C233.254 152.557 233.553 152.867 233.926 153.08C234.31 153.293 234.742 153.4 235.222 153.4ZM244.911 155.112C243.972 155.112 243.247 154.872 242.735 154.392C242.223 153.901 241.967 153.181 241.967 152.232V144.568H243.967V152.184C243.967 152.589 244.068 152.904 244.271 153.128C244.484 153.352 244.777 153.464 245.151 153.464C245.599 153.464 245.972 153.347 246.271 153.112L246.831 154.536C246.596 154.728 246.308 154.872 245.967 154.968C245.625 155.064 245.273 155.112 244.911 155.112ZM240.559 148.12V146.52H246.255V148.12H240.559ZM258.162 155V153.272L258.05 152.904V149.88C258.05 149.293 257.874 148.84 257.522 148.52C257.17 148.189 256.637 148.024 255.922 148.024C255.442 148.024 254.967 148.099 254.498 148.248C254.039 148.397 253.65 148.605 253.33 148.872L252.546 147.416C253.005 147.064 253.549 146.803 254.178 146.632C254.818 146.451 255.479 146.36 256.162 146.36C257.399 146.36 258.354 146.659 259.026 147.256C259.709 147.843 260.05 148.755 260.05 149.992V155H258.162ZM255.474 155.112C254.834 155.112 254.274 155.005 253.794 154.792C253.314 154.568 252.941 154.264 252.674 153.88C252.418 153.485 252.29 153.043 252.29 152.552C252.29 152.072 252.402 151.64 252.626 151.256C252.861 150.872 253.239 150.568 253.762 150.344C254.285 150.12 254.978 150.008 255.842 150.008H258.322V151.336H255.986C255.303 151.336 254.845 151.448 254.61 151.672C254.375 151.885 254.258 152.152 254.258 152.472C254.258 152.835 254.402 153.123 254.69 153.336C254.978 153.549 255.378 153.656 255.89 153.656C256.381 153.656 256.818 153.544 257.202 153.32C257.597 153.096 257.879 152.765 258.05 152.328L258.386 153.528C258.194 154.029 257.847 154.419 257.346 154.696C256.855 154.973 256.231 155.112 255.474 155.112ZM264.732 155L261.068 146.456H263.148L266.3 153.992H265.276L268.54 146.456H270.46L266.796 155H264.732ZM276.709 155V153.272L276.597 152.904V149.88C276.597 149.293 276.421 148.84 276.069 148.52C275.717 148.189 275.183 148.024 274.469 148.024C273.989 148.024 273.514 148.099 273.045 148.248C272.586 148.397 272.197 148.605 271.877 148.872L271.093 147.416C271.551 147.064 272.095 146.803 272.725 146.632C273.365 146.451 274.026 146.36 274.709 146.36C275.946 146.36 276.901 146.659 277.573 147.256C278.255 147.843 278.597 148.755 278.597 149.992V155H276.709ZM274.021 155.112C273.381 155.112 272.821 155.005 272.341 154.792C271.861 154.568 271.487 154.264 271.221 153.88C270.965 153.485 270.837 153.043 270.837 152.552C270.837 152.072 270.949 151.64 271.173 151.256C271.407 150.872 271.786 150.568 272.309 150.344C272.831 150.12 273.525 150.008 274.389 150.008H276.869V151.336H274.533C273.85 151.336 273.391 151.448 273.157 151.672C272.922 151.885 272.805 152.152 272.805 152.472C272.805 152.835 272.949 153.123 273.237 153.336C273.525 153.549 273.925 153.656 274.437 153.656C274.927 153.656 275.365 153.544 275.749 153.32C276.143 153.096 276.426 152.765 276.597 152.328L276.933 153.528C276.741 154.029 276.394 154.419 275.893 154.696C275.402 154.973 274.778 155.112 274.021 155.112ZM281.164 155V146.456H283.164V155H281.164ZM282.172 145.048C281.798 145.048 281.489 144.931 281.244 144.696C281.009 144.461 280.892 144.179 280.892 143.848C280.892 143.507 281.009 143.224 281.244 143C281.489 142.765 281.798 142.648 282.172 142.648C282.545 142.648 282.849 142.76 283.084 142.984C283.329 143.197 283.452 143.469 283.452 143.8C283.452 144.152 283.334 144.451 283.1 144.696C282.865 144.931 282.556 145.048 282.172 145.048ZM285.789 155V143.128H287.789V155H285.789ZM295.678 155V153.272L295.566 152.904V149.88C295.566 149.293 295.39 148.84 295.038 148.52C294.686 148.189 294.152 148.024 293.438 148.024C292.958 148.024 292.483 148.099 292.014 148.248C291.555 148.397 291.166 148.605 290.846 148.872L290.062 147.416C290.52 147.064 291.064 146.803 291.694 146.632C292.334 146.451 292.995 146.36 293.678 146.36C294.915 146.36 295.87 146.659 296.542 147.256C297.224 147.843 297.566 148.755 297.566 149.992V155H295.678ZM292.99 155.112C292.35 155.112 291.79 155.005 291.31 154.792C290.83 154.568 290.456 154.264 290.19 153.88C289.934 153.485 289.806 153.043 289.806 152.552C289.806 152.072 289.918 151.64 290.142 151.256C290.376 150.872 290.755 150.568 291.278 150.344C291.8 150.12 292.494 150.008 293.358 150.008H295.838V151.336H293.502C292.819 151.336 292.36 151.448 292.126 151.672C291.891 151.885 291.774 152.152 291.774 152.472C291.774 152.835 291.918 153.123 292.206 153.336C292.494 153.549 292.894 153.656 293.406 153.656C293.896 153.656 294.334 153.544 294.718 153.32C295.112 153.096 295.395 152.765 295.566 152.328L295.902 153.528C295.71 154.029 295.363 154.419 294.862 154.696C294.371 154.973 293.747 155.112 292.99 155.112ZM304.868 155.112C304.143 155.112 303.498 154.952 302.932 154.632C302.367 154.312 301.919 153.832 301.588 153.192C301.268 152.541 301.108 151.72 301.108 150.728C301.108 149.725 301.274 148.904 301.604 148.264C301.946 147.624 302.399 147.149 302.964 146.84C303.54 146.52 304.175 146.36 304.868 146.36C305.711 146.36 306.452 146.541 307.092 146.904C307.743 147.267 308.255 147.773 308.628 148.424C309.012 149.075 309.204 149.843 309.204 150.728C309.204 151.613 309.012 152.381 308.628 153.032C308.255 153.683 307.743 154.195 307.092 154.568C306.452 154.931 305.711 155.112 304.868 155.112ZM300.132 155V143.128H302.132V148.44L301.972 150.712L302.036 152.984V155H300.132ZM304.644 153.4C305.124 153.4 305.551 153.293 305.924 153.08C306.308 152.867 306.612 152.557 306.836 152.152C307.06 151.747 307.172 151.272 307.172 150.728C307.172 150.173 307.06 149.699 306.836 149.304C306.612 148.899 306.308 148.589 305.924 148.376C305.551 148.163 305.124 148.056 304.644 148.056C304.164 148.056 303.732 148.163 303.348 148.376C302.964 148.589 302.66 148.899 302.436 149.304C302.212 149.699 302.1 150.173 302.1 150.728C302.1 151.272 302.212 151.747 302.436 152.152C302.66 152.557 302.964 152.867 303.348 153.08C303.732 153.293 304.164 153.4 304.644 153.4ZM311.101 155V143.128H313.101V155H311.101ZM319.742 155.112C318.793 155.112 317.961 154.925 317.246 154.552C316.542 154.168 315.993 153.645 315.598 152.984C315.214 152.323 315.022 151.571 315.022 150.728C315.022 149.875 315.209 149.123 315.582 148.472C315.966 147.811 316.489 147.293 317.15 146.92C317.822 146.547 318.585 146.36 319.438 146.36C320.27 146.36 321.011 146.541 321.662 146.904C322.313 147.267 322.825 147.779 323.198 148.44C323.571 149.101 323.758 149.88 323.758 150.776C323.758 150.861 323.753 150.957 323.742 151.064C323.742 151.171 323.737 151.272 323.726 151.368H316.606V150.04H322.67L321.886 150.456C321.897 149.965 321.795 149.533 321.582 149.16C321.369 148.787 321.075 148.493 320.702 148.28C320.339 148.067 319.918 147.96 319.438 147.96C318.947 147.96 318.515 148.067 318.142 148.28C317.779 148.493 317.491 148.792 317.278 149.176C317.075 149.549 316.974 149.992 316.974 150.504V150.824C316.974 151.336 317.091 151.789 317.326 152.184C317.561 152.579 317.891 152.883 318.318 153.096C318.745 153.309 319.235 153.416 319.79 153.416C320.27 153.416 320.702 153.341 321.086 153.192C321.47 153.043 321.811 152.808 322.11 152.488L323.182 153.72C322.798 154.168 322.313 154.515 321.726 154.76C321.15 154.995 320.489 155.112 319.742 155.112ZM326.463 155.128C326.037 155.128 325.669 154.984 325.359 154.696C325.061 154.397 324.911 154.019 324.911 153.56C324.911 153.101 325.061 152.733 325.359 152.456C325.669 152.168 326.037 152.024 326.463 152.024C326.901 152.024 327.269 152.168 327.567 152.456C327.866 152.733 328.015 153.101 328.015 153.56C328.015 154.019 327.866 154.397 327.567 154.696C327.269 154.984 326.901 155.128 326.463 155.128Z" fill="#2B2B2B"/>
<g opacity="0.3" clip-path="url(#clip1_1113_1183)">
<path d="M131.301 447.104H117.049V472.117H82.4947V447.104H30.999V421.553L84.7804 342.883H117.049V421.015H131.301V447.104ZM82.4947 421.015V405.954C82.4947 403.13 82.6292 399.364 82.7636 394.523C83.0325 389.682 83.167 387.261 83.3014 386.992H82.3602C80.3434 391.564 78.0577 395.733 75.5031 399.768L61.2511 421.015H82.4947Z" fill="#EE8711"/>
<path d="M233.755 407.702C233.755 430.563 229.856 447.373 222.327 457.997C214.663 468.621 202.965 474 187.1 474C171.638 474 160.075 468.486 152.142 457.325C144.343 446.163 140.444 429.622 140.444 407.702C140.444 384.706 144.209 367.896 152.007 357.138C159.671 346.379 171.369 341 187.234 341C202.562 341 214.259 346.648 222.058 357.81C229.856 368.972 233.755 385.513 233.755 407.702ZM175.133 407.702C175.133 422.36 176.075 432.446 177.822 437.825C179.705 443.339 182.663 446.028 186.965 446.028C191.268 446.028 194.36 443.204 196.243 437.556C197.99 431.908 198.932 421.957 198.932 407.702C198.932 393.312 197.99 383.361 196.243 377.578C194.36 371.796 191.402 368.972 187.1 368.972C182.797 368.972 179.705 371.796 177.957 377.309C176.075 382.823 175.133 392.909 175.133 407.702Z" fill="#EE8711"/>
<path d="M343.469 447.104H329.217V472.117H294.663V447.104H243.167V421.553L296.948 342.883H329.217V421.015H343.469V447.104ZM294.797 421.015V405.954C294.797 403.13 294.932 399.364 295.066 394.523C295.335 389.682 295.469 387.261 295.604 386.992H294.663C292.646 391.564 290.36 395.733 287.806 399.768L273.419 421.15H294.797V421.015Z" fill="#EE8711"/>
</g>
<path d="M86.7617 449.036C86.7617 449.036 144.194 451.734 198.976 451.734C253.757 451.734 288.216 449.036 288.216 449.036" stroke="black" stroke-width="0.961446" stroke-miterlimit="10"/>
<path d="M191.908 408.563V420.255C191.908 424.752 189.257 427.45 189.257 427.45H186.606L180.421 434.645L177.771 445.437H176.003V449.034H166.284L166.814 447.955C167.61 446.426 169.112 445.437 170.879 445.437H172.469L178.654 426.551V411.262" stroke="black" stroke-width="0.961446" stroke-miterlimit="10"/>
<path d="M188.372 427.45L199.858 443.639L198.71 444.538L199.858 446.337V449.035H191.023V448.945C191.553 446.876 193.32 445.437 195.441 445.437V444.538L183.954 431.048" stroke="black" stroke-width="0.961446" stroke-miterlimit="10"/>
<path d="M178.654 419.356H191.908" stroke="black" stroke-width="0.961446" stroke-miterlimit="10"/>
<path d="M170.701 408.564L175.119 417.558H176.003V409.194C176.003 403.977 179.36 394.175 179.36 394.175V389.678" stroke="black" stroke-width="0.961446" stroke-miterlimit="10"/>
<path d="M189.256 408.563H127.406" stroke="black" stroke-width="0.961446" stroke-miterlimit="10"/>
<path d="M206.929 393.274H209.579" stroke="black" stroke-width="0.961446" stroke-miterlimit="10"/>
<path d="M206.929 395.973H209.579" stroke="black" stroke-width="0.961446" stroke-miterlimit="10"/>
<path d="M206.929 398.671H209.579" stroke="black" stroke-width="0.961446" stroke-miterlimit="10"/>
<path d="M191.908 393.274H205.161V398.671H202.245C197.827 398.671 193.586 397.232 189.964 394.623L189.257 394.174" stroke="black" stroke-width="0.961446" stroke-miterlimit="10"/>
<path d="M191.907 387.88C191.907 387.88 191.907 392.377 191.907 393.276L191.289 393.456C188.196 394.535 184.839 394.805 181.658 394.445L179.537 394.175" stroke="black" stroke-width="0.961446" stroke-miterlimit="10"/>
<path d="M173.794 380.504C173.529 382.123 174.325 383.652 175.915 384.371C177.417 385.001 179.096 384.551 180.068 383.292" stroke="black" stroke-width="0.961446" stroke-miterlimit="10"/>
<path d="M196.236 379.605C196.236 379.605 193.232 375.378 187.577 372.86C181.923 370.341 176.798 371.061 176.798 371.061C179.095 365.575 188.196 362.337 191.465 363.776C194.999 365.395 198.534 374.119 196.236 379.605Z" stroke="black" stroke-width="0.961446" stroke-miterlimit="10"/>
<path d="M180.068 367.644C179.714 367.644 179.361 367.644 179.096 367.644" stroke="black" stroke-width="0.961446" stroke-miterlimit="10"/>
<path d="M196.325 374.748C194.911 373.309 192.437 371.061 188.903 369.532C185.369 368.003 182.1 367.644 180.067 367.644" stroke="black" stroke-width="0.961446" stroke-miterlimit="10"/>
<path d="M196.944 375.467C196.767 375.287 196.59 375.017 196.325 374.747" stroke="black" stroke-width="0.961446" stroke-miterlimit="10"/>
<path d="M203.658 387.249C202.333 387.788 200.743 387.159 200.212 385.72L199.859 384.91C198.534 385.45 196.943 384.821 196.413 383.382L196.06 382.572V378.885" stroke="black" stroke-width="0.961446" stroke-miterlimit="10"/>
<path d="M191.996 375.827L191.554 376.816C191.024 378.076 191.554 379.515 192.791 380.054L192.968 380.144L192.614 380.953C191.996 382.303 192.614 383.921 194.028 384.461C191.731 389.947 185.457 392.465 180.068 390.127C174.678 387.789 172.204 381.403 174.501 375.917" stroke="black" stroke-width="0.961446" stroke-miterlimit="10"/>
<path d="M193.763 385.001C192.968 386.8 193.851 388.958 195.618 389.768" stroke="black" stroke-width="0.961446" stroke-miterlimit="10"/>
<path d="M205.073 376.728L204.719 377.537C204.101 378.886 202.599 379.516 201.273 378.976C200.655 380.325 199.153 380.955 197.827 380.415L197.032 380.055" stroke="black" stroke-width="0.961446" stroke-miterlimit="10"/>
<path d="M176.003 404.067H191.907" stroke="black" stroke-width="0.961446" stroke-miterlimit="10"/>
<path d="M189.257 408.563H251.107" stroke="black" stroke-width="0.961446" stroke-miterlimit="10"/>
<path d="M168.934 410.363V408.564L164.516 406.766L163.633 407.665V410.363L164.516 411.262H168.934L170.701 409.464" stroke="black" stroke-width="0.961446" stroke-miterlimit="10"/>
<path d="M192.792 411.262L191.908 408.564L196.326 406.766L197.21 407.665V410.363L196.326 411.262H192.792Z" stroke="black" stroke-width="0.961446" stroke-miterlimit="10"/>
<path d="M176.886 370.791C176.445 372.68 174.412 373.759 172.645 373.039L171.585 372.59" stroke="black" stroke-width="0.961446" stroke-miterlimit="10"/>
<g filter="url(#filter0_i_1113_1183)">
<rect x="101" y="657" width="173" height="48" rx="24" fill="#FFF7EE"/>
</g>
<rect x="99.7368" y="655.737" width="175.526" height="50.5263" rx="25.2632" stroke="black" stroke-width="2.52632"/>
<path d="M121.198 678.948L139.643 678.948C141.94 678.948 143.802 680.81 143.802 683.107L143.802 684.633C143.802 686.93 141.94 688.792 139.643 688.792H125.209" stroke="black" stroke-width="2.08134" stroke-linejoin="round"/>
<path d="M124.844 674.573C123.135 676.282 122.177 677.24 120.469 678.948L124.844 683.323" stroke="black" stroke-width="2.08134" stroke-linejoin="round"/>
<path d="M167.27 671.84C168.887 671.84 170.285 672.152 171.465 672.777C173.176 673.676 174.223 675.25 174.605 677.5H172.297C172.016 676.242 171.434 675.328 170.551 674.758C169.668 674.18 168.555 673.891 167.211 673.891C165.617 673.891 164.273 674.488 163.18 675.684C162.094 676.879 161.551 678.66 161.551 681.027C161.551 683.074 162 684.742 162.898 686.031C163.797 687.312 165.262 687.953 167.293 687.953C168.848 687.953 170.133 687.504 171.148 686.605C172.172 685.699 172.695 684.238 172.719 682.223H167.328V680.289H174.887V689.5H173.387L172.824 687.285C172.035 688.152 171.336 688.754 170.727 689.09C169.703 689.668 168.402 689.957 166.824 689.957C164.785 689.957 163.031 689.297 161.562 687.977C159.961 686.32 159.16 684.047 159.16 681.156C159.16 678.273 159.941 675.98 161.504 674.277C162.988 672.652 164.91 671.84 167.27 671.84ZM183.207 688.141C184.605 688.141 185.562 687.613 186.078 686.559C186.602 685.496 186.863 684.316 186.863 683.02C186.863 681.848 186.676 680.895 186.301 680.16C185.707 679.004 184.684 678.426 183.23 678.426C181.941 678.426 181.004 678.918 180.418 679.902C179.832 680.887 179.539 682.074 179.539 683.465C179.539 684.801 179.832 685.914 180.418 686.805C181.004 687.695 181.934 688.141 183.207 688.141ZM183.289 676.586C184.906 676.586 186.273 677.125 187.391 678.203C188.508 679.281 189.066 680.867 189.066 682.961C189.066 684.984 188.574 686.656 187.59 687.977C186.605 689.297 185.078 689.957 183.008 689.957C181.281 689.957 179.91 689.375 178.895 688.211C177.879 687.039 177.371 685.469 177.371 683.5C177.371 681.391 177.906 679.711 178.977 678.461C180.047 677.211 181.484 676.586 183.289 676.586ZM198.605 672.285H200.961V679.398H209.914V672.285H212.27V689.5H209.914V681.449H200.961V689.5H198.605V672.285ZM220.59 688.141C221.988 688.141 222.945 687.613 223.461 686.559C223.984 685.496 224.246 684.316 224.246 683.02C224.246 681.848 224.059 680.895 223.684 680.16C223.09 679.004 222.066 678.426 220.613 678.426C219.324 678.426 218.387 678.918 217.801 679.902C217.215 680.887 216.922 682.074 216.922 683.465C216.922 684.801 217.215 685.914 217.801 686.805C218.387 687.695 219.316 688.141 220.59 688.141ZM220.672 676.586C222.289 676.586 223.656 677.125 224.773 678.203C225.891 679.281 226.449 680.867 226.449 682.961C226.449 684.984 225.957 686.656 224.973 687.977C223.988 689.297 222.461 689.957 220.391 689.957C218.664 689.957 217.293 689.375 216.277 688.211C215.262 687.039 214.754 685.469 214.754 683.5C214.754 681.391 215.289 679.711 216.359 678.461C217.43 677.211 218.867 676.586 220.672 676.586ZM228.969 676.949H231.055V678.73C231.555 678.113 232.008 677.664 232.414 677.383C233.109 676.906 233.898 676.668 234.781 676.668C235.781 676.668 236.586 676.914 237.195 677.406C237.539 677.688 237.852 678.102 238.133 678.648C238.602 677.977 239.152 677.48 239.785 677.16C240.418 676.832 241.129 676.668 241.918 676.668C243.605 676.668 244.754 677.277 245.363 678.496C245.691 679.152 245.855 680.035 245.855 681.145V689.5H243.664V680.781C243.664 679.945 243.453 679.371 243.031 679.059C242.617 678.746 242.109 678.59 241.508 678.59C240.68 678.59 239.965 678.867 239.363 679.422C238.77 679.977 238.473 680.902 238.473 682.199V689.5H236.328V681.309C236.328 680.457 236.227 679.836 236.023 679.445C235.703 678.859 235.105 678.566 234.23 678.566C233.434 678.566 232.707 678.875 232.051 679.492C231.402 680.109 231.078 681.227 231.078 682.844V689.5H228.969V676.949ZM254.188 676.668C255.078 676.668 255.941 676.879 256.777 677.301C257.613 677.715 258.25 678.254 258.688 678.918C259.109 679.551 259.391 680.289 259.531 681.133C259.656 681.711 259.719 682.633 259.719 683.898H250.52C250.559 685.172 250.859 686.195 251.422 686.969C251.984 687.734 252.855 688.117 254.035 688.117C255.137 688.117 256.016 687.754 256.672 687.027C257.047 686.605 257.312 686.117 257.469 685.562H259.543C259.488 686.023 259.305 686.539 258.992 687.109C258.688 687.672 258.344 688.133 257.961 688.492C257.32 689.117 256.527 689.539 255.582 689.758C255.074 689.883 254.5 689.945 253.859 689.945C252.297 689.945 250.973 689.379 249.887 688.246C248.801 687.105 248.258 685.512 248.258 683.465C248.258 681.449 248.805 679.812 249.898 678.555C250.992 677.297 252.422 676.668 254.188 676.668ZM257.551 682.223C257.465 681.309 257.266 680.578 256.953 680.031C256.375 679.016 255.41 678.508 254.059 678.508C253.09 678.508 252.277 678.859 251.621 679.562C250.965 680.258 250.617 681.145 250.578 682.223H257.551Z" fill="black"/>
</g>
<defs>
<filter id="filter0_i_1113_1183" x="98.4736" y="654.474" width="178.053" height="53.0527" filterUnits="userSpaceOnUse" color-interpolation-filters="sRGB">
<feFlood flood-opacity="0" result="BackgroundImageFix"/>
<feBlend mode="normal" in="SourceGraphic" in2="BackgroundImageFix" result="shape"/>
<feColorMatrix in="SourceAlpha" type="matrix" values="0 0 0 0 0 0 0 0 0 0 0 0 0 0 0 0 0 0 127 0" result="hardAlpha"/>
<feMorphology radius="5.89474" operator="erode" in="SourceAlpha" result="effect1_innerShadow_1113_1183"/>
<feOffset/>
<feComposite in2="hardAlpha" operator="arithmetic" k2="-1" k3="1"/>
<feColorMatrix type="matrix" values="0 0 0 0 1 0 0 0 0 1 0 0 0 0 1 0 0 0 1 0"/>
<feBlend mode="normal" in2="shape" result="effect1_innerShadow_1113_1183"/>
</filter>
<clipPath id="clip0_1113_1183">
<rect width="375" height="812" fill="white"/>
</clipPath>
<clipPath id="clip1_1113_1183">
<rect width="312.47" height="133" fill="white" transform="translate(31 341)"/>
</clipPath>
</defs>
</svg>
