<svg width="51" height="51" viewBox="0 0 51 51" fill="none" xmlns="http://www.w3.org/2000/svg">
<g clip-path="url(#clip0_1650_30064)">
<path d="M46.8744 20.801L37.6173 17.725L29.2975 14.942C28.8582 14.7662 28.3603 14.8542 27.9793 15.1178C27.5985 15.4109 27.364 15.8501 27.364 16.319V48.5432C27.364 49.3633 28.0084 50.0079 28.8288 50.0079H46.4056C47.2259 50.0079 47.8704 49.3633 47.8704 48.5432V22.178C47.8705 21.5333 47.4602 20.9768 46.8744 20.801Z" fill="#C4CAD9"/>
<path d="M47.8703 22.1779V48.5432C47.8703 49.3633 47.2259 50.0079 46.4056 50.0079H37.6172V17.7251L46.8742 20.8011C47.4601 20.9768 47.8703 21.5333 47.8703 22.1779Z" fill="#B8BFCC"/>
<path d="M40.5466 50.0079H34.6876C33.8781 50.0079 33.2229 49.3527 33.2229 48.5432V39.7548C33.2229 38.9452 33.8781 38.29 34.6876 38.29H40.5466C41.3562 38.29 42.0114 38.9452 42.0114 39.7548V48.5432C42.0114 49.3528 41.3563 50.0079 40.5466 50.0079Z" fill="#4DB5FF"/>
<path d="M40.5467 38.29H37.6172V50.0079H40.5467C41.3563 50.0079 42.0114 49.3527 42.0114 48.5432V39.7548C42.0114 38.9451 41.3563 38.29 40.5467 38.29Z" fill="#4D97FF"/>
<path d="M29.3559 8.88784L17.1107 4.28852L5.92007 0.0993626C5.45142 -0.0764186 4.95327 0.0115697 4.57241 0.275144C4.16235 0.538913 3.92798 1.00747 3.92798 1.47632V48.5432C3.92798 49.3633 4.57241 50.008 5.39272 50.008H28.8286C29.6489 50.008 30.2933 49.3633 30.2933 48.5432V10.2648C30.2934 9.64946 29.9125 9.09292 29.3559 8.88784Z" fill="#E6EEFF"/>
<path d="M30.2935 10.2648V48.5434C30.2935 49.3635 29.649 50.0081 28.8287 50.0081H17.1108V4.28857L29.3561 8.88789C29.9125 9.09297 30.2935 9.64951 30.2935 10.2648Z" fill="#DAE2F2"/>
<path d="M22.9697 50.0079H11.2519C10.4423 50.0079 9.78711 49.3527 9.78711 48.5432V39.7548C9.78711 38.9452 10.4423 38.29 11.2519 38.29H22.9697C23.7793 38.29 24.4345 38.9452 24.4345 39.7548V48.5432C24.4345 49.3528 23.7794 50.0079 22.9697 50.0079Z" fill="#4DB5FF"/>
<path d="M22.9698 38.29H17.1108V50.0079H22.9698C23.7794 50.0079 24.4346 49.3527 24.4346 48.5432V39.7548C24.4346 38.9451 23.7795 38.29 22.9698 38.29Z" fill="#4D97FF"/>
<path d="M14.1813 35.3606H11.2519C10.4423 35.3606 9.78711 34.7055 9.78711 33.8959C9.78711 33.0863 10.4423 32.4312 11.2519 32.4312H14.1813C14.9909 32.4312 15.6461 33.0863 15.6461 33.8959C15.6461 34.7055 14.9909 35.3606 14.1813 35.3606Z" fill="#4DB5FF"/>
<path d="M22.9697 35.3606H20.0402C19.2306 35.3606 18.5754 34.7055 18.5754 33.8959C18.5754 33.0863 19.2306 32.4312 20.0402 32.4312H22.9697C23.7792 32.4312 24.4344 33.0863 24.4344 33.8959C24.4344 34.7055 23.7793 35.3606 22.9697 35.3606Z" fill="#4D97FF"/>
<path d="M14.1813 29.5016H11.2519C10.4423 29.5016 9.78711 28.8465 9.78711 28.0369C9.78711 27.2273 10.4423 26.5721 11.2519 26.5721H14.1813C14.9909 26.5721 15.6461 27.2273 15.6461 28.0369C15.6461 28.8465 14.9909 29.5016 14.1813 29.5016Z" fill="#4DB5FF"/>
<path d="M22.9697 29.5016H20.0402C19.2306 29.5016 18.5754 28.8465 18.5754 28.0369C18.5754 27.2273 19.2306 26.5721 20.0402 26.5721H22.9697C23.7792 26.5721 24.4344 27.2273 24.4344 28.0369C24.4344 28.8465 23.7793 29.5016 22.9697 29.5016Z" fill="#4D97FF"/>
<path d="M40.5466 35.3606H34.6876C33.878 35.3606 33.2229 34.7054 33.2229 33.8959C33.2229 33.0863 33.878 32.4311 34.6876 32.4311H40.5466C41.3562 32.4311 42.0113 33.0863 42.0113 33.8959C42.0113 34.7054 41.3563 35.3606 40.5466 35.3606ZM40.5466 29.5016H34.6876C33.878 29.5016 33.2229 28.8465 33.2229 28.0369C33.2229 27.2273 33.878 26.5721 34.6876 26.5721H40.5466C41.3562 26.5721 42.0113 27.2273 42.0113 28.0369C42.0113 28.8465 41.3563 29.5016 40.5466 29.5016ZM14.1813 23.6427H11.2519C10.4423 23.6427 9.78711 22.9876 9.78711 22.178C9.78711 21.3684 10.4423 20.7133 11.2519 20.7133H14.1813C14.9909 20.7133 15.6461 21.3684 15.6461 22.178C15.6461 22.9876 14.9909 23.6427 14.1813 23.6427Z" fill="#4DB5FF"/>
<path d="M22.9697 23.6427H20.0402C19.2306 23.6427 18.5754 22.9876 18.5754 22.178C18.5754 21.3684 19.2306 20.7133 20.0402 20.7133H22.9697C23.7792 20.7133 24.4344 21.3684 24.4344 22.178C24.4344 22.9876 23.7793 23.6427 22.9697 23.6427Z" fill="#4D97FF"/>
<path d="M14.1813 17.7837H11.2519C10.4423 17.7837 9.78711 17.1286 9.78711 16.319C9.78711 15.5094 10.4423 14.8542 11.2519 14.8542H14.1813C14.9909 14.8542 15.6461 15.5094 15.6461 16.319C15.6461 17.1286 14.9909 17.7837 14.1813 17.7837Z" fill="#4DB5FF"/>
<path d="M22.9697 17.7837H20.0402C19.2306 17.7837 18.5754 17.1286 18.5754 16.319C18.5754 15.5094 19.2306 14.8542 20.0402 14.8542H22.9697C23.7792 14.8542 24.4344 15.5094 24.4344 16.319C24.4344 17.1286 23.7793 17.7837 22.9697 17.7837Z" fill="#4D97FF"/>
<path d="M12.7168 41.2198H21.5052V47.0788H12.7168V41.2198Z" fill="#2EE6C7"/>
<path d="M17.1111 41.2198H21.5053V47.0788H17.1111V41.2198Z" fill="#29CCB1"/>
<path d="M17.111 50.0079C16.3014 50.0079 15.6462 49.3527 15.6462 48.5432V39.7548C15.6462 38.9452 16.3014 38.29 17.111 38.29C17.9206 38.29 18.5757 38.9452 18.5757 39.7548V48.5432C18.5756 49.3528 17.9206 50.0079 17.111 50.0079Z" fill="#4DB5FF"/>
<path d="M18.5756 48.5432V39.7548C18.5756 38.9452 17.9204 38.29 17.1108 38.29V50.0079C17.9205 50.0079 18.5756 49.3528 18.5756 48.5432Z" fill="#4D97FF"/>
<path d="M49.4328 50.008H2.36587C1.55698 50.008 0.901123 49.3521 0.901123 48.5432C0.901123 47.7343 1.55698 47.0785 2.36587 47.0785H49.4328C50.2416 47.0785 50.8975 47.7343 50.8975 48.5432C50.8975 49.3522 50.2416 50.008 49.4328 50.008Z" fill="#5C5F66"/>
<path d="M49.4327 47.0785H17.1108V50.008H49.4327C50.2416 50.008 50.8975 49.3521 50.8975 48.5432C50.8975 47.7343 50.2415 47.0785 49.4327 47.0785Z" fill="#53565C"/>
<path d="M40.5467 32.4312H37.6172V35.3606H40.5467C41.3563 35.3606 42.0114 34.7055 42.0114 33.8959C42.0114 33.0863 41.3563 32.4312 40.5467 32.4312ZM40.5467 26.5723H37.6172V29.5018H40.5467C41.3563 29.5018 42.0114 28.8466 42.0114 28.037C42.0114 27.2274 41.3563 26.5723 40.5467 26.5723Z" fill="#4D97FF"/>
</g>
<defs>
<clipPath id="clip0_1650_30064">
<rect width="50" height="50" fill="white" transform="translate(0.89917 0.00793457)"/>
</clipPath>
</defs>
</svg>
