<svg width="51" height="51" viewBox="0 0 51 51" fill="none" xmlns="http://www.w3.org/2000/svg">
<g clip-path="url(#clip0_1741_28698)">
<path d="M40.5443 11.0923C38.8304 4.35403 32.865 0.0098877 25.8991 0.00793457L25.0992 1.43118L25.8991 2.93567C31.0236 2.93743 35.5439 6.08909 37.3507 10.7632C37.5317 11.2315 37.6116 11.7475 37.6116 11.7475H40.099L40.5443 11.0923Z" fill="#04303E"/>
<path d="M11.254 11.0923C12.9679 4.35403 18.9333 0.0098877 25.8991 0.00793457V2.93567C20.7747 2.93743 16.2544 6.08909 14.4476 10.7632C14.2666 11.2315 14.1866 11.7475 14.1866 11.7475H11.6993L11.254 11.0923Z" fill="#07485E"/>
<path d="M16.4263 20.742H12.1927C11.3624 20.742 10.6892 20.0688 10.6892 19.2385V12.2667C10.6892 11.4363 11.3624 10.7632 12.1927 10.7632H16.4263C17.2567 10.7632 17.9298 11.4363 17.9298 12.2667L19.3604 13.2248V19.0219L17.9298 19.2386C17.9298 20.0688 17.2567 20.742 16.4263 20.742Z" fill="#0FA8DC"/>
<path d="M36.8764 29.8761H36.8467V26.9464H36.8764C37.5108 26.9464 38.1669 26.9464 38.1669 24.191V20.742L38.7073 19.4379H41.0966V24.191C41.0966 25.8334 40.8902 26.9623 40.4274 27.8514C39.9468 28.775 38.9404 29.8761 36.8764 29.8761Z" fill="#04303E"/>
<path d="M35.372 20.742H39.6056C40.436 20.742 41.1092 20.0688 41.1092 19.2385V12.2667C41.1092 11.4363 40.436 10.7632 39.6056 10.7632H35.372C34.5417 10.7632 33.8685 11.4363 33.8685 12.2667L32.3632 13.2344V18.246L33.8685 19.2386C33.8685 20.0688 34.5417 20.742 35.372 20.742Z" fill="#0D90BC"/>
<path d="M31.2985 35.9445L26.8366 39.9786L25.8991 39.0636L23.5117 33.1466L25.8991 28.715L26.7095 27.4698H30.0026L30.5563 28.1251V34.3234L31.2985 35.9445Z" fill="#DF9280"/>
<path d="M20.4998 35.9445L24.9617 39.9786L25.8992 39.0636V28.715L25.0888 27.4698H21.7957L21.2419 28.1251V34.3234L20.4998 35.9445Z" fill="#F9A58D"/>
<path d="M33.8679 12.0812V22.839C33.8679 25.1573 32.5232 27.1642 30.572 28.1183C30.5662 28.1202 30.5613 28.1232 30.5564 28.1251C29.782 28.5031 28.9128 28.713 27.9714 28.715H25.8992L22.7634 18.8849L25.8992 12.3097L27.5505 10.17L32.5623 9.44739L33.3816 9.72375C33.4666 9.9259 33.5427 10.1359 33.6091 10.3517C33.7771 10.8986 33.8679 11.4796 33.8679 12.0812Z" fill="#FFBDA9"/>
<path d="M17.9304 12.0812V22.839C17.9304 25.1573 19.2751 27.1642 21.2263 28.1183C21.2322 28.1202 21.2371 28.1232 21.2419 28.1251C22.0164 28.5031 22.8855 28.713 23.8269 28.715H25.8992V12.3097L24.2478 10.17L19.2361 9.44739L18.4168 9.72375C18.3318 9.9259 18.2556 10.1359 18.1892 10.3517C18.0173 10.9121 17.93 11.495 17.9304 12.0812Z" fill="#FFCCBD"/>
<path d="M30.5564 34.3234H33.324C43.03 34.3234 50.8991 41.3448 50.8991 50.0079H25.8991L22.7638 45.015L25.8991 39.0636C28.4382 39.0636 30.5593 36.8609 30.5563 34.3234H30.5564Z" fill="#0D90BC"/>
<path d="M21.2419 34.3234C21.2419 36.8615 23.3611 39.0636 25.8992 39.0636V50.0079H0.89917C0.89917 40.6993 9.73315 34.3234 18.4744 34.3234H21.2419Z" fill="#0FA8DC"/>
<path d="M11.7166 40.9639H17.5021V43.8936H11.7166V40.9639Z" fill="#F5F5F8"/>
<path d="M33.3816 9.72375C31.4285 11.3302 28.8016 12.3068 25.8992 12.3097L24.1851 9.11077L25.8992 6.20715H27.9939C30.5574 6.20715 32.4812 7.57532 33.3816 9.72375Z" fill="#04303E"/>
<path d="M25.8992 6.20715V12.3097C22.9832 12.3097 20.3806 11.3683 18.4236 9.75208C19.325 7.66614 21.4001 6.20715 23.8171 6.20715H25.8992Z" fill="#07485E"/>
</g>
<defs>
<clipPath id="clip0_1741_28698">
<rect width="50" height="50" fill="white" transform="translate(0.89917 0.00793457)"/>
</clipPath>
</defs>
</svg>
