<svg width="100" height="101" viewBox="0 0 100 101" fill="none" xmlns="http://www.w3.org/2000/svg">
<g clip-path="url(#clip0_4444_27975)">
<path d="M81.2503 58.2983V42.3921C82.7456 42.1418 84.1579 41.5326 85.3661 40.6168C86.5743 39.7009 87.5423 38.5057 88.1873 37.1336C88.8322 35.7615 89.1347 34.2534 89.0689 32.7388C89.0031 31.2241 88.5709 29.748 87.8094 28.437C87.0479 27.126 85.9798 26.0192 84.6968 25.2116C83.4137 24.404 81.9539 23.9196 80.4425 23.7999C78.9311 23.6803 77.4133 23.929 76.0191 24.5247C74.6249 25.1204 73.396 26.0454 72.4378 27.2202L58.7503 19.314C59.2965 17.8939 59.4889 16.3622 59.3109 14.8511C59.1328 13.3401 58.5897 11.8951 57.7283 10.6408C56.8669 9.38663 55.7132 8.36091 54.3668 7.65223C53.0204 6.94356 51.5218 6.57324 50.0003 6.57324C48.4788 6.57324 46.9801 6.94356 45.6337 7.65223C44.2873 8.36091 43.1336 9.38663 42.2723 10.6408C41.4109 11.8951 40.8678 13.3401 40.6897 14.8511C40.5116 16.3622 40.704 17.8939 41.2503 19.314L27.5628 27.2202C26.6045 26.0454 25.3756 25.1204 23.9815 24.5247C22.5873 23.929 21.0695 23.6803 19.5581 23.7999C18.0467 23.9196 16.5869 24.404 15.3038 25.2116C14.0207 26.0192 12.9526 27.126 12.1912 28.437C11.4297 29.748 10.9975 31.2241 10.9317 32.7388C10.8659 34.2534 11.1684 35.7615 11.8133 37.1336C12.4582 38.5057 13.4263 39.7009 14.6345 40.6168C15.8427 41.5326 17.255 42.1418 18.7503 42.3921V58.2983C17.255 58.5486 15.8427 59.1578 14.6345 60.0737C13.4263 60.9895 12.4582 62.1848 11.8133 63.5569C11.1684 64.929 10.8659 66.437 10.9317 67.9517C10.9975 69.4663 11.4297 70.9425 12.1912 72.2535C12.9526 73.5645 14.0207 74.6712 15.3038 75.4788C16.5869 76.2865 18.0467 76.7709 19.5581 76.8905C21.0695 77.0101 22.5873 76.7614 23.9815 76.1657C25.3756 75.57 26.6045 74.6451 27.5628 73.4702L41.2503 81.3765C40.704 82.7965 40.5116 84.3282 40.6897 85.8393C40.8678 87.3504 41.4109 88.7954 42.2723 90.0496C43.1336 91.3038 44.2873 92.3295 45.6337 93.0382C46.9801 93.7469 48.4788 94.1172 50.0003 94.1172C51.5218 94.1172 53.0204 93.7469 54.3668 93.0382C55.7132 92.3295 56.8669 91.3038 57.7283 90.0496C58.5897 88.7954 59.1328 87.3504 59.3109 85.8393C59.4889 84.3282 59.2965 82.7965 58.7503 81.3765L72.4378 73.4702C73.396 74.6451 74.6249 75.57 76.0191 76.1657C77.4133 76.7614 78.9311 77.0101 80.4425 76.8905C81.9539 76.7709 83.4137 76.2865 84.6968 75.4788C85.9798 74.6712 87.0479 73.5645 87.8094 72.2535C88.5709 70.9425 89.0031 69.4663 89.0689 67.9517C89.1347 66.437 88.8322 64.929 88.1873 63.5569C87.5423 62.1848 86.5743 60.9895 85.3661 60.0737C84.1579 59.1578 82.7456 58.5486 81.2503 58.2983ZM79.6878 26.9077C80.9239 26.9077 82.1323 27.2743 83.1601 27.961C84.1879 28.6478 84.989 29.6239 85.462 30.7659C85.9351 31.908 86.0588 33.1647 85.8177 34.377C85.5765 35.5894 84.9813 36.7031 84.1072 37.5771C83.2331 38.4512 82.1195 39.0465 80.9071 39.2876C79.6947 39.5288 78.438 39.405 77.296 38.932C76.154 38.4589 75.1779 37.6578 74.4911 36.63C73.8043 35.6022 73.4378 34.3939 73.4378 33.1577C73.4378 31.5001 74.0963 29.9104 75.2684 28.7383C76.4405 27.5662 78.0302 26.9077 79.6878 26.9077ZM50.0003 9.72022C51.2364 9.72022 52.4448 10.0868 53.4726 10.7735C54.5004 11.4603 55.3015 12.4364 55.7745 13.5784C56.2476 14.7205 56.3713 15.9772 56.1302 17.1895C55.889 18.4019 55.2938 19.5156 54.4197 20.3896C53.5456 21.2637 52.432 21.859 51.2196 22.1001C50.0072 22.3413 48.7505 22.2175 47.6085 21.7445C46.4665 21.2714 45.4904 20.4703 44.8036 19.4425C44.1168 18.4147 43.7503 17.2064 43.7503 15.9702C43.7503 14.3126 44.4088 12.7229 45.5809 11.5508C46.753 10.3787 48.3427 9.72022 50.0003 9.72022ZM14.0628 33.1577C14.0628 31.9216 14.4293 30.7132 15.1161 29.6854C15.8029 28.6576 16.779 27.8565 17.921 27.3835C19.063 26.9104 20.3197 26.7867 21.5321 27.0278C22.7445 27.269 23.8581 27.8642 24.7322 28.7383C25.6063 29.6124 26.2015 30.726 26.4427 31.9384C26.6838 33.1508 26.5601 34.4075 26.087 35.5495C25.614 36.6915 24.8129 37.6676 23.7851 38.3544C22.7573 39.0412 21.5489 39.4077 20.3128 39.4077C18.6552 39.4077 17.0655 38.7492 15.8934 37.5771C14.7213 36.405 14.0628 34.8153 14.0628 33.1577ZM20.3128 73.7827C19.0766 73.7827 17.8683 73.4162 16.8405 72.7294C15.8127 72.0426 15.0116 71.0665 14.5385 69.9245C14.0655 68.7825 13.9417 67.5258 14.1829 66.3134C14.424 65.101 15.0193 63.9874 15.8934 63.1133C16.7674 62.2392 17.8811 61.644 19.0935 61.4028C20.3058 61.1617 21.5625 61.2854 22.7046 61.7585C23.8466 62.2315 24.8227 63.0326 25.5095 64.0604C26.1962 65.0882 26.5628 66.2966 26.5628 67.5327C26.5628 69.1903 25.9043 70.78 24.7322 71.9521C23.5601 73.1242 21.9704 73.7827 20.3128 73.7827ZM50.0003 90.9702C48.7641 90.9702 47.5558 90.6037 46.528 89.9169C45.5002 89.2301 44.6991 88.254 44.226 87.112C43.753 85.97 43.6292 84.7133 43.8704 83.5009C44.1115 82.2885 44.7068 81.1749 45.5809 80.3008C46.4549 79.4267 47.5686 78.8315 48.781 78.5903C49.9934 78.3492 51.25 78.4729 52.3921 78.946C53.5341 79.419 54.5102 80.2201 55.197 81.2479C55.8837 82.2757 56.2503 83.4841 56.2503 84.7202C56.2503 86.3778 55.5918 87.9675 54.4197 89.1396C53.2476 90.3117 51.6579 90.9702 50.0003 90.9702ZM57.1643 78.689C56.2843 77.6464 55.1873 76.8084 53.9499 76.2336C52.7126 75.6588 51.3646 75.361 50.0003 75.361C48.6359 75.361 47.288 75.6588 46.0506 76.2336C44.8133 76.8084 43.7163 77.6464 42.8362 78.689L29.1018 70.7593C29.4881 69.7273 29.6865 68.6346 29.6878 67.5327C29.6855 65.3188 28.8999 63.1772 27.47 61.4871C26.0401 59.7969 24.0582 58.6673 21.8753 58.2983V42.3921C24.0582 42.0231 26.0401 40.8935 27.47 39.2034C28.8999 37.5132 29.6855 35.3716 29.6878 33.1577C29.6865 32.0559 29.4881 30.9631 29.1018 29.9312L42.8362 22.0015C43.7163 23.0441 44.8133 23.882 46.0506 24.4568C47.288 25.0316 48.6359 25.3294 50.0003 25.3294C51.3646 25.3294 52.7126 25.0316 53.9499 24.4568C55.1873 23.882 56.2843 23.0441 57.1643 22.0015L70.8987 29.9312C70.5125 30.9631 70.314 32.0559 70.3128 33.1577C70.315 35.3716 71.1007 37.5132 72.5306 39.2034C73.9605 40.8935 75.9424 42.0231 78.1253 42.3921V58.2983C75.9424 58.6673 73.9605 59.7969 72.5306 61.4871C71.1007 63.1772 70.315 65.3188 70.3128 67.5327C70.314 68.6346 70.5125 69.7273 70.8987 70.7593L57.1643 78.689ZM79.6878 73.7827C78.4517 73.7827 77.2433 73.4162 76.2155 72.7294C75.1877 72.0426 74.3866 71.0665 73.9135 69.9245C73.4405 68.7825 73.3167 67.5258 73.5579 66.3134C73.799 65.101 74.3943 63.9874 75.2684 63.1133C76.1424 62.2392 77.2561 61.644 78.4685 61.4028C79.6808 61.1617 80.9375 61.2854 82.0796 61.7585C83.2216 62.2315 84.1977 63.0326 84.8845 64.0604C85.5712 65.0882 85.9378 66.2966 85.9378 67.5327C85.9378 69.1903 85.2793 70.78 84.1072 71.9521C82.9351 73.1242 81.3454 73.7827 79.6878 73.7827Z" fill="black"/>
<path d="M32.8125 42.5332H29.6875C29.2731 42.5332 28.8757 42.6978 28.5826 42.9908C28.2896 43.2839 28.125 43.6813 28.125 44.0957V56.5957C28.125 57.0101 28.2896 57.4075 28.5826 57.7006C28.8757 57.9936 29.2731 58.1582 29.6875 58.1582H32.8125C34.8845 58.1582 36.8716 57.3351 38.3368 55.87C39.8019 54.4048 40.625 52.4177 40.625 50.3457C40.625 48.2737 39.8019 46.2866 38.3368 44.8214C36.8716 43.3563 34.8845 42.5332 32.8125 42.5332ZM32.8125 55.0332H31.25V45.6582H32.8125C34.0557 45.6582 35.248 46.1521 36.1271 47.0311C37.0061 47.9102 37.5 49.1025 37.5 50.3457C37.5 51.5889 37.0061 52.7812 36.1271 53.6603C35.248 54.5393 34.0557 55.0332 32.8125 55.0332ZM71.875 48.7832C71.875 47.1256 71.2165 45.5359 70.0444 44.3638C68.8723 43.1917 67.2826 42.5332 65.625 42.5332C63.9674 42.5332 62.3777 43.1917 61.2056 44.3638C60.0335 45.5359 59.375 47.1256 59.375 48.7832V51.9082C59.375 53.5658 60.0335 55.1555 61.2056 56.3276C62.3777 57.4997 63.9674 58.1582 65.625 58.1582C67.2826 58.1582 68.8723 57.4997 70.0444 56.3276C71.2165 55.1555 71.875 53.5658 71.875 51.9082V48.7832ZM68.75 51.9082C68.75 52.737 68.4208 53.5319 67.8347 54.1179C67.2487 54.704 66.4538 55.0332 65.625 55.0332C64.7962 55.0332 64.0013 54.704 63.4153 54.1179C62.8292 53.5319 62.5 52.737 62.5 51.9082V48.7832C62.5 47.9544 62.8292 47.1595 63.4153 46.5735C64.0013 45.9874 64.7962 45.6582 65.625 45.6582C66.4538 45.6582 67.2487 45.9874 67.8347 46.5735C68.4208 47.1595 68.75 47.9544 68.75 48.7832V51.9082ZM51.0234 43.4316C50.8973 43.1632 50.6973 42.9362 50.4469 42.7773C50.1965 42.6183 49.906 42.5338 49.6094 42.5338C49.3128 42.5338 49.0223 42.6183 48.7719 42.7773C48.5215 42.9362 48.3215 43.1632 48.1953 43.4316L42.3359 55.9316C42.1689 56.3053 42.1552 56.7297 42.2977 57.1134C42.4403 57.4971 42.7277 57.8096 43.0982 57.9836C43.4688 58.1576 43.8928 58.1792 44.2791 58.0439C44.6654 57.9085 44.9832 57.627 45.1641 57.2598L46.2109 55.0332H53.0078L54.0547 57.2676C54.1819 57.5347 54.3823 57.7602 54.6326 57.9178C54.883 58.0755 55.1729 58.1588 55.4688 58.1582C55.7318 58.1582 55.9906 58.0917 56.2211 57.965C56.4516 57.8383 56.6464 57.6554 56.7874 57.4334C56.9285 57.2113 57.0111 56.9573 57.0278 56.6947C57.0445 56.4322 56.9946 56.1698 56.8828 55.9316L51.0234 43.4316ZM47.6562 51.9082L49.5938 47.7754L51.5625 51.9082H47.6562Z" fill="black"/>
</g>
<defs>
<clipPath id="clip0_4444_27975">
<rect width="100" height="100" fill="white" transform="translate(0 0.345703)"/>
</clipPath>
</defs>
</svg>
