<svg width="100" height="101" viewBox="0 0 100 101" fill="none" xmlns="http://www.w3.org/2000/svg">
<g clip-path="url(#clip0_5801_60004)">
<g clip-path="url(#clip1_5801_60004)">
<path d="M78.8144 14.6541C78.8144 18.98 75.3107 22.486 70.9897 22.486C66.6687 22.486 63.165 18.98 63.165 14.6541C63.165 10.3283 66.6687 6.82227 70.9897 6.82227C75.3107 6.82227 78.8144 10.3283 78.8144 14.6541Z" stroke="#181818"/>
<path d="M99.6308 50.8465C99.6308 55.1723 96.1271 58.6784 91.8061 58.6784C87.4851 58.6784 83.9814 55.1723 83.9814 50.8465C83.9814 46.5207 87.4851 43.0146 91.8061 43.0146C96.1271 43.0146 99.6308 46.5207 99.6308 50.8465Z" stroke="#181818"/>
<path d="M78.8144 86.9715C78.8144 91.2973 75.3107 94.8034 70.9897 94.8034C66.6687 94.8034 63.165 91.2973 63.165 86.9715C63.165 82.6457 66.6687 79.1396 70.9897 79.1396C75.3107 79.1396 78.8144 82.6457 78.8144 86.9715Z" stroke="#181818"/>
<path d="M37.1161 86.9715C37.1161 91.2973 33.6125 94.8034 29.2915 94.8034C24.9704 94.8034 21.4668 91.2973 21.4668 86.9715C21.4668 82.6457 24.9704 79.1396 29.2915 79.1396C33.6125 79.1396 37.1161 82.6457 37.1161 86.9715Z" stroke="#181818"/>
<path d="M16.2802 50.8465C16.2802 55.1723 12.7766 58.6784 8.45552 58.6784C4.13449 58.6784 0.630859 55.1723 0.630859 50.8465C0.630859 46.5207 4.13449 43.0146 8.45552 43.0146C12.7766 43.0146 16.2802 46.5207 16.2802 50.8465Z" stroke="#181818"/>
<path d="M8.45517 46.6807C7.24486 46.6807 6.26019 47.6662 6.26019 48.8775C6.26019 50.0889 7.24486 51.0744 8.45517 51.0744C9.66549 51.0744 10.6502 50.0889 10.6502 48.8775C10.6502 47.6662 9.66549 46.6807 8.45517 46.6807ZM8.45517 50.5862C7.51382 50.5862 6.74797 49.8197 6.74797 48.8775C6.74797 47.9354 7.51382 47.1689 8.45517 47.1689C9.39653 47.1689 10.1624 47.9354 10.1624 48.8775C10.1624 49.8197 9.39653 50.5862 8.45517 50.5862ZM11.1862 52.5096C10.5852 51.8989 9.78857 51.5626 8.94295 51.5626H7.9674C7.1218 51.5626 6.32513 51.8989 5.7242 52.5096C5.1262 53.1173 4.79688 53.9195 4.79688 54.7684C4.79688 54.9032 4.90607 55.0125 5.04076 55.0125H11.8696C12.0043 55.0125 12.1135 54.9032 12.1135 54.7684C12.1135 53.9195 11.7841 53.1173 11.1862 52.5096ZM5.29538 54.5243C5.41757 53.1397 6.5693 52.0508 7.9674 52.0508H8.94295C10.3411 52.0508 11.4928 53.1397 11.615 54.5243H5.29538Z" fill="#181818" stroke="black" stroke-width="0.4"/>
<path d="M29.2911 10.4883C28.0808 10.4883 27.0961 11.4738 27.0961 12.6852C27.0961 13.8965 28.0808 14.882 29.2911 14.882C30.5014 14.882 31.4861 13.8965 31.4861 12.6852C31.4861 11.4738 30.5014 10.4883 29.2911 10.4883ZM29.2911 14.3938C28.3498 14.3938 27.5839 13.6273 27.5839 12.6852C27.5839 11.743 28.3498 10.9765 29.2911 10.9765C30.2325 10.9765 30.9983 11.743 30.9983 12.6852C30.9983 13.6273 30.2325 14.3938 29.2911 14.3938ZM32.0221 16.3173C31.4212 15.7066 30.6245 15.3702 29.7789 15.3702H28.8033C27.9577 15.3702 27.1611 15.7066 26.5601 16.3173C25.9621 16.925 25.6328 17.7271 25.6328 18.5761C25.6328 18.7109 25.742 18.8202 25.8767 18.8202H32.7055C32.8402 18.8202 32.9494 18.7109 32.9494 18.5761C32.9494 17.7271 32.6201 16.925 32.0221 16.3173ZM26.1313 18.332C26.2535 16.9473 27.4052 15.8584 28.8033 15.8584H29.7789C31.177 15.8584 32.3287 16.9473 32.4509 18.332H26.1313Z" fill="#181818" stroke="black" stroke-width="0.4"/>
<path d="M70.9903 10.4883C69.78 10.4883 68.7954 11.4738 68.7954 12.6852C68.7954 13.8965 69.78 14.882 70.9903 14.882C72.2006 14.882 73.1853 13.8965 73.1853 12.6852C73.1853 11.4738 72.2006 10.4883 70.9903 10.4883ZM70.9903 14.3938C70.049 14.3938 69.2831 13.6273 69.2831 12.6852C69.2831 11.743 70.049 10.9765 70.9903 10.9765C71.9317 10.9765 72.6975 11.743 72.6975 12.6852C72.6975 13.6273 71.9317 14.3938 70.9903 14.3938ZM73.7213 16.3173C73.1204 15.7066 72.3237 15.3702 71.4781 15.3702H70.5026C69.657 15.3702 68.8603 15.7066 68.2594 16.3173C67.6614 16.925 67.332 17.7271 67.332 18.5761C67.332 18.7109 67.4412 18.8202 67.5759 18.8202H74.4047C74.5394 18.8202 74.6486 18.7109 74.6486 18.5761C74.6486 17.7271 74.3193 16.925 73.7213 16.3173ZM67.8305 18.332C67.9527 16.9473 69.1045 15.8584 70.5026 15.8584H71.4781C72.8762 15.8584 74.0279 16.9473 74.1501 18.332H67.8305Z" fill="#181818" stroke="black" stroke-width="0.4"/>
<path d="M91.8067 46.6807C90.5964 46.6807 89.6118 47.6662 89.6118 48.8775C89.6118 50.0889 90.5964 51.0744 91.8067 51.0744C93.017 51.0744 94.0017 50.0889 94.0017 48.8775C94.0017 47.6662 93.017 46.6807 91.8067 46.6807ZM91.8067 50.5862C90.8654 50.5862 90.0995 49.8197 90.0995 48.8775C90.0995 47.9354 90.8654 47.1689 91.8067 47.1689C92.7481 47.1689 93.5139 47.9354 93.5139 48.8775C93.5139 49.8197 92.7481 50.5862 91.8067 50.5862ZM94.5377 52.5096C93.9368 51.8989 93.1401 51.5626 92.2945 51.5626H91.319C90.4734 51.5626 89.6767 51.8989 89.0758 52.5096C88.4778 53.1173 88.1484 53.9195 88.1484 54.7684C88.1484 54.9032 88.2576 55.0125 88.3923 55.0125H95.2211C95.3558 55.0125 95.465 54.9032 95.465 54.7684C95.465 53.9195 95.1357 53.1173 94.5377 52.5096ZM88.6469 54.5243C88.7691 53.1397 89.9209 52.0508 91.319 52.0508H92.2945C93.6926 52.0508 94.8443 53.1397 94.9665 54.5243H88.6469Z" fill="#181818" stroke="black" stroke-width="0.4"/>
<path d="M70.9903 82.8057C69.78 82.8057 68.7954 83.7912 68.7954 85.0025C68.7954 86.2139 69.78 87.1994 70.9903 87.1994C72.2006 87.1994 73.1853 86.2139 73.1853 85.0025C73.1853 83.7912 72.2006 82.8057 70.9903 82.8057ZM70.9903 86.7112C70.049 86.7112 69.2831 85.9447 69.2831 85.0025C69.2831 84.0604 70.049 83.2939 70.9903 83.2939C71.9317 83.2939 72.6975 84.0604 72.6975 85.0025C72.6975 85.9447 71.9317 86.7112 70.9903 86.7112ZM73.7213 88.6346C73.1204 88.0239 72.3237 87.6876 71.4781 87.6876H70.5026C69.657 87.6876 68.8603 88.0239 68.2594 88.6346C67.6614 89.2423 67.332 90.0445 67.332 90.8934C67.332 91.0282 67.4412 91.1375 67.5759 91.1375H74.4047C74.5394 91.1375 74.6486 91.0282 74.6486 90.8934C74.6486 90.0445 74.3193 89.2423 73.7213 88.6346ZM67.8305 90.6493C67.9527 89.2647 69.1045 88.1758 70.5026 88.1758H71.4781C72.8762 88.1758 74.0279 89.2647 74.1501 90.6493H67.8305Z" fill="#181818" stroke="black" stroke-width="0.4"/>
<path d="M29.2911 82.8057C28.0808 82.8057 27.0961 83.7912 27.0961 85.0025C27.0961 86.2139 28.0808 87.1994 29.2911 87.1994C30.5014 87.1994 31.4861 86.2139 31.4861 85.0025C31.4861 83.7912 30.5014 82.8057 29.2911 82.8057ZM29.2911 86.7112C28.3498 86.7112 27.5839 85.9447 27.5839 85.0025C27.5839 84.0604 28.3498 83.2939 29.2911 83.2939C30.2325 83.2939 30.9983 84.0604 30.9983 85.0025C30.9983 85.9447 30.2325 86.7112 29.2911 86.7112ZM32.0221 88.6346C31.4212 88.0239 30.6245 87.6876 29.7789 87.6876H28.8033C27.9577 87.6876 27.1611 88.0239 26.5601 88.6346C25.9621 89.2423 25.6328 90.0445 25.6328 90.8934C25.6328 91.0282 25.742 91.1375 25.8767 91.1375H32.7055C32.8402 91.1375 32.9494 91.0282 32.9494 90.8934C32.9494 90.0445 32.6201 89.2423 32.0221 88.6346ZM26.1313 90.6493C26.2535 89.2647 27.4052 88.1758 28.8033 88.1758H29.7789C31.177 88.1758 32.3287 89.2647 32.4509 90.6493H26.1313Z" fill="#181818" stroke="black" stroke-width="0.4"/>
<path d="M37.1161 14.6541C37.1161 18.98 33.6125 22.486 29.2915 22.486C24.9704 22.486 21.4668 18.98 21.4668 14.6541C21.4668 10.3283 24.9704 6.82227 29.2915 6.82227C33.6125 6.82227 37.1161 10.3283 37.1161 14.6541Z" stroke="#181818"/>
<path d="M71.3057 24.4238C71.1104 24.2285 70.7939 24.2285 70.5986 24.4238L67.4166 27.6058C67.2214 27.801 67.2214 28.1176 67.4166 28.3129C67.6119 28.5081 67.9285 28.5081 68.1237 28.3129L70.9521 25.4845L73.7806 28.3129C73.9758 28.5081 74.2924 28.5081 74.4877 28.3129C74.6829 28.1176 74.6829 27.801 74.4877 27.6058L71.3057 24.4238ZM70.5986 77.2059C70.7939 77.4012 71.1104 77.4012 71.3057 77.2059L74.4877 74.0239C74.6829 73.8287 74.6829 73.5121 74.4877 73.3168C74.2924 73.1215 73.9758 73.1215 73.7806 73.3168L70.9521 76.1452L68.1237 73.3168C67.9285 73.1215 67.6119 73.1215 67.4166 73.3168C67.2214 73.5121 67.2214 73.8287 67.4166 74.0239L70.5986 77.2059ZM70.4521 24.7773V76.8523H71.4521V24.7773H70.4521Z" fill="#181818"/>
<path d="M66.3453 23.4652C66.2743 23.1983 66.0005 23.0394 65.7337 23.1104L61.3866 24.2669C61.1199 24.3379 60.9612 24.6118 61.0322 24.8788C61.1032 25.1458 61.3771 25.3046 61.6438 25.2337L65.5079 24.2056L66.5367 28.0726C66.6077 28.3396 66.8815 28.4985 67.1483 28.4275C67.4151 28.3565 67.5737 28.0826 67.5027 27.8156L66.3453 23.4652ZM33.9468 77.9894C34.0178 78.2564 34.2917 78.4153 34.5584 78.3443L38.9055 77.1878C39.1723 77.1168 39.3309 76.8429 39.2599 76.5759C39.1889 76.3089 38.9151 76.1501 38.6483 76.221L34.7842 77.2491L33.7554 73.3821C33.6844 73.1151 33.4106 72.9562 33.1438 73.0272C32.8771 73.0982 32.7184 73.3721 32.7894 73.6391L33.9468 77.9894ZM65.4298 23.3428L33.9973 77.61L34.8623 78.1119L66.2948 23.8447L65.4298 23.3428Z" fill="#181818"/>
<path d="M62.7343 19.8513C62.8052 19.5844 62.6465 19.3104 62.3798 19.2395L58.0326 18.0835C57.7659 18.0125 57.4921 18.1715 57.4211 18.4384C57.3501 18.7054 57.5089 18.9794 57.7756 19.0503L61.6397 20.0779L60.6117 23.9451C60.5408 24.2121 60.6995 24.4861 60.9662 24.557C61.233 24.6279 61.5068 24.469 61.5778 24.202L62.7343 19.8513ZM16.8269 45.6814C16.7559 45.9484 16.9146 46.2223 17.1814 46.2932L21.5285 47.4492C21.7953 47.5202 22.0691 47.3613 22.14 47.0943C22.211 46.8273 22.0523 46.5534 21.7855 46.4824L17.9214 45.4549L18.9494 41.5876C19.0204 41.3206 18.8617 41.0467 18.5949 40.9757C18.3281 40.9048 18.0543 41.0637 17.9834 41.3307L16.8269 45.6814ZM62.0006 19.2903L17.0592 45.3772L17.5606 46.2425L62.5019 20.1555L62.0006 19.2903Z" fill="#181818"/>
<path d="M34.4896 23.1474C34.2228 23.0766 33.9491 23.2356 33.8783 23.5026L32.7238 27.8539C32.653 28.1209 32.8119 28.3948 33.0787 28.4656C33.3455 28.5364 33.6192 28.3773 33.69 28.1103L34.7161 24.2425L38.5808 25.2682C38.8476 25.339 39.1213 25.18 39.1921 24.913C39.2629 24.646 39.1041 24.3721 38.8373 24.3013L34.4896 23.1474ZM65.764 78.4729C66.0308 78.5437 66.3046 78.3847 66.3754 78.1177L67.5298 73.7664C67.6006 73.4994 67.4418 73.2255 67.175 73.1547C66.9082 73.0839 66.6345 73.243 66.5636 73.51L65.5375 77.3778L61.6729 76.3521C61.4061 76.2813 61.1324 76.4403 61.0615 76.7073C60.9907 76.9744 61.1496 77.2482 61.4164 77.319L65.764 78.4729ZM33.929 23.8821L65.46 78.2407L66.3246 77.7382L34.7936 23.3797L33.929 23.8821Z" fill="#181818"/>
<path d="M37.9357 19.2494C37.6692 19.3216 37.5116 19.5963 37.5837 19.8629L38.758 24.2081C38.8301 24.4747 39.1045 24.6324 39.371 24.5602C39.6374 24.488 39.795 24.2133 39.723 23.9466L38.6791 20.0842L42.539 19.0384C42.8054 18.9662 42.963 18.6915 42.891 18.4249C42.8189 18.1583 42.5445 18.0006 42.278 18.0728L37.9357 19.2494ZM83.2764 46.1074C83.5428 46.0352 83.7004 45.7605 83.6284 45.4939L82.454 41.1487C82.3819 40.882 82.1075 40.7244 81.841 40.7966C81.5746 40.8688 81.417 41.1435 81.489 41.4101L82.5329 45.2725L78.673 46.3184C78.4066 46.3906 78.249 46.6652 78.321 46.9319C78.3931 47.1985 78.6675 47.3561 78.934 47.2839L83.2764 46.1074ZM37.8172 20.166L82.897 46.0584L83.3948 45.1908L38.315 19.2983L37.8172 20.166Z" fill="#181818"/>
<path d="M40.2549 14.419C40.0596 14.6144 40.0595 14.9311 40.2546 15.1264L43.4344 18.3096C43.6295 18.5049 43.946 18.5049 44.1412 18.3096C44.3365 18.1143 44.3366 17.7976 44.1415 17.6023L41.315 14.7727L44.1433 11.9433C44.3386 11.748 44.3387 11.4313 44.1436 11.236C43.9484 11.0406 43.632 11.0406 43.4367 11.2359L40.2549 14.419ZM60.1824 15.1268C60.3776 14.9314 60.3777 14.6147 60.1826 14.4194L57.0028 11.2362C56.8077 11.0408 56.4913 11.0408 56.296 11.2362C56.1007 11.4315 56.1006 11.7482 56.2958 11.9435L59.1222 14.7731L56.2939 17.6025C56.0987 17.7978 56.0986 18.1145 56.2937 18.3098C56.4888 18.5052 56.8053 18.5052 57.0005 18.3099L60.1824 15.1268ZM40.608 15.2729L50.2185 15.2731L50.2188 14.2727L40.6083 14.2725L40.608 15.2729ZM50.2185 15.2731L59.8289 15.2733L59.8292 14.2729L50.2188 14.2727L50.2185 15.2731Z" fill="#181818"/>
<path d="M76.538 23.8707C76.271 23.8006 75.9978 23.9604 75.9277 24.2277L74.7856 28.5822C74.7156 28.8494 74.8752 29.1228 75.1422 29.1928C75.4092 29.2629 75.6824 29.1031 75.7525 28.8358L76.7677 24.9652L80.6352 25.9799C80.9022 26.0499 81.1754 25.8901 81.2455 25.6229C81.3156 25.3557 81.156 25.0822 80.889 25.0122L76.538 23.8707ZM86.0953 41.6422C86.3623 41.7122 86.6355 41.5524 86.7056 41.2852L87.8477 36.9307C87.9178 36.6635 87.7581 36.3901 87.4911 36.32C87.2241 36.25 86.9509 36.4098 86.8808 36.677L85.8656 40.5477L81.9981 39.533C81.7311 39.4629 81.4579 39.6228 81.3878 39.89C81.3177 40.1572 81.4773 40.4306 81.7443 40.5007L86.0953 41.6422ZM75.9796 24.6069L85.7906 41.4108L86.6538 40.9059L76.8427 24.1021L75.9796 24.6069Z" fill="#181818"/>
<path d="M18.6408 50.4624C18.4455 50.6578 18.4454 50.9745 18.6406 51.1698L21.8204 54.353C22.0155 54.5483 22.332 54.5483 22.5272 54.353C22.7225 54.1576 22.7226 53.8409 22.5275 53.6456L19.701 50.8161L22.5292 47.9867C22.7245 47.7913 22.7246 47.4746 22.5295 47.2793C22.3343 47.084 22.0179 47.084 21.8226 47.2793L18.6408 50.4624ZM81.9495 51.1701C82.1447 50.9747 82.1448 50.658 81.9497 50.4627L78.7699 47.2795C78.5747 47.0842 78.2583 47.0842 78.063 47.2795C77.8678 47.4749 77.8677 47.7916 78.0628 47.9869L80.8893 50.8164L78.061 53.6458C77.8658 53.8412 77.8657 54.1579 78.0608 54.3532C78.2559 54.5485 78.5724 54.5485 78.7677 54.3532L81.9495 51.1701ZM18.994 51.3163L81.596 51.3166L81.5963 50.3162L18.9943 50.3159L18.994 51.3163Z" fill="#181818"/>
<path d="M17.0155 55.5337C16.749 55.6059 16.5914 55.8806 16.6635 56.1472L17.8381 60.4923C17.9101 60.759 18.1846 60.9166 18.451 60.8444C18.7175 60.7722 18.8751 60.4975 18.803 60.2308L17.759 56.3685L21.6188 55.3225C21.8852 55.2503 22.0428 54.9756 21.9707 54.7089C21.8987 54.4423 21.6242 54.2847 21.3578 54.3569L17.0155 55.5337ZM62.4011 82.4143C62.6675 82.3421 62.8251 82.0674 62.7531 81.8007L61.5785 77.4556C61.5064 77.189 61.232 77.0314 60.9655 77.1036C60.699 77.1758 60.5414 77.4505 60.6135 77.7171L61.6576 81.5795L57.7978 82.6255C57.5313 82.6977 57.3737 82.9724 57.4458 83.239C57.5179 83.5057 57.7923 83.6633 58.0588 83.5911L62.4011 82.4143ZM16.8971 56.4503L62.0217 82.3653L62.5195 81.4977L17.3948 55.5826L16.8971 56.4503Z" fill="#181818"/>
<path d="M37.7307 81.7207C37.6593 81.9875 37.8175 82.2618 38.0841 82.3332L42.4292 83.4971C42.6958 83.5685 42.9699 83.4101 43.0413 83.1432C43.1128 82.8764 42.9546 82.6021 42.6879 82.5307L38.8257 81.4961L39.8607 77.6307C39.9321 77.3639 39.7739 77.0897 39.5073 77.0182C39.2406 76.9468 38.9666 77.1052 38.8951 77.3721L37.7307 81.7207ZM83.5643 56.0434C83.6358 55.7766 83.4776 55.5024 83.2109 55.4309L78.8659 54.2671C78.5993 54.1956 78.3252 54.3541 78.2537 54.6209C78.1823 54.8878 78.3405 55.162 78.6071 55.2334L82.4694 56.268L81.4344 60.1334C81.3629 60.4002 81.5212 60.6745 81.7878 60.7459C82.0544 60.8173 82.3285 60.6589 82.4 60.392L83.5643 56.0434ZM38.4634 82.2831L83.3315 56.3472L82.8317 55.481L37.9636 81.4169L38.4634 82.2831Z" fill="#181818"/>
<path d="M76.1155 77.4289C76.1882 77.6953 76.4631 77.8522 76.7294 77.7793L81.0685 76.5908C81.3348 76.5179 81.4916 76.2428 81.4188 75.9764C81.346 75.7099 81.0712 75.553 80.8049 75.626L76.9479 76.6823L75.8935 72.8228C75.8207 72.5564 75.5458 72.3995 75.2796 72.4724C75.0133 72.5454 74.8565 72.8205 74.9292 73.0869L76.1155 77.4289ZM86.6218 60.4275C86.549 60.1611 86.2741 60.0042 86.0078 60.0771L81.6687 61.2656C81.4024 61.3385 81.2456 61.6136 81.3184 61.88C81.3912 62.1465 81.6661 62.3034 81.9323 62.2304L85.7893 61.1741L86.8437 65.0336C86.9165 65.3 87.1914 65.4569 87.4577 65.384C87.7239 65.311 87.8808 65.0359 87.808 64.7695L86.6218 60.4275ZM77.0317 77.5446L86.5738 60.8073L85.7055 60.3118L76.1635 77.0491L77.0317 77.5446Z" fill="#181818"/>
<path d="M40.1994 86.6586C40.0041 86.854 40.004 87.1707 40.1992 87.366L43.379 90.5492C43.5741 90.7445 43.8906 90.7445 44.0858 90.5492C44.2811 90.3539 44.2812 90.0372 44.086 89.8418L41.2595 87.0123L44.0878 84.1829C44.2831 83.9876 44.2832 83.6709 44.0881 83.4755C43.8929 83.2802 43.5765 83.2802 43.3812 83.4755L40.1994 86.6586ZM60.2123 87.3662C60.4075 87.1708 60.4076 86.8541 60.2125 86.6588L57.0327 83.4756C56.8376 83.2803 56.5211 83.2803 56.3259 83.4756C56.1306 83.671 56.1305 83.9877 56.3256 84.183L59.1521 87.0125L56.3238 89.8419C56.1286 90.0373 56.1285 90.354 56.3236 90.5493C56.5187 90.7446 56.8352 90.7446 57.0305 90.5493L60.2123 87.3662ZM40.5525 87.5125L59.8588 87.5127L59.8591 86.5123L40.5529 86.5121L40.5525 87.5125Z" fill="#181818"/>
<path d="M14.16 60.0161C13.893 59.9461 13.6198 60.106 13.5497 60.3732L12.4083 64.7279C12.3383 64.9951 12.498 65.2685 12.765 65.3385C13.032 65.4085 13.3052 65.2487 13.3753 64.9814L14.3898 61.1106L18.2575 62.1247C18.5245 62.1948 18.7977 62.0349 18.8678 61.7677C18.9378 61.5004 18.7782 61.2271 18.5112 61.157L14.16 60.0161ZM23.7317 77.8064C23.9987 77.8764 24.2719 77.7165 24.3419 77.4493L25.4834 73.0946C25.5534 72.8274 25.3937 72.554 25.1267 72.484C24.8597 72.414 24.5865 72.5739 24.5164 72.8411L23.5019 76.7119L19.6342 75.6978C19.3672 75.6278 19.0939 75.7876 19.0239 76.0549C18.9539 76.3221 19.1135 76.5955 19.3805 76.6655L23.7317 77.8064ZM13.6017 60.7525L23.427 77.575L24.29 77.07L14.4647 60.2475L13.6017 60.7525Z" fill="#181818"/>
<path d="M24.1818 24.1464C24.108 23.8803 23.8326 23.7244 23.5666 23.7983L19.2319 25.003C18.9659 25.0769 18.8101 25.3526 18.8839 25.6188C18.9577 25.885 19.2331 26.0408 19.4991 25.9669L23.3522 24.8961L24.421 28.7516C24.4948 29.0178 24.7702 29.1736 25.0362 29.0997C25.3022 29.0258 25.458 28.7501 25.3843 28.4839L24.1818 24.1464ZM13.6711 41.3073C13.7449 41.5735 14.0204 41.7293 14.2864 41.6554L18.621 40.4508C18.887 40.3768 19.0428 40.1011 18.969 39.835C18.8952 39.5688 18.6198 39.4129 18.3538 39.4869L14.5008 40.5577L13.4319 36.7022C13.3582 36.436 13.0827 36.2801 12.8167 36.3541C12.5507 36.428 12.3949 36.7037 12.4687 36.9699L13.6711 41.3073ZM23.2652 24.0341L13.7177 40.9273L14.5878 41.4196L24.1352 24.5264L23.2652 24.0341Z" fill="#181818"/>
<path d="M29.7255 24.2907C29.5303 24.0955 29.2138 24.0956 29.0186 24.291L25.8378 27.4751C25.6426 27.6705 25.6426 27.9872 25.8378 28.1825C26.033 28.3777 26.3495 28.3776 26.5447 28.1822L29.3721 25.3519L32.1995 28.1805C32.3946 28.3758 32.7111 28.3757 32.9063 28.1803C33.1015 27.9849 33.1015 27.6682 32.9063 27.4729L29.7255 24.2907ZM29.0186 77.0611C29.2138 77.2563 29.5303 77.2562 29.7255 77.0608L32.9063 73.8767C33.1015 73.6813 33.1015 73.3646 32.9063 73.1693C32.7111 72.9741 32.3946 72.9742 32.1995 73.1696L29.3721 75.9999L26.5447 73.1713C26.3495 72.976 26.033 72.9761 25.8378 73.1715C25.6426 73.3669 25.6426 73.6836 25.8378 73.8789L29.0186 77.0611ZM28.8723 24.6447L28.8723 76.7074L29.8719 76.7071L29.8719 24.6444L28.8723 24.6447Z" fill="#181818"/>
</g>
</g>
<defs>
<clipPath id="clip0_5801_60004">
<rect width="100" height="100" fill="white" transform="translate(0 0.678711)"/>
</clipPath>
<clipPath id="clip1_5801_60004">
<rect width="100" height="100" fill="white" transform="translate(0 0.678711)"/>
</clipPath>
</defs>
</svg>
