<svg width="100" height="101" viewBox="0 0 100 101" fill="none" xmlns="http://www.w3.org/2000/svg">
<g clip-path="url(#clip0_4444_11009)">
<path d="M43.75 44.0957V56.5957C43.75 57.0101 43.5854 57.4075 43.2924 57.7006C42.9993 57.9936 42.6019 58.1582 42.1875 58.1582C41.9148 58.1566 41.6473 58.0836 41.4116 57.9465C41.1758 57.8095 40.9801 57.6131 40.8438 57.377L34.375 48.7832V56.5957C34.375 57.0101 34.2104 57.4075 33.9174 57.7006C33.6243 57.9936 33.2269 58.1582 32.8125 58.1582C32.3981 58.1582 32.0007 57.9936 31.7076 57.7006C31.4146 57.4075 31.25 57.0101 31.25 56.5957V44.0957C31.25 43.6813 31.4146 43.2839 31.7076 42.9908C32.0007 42.6978 32.3981 42.5332 32.8125 42.5332C33.0852 42.5348 33.3527 42.6078 33.5884 42.7449C33.8241 42.8819 34.0199 43.0783 34.1562 43.3145L40.625 51.9082V44.0957C40.625 43.6813 40.7896 43.2839 41.0826 42.9908C41.3757 42.6978 41.7731 42.5332 42.1875 42.5332C42.6019 42.5332 42.9993 42.6978 43.2924 42.9908C43.5854 43.2839 43.75 43.6813 43.75 44.0957ZM54.6875 45.6582C55.1019 45.6582 55.4993 45.4936 55.7924 45.2006C56.0854 44.9075 56.25 44.5101 56.25 44.0957C56.25 43.6813 56.0854 43.2839 55.7924 42.9908C55.4993 42.6978 55.1019 42.5332 54.6875 42.5332H48.4375C48.0231 42.5332 47.6257 42.6978 47.3326 42.9908C47.0396 43.2839 46.875 43.6813 46.875 44.0957V56.5957C46.875 57.0101 47.0396 57.4075 47.3326 57.7006C47.6257 57.9936 48.0231 58.1582 48.4375 58.1582C48.8519 58.1582 49.2493 57.9936 49.5424 57.7006C49.8354 57.4075 50 57.0101 50 56.5957V51.9082H54.6875C55.1019 51.9082 55.4993 51.7436 55.7924 51.4506C56.0854 51.1575 56.25 50.7601 56.25 50.3457C56.25 49.9313 56.0854 49.5339 55.7924 49.2408C55.4993 48.9478 55.1019 48.7832 54.6875 48.7832H50V45.6582H54.6875ZM64.0625 58.1582C64.4769 58.1582 64.8743 57.9936 65.1674 57.7006C65.4604 57.4075 65.625 57.0101 65.625 56.5957V45.6582H67.1875C67.6019 45.6582 67.9993 45.4936 68.2924 45.2006C68.5854 44.9075 68.75 44.5101 68.75 44.0957C68.75 43.6813 68.5854 43.2839 68.2924 42.9908C67.9993 42.6978 67.6019 42.5332 67.1875 42.5332H60.9375C60.5231 42.5332 60.1257 42.6978 59.8326 42.9908C59.5396 43.2839 59.375 43.6813 59.375 44.0957C59.375 44.5101 59.5396 44.9075 59.8326 45.2006C60.1257 45.4936 60.5231 45.6582 60.9375 45.6582H62.5V56.5957C62.5 57.0101 62.6646 57.4075 62.9576 57.7006C63.2507 57.9936 63.6481 58.1582 64.0625 58.1582ZM6.25 25.3457H12.5V31.5957H6.25V25.3457ZM85.9375 78.4707H92.1875V84.7207H85.9375V78.4707Z" fill="black"/>
<path d="M87.4998 51.908C86.1177 51.9125 84.776 52.375 83.6847 53.2231C82.5934 54.0713 81.8141 55.2572 81.4685 56.5955H74.9998V44.0955H81.4685C81.8488 45.5684 82.7533 46.852 84.0123 47.7058C85.2713 48.5596 86.7985 48.9248 88.3076 48.7332C89.8167 48.5415 91.204 47.806 92.2097 46.6646C93.2153 45.5232 93.7701 44.0542 93.7701 42.533C93.7701 41.0118 93.2153 39.5428 92.2097 38.4014C91.204 37.26 89.8167 36.5245 88.3076 36.3328C86.7985 36.1411 85.2713 36.5064 84.0123 37.3602C82.7533 38.2139 81.8488 39.4976 81.4685 40.9705H74.9998V39.5174C74.9931 38.1341 74.6192 36.7775 73.9164 35.586C73.2137 34.3946 72.2072 33.4111 70.9998 32.7361L65.6248 29.7674V22.8611L68.7498 19.7361C70.0814 20.5124 71.6506 20.776 73.1628 20.4774C74.675 20.1788 76.0262 19.3386 76.9628 18.1144C77.8994 16.8902 78.357 15.3662 78.2497 13.8286C78.1424 12.291 77.4775 10.8453 76.38 9.76311C75.2824 8.68089 73.8275 8.03647 72.2885 7.95082C70.7495 7.86518 69.2322 8.34419 68.0213 9.29795C66.8104 10.2517 65.9893 11.6146 65.712 13.1309C65.4347 14.6471 65.7204 16.2124 66.5154 17.533L62.9529 21.0799C62.8043 21.2296 62.6875 21.4078 62.6097 21.6038C62.5318 21.7998 62.4944 22.0096 62.4998 22.2205V28.033L53.7342 23.1736C53.0529 22.8071 52.3209 22.5438 51.5623 22.3924V15.7517C53.0352 15.3714 54.3188 14.467 55.1726 13.208C56.0264 11.9489 56.3916 10.4218 56.2 8.91267C56.0083 7.40358 55.2728 6.01621 54.1314 5.0106C52.99 4.005 51.521 3.4502 49.9998 3.4502C48.4786 3.4502 47.0096 4.005 45.8682 5.0106C44.7267 6.01621 43.9913 7.40358 43.7996 8.91267C43.6079 10.4218 43.9732 11.9489 44.827 13.208C45.6807 14.467 46.9644 15.3714 48.4373 15.7517V22.3924C47.6762 22.5431 46.9434 22.8119 46.2654 23.1892L37.4998 28.033V22.2205C37.501 22.0148 37.4616 21.811 37.3838 21.6206C37.306 21.4303 37.1915 21.2571 37.0467 21.1111L33.4842 17.533C34.2669 16.2063 34.5389 14.6396 34.2491 13.1267C33.9594 11.6138 33.1277 10.2586 31.91 9.31506C30.6924 8.37154 29.1724 7.90457 27.6351 8.00168C26.0977 8.09879 24.6486 8.75332 23.5594 9.84256C22.4701 10.9318 21.8156 12.3809 21.7185 13.9183C21.6214 15.4556 22.0883 16.9756 23.0319 18.1932C23.9754 19.4109 25.3306 20.2426 26.8435 20.5324C28.3564 20.8221 29.9231 20.5501 31.2498 19.7674L34.3748 22.8924V29.7986L29.906 32.283C29.5455 32.4902 29.282 32.8321 29.1736 33.2336C29.0652 33.635 29.1207 34.0631 29.3279 34.4236C29.5351 34.7841 29.877 35.0476 30.2785 35.156C30.6799 35.2644 31.108 35.2089 31.4685 35.0017L47.8279 25.9549C48.5139 25.5829 49.2819 25.3881 50.0623 25.3881C50.8426 25.3881 51.6107 25.5829 52.2967 25.9549L69.4842 35.5017C70.1991 35.9035 70.7961 36.4857 71.2156 37.1904C71.6351 37.895 71.8624 38.6974 71.8748 39.5174V61.1736C71.8694 61.9974 71.647 62.8051 71.2301 63.5156C70.8131 64.2261 70.2163 64.8141 69.4998 65.2205L52.3123 74.7674C51.6263 75.1393 50.8583 75.3341 50.0779 75.3341C49.2975 75.3341 48.5295 75.1393 47.8435 74.7674L30.656 65.2205C29.9103 64.8345 29.282 64.2553 28.8367 63.5434C28.3914 62.8315 28.1456 62.013 28.1248 61.1736V39.5174C28.1171 39.2805 28.1435 39.0437 28.2029 38.8142C28.2941 38.3998 28.2169 37.9662 27.9883 37.6087C27.7598 37.2512 27.3986 36.9991 26.9842 36.908C26.5698 36.8168 26.1361 36.894 25.7786 37.1226C25.4211 37.3511 25.1691 37.7123 25.0779 38.1267C24.9815 38.5839 24.9344 39.0501 24.9373 39.5174V40.9705H18.531C18.1507 39.4976 17.2463 38.2139 15.9873 37.3602C14.7282 36.5064 13.201 36.1411 11.692 36.3328C10.1829 36.5245 8.79551 37.26 7.7899 38.4014C6.78429 39.5428 6.22949 41.0118 6.22949 42.533C6.22949 44.0542 6.78429 45.5232 7.7899 46.6646C8.79551 47.806 10.1829 48.5415 11.692 48.7332C13.201 48.9248 14.7282 48.5596 15.9873 47.7058C17.2463 46.852 18.1507 45.5684 18.531 44.0955H24.9998V56.5955H18.531C18.1507 55.1226 17.2463 53.8389 15.9873 52.9852C14.7282 52.1314 13.201 51.7661 11.692 51.9578C10.1829 52.1495 8.79551 52.885 7.7899 54.0264C6.78429 55.1678 6.22949 56.6368 6.22949 58.158C6.22949 59.6792 6.78429 61.1482 7.7899 62.2896C8.79551 63.431 10.1829 64.1665 11.692 64.3582C13.201 64.5498 14.7282 64.1846 15.9873 63.3308C17.2463 62.477 18.1507 61.1934 18.531 59.7205H24.9998V61.1736C25.0065 62.5569 25.3803 63.9135 26.0831 65.1049C26.7859 66.2964 27.7924 67.2798 28.9998 67.9549L34.3748 70.9236V77.8299L31.2498 80.9549C29.9182 80.1785 28.349 79.9149 26.8368 80.2135C25.3246 80.5121 23.9734 81.3524 23.0368 82.5766C22.1002 83.8008 21.6426 85.3247 21.7499 86.8624C21.8572 88.4 22.522 89.8456 23.6196 90.9279C24.7172 92.0101 26.172 92.6545 27.711 92.7401C29.25 92.8258 30.7674 92.3468 31.9783 91.393C33.1891 90.4393 34.0103 89.0763 34.2876 87.5601C34.5648 86.0439 34.2791 84.4785 33.4842 83.158L37.0467 79.6111C37.1953 79.4614 37.312 79.2832 37.3899 79.0871C37.4678 78.8911 37.5052 78.6814 37.4998 78.4705V72.658L46.2654 77.5174C46.9467 77.8839 47.6786 78.1472 48.4373 78.2986V84.9392C46.9644 85.3195 45.6807 86.224 44.827 87.483C43.9732 88.742 43.6079 90.2692 43.7996 91.7783C43.9913 93.2874 44.7267 94.6748 45.8682 95.6804C47.0096 96.686 48.4786 97.2408 49.9998 97.2408C51.521 97.2408 52.99 96.686 54.1314 95.6804C55.2728 94.6748 56.0083 93.2874 56.2 91.7783C56.3916 90.2692 56.0264 88.742 55.1726 87.483C54.3188 86.224 53.0352 85.3195 51.5623 84.9392V78.2986C52.3234 78.1479 53.0562 77.879 53.7342 77.5017L62.4998 72.658V78.4705C62.4986 78.6761 62.538 78.88 62.6158 79.0703C62.6935 79.2607 62.8081 79.4339 62.9529 79.5799L66.5154 83.158C65.7326 84.4847 65.4606 86.0513 65.7504 87.5642C66.0402 89.0771 66.8719 90.4324 68.0895 91.3759C69.3072 92.3194 70.8271 92.7864 72.3645 92.6893C73.9018 92.5922 75.351 91.9376 76.4402 90.8484C77.5294 89.7592 78.184 88.31 78.2811 86.7727C78.3782 85.2353 77.9112 83.7154 76.9677 82.4977C76.0242 81.2801 74.6689 80.4484 73.156 80.1586C71.6431 79.8688 70.0765 80.1408 68.7498 80.9236L65.6248 77.7986V70.9236L71.0154 67.9392C72.2176 67.2635 73.2195 66.2816 73.9193 65.0933C74.6191 63.905 74.9919 62.5526 74.9998 61.1736V59.7205H81.4685C81.761 60.8532 82.3655 61.881 83.2132 62.6871C84.0609 63.4932 85.1179 64.0453 86.2638 64.2804C87.4098 64.5155 88.5987 64.4243 89.6954 64.0172C90.7921 63.61 91.7525 62.9032 92.4673 61.9772C93.1822 61.0513 93.6228 59.9432 93.7391 58.7792C93.8554 57.6152 93.6426 56.4419 93.1251 55.3928C92.6075 54.3437 91.8059 53.4609 90.8115 52.8448C89.817 52.2288 88.6696 51.9042 87.4998 51.908ZM87.4998 39.408C88.1179 39.408 88.722 39.5913 89.2359 39.9346C89.7498 40.278 90.1504 40.7661 90.3869 41.3371C90.6234 41.9081 90.6853 42.5364 90.5647 43.1426C90.4442 43.7488 90.1465 44.3057 89.7095 44.7427C89.2725 45.1797 88.7156 45.4774 88.1094 45.5979C87.5033 45.7185 86.8749 45.6566 86.3039 45.4201C85.7329 45.1836 85.2448 44.783 84.9014 44.2691C84.5581 43.7552 84.3748 43.151 84.3748 42.533C84.3748 41.7042 84.704 40.9093 85.2901 40.3233C85.8761 39.7372 86.671 39.408 87.4998 39.408ZM71.8748 11.283C72.388 11.2834 72.8933 11.4102 73.3459 11.6523C73.7985 11.8943 74.1845 12.2441 74.4699 12.6707C74.7552 13.0974 74.9311 13.5877 74.9819 14.0984C75.0328 14.6092 74.957 15.1246 74.7614 15.5991C74.5657 16.0736 74.2562 16.4926 73.8602 16.8191C73.4642 17.1457 72.9939 17.3696 72.4907 17.4712C71.9876 17.5727 71.4673 17.5488 70.9756 17.4016C70.4839 17.2543 70.0361 16.9882 69.6716 16.6267C69.2319 16.1906 68.9317 15.6336 68.8091 15.0265C68.6865 14.4193 68.7471 13.7895 68.9832 13.2169C69.2193 12.6442 69.6202 12.1547 70.135 11.8104C70.6499 11.4661 71.2554 11.2825 71.8748 11.283ZM24.9998 14.408C25.0002 13.8947 25.127 13.3895 25.369 12.9368C25.6111 12.4842 25.9609 12.0982 26.3875 11.8129C26.8142 11.5275 27.3045 11.3517 27.8152 11.3008C28.326 11.25 28.8414 11.3258 29.3159 11.5214C29.7904 11.717 30.2094 12.0265 30.5359 12.4225C30.8624 12.8186 31.0864 13.2889 31.188 13.792C31.2895 14.2951 31.2656 14.8155 31.1184 15.3072C30.9711 15.7989 30.705 16.2467 30.3435 16.6111C29.9074 17.0509 29.3504 17.3511 28.7432 17.4737C28.1361 17.5962 27.5063 17.5356 26.9337 17.2996C26.361 17.0635 25.8715 16.6626 25.5272 16.1477C25.1829 15.6329 24.9993 15.0274 24.9998 14.408ZM46.8748 9.72048C46.8748 9.10242 47.0581 8.49823 47.4014 7.98432C47.7448 7.47042 48.2329 7.06988 48.8039 6.83336C49.3749 6.59683 50.0032 6.53495 50.6094 6.65553C51.2156 6.77611 51.7724 7.07373 52.2095 7.51077C52.6465 7.94781 52.9442 8.50463 53.0647 9.11082C53.1853 9.71702 53.1234 10.3453 52.8869 10.9164C52.6504 11.4874 52.2498 11.9754 51.7359 12.3188C51.222 12.6622 50.6178 12.8455 49.9998 12.8455C49.171 12.8455 48.3761 12.5162 47.7901 11.9302C47.204 11.3441 46.8748 10.5493 46.8748 9.72048ZM12.4998 45.658C11.8817 45.658 11.2775 45.4747 10.7636 45.1313C10.2497 44.7879 9.84918 44.2999 9.61265 43.7289C9.37613 43.1578 9.31425 42.5295 9.43482 41.9233C9.5554 41.3171 9.85303 40.7603 10.2901 40.3233C10.7271 39.8862 11.2839 39.5886 11.8901 39.468C12.4963 39.3475 13.1246 39.4093 13.6957 39.6459C14.2667 39.8824 14.7547 40.2829 15.0981 40.7968C15.4415 41.3107 15.6248 41.9149 15.6248 42.533C15.6248 43.3618 15.2955 44.1566 14.7095 44.7427C14.1234 45.3287 13.3286 45.658 12.4998 45.658ZM12.4998 61.283C11.8817 61.283 11.2775 61.0997 10.7636 60.7563C10.2497 60.413 9.84918 59.9249 9.61265 59.3539C9.37613 58.7828 9.31425 58.1545 9.43482 57.5483C9.5554 56.9421 9.85303 56.3853 10.2901 55.9483C10.7271 55.5112 11.2839 55.2136 11.8901 55.093C12.4963 54.9725 13.1246 55.0343 13.6957 55.2709C14.2667 55.5074 14.7547 55.9079 15.0981 56.4218C15.4415 56.9357 15.6248 57.5399 15.6248 58.158C15.6248 58.9868 15.2955 59.7816 14.7095 60.3677C14.1234 60.9537 13.3286 61.283 12.4998 61.283ZM28.1248 89.408C27.6115 89.4076 27.1063 89.2807 26.6536 89.0387C26.201 88.7967 25.815 88.4469 25.5297 88.0202C25.2443 87.5936 25.0685 87.1032 25.0176 86.5925C24.9668 86.0818 25.0425 85.5664 25.2382 85.0919C25.4338 84.6174 25.7433 84.1983 26.1393 83.8718C26.5354 83.5453 27.0057 83.3214 27.5088 83.2198C28.0119 83.1182 28.5323 83.1421 29.024 83.2894C29.5157 83.4367 29.9635 83.7028 30.3279 84.0642C30.7677 84.5004 31.0679 85.0574 31.1905 85.6645C31.313 86.2716 31.2524 86.9015 31.0164 87.4741C30.7803 88.0467 30.3794 88.5363 29.8645 88.8806C29.3497 89.2249 28.7441 89.4085 28.1248 89.408ZM53.1248 90.9705C53.1248 91.5886 52.9415 92.1927 52.5981 92.7066C52.2547 93.2205 51.7667 93.6211 51.1957 93.8576C50.6246 94.0941 49.9963 94.156 49.3901 94.0354C48.7839 93.9149 48.2271 93.6172 47.7901 93.1802C47.353 92.7432 47.0554 92.1863 46.9348 91.5801C46.8142 90.974 46.8761 90.3456 47.1127 89.7746C47.3492 89.2036 47.7497 88.7155 48.2636 88.3721C48.7775 88.0288 49.3817 87.8455 49.9998 87.8455C50.8286 87.8455 51.6234 88.1747 52.2095 88.7608C52.7955 89.3468 53.1248 90.1417 53.1248 90.9705ZM74.9998 86.283C74.9994 86.7962 74.8725 87.3015 74.6305 87.7541C74.3885 88.2067 74.0387 88.5928 73.612 88.8781C73.1854 89.1634 72.695 89.3393 72.1843 89.3901C71.6736 89.441 71.1582 89.3652 70.6837 89.1696C70.2092 88.9739 69.7901 88.6644 69.4636 88.2684C69.1371 87.8724 68.9132 87.4021 68.8116 86.8989C68.71 86.3958 68.7339 85.8755 68.8812 85.3838C69.0285 84.8921 69.2946 84.4443 69.656 84.0799C70.0922 83.6401 70.6492 83.3399 71.2563 83.2173C71.8634 83.0947 72.4933 83.1553 73.0659 83.3914C73.6385 83.6275 74.1281 84.0284 74.4724 84.5432C74.8167 85.0581 75.0003 85.6636 74.9998 86.283ZM87.4998 61.283C86.8817 61.283 86.2775 61.0997 85.7636 60.7563C85.2497 60.413 84.8492 59.9249 84.6127 59.3539C84.3761 58.7828 84.3142 58.1545 84.4348 57.5483C84.5554 56.9421 84.853 56.3853 85.2901 55.9483C85.7271 55.5112 86.2839 55.2136 86.8901 55.093C87.4963 54.9725 88.1246 55.0343 88.6957 55.2709C89.2667 55.5074 89.7547 55.9079 90.0981 56.4218C90.4415 56.9357 90.6248 57.5399 90.6248 58.158C90.6248 58.9868 90.2955 59.7816 89.7095 60.3677C89.1234 60.9537 88.3286 61.283 87.4998 61.283Z" fill="black"/>
</g>
<defs>
<clipPath id="clip0_4444_11009">
<rect width="100" height="100" fill="white" transform="translate(0 0.345703)"/>
</clipPath>
</defs>
</svg>
