<svg width="100" height="101" viewBox="0 0 100 101" fill="none" xmlns="http://www.w3.org/2000/svg">
<g clip-path="url(#clip0_4444_26774)">
<g clip-path="url(#clip1_4444_26774)">
<path d="M49.4355 81.679C49.097 81.679 48.7811 81.5878 48.4875 81.4281L45.4858 79.6253C45.0343 79.3742 45.26 79.283 45.3956 79.2374C46.0049 79.032 46.1177 78.9862 46.7497 78.6213C46.8175 78.5755 46.9079 78.5984 46.9754 78.644L49.2777 80.0361C49.3679 80.0817 49.4808 80.0817 49.5483 80.0361L58.554 74.7645C58.6442 74.7189 58.6895 74.6274 58.6895 74.5135V63.9933C58.6895 63.8789 58.6442 63.7879 58.554 63.7421L49.5483 58.4934C49.4581 58.4476 49.3452 58.4476 49.2777 58.4934L40.272 63.7421C40.1818 63.7877 40.1365 63.9018 40.1365 63.9931V74.5133C40.1365 74.6047 40.1818 74.7187 40.272 74.7645L42.7323 76.2021C44.0639 76.8867 44.899 76.088 44.899 75.2893V64.9059C44.899 64.769 45.0118 64.632 45.1698 64.632H46.3208C46.4564 64.632 46.5917 64.7461 46.5917 64.9059V75.2893C46.5917 77.092 45.6211 78.1419 43.9284 78.1419C43.4093 78.1419 43.0031 78.1419 41.8519 77.5713L39.4821 76.2021C38.8953 75.8599 38.5342 75.2208 38.5342 74.5362V64.016C38.5342 63.3314 38.8953 62.6922 39.4821 62.3501L48.4875 57.0785C49.0519 56.759 49.8194 56.759 50.3836 57.0785L59.389 62.3501C59.9759 62.6922 60.3371 63.3314 60.3371 64.016V74.5362C60.3371 75.2208 59.9759 75.8599 59.389 76.2021L50.3836 81.4737C50.0901 81.6107 49.7514 81.679 49.4355 81.679ZM52.2117 74.445C48.262 74.445 47.4494 72.6193 47.4494 71.0676C47.4494 70.9305 47.5623 70.7937 47.7203 70.7937H48.8939C49.0293 70.7937 49.1421 70.8849 49.1421 71.022C49.3228 72.2314 49.8419 72.8247 52.2343 72.8247C54.1302 72.8247 54.9429 72.3911 54.9429 71.3641C54.9429 70.7708 54.717 70.3374 51.7604 70.0406C49.3001 69.7895 47.7654 69.2419 47.7654 67.2565C47.7654 65.408 49.3003 64.3125 51.8732 64.3125C54.7621 64.3125 56.1842 65.3168 56.3648 67.5073C56.3648 67.576 56.3422 67.6443 56.2971 67.7129C56.2518 67.7585 56.1842 67.8041 56.1164 67.8041H54.9427C54.8299 67.8041 54.717 67.7129 54.6945 67.5987C54.4237 66.3437 53.724 65.9328 51.8732 65.9328C49.7967 65.9328 49.5483 66.6632 49.5483 67.2107C49.5483 67.8726 49.8419 68.0779 52.6405 68.443C55.4167 68.8083 56.7259 69.3331 56.7259 71.2956C56.7033 73.3039 55.0783 74.445 52.2117 74.445Z" fill="#539E43"/>
<path d="M21.4936 40.5331C21.4936 40.1224 21.2679 39.7342 20.9068 39.5288L11.337 33.9607C11.1788 33.8693 10.9984 33.8237 10.8179 33.8008H10.7275C10.547 33.8008 10.3664 33.8693 10.2084 33.9607L0.638594 39.5288C0.277314 39.7342 0.0517578 40.1222 0.0517578 40.5331L0.0744111 55.5033C0.0744111 55.7087 0.187287 55.914 0.367732 56.0054C0.548372 56.1196 0.773928 56.1196 0.93211 56.0054L6.61983 52.7192C6.98092 52.5139 7.20667 52.1259 7.20667 51.7152V44.7092C7.20667 44.2985 7.43223 43.9105 7.79351 43.7052L10.2084 42.2902C10.3891 42.1761 10.5922 42.1303 10.7953 42.1303C10.9984 42.1303 11.2015 42.1761 11.3596 42.2902L13.7745 43.7052C14.1358 43.9105 14.3614 44.2983 14.3614 44.7092V51.7152C14.3614 52.1259 14.5871 52.5139 14.9482 52.7192L20.6359 56.0054C20.8166 56.1196 21.0421 56.1196 21.2228 56.0054C21.4034 55.914 21.5163 55.7087 21.5163 55.5033L21.4936 40.5331ZM67.492 19.926C67.3116 19.8346 67.0858 19.8346 66.9277 19.926C66.7472 20.0401 66.6343 20.2226 66.6343 20.4279V35.2615C66.6343 35.3983 66.5668 35.5352 66.4312 35.6266C66.2959 35.6949 66.1604 35.6949 66.025 35.6266L63.6326 34.2346C63.4572 34.1336 63.2588 34.0805 63.057 34.0805C62.8551 34.0805 62.6568 34.1336 62.4814 34.2346L52.9115 39.8256C52.5505 40.031 52.3247 40.419 52.3247 40.8297V51.9889C52.3247 52.3996 52.5505 52.7878 52.9115 52.9931L62.4814 58.5842C62.6568 58.6851 62.8551 58.7382 63.057 58.7382C63.2588 58.7382 63.4572 58.6851 63.6326 58.5842L73.2024 52.9931C73.5635 52.7878 73.7893 52.3998 73.7893 51.9889V24.1706C73.7893 23.737 73.5635 23.3492 73.2024 23.1437L67.492 19.926ZM66.6119 48.3149C66.6119 48.429 66.5668 48.5202 66.4764 48.5658L63.2037 50.4827C63.158 50.5053 63.1078 50.517 63.057 50.517C63.0061 50.517 62.9559 50.5053 62.9102 50.4827L59.6376 48.5658C59.5472 48.5202 59.5021 48.4061 59.5021 48.3149V44.4809C59.5021 44.3668 59.5472 44.2756 59.6376 44.23L62.9102 42.3129C62.9559 42.2904 63.0061 42.2787 63.057 42.2787C63.1078 42.2787 63.158 42.2904 63.2037 42.3129L66.4764 44.23C66.5668 44.2754 66.6119 44.3897 66.6119 44.4809V48.3149ZM99.3388 44.3897C99.7001 44.1844 99.9032 43.7964 99.9032 43.3855V40.6699C99.9032 40.2592 99.6774 39.8712 99.3388 39.6659L89.8367 34.0977C89.6614 33.9968 89.463 33.9437 89.2612 33.9437C89.0594 33.9437 88.8611 33.9968 88.6857 34.0977L79.1159 39.6886C78.7546 39.8939 78.5291 40.2819 78.5291 40.6928V51.852C78.5291 52.2627 78.7546 52.6507 79.1159 52.8561L88.618 58.333C88.9792 58.5384 89.4079 58.5384 89.7465 58.333L95.5018 55.0928C95.6824 55.0014 95.7953 54.796 95.7953 54.5907C95.7953 54.3853 95.6824 54.18 95.5018 54.0886L85.8869 48.4975C85.7064 48.3836 85.5935 48.2009 85.5935 47.9956V44.504C85.5935 44.2987 85.7064 44.0933 85.8869 44.0019L88.8888 42.2675C88.9767 42.2116 89.0784 42.1819 89.1822 42.1819C89.2861 42.1819 89.3878 42.2116 89.4756 42.2675L92.4774 44.0019C92.658 44.1161 92.7709 44.2985 92.7709 44.504V47.2425C92.7709 47.4479 92.8838 47.6532 93.0642 47.7444C93.2449 47.8586 93.4704 47.8586 93.6511 47.7444L99.3388 44.3897Z" fill="#333333"/>
<path d="M89.115 43.8652C89.1485 43.8429 89.1877 43.8311 89.2278 43.8311C89.2678 43.8311 89.3071 43.8429 89.3405 43.8652L91.1688 44.9378C91.2366 44.9832 91.2817 45.0517 91.2817 45.1431V47.2883C91.2817 47.3795 91.2366 47.448 91.1688 47.4936L89.3405 48.5662C89.3071 48.5885 89.2678 48.6003 89.2278 48.6003C89.1877 48.6003 89.1485 48.5885 89.115 48.5662L87.2867 47.4936C87.2189 47.448 87.1738 47.3795 87.1738 47.2883V45.1431C87.1738 45.0517 87.2189 44.9832 87.2867 44.9378L89.115 43.8652Z" fill="#539E43"/>
<path d="M37.4958 34.1433C37.3204 34.0423 37.1221 33.9893 36.9203 33.9893C36.7185 33.9893 36.5201 34.0423 36.3448 34.1433L26.8427 39.6883C26.4814 39.8937 26.2783 40.2817 26.2783 40.6924V51.8062C26.2783 52.2169 26.5041 52.6049 26.8427 52.8102L36.3448 58.3557C36.5201 58.4566 36.7185 58.5097 36.9203 58.5097C37.1221 58.5097 37.3204 58.4566 37.4958 58.3557L46.998 52.8102C47.3591 52.6049 47.5624 52.2169 47.5624 51.8062V40.6926C47.5624 40.2819 47.3365 39.8939 46.998 39.6885L37.4958 34.1433Z" fill="url(#paint0_linear_4444_26774)"/>
</g>
</g>
<defs>
<linearGradient id="paint0_linear_4444_26774" x1="1477.6" y1="462.778" x2="419.654" y2="2106.89" gradientUnits="userSpaceOnUse">
<stop stop-color="#41873F"/>
<stop offset="0.3288" stop-color="#418B3D"/>
<stop offset="0.6352" stop-color="#419637"/>
<stop offset="0.9319" stop-color="#3FA92D"/>
<stop offset="1" stop-color="#3FAE2A"/>
</linearGradient>
<clipPath id="clip0_4444_26774">
<rect width="100" height="100" fill="white" transform="translate(0 0.857422)"/>
</clipPath>
<clipPath id="clip1_4444_26774">
<rect width="100" height="62" fill="white" transform="translate(0 19.8574)"/>
</clipPath>
</defs>
</svg>
