<svg width="100" height="101" viewBox="0 0 100 101" fill="none" xmlns="http://www.w3.org/2000/svg">
<rect width="100" height="100" transform="translate(0 0.857422)" fill="white"/>
<g clip-path="url(#clip0_4444_17731)">
<path d="M50 76.5542C77.6142 76.5542 100 64.9815 100 50.7058C100 36.4301 77.6142 24.8574 50 24.8574C22.3858 24.8574 0 36.4301 0 50.7058C0 64.9815 22.3858 76.5542 50 76.5542Z" fill="#8993BE"/>
<path fill-rule="evenodd" clip-rule="evenodd" d="M14.041 66.0104L19.5207 38.4613H32.1914C37.6707 38.8015 40.4105 41.5221 40.4105 46.2841C40.4105 54.4467 33.9039 59.2083 28.0816 58.8681H21.918L20.548 66.0104H14.041ZM23.2875 53.7667L25 43.5631H29.452C31.8492 43.5631 33.5613 44.5834 33.5613 46.6239C33.2191 52.4062 30.4793 53.4264 27.3973 53.7667H23.2875ZM39.1375 58.8681L44.6168 31.3193H51.1238L49.7539 38.4613H55.918C61.3977 38.8015 63.4523 41.5221 62.7676 44.9236L60.3703 58.8681H53.5211L55.9184 46.2841C56.2605 44.5834 56.2605 43.5631 53.8637 43.5631H48.7266L45.6445 58.8681H39.1375ZM59.9316 66.0104L65.4109 38.4613H78.082C83.5617 38.8015 86.3016 41.5221 86.3016 46.2841C86.3016 54.4467 79.7945 59.2083 73.9726 58.8681H67.8082L66.4383 66.0104H59.9316ZM69.1777 53.7667L70.8902 43.5631H75.3426C77.7398 43.5631 79.452 44.5834 79.452 46.6239C79.1098 52.4062 76.3699 53.4264 73.2879 53.7667H69.1781H69.1777Z" fill="#232531"/>
</g>
<defs>
<clipPath id="clip0_4444_17731">
<rect width="100" height="52" fill="white" transform="translate(0 24.8574)"/>
</clipPath>
</defs>
</svg>
