<svg width="100" height="101" viewBox="0 0 100 101" fill="none" xmlns="http://www.w3.org/2000/svg">
<g clip-path="url(#clip0_4444_26923)">
<rect width="100" height="100" transform="translate(0 0.857422)" fill="white"/>
<g clip-path="url(#clip1_4444_26923)">
<path d="M49.5719 -0.114258C24.2493 -0.114258 25.8304 10.9112 25.8304 10.9112L25.8585 22.334H50.0234V25.7634H16.2606C16.2606 25.7634 0.0566406 23.9183 0.0566406 49.5712C0.0566406 75.225 14.1998 74.3152 14.1998 74.3152H22.6405V62.4108C22.6405 62.4108 22.1854 48.2108 36.5579 48.2108H60.5252C60.5252 48.2108 73.9907 48.4293 73.9907 35.1446V13.1791C73.9907 13.1791 76.0358 -0.114258 49.5719 -0.114258ZM36.2474 7.56731C36.8184 7.56679 37.3839 7.67934 37.9116 7.8985C38.4393 8.11767 38.9187 8.43915 39.3225 8.84455C39.7263 9.24996 40.0465 9.73132 40.2648 10.2611C40.483 10.7909 40.5951 11.3587 40.5946 11.932C40.5951 12.5053 40.483 13.0731 40.2648 13.6029C40.0465 14.1327 39.7263 14.6141 39.3225 15.0195C38.9187 15.4249 38.4393 15.7464 37.9116 15.9655C37.3839 16.1847 36.8184 16.2972 36.2474 16.2967C35.6763 16.2972 35.1108 16.1847 34.5831 15.9655C34.0555 15.7464 33.576 15.4249 33.1723 15.0195C32.7685 14.6141 32.4483 14.1327 32.23 13.6029C32.0117 13.0731 31.8996 12.5053 31.9001 11.932C31.8996 11.3587 32.0117 10.7909 32.23 10.2611C32.4483 9.73132 32.7685 9.24996 33.1723 8.84455C33.576 8.43915 34.0555 8.11767 34.5831 7.8985C35.1108 7.67934 35.6763 7.56679 36.2474 7.56731Z" fill="url(#paint0_linear_4444_26923)"/>
<path d="M50.2908 99.5145C75.6134 99.5145 74.0323 88.489 74.0323 88.489L74.0042 77.0666H49.8389V73.6372H83.6017C83.6017 73.6372 99.8056 75.4823 99.8056 49.8286C99.8056 24.1752 85.6624 25.085 85.6624 25.085H77.2218V36.989C77.2218 36.989 77.6769 51.189 63.3044 51.189H39.3371C39.3371 51.189 25.8716 50.9705 25.8716 64.2556V86.2215C25.8716 86.2215 23.8269 99.5145 50.2904 99.5145H50.2908ZM63.6153 91.8337C63.0443 91.8342 62.4787 91.7216 61.9511 91.5025C61.4234 91.2833 60.944 90.9618 60.5402 90.5564C60.1364 90.151 59.8162 89.6697 59.5979 89.1399C59.3796 88.6101 59.2675 88.0423 59.2681 87.469C59.2675 86.8956 59.3795 86.3278 59.5978 85.7979C59.8161 85.2681 60.1363 84.7867 60.5401 84.3812C60.9438 83.9758 61.4233 83.6543 61.951 83.4351C62.4787 83.2159 63.0442 83.1034 63.6153 83.1039C64.1863 83.1034 64.7519 83.2159 65.2795 83.4351C65.8072 83.6542 66.2866 83.9757 66.6904 84.3811C67.0942 84.7865 67.4144 85.2679 67.6327 85.7977C67.851 86.3274 67.9631 86.8952 67.9626 87.4686C67.9631 88.0419 67.851 88.6097 67.6327 89.1395C67.4144 89.6693 67.0942 90.1506 66.6904 90.556C66.2866 90.9614 65.8072 91.2829 65.2795 91.5021C64.7519 91.7213 64.1863 91.8342 63.6153 91.8337Z" fill="url(#paint1_linear_4444_26923)"/>
</g>
</g>
<defs>
<linearGradient id="paint0_linear_4444_26923" x1="958.643" y1="895.989" x2="5921.52" y2="5789.71" gradientUnits="userSpaceOnUse">
<stop stop-color="#387EB8"/>
<stop offset="1" stop-color="#366994"/>
</linearGradient>
<linearGradient id="paint1_linear_4444_26923" x1="1440.75" y1="1556.85" x2="6769.32" y2="6573.97" gradientUnits="userSpaceOnUse">
<stop stop-color="#FFE052"/>
<stop offset="1" stop-color="#FFC331"/>
</linearGradient>
<clipPath id="clip0_4444_26923">
<rect width="100" height="100" fill="white" transform="translate(0 0.857422)"/>
</clipPath>
<clipPath id="clip1_4444_26923">
<rect width="100" height="100" fill="white" transform="translate(0 -0.142578)"/>
</clipPath>
</defs>
</svg>
