<svg width="201" height="121" viewBox="0 0 201 121" fill="none" xmlns="http://www.w3.org/2000/svg">
<rect x="0.00390625" y="0.692383" width="200" height="120" rx="4" fill="white"/>
<g clip-path="url(#clip0_5668_35337)">
<path d="M70.043 43.1924H75.731V78.1924H70.043V43.1924ZM95.639 67.0274C95.639 72.3838 91.0644 72.8108 89.7035 72.8108C86.3035 72.8108 85.685 69.6776 85.685 67.7876V54.3924H79.997V67.7596C79.997 71.0776 81.0549 73.816 82.9092 75.6416C84.5474 77.2558 87.0017 78.1378 89.6609 78.1378C91.5465 78.1378 94.217 77.5596 95.639 76.2814V78.1924H101.327V54.3924H95.639V67.0274ZM112.703 45.9924H107.015V54.3924H102.749V59.9924H107.015V78.1924H112.703V59.9924H116.969V54.3924H112.703V45.9924ZM134.882 71.0762C133.643 72.1724 132.008 72.78 130.213 72.78C126.257 72.78 123.352 69.9198 123.352 65.9928C123.352 62.0658 126.165 59.326 130.213 59.326C131.977 59.326 133.643 59.9042 134.913 61.0004L135.776 61.7312L139.611 57.9568L138.652 57.1042C136.395 55.098 133.399 53.9724 130.212 53.9724C123.102 53.9724 117.939 59.0236 117.939 65.9634C117.939 72.8738 123.226 78.1056 130.212 78.1056C133.459 78.1056 136.486 76.98 138.714 74.9416L139.641 74.089L135.746 70.3174L134.882 71.0762ZM159.913 56.4672C158.275 54.8544 156.356 53.9724 153.696 53.9724C151.811 53.9724 149.675 54.5506 148.253 55.8274V43.1924H142.565V78.1924H148.253V65.0814C148.253 59.725 152.118 59.2994 153.479 59.2994C156.879 59.2994 156.785 62.434 156.785 64.3212V78.1924H162.473V64.3506C162.473 61.0326 161.769 58.2942 159.913 56.4672Z" fill="black"/>
<path d="M130.026 62.0059C131.117 62.0059 132.163 62.4324 132.934 63.1917C133.706 63.951 134.139 64.9809 134.139 66.0547C134.139 67.1285 133.706 68.1583 132.934 68.9176C132.163 69.6769 131.117 70.1035 130.026 70.1035C128.936 70.1035 127.89 69.6769 127.119 68.9176C126.347 68.1583 125.914 67.1285 125.914 66.0547C125.914 64.9809 126.347 63.951 127.119 63.1917C127.89 62.4324 128.936 62.0059 130.026 62.0059Z" fill="#FF3D2E"/>
<path d="M62.0803 69.4018C59.9174 71.5928 56.9796 72.78 53.8882 72.78C47.5517 72.78 42.9444 67.88 42.9444 61.1544C42.9444 54.398 47.5517 49.498 53.8882 49.498C56.9497 49.498 59.8549 50.6838 62.0504 52.8454L62.915 53.698L66.7174 49.9544L65.8827 49.1018C62.7302 45.9056 58.4642 44.1724 53.8882 44.1724C44.5527 44.1724 37.5352 51.4762 37.5352 61.1838C37.5352 70.862 44.584 78.1364 53.8882 78.1364C58.4954 78.1364 62.7614 76.3724 65.914 73.1762L66.7487 72.3236L62.9776 68.5198L62.0803 69.4018Z" fill="black"/>
</g>
<defs>
<clipPath id="clip0_5668_35337">
<rect width="125" height="35" fill="white" transform="translate(37.5039 43.1924)"/>
</clipPath>
</defs>
</svg>
