<svg width="201" height="121" viewBox="0 0 201 121" fill="none" xmlns="http://www.w3.org/2000/svg">
<rect x="0.00390625" y="0.459961" width="200" height="120" rx="4" fill="white"/>
<g clip-path="url(#clip0_5668_35408)">
<path d="M48.1993 59.7269H54.65V68.8893C52.6373 69.5433 50.0959 69.902 47.4542 69.902C36.7477 69.902 30.4552 60.6302 30.4552 51.5751C30.4552 42.6941 36.1469 36.4645 44.0876 36.4645C49.1124 36.4645 52.0361 38.186 54.6518 40.5839V43.5732L59.5564 38.6133C56.4542 36.4908 51.9622 34.4736 45.5415 34.4736C31.4465 34.4736 25.0039 44.6712 25.0039 53.0516C25.0039 64.9803 33.5955 72.1663 44.3922 72.1663C49.6273 72.1663 54.2755 71.3582 59.6447 69.8473V60.3811C59.6447 59.8971 59.855 59.5649 60.1694 59.2733L61.8637 57.5599H50.3583L48.1993 59.7269Z" fill="url(#paint0_linear_5668_35408)"/>
<path d="M77.0967 47.2764C68.9838 47.2764 63.957 53.2714 63.957 59.6349C63.957 65.1274 68.0067 71.6487 76.2115 71.6487C84.1042 71.6487 88.9466 65.6419 88.9466 59.1671C88.9466 53.1358 84.2143 47.2786 77.0967 47.2786V47.2764ZM75.7506 49.0242C81.4706 49.0242 84.0178 56.5603 84.0178 61.9354C84.0178 69.9292 78.0879 70.0872 77.3789 70.0872C74.6653 70.0872 72.7686 68.4287 71.3489 66.2533C70.0992 64.2485 68.8776 60.5238 68.8776 56.8844C68.8776 53.2591 70.051 51.489 71.8977 50.1867C73.4077 49.2105 74.8216 49.0242 75.7487 49.0242H75.7506Z" fill="url(#paint1_linear_5668_35408)"/>
<path d="M130.13 47.2744C123.044 47.2744 119.211 51.8111 119.211 56.8763C119.211 60.7325 121.943 65.0828 127.578 65.0828H129.004C129.004 65.0828 128.616 66.0367 128.614 66.9582C128.614 68.3174 129.096 69.0807 130.122 70.2553C120.425 70.8528 116.527 74.8082 116.527 79.0593C116.527 82.782 120.052 86.4457 127.46 86.4457C136.23 86.4457 140.772 81.522 140.772 76.6899C140.772 73.2833 139.094 71.416 134.844 68.1958C133.594 67.2136 133.352 66.588 133.352 65.8528C133.352 64.7997 133.975 64.1027 134.203 63.8396C134.606 63.4103 135.303 62.9202 135.563 62.6852C136.991 61.462 139.008 59.6515 139.008 56.0382C139.008 53.5593 137.988 51.4267 135.665 49.4297H138.501L140.632 47.2749H130.13V47.2744ZM128.175 48.8865C129.461 48.8865 130.534 49.3463 131.668 50.3002C132.925 51.4465 134.934 54.527 134.934 58.3386C134.934 62.4519 131.774 63.578 130.064 63.578C129.227 63.578 128.224 63.341 127.374 62.7537C125.488 61.5165 123.615 58.2231 123.615 54.3042C123.615 50.768 125.698 48.8865 128.175 48.8865ZM130.981 71.8169C131.522 71.8169 131.91 71.8616 131.91 71.8616C131.91 71.8616 133.186 72.7831 134.077 73.4715C136.152 75.1302 137.446 76.3981 137.446 78.6565C137.446 81.7612 134.598 84.1956 129.986 84.1956C124.923 84.1956 121.054 81.8118 121.054 77.9194C121.054 74.695 123.705 71.92 130.981 71.8169Z" fill="url(#paint2_linear_5668_35408)"/>
<path d="M142.166 70.9367H151.893L153.375 69.4382L150.585 69.0858C149.834 68.9926 149.387 68.3364 149.387 67.7005V37.9875C149.387 37.4022 149.656 37.1024 149.852 36.9118L151.606 35.1377H143.311L141.152 37.321H144.377V68.0992C144.377 68.5367 144.24 68.8344 143.948 69.1402L142.166 70.9367Z" fill="url(#paint3_linear_5668_35408)"/>
<path d="M165.074 47.2764C159.643 47.2764 153.873 51.4626 153.873 58.9785C153.873 65.1858 158.013 71.6487 165.747 71.6487C167.676 71.6487 169.264 71.3978 170.752 70.7071C172.348 69.9639 173.884 68.7568 175.005 67.2398C172.889 68.3193 171.162 69.0282 168.869 69.0282C164.511 69.0282 160.309 65.8485 158.84 60.0035L174.234 53.7109C173.345 50.5049 170.838 47.2764 165.076 47.2764H165.074ZM164.069 48.9958C166.983 48.9958 169.089 51.4201 169.089 53.3178C169.089 53.9315 168.709 54.2555 167.956 54.5553L158.493 58.4256C158.493 58.4256 158.237 57.2206 158.237 55.9183C158.237 50.4561 162.142 48.9958 164.069 48.9958Z" fill="url(#paint4_linear_5668_35408)"/>
<path d="M104.624 47.2764C96.5111 47.2764 91.4844 53.2714 91.4844 59.6349C91.4844 65.1274 95.534 71.6487 103.739 71.6487C111.631 71.6487 116.474 65.6419 116.474 59.1671C116.474 53.1358 111.742 47.2786 104.624 47.2786V47.2764ZM103.278 49.0242C108.998 49.0242 111.545 56.5603 111.545 61.9354C111.545 69.9292 105.615 70.0872 104.906 70.0872C102.193 70.0872 100.296 68.4287 98.8764 66.2533C97.6267 64.2485 96.405 60.5238 96.405 56.8844C96.405 53.2591 97.5784 51.489 99.425 50.1867C100.935 49.2105 102.349 49.0242 103.276 49.0242H103.278Z" fill="url(#paint5_linear_5668_35408)"/>
</g>
<defs>
<linearGradient id="paint0_linear_5668_35408" x1="43.3422" y1="34.3669" x2="43.3422" y2="72.1643" gradientUnits="userSpaceOnUse">
<stop stop-color="#196EEF"/>
<stop offset="0.5" stop-color="#186DEE"/>
<stop offset="1" stop-color="#1065E7"/>
</linearGradient>
<linearGradient id="paint1_linear_5668_35408" x1="76.361" y1="47.2186" x2="76.361" y2="71.659" gradientUnits="userSpaceOnUse">
<stop stop-color="#DE5744"/>
<stop offset="0.5" stop-color="#DB4632"/>
<stop offset="1" stop-color="#D13D29"/>
</linearGradient>
<linearGradient id="paint2_linear_5668_35408" x1="128.561" y1="47.2187" x2="128.561" y2="86.4606" gradientUnits="userSpaceOnUse">
<stop stop-color="#1A6FEF"/>
<stop offset="0.25" stop-color="#1E72EF"/>
<stop offset="0.5" stop-color="#166BEC"/>
<stop offset="0.75" stop-color="#1267E9"/>
<stop offset="1" stop-color="#1063E5" stop-opacity="0.87"/>
</linearGradient>
<linearGradient id="paint3_linear_5668_35408" x1="147.175" y1="35.0534" x2="147.175" y2="70.9711" gradientUnits="userSpaceOnUse">
<stop stop-color="#0AA561"/>
<stop offset="0.5" stop-color="#009B58"/>
<stop offset="1" stop-color="#00914B"/>
</linearGradient>
<linearGradient id="paint4_linear_5668_35408" x1="164.351" y1="47.2186" x2="164.351" y2="71.5917" gradientUnits="userSpaceOnUse">
<stop stop-color="#DE5644"/>
<stop offset="0.5" stop-color="#DA4531"/>
<stop offset="1" stop-color="#CE3A28"/>
</linearGradient>
<linearGradient id="paint5_linear_5668_35408" x1="103.889" y1="47.2717" x2="103.889" y2="71.6106" gradientUnits="userSpaceOnUse">
<stop stop-color="#FFC01A"/>
<stop offset="0.5" stop-color="#FFBA03"/>
<stop offset="1" stop-color="#FFB300"/>
</linearGradient>
<clipPath id="clip0_5668_35408">
<rect width="150" height="52" fill="white" transform="translate(25.0039 34.46)"/>
</clipPath>
</defs>
</svg>
