<svg width="100" height="101" viewBox="0 0 100 101" fill="none" xmlns="http://www.w3.org/2000/svg">
<g clip-path="url(#clip0_4444_1919)">
<rect width="100" height="100" transform="translate(0 0.857422)" fill="white"/>
<g clip-path="url(#clip1_4444_1919)">
<path d="M60.4383 99.857C63.7818 99.857 66.6976 96.9412 66.6976 93.5976V78.9793H70.8771C73.3851 78.9793 75.0566 77.3073 75.0566 74.7999V33.0481H24.9427V74.8002C24.9427 77.3079 26.6146 78.9797 29.1222 78.9797H33.302V93.598C33.302 96.9416 36.2171 99.8574 39.5614 99.8574C42.9045 99.8574 45.8202 96.9416 45.8202 93.598V78.9797H54.1793V93.598C54.1789 96.9412 57.0947 99.857 60.4383 99.857ZM85.4956 74.8002C88.8391 74.8002 91.7544 71.8848 91.7544 68.5409V39.3047C91.7544 35.9787 88.8393 33.0481 85.4956 33.0481C82.1517 33.0481 79.2362 35.9789 79.2362 39.3047V68.5409C79.2362 71.8844 82.1515 74.8002 85.4956 74.8002ZM14.5039 74.8002C17.8478 74.8002 20.7632 71.8848 20.7632 68.5409V39.3047C20.7632 35.9787 17.8482 33.0481 14.5039 33.0481C11.1603 33.0481 8.24512 35.9789 8.24512 39.3047V68.5409C8.24531 71.8844 11.1603 74.8002 14.5039 74.8002ZM70.0408 0.488035C69.2052 -0.352782 67.9613 -0.352782 67.1257 0.488035L61.5201 6.07493L61.2615 6.33313C57.9377 4.66868 54.2109 3.83744 50.061 3.82943C50.0407 3.82943 50.0205 3.82884 50.0002 3.82884H49.9996C49.9785 3.82884 49.9592 3.82943 49.9383 3.82943C45.7885 3.83744 42.062 4.66868 38.7384 6.33313L38.4792 6.07493L32.8735 0.488035C32.0374 -0.352782 30.7941 -0.352782 29.9585 0.488035C29.1224 1.32416 29.1224 2.56518 29.9585 3.40072L35.3809 8.82413C33.6337 9.99073 32.0493 11.4183 30.6716 13.0511C27.3732 16.9608 25.2691 22.0493 24.9798 27.5625C24.9771 27.62 24.9714 27.6766 24.9689 27.734C24.9513 28.111 24.9426 28.4883 24.9429 28.8657H75.0566C75.0566 28.4869 75.0476 28.1096 75.0306 27.734C75.0279 27.6766 75.0222 27.62 75.0189 27.5625C74.7302 22.0493 72.6257 16.9606 69.3271 13.0515C67.95 11.4187 66.365 9.99112 64.6177 8.82452L70.0408 3.40111C70.8771 2.56517 70.8771 1.32436 70.0408 0.488035ZM39.5534 21.5682C37.8243 21.5682 36.4223 20.1665 36.4223 18.4372C36.4223 16.7079 37.8241 15.3061 39.5534 15.3061C41.2825 15.3061 42.6844 16.7079 42.6844 18.4372C42.6844 20.1665 41.2825 21.5682 39.5534 21.5682ZM60.4459 21.5682C58.7168 21.5682 57.3148 20.1665 57.3148 18.4372C57.3148 16.7079 58.7166 15.3061 60.4459 15.3061C62.175 15.3061 63.5769 16.7079 63.5769 18.4372C63.5769 20.1665 62.1752 21.5682 60.4459 21.5682Z" fill="#A6D864"/>
</g>
</g>
<defs>
<clipPath id="clip0_4444_1919">
<rect width="100" height="100" fill="white" transform="translate(0 0.857422)"/>
</clipPath>
<clipPath id="clip1_4444_1919">
<rect width="100" height="100" fill="white" transform="translate(0 -0.142578)"/>
</clipPath>
</defs>
</svg>
