<svg width="90" height="101" viewBox="0 0 90 101" fill="none" xmlns="http://www.w3.org/2000/svg">
<g clip-path="url(#clip0_4444_213)">
<path d="M73.4008 53.5276C73.3559 45.3612 77.0829 39.1974 84.6266 34.658C80.4057 28.6723 74.0295 25.379 65.6102 24.7337C57.6399 24.1106 48.9287 29.3398 45.7406 29.3398C42.3729 29.3398 34.6496 24.9562 28.5877 24.9562C16.0598 25.1565 2.74609 34.8583 2.74609 54.5957C2.74609 60.4257 3.82376 66.4486 5.9791 72.6643C8.85289 80.8307 19.2255 100.857 30.0471 100.524C35.7048 100.39 39.7012 96.5406 47.0653 96.5406C54.2048 96.5406 57.9093 100.524 64.2182 100.524C75.1296 100.368 84.5143 82.1658 87.2534 73.9771C72.615 67.1458 73.4008 53.9504 73.4008 53.5276ZM60.6933 16.99C66.8226 9.78043 66.2613 3.21612 66.0817 0.857422C60.6709 1.16895 54.4069 4.50673 50.8371 8.62333C46.9081 13.0292 44.5956 18.4809 45.0896 24.6224C50.9494 25.0675 56.2928 22.0857 60.6933 16.99Z" fill="black"/>
</g>
<defs>
<clipPath id="clip0_4444_213">
<rect width="90" height="100" fill="white" transform="translate(0 0.857422)"/>
</clipPath>
</defs>
</svg>
