<svg width="100" height="100" viewBox="0 0 100 100" fill="none" xmlns="http://www.w3.org/2000/svg">
<g clip-path="url(#clip0_1345_5504)">
<mask id="mask0_1345_5504" style="mask-type:luminance" maskUnits="userSpaceOnUse" x="0" y="39" width="100" height="23">
<path d="M100 39H0V62H100V39Z" fill="white"/>
</mask>
<g mask="url(#mask0_1345_5504)">
<path d="M48.7362 45.124C46.7166 45.124 44.7261 45.994 43.2065 47.7044V39.2695H40.1992V53.4702C40.1992 53.4706 40.1992 53.4709 40.1992 53.4713C40.1992 58.0813 43.9236 61.8185 48.5179 61.8185C53.1122 61.8185 56.8366 58.0813 56.8366 53.4713C56.8366 48.8613 53.3305 45.124 48.7362 45.124ZM48.5179 58.6035C45.6932 58.6035 43.4032 56.3057 43.4032 53.4712C43.4032 50.6368 45.6932 48.339 48.5179 48.339C51.3427 48.339 53.6326 50.6368 53.6326 53.4712C53.6326 56.3057 51.3427 58.6035 48.5179 58.6035Z" fill="#262626"/>
</g>
<mask id="mask1_1345_5504" style="mask-type:luminance" maskUnits="userSpaceOnUse" x="0" y="39" width="100" height="23">
<path d="M100 39H0V62H100V39Z" fill="white"/>
</mask>
<g mask="url(#mask1_1345_5504)">
<path d="M67.369 45.124C65.3494 45.124 63.3589 45.994 61.8393 47.7044V39.2695H58.8321V53.4702C58.8321 53.4706 58.832 53.4709 58.832 53.4713C58.832 58.0813 62.5564 61.8185 67.1507 61.8185C71.745 61.8185 75.4694 58.0813 75.4694 53.4713C75.4694 48.8613 71.9632 45.124 67.369 45.124ZM67.1507 58.6035C64.326 58.6035 62.036 56.3057 62.036 53.4712C62.036 50.6368 64.326 48.339 67.1507 48.339C69.9755 48.339 72.2654 50.6368 72.2654 53.4712C72.2654 56.3057 69.9755 58.6035 67.1507 58.6035Z" fill="#262626"/>
</g>
<mask id="mask2_1345_5504" style="mask-type:luminance" maskUnits="userSpaceOnUse" x="0" y="39" width="100" height="23">
<path d="M100 39H0V62H100V39Z" fill="white"/>
</mask>
<g mask="url(#mask2_1345_5504)">
<path d="M23.2793 54.9328V45.5762H26.5048V54.9034C26.5048 57.2867 27.883 58.8167 30.1995 58.8167C32.5453 58.8167 33.8942 57.3455 33.8942 54.9034V45.5762H37.149V54.9328C37.149 59.258 34.5393 61.8179 30.1995 61.8179C25.9769 61.8179 23.2793 59.1698 23.2793 54.9328Z" fill="#262626"/>
</g>
<mask id="mask3_1345_5504" style="mask-type:luminance" maskUnits="userSpaceOnUse" x="0" y="39" width="100" height="23">
<path d="M100 39H0V62H100V39Z" fill="white"/>
</mask>
<g mask="url(#mask3_1345_5504)">
<path d="M81.29 39.2695H78.0645V61.4359H81.29V39.2695Z" fill="#262626"/>
</g>
<mask id="mask4_1345_5504" style="mask-type:luminance" maskUnits="userSpaceOnUse" x="0" y="39" width="100" height="23">
<path d="M100 39H0V62H100V39Z" fill="white"/>
</mask>
<g mask="url(#mask4_1345_5504)">
<path d="M99.5491 54.7561H87.2041C87.6734 57.2276 89.4034 58.9047 92.453 58.9047C94.2417 58.9047 96.4115 58.228 97.8191 57.1982L99.168 59.5814C97.5551 60.7879 95.0041 61.7882 92.3357 61.7882C86.4125 61.7882 83.8613 57.6395 83.8613 53.4614C83.8613 51.0781 84.5944 49.1067 86.0899 47.5472C87.5854 45.9878 89.5501 45.1934 91.9251 45.1934C94.183 45.1934 96.0596 45.8995 97.4965 47.3412C98.9334 48.783 99.6663 50.7249 99.6663 53.1965C99.6663 53.638 99.637 54.1675 99.5491 54.7561ZM87.2041 52.1078H96.4115C96.1477 49.6069 94.3004 47.9886 91.9251 47.9886C89.4913 47.9886 87.6733 49.6363 87.2041 52.1078Z" fill="#262626"/>
</g>
<mask id="mask5_1345_5504" style="mask-type:luminance" maskUnits="userSpaceOnUse" x="0" y="39" width="100" height="23">
<path d="M100 39H0V62H100V39Z" fill="white"/>
</mask>
<g mask="url(#mask5_1345_5504)">
<path d="M13.037 45.124C11.0174 45.124 9.02691 45.994 7.50725 47.7044V39.2695H4.5V53.4702C4.5 53.4706 4.5 53.4709 4.5 53.4713C4.5 58.0813 8.22438 61.8185 12.8187 61.8185C17.413 61.8185 21.1374 58.0813 21.1374 53.4713C21.1374 48.8613 17.6312 45.124 13.037 45.124ZM12.8187 58.6035C9.99393 58.6035 7.70399 56.3057 7.70399 53.4712C7.70399 50.6368 9.99393 48.339 12.8187 48.339C15.6434 48.339 17.9334 50.6368 17.9334 53.4712C17.9334 56.3057 15.6434 58.6035 12.8187 58.6035Z" fill="#262626"/>
</g>
<mask id="mask6_1345_5504" style="mask-type:luminance" maskUnits="userSpaceOnUse" x="0" y="39" width="100" height="23">
<path d="M100 39H0V62H100V39Z" fill="white"/>
</mask>
<g mask="url(#mask6_1345_5504)">
<path d="M2.31489 57.6895C1.17877 57.6895 0.257812 58.6136 0.257812 59.7536C0.257812 60.8936 1.17877 61.8177 2.31489 61.8177C3.45101 61.8177 4.37197 60.8936 4.37197 59.7536C4.37197 58.6136 3.45101 57.6895 2.31489 57.6895Z" fill="#0000FF"/>
</g>
</g>
<defs>
<clipPath id="clip0_1345_5504">
<rect width="100" height="23" fill="white" transform="translate(0 39)"/>
</clipPath>
</defs>
</svg>
