<svg width="100" height="100" viewBox="0 0 100 100" fill="none" xmlns="http://www.w3.org/2000/svg">
<path fill-rule="evenodd" clip-rule="evenodd" d="M88.2833 5C91.1216 5 93.749 6.46525 95.0801 8.84716C96.3554 11.1287 96.3013 13.8173 94.9387 16.0489L94.8923 16.1239L82.9492 35.1836C81.5986 37.3388 79.1604 38.684 76.5544 38.7127L76.4694 38.7131L62.8313 38.713L68.4997 51.0933L68.5223 51.1296L68.5572 51.1881C69.8921 53.4898 69.8596 56.2265 68.4752 58.494L68.4285 58.5694L56.4854 77.6291C55.1349 79.7843 52.6967 81.1295 50.0909 81.1582L50.0059 81.1587L33.2666 81.1586L21.2331 93.2667L21.2104 93.2892C20.078 94.3874 18.548 95 16.9528 95C16.5541 95 16.155 94.9615 15.7603 94.8848C13.8144 94.5058 12.1978 93.232 11.4196 91.4752L11.3976 91.4251L5.06494 77.5567L5.03163 77.5036L4.99703 77.4463C4.99128 77.4366 4.98543 77.4266 4.97933 77.416C3.64438 75.1144 3.67672 72.3777 5.06095 70.1101L5.10759 70.0347L16.6912 51.5489L8.15581 32.9073L8.31222 32.8313L8.30985 32.8201C7.94869 31.1054 8.23942 29.3172 9.16692 27.751L9.21814 27.6658L9.26549 27.5892L21.2087 8.52946C22.5594 6.37436 24.9977 5.02915 27.6033 5H27.6884H88.2833ZM25.5724 81.0137L12.8828 81.0135L16.6098 89.2385L16.619 89.2604C16.6808 89.4077 16.7807 89.4883 16.9294 89.5175C17.0621 89.5436 17.1695 89.5167 17.271 89.4285L17.2888 89.412L25.5724 81.0137ZM61.8481 52.7365H23.4903C23.448 52.7365 23.4056 52.7379 23.3633 52.7406L23.3517 52.7415L33.8691 75.6926H50.004C50.6672 75.6926 51.3061 75.3538 51.6694 74.8098L51.6982 74.7652L63.6586 55.6939C64.0154 55.125 64.0549 54.4649 63.7721 53.8709C63.4462 53.186 62.6895 52.7365 61.8481 52.7365ZM19.503 57.4493L10.0104 72.713C9.6327 73.3205 9.61081 74.032 9.94906 74.6581L9.98493 74.7218L10.004 74.7529L10.0424 74.8127L10.1183 74.9204L10.203 75.0256L10.2841 75.114L10.2982 75.1283L10.353 75.1813L10.4006 75.2245C10.6992 75.4831 11.0684 75.6409 11.4755 75.6814L11.5669 75.6889L11.6199 75.6915L11.687 75.6926H27.7931L19.503 57.4493ZM17.0069 38.75L21.1759 47.8716L21.2572 47.8452C21.9771 47.6154 22.7299 47.4908 23.4909 47.4794L23.6051 47.4786L60.7862 47.4785L56.797 38.7502L17.0069 38.75ZM88.1774 10.3209H49.6828L60.2033 33.277H76.3323C76.9968 33.277 77.6362 32.9381 77.9997 32.3937L78.0286 32.3491L89.9897 13.2781C90.3464 12.7094 90.3858 12.0498 90.1034 11.4564C89.7841 10.7855 89.0519 10.3402 88.231 10.3216L88.1774 10.3209ZM43.7899 10.3209H27.75C27.0904 10.3209 26.4543 10.6591 26.0924 11.2026L26.0636 11.2471L14.1339 30.3185C13.7778 30.8877 13.7384 31.5488 14.0208 32.1435C14.3389 32.8138 15.0672 33.2578 15.8831 33.2764L15.9364 33.277H54.2828L43.7899 10.3209Z" fill="#4B39EF"/>
</svg>
