<svg width="124" height="24" viewBox="0 0 124 24" fill="none" xmlns="http://www.w3.org/2000/svg">
<path d="M17 12V0L0 12H17Z" fill="#AFAFAF"/>
<path d="M17 0H120C122.209 0 124 1.79086 124 4V24H17V0Z" fill="white"/>
<path d="M38.1211 7.46875V16H36.9902V7.46875H38.1211ZM41.6953 11.3066V12.2324H37.875V11.3066H41.6953ZM42.2754 7.46875V8.39453H37.875V7.46875H42.2754ZM43.043 12.9004V12.7656C43.043 12.3086 43.1094 11.8848 43.2422 11.4941C43.375 11.0996 43.5664 10.7578 43.8164 10.4688C44.0664 10.1758 44.3691 9.94922 44.7246 9.78906C45.0801 9.625 45.4785 9.54297 45.9199 9.54297C46.3652 9.54297 46.7656 9.625 47.1211 9.78906C47.4805 9.94922 47.7852 10.1758 48.0352 10.4688C48.2891 10.7578 48.4824 11.0996 48.6152 11.4941C48.748 11.8848 48.8145 12.3086 48.8145 12.7656V12.9004C48.8145 13.3574 48.748 13.7812 48.6152 14.1719C48.4824 14.5625 48.2891 14.9043 48.0352 15.1973C47.7852 15.4863 47.4824 15.7129 47.127 15.877C46.7754 16.0371 46.377 16.1172 45.9316 16.1172C45.4863 16.1172 45.0859 16.0371 44.7305 15.877C44.375 15.7129 44.0703 15.4863 43.8164 15.1973C43.5664 14.9043 43.375 14.5625 43.2422 14.1719C43.1094 13.7812 43.043 13.3574 43.043 12.9004ZM44.127 12.7656V12.9004C44.127 13.2168 44.1641 13.5156 44.2383 13.7969C44.3125 14.0742 44.4238 14.3203 44.5723 14.5352C44.7246 14.75 44.9141 14.9199 45.1406 15.0449C45.3672 15.166 45.6309 15.2266 45.9316 15.2266C46.2285 15.2266 46.4883 15.166 46.7109 15.0449C46.9375 14.9199 47.125 14.75 47.2734 14.5352C47.4219 14.3203 47.5332 14.0742 47.6074 13.7969C47.6855 13.5156 47.7246 13.2168 47.7246 12.9004V12.7656C47.7246 12.4531 47.6855 12.1582 47.6074 11.8809C47.5332 11.5996 47.4199 11.3516 47.2676 11.1367C47.1191 10.918 46.9316 10.7461 46.7051 10.6211C46.4824 10.4961 46.2207 10.4336 45.9199 10.4336C45.623 10.4336 45.3613 10.4961 45.1348 10.6211C44.9121 10.7461 44.7246 10.918 44.5723 11.1367C44.4238 11.3516 44.3125 11.5996 44.2383 11.8809C44.1641 12.1582 44.127 12.4531 44.127 12.7656ZM51.2578 10.6562V16H50.1738V9.66016H51.2285L51.2578 10.6562ZM53.2383 9.625L53.2324 10.6328C53.1426 10.6133 53.0566 10.6016 52.9746 10.5977C52.8965 10.5898 52.8066 10.5859 52.7051 10.5859C52.4551 10.5859 52.2344 10.625 52.043 10.7031C51.8516 10.7812 51.6895 10.8906 51.5566 11.0312C51.4238 11.1719 51.3184 11.3398 51.2402 11.5352C51.166 11.7266 51.1172 11.9375 51.0938 12.168L50.7891 12.3438C50.7891 11.9609 50.8262 11.6016 50.9004 11.2656C50.9785 10.9297 51.0977 10.6328 51.2578 10.375C51.418 10.1133 51.6211 9.91016 51.8672 9.76562C52.1172 9.61719 52.4141 9.54297 52.7578 9.54297C52.8359 9.54297 52.9258 9.55273 53.0273 9.57227C53.1289 9.58789 53.1992 9.60547 53.2383 9.625ZM60.4219 12.0098H58.2598L58.248 11.1016H60.2109C60.5352 11.1016 60.8184 11.0469 61.0605 10.9375C61.3027 10.8281 61.4902 10.6719 61.623 10.4688C61.7598 10.2617 61.8281 10.0156 61.8281 9.73047C61.8281 9.41797 61.7676 9.16406 61.6465 8.96875C61.5293 8.76953 61.3477 8.625 61.1016 8.53516C60.8594 8.44141 60.5508 8.39453 60.1758 8.39453H58.5117V16H57.3809V7.46875H60.1758C60.6133 7.46875 61.0039 7.51367 61.3477 7.60352C61.6914 7.68945 61.9824 7.82617 62.2207 8.01367C62.4629 8.19727 62.6465 8.43164 62.7715 8.7168C62.8965 9.00195 62.959 9.34375 62.959 9.74219C62.959 10.0938 62.8691 10.4121 62.6895 10.6973C62.5098 10.9785 62.2598 11.209 61.9395 11.3887C61.623 11.5684 61.252 11.6836 60.8262 11.7344L60.4219 12.0098ZM60.3691 16H57.8145L58.4531 15.0801H60.3691C60.7285 15.0801 61.0332 15.0176 61.2832 14.8926C61.5371 14.7676 61.7305 14.5918 61.8633 14.3652C61.9961 14.1348 62.0625 13.8633 62.0625 13.5508C62.0625 13.2344 62.0059 12.9609 61.8926 12.7305C61.7793 12.5 61.6016 12.3223 61.3594 12.1973C61.1172 12.0723 60.8047 12.0098 60.4219 12.0098H58.8105L58.8223 11.1016H61.0254L61.2656 11.4297C61.6758 11.4648 62.0234 11.582 62.3086 11.7812C62.5938 11.9766 62.8105 12.2266 62.959 12.5312C63.1113 12.8359 63.1875 13.1719 63.1875 13.5391C63.1875 14.0703 63.0703 14.5195 62.8359 14.8867C62.6055 15.25 62.2793 15.5273 61.8574 15.7188C61.4355 15.9062 60.9395 16 60.3691 16ZM68.5723 14.5352V9.66016H69.6621V16H68.625L68.5723 14.5352ZM68.7773 13.1992L69.2285 13.1875C69.2285 13.6094 69.1836 14 69.0938 14.3594C69.0078 14.7148 68.8672 15.0234 68.6719 15.2852C68.4766 15.5469 68.2207 15.752 67.9043 15.9004C67.5879 16.0449 67.2031 16.1172 66.75 16.1172C66.4414 16.1172 66.1582 16.0723 65.9004 15.9824C65.6465 15.8926 65.4277 15.7539 65.2441 15.5664C65.0605 15.3789 64.918 15.1348 64.8164 14.834C64.7188 14.5332 64.6699 14.1719 64.6699 13.75V9.66016H65.7539V13.7617C65.7539 14.0469 65.7852 14.2832 65.8477 14.4707C65.9141 14.6543 66.002 14.8008 66.1113 14.9102C66.2246 15.0156 66.3496 15.0898 66.4863 15.1328C66.627 15.1758 66.7715 15.1973 66.9199 15.1973C67.3809 15.1973 67.7461 15.1094 68.0156 14.9336C68.2852 14.7539 68.4785 14.5137 68.5957 14.2129C68.7168 13.9082 68.7773 13.5703 68.7773 13.1992ZM75.0059 14.3184C75.0059 14.1621 74.9707 14.0176 74.9004 13.8848C74.834 13.748 74.6953 13.625 74.4844 13.5156C74.2773 13.4023 73.9648 13.3047 73.5469 13.2227C73.1953 13.1484 72.877 13.0605 72.5918 12.959C72.3105 12.8574 72.0703 12.7344 71.8711 12.5898C71.6758 12.4453 71.5254 12.2754 71.4199 12.0801C71.3145 11.8848 71.2617 11.6562 71.2617 11.3945C71.2617 11.1445 71.3164 10.9082 71.4258 10.6855C71.5391 10.4629 71.6973 10.2656 71.9004 10.0938C72.1074 9.92188 72.3555 9.78711 72.6445 9.68945C72.9336 9.5918 73.2559 9.54297 73.6113 9.54297C74.1191 9.54297 74.5527 9.63281 74.9121 9.8125C75.2715 9.99219 75.5469 10.2324 75.7383 10.5332C75.9297 10.8301 76.0254 11.1602 76.0254 11.5234H74.9414C74.9414 11.3477 74.8887 11.1777 74.7832 11.0137C74.6816 10.8457 74.5312 10.707 74.332 10.5977C74.1367 10.4883 73.8965 10.4336 73.6113 10.4336C73.3105 10.4336 73.0664 10.4805 72.8789 10.5742C72.6953 10.6641 72.5605 10.7793 72.4746 10.9199C72.3926 11.0605 72.3516 11.209 72.3516 11.3652C72.3516 11.4824 72.3711 11.5879 72.4102 11.6816C72.4531 11.7715 72.5273 11.8555 72.6328 11.9336C72.7383 12.0078 72.8867 12.0781 73.0781 12.1445C73.2695 12.2109 73.5137 12.2773 73.8105 12.3438C74.3301 12.4609 74.7578 12.6016 75.0938 12.7656C75.4297 12.9297 75.6797 13.1309 75.8438 13.3691C76.0078 13.6074 76.0898 13.8965 76.0898 14.2363C76.0898 14.5137 76.0312 14.7676 75.9141 14.998C75.8008 15.2285 75.6348 15.4277 75.416 15.5957C75.2012 15.7598 74.9434 15.8887 74.6426 15.9824C74.3457 16.0723 74.0117 16.1172 73.6406 16.1172C73.082 16.1172 72.6094 16.0176 72.2227 15.8184C71.8359 15.6191 71.543 15.3613 71.3438 15.0449C71.1445 14.7285 71.0449 14.3945 71.0449 14.043H72.1348C72.1504 14.3398 72.2363 14.5762 72.3926 14.752C72.5488 14.9238 72.7402 15.0469 72.9668 15.1211C73.1934 15.1914 73.418 15.2266 73.6406 15.2266C73.9375 15.2266 74.1855 15.1875 74.3848 15.1094C74.5879 15.0312 74.7422 14.9238 74.8477 14.7871C74.9531 14.6504 75.0059 14.4941 75.0059 14.3184ZM78.6914 9.66016V16H77.6016V9.66016H78.6914ZM77.5195 7.97852C77.5195 7.80273 77.5723 7.6543 77.6777 7.5332C77.7871 7.41211 77.9473 7.35156 78.1582 7.35156C78.3652 7.35156 78.5234 7.41211 78.6328 7.5332C78.7461 7.6543 78.8027 7.80273 78.8027 7.97852C78.8027 8.14648 78.7461 8.29102 78.6328 8.41211C78.5234 8.5293 78.3652 8.58789 78.1582 8.58789C77.9473 8.58789 77.7871 8.5293 77.6777 8.41211C77.5723 8.29102 77.5195 8.14648 77.5195 7.97852ZM81.5156 11.0137V16H80.4316V9.66016H81.457L81.5156 11.0137ZM81.2578 12.5898L80.8066 12.5723C80.8105 12.1387 80.875 11.7383 81 11.3711C81.125 11 81.3008 10.6777 81.5273 10.4043C81.7539 10.1309 82.0234 9.91992 82.3359 9.77148C82.6523 9.61914 83.002 9.54297 83.3848 9.54297C83.6973 9.54297 83.9785 9.58594 84.2285 9.67188C84.4785 9.75391 84.6914 9.88672 84.8672 10.0703C85.0469 10.2539 85.1836 10.4922 85.2773 10.7852C85.3711 11.0742 85.418 11.4277 85.418 11.8457V16H84.3281V11.834C84.3281 11.502 84.2793 11.2363 84.1816 11.0371C84.084 10.834 83.9414 10.6875 83.7539 10.5977C83.5664 10.5039 83.3359 10.457 83.0625 10.457C82.793 10.457 82.5469 10.5137 82.3242 10.627C82.1055 10.7402 81.916 10.8965 81.7559 11.0957C81.5996 11.2949 81.4766 11.5234 81.3867 11.7812C81.3008 12.0352 81.2578 12.3047 81.2578 12.5898ZM89.6953 16.1172C89.2539 16.1172 88.8535 16.043 88.4941 15.8945C88.1387 15.7422 87.832 15.5293 87.5742 15.2559C87.3203 14.9824 87.125 14.6582 86.9883 14.2832C86.8516 13.9082 86.7832 13.498 86.7832 13.0527V12.8066C86.7832 12.291 86.8594 11.832 87.0117 11.4297C87.1641 11.0234 87.3711 10.6797 87.6328 10.3984C87.8945 10.1172 88.1914 9.9043 88.5234 9.75977C88.8555 9.61523 89.1992 9.54297 89.5547 9.54297C90.0078 9.54297 90.3984 9.62109 90.7266 9.77734C91.0586 9.93359 91.3301 10.1523 91.541 10.4336C91.752 10.7109 91.9082 11.0391 92.0098 11.418C92.1113 11.793 92.1621 12.2031 92.1621 12.6484V13.1348H87.4277V12.25H91.0781V12.168C91.0625 11.8867 91.0039 11.6133 90.9023 11.3477C90.8047 11.082 90.6484 10.8633 90.4336 10.6914C90.2188 10.5195 89.9258 10.4336 89.5547 10.4336C89.3086 10.4336 89.082 10.4863 88.875 10.5918C88.668 10.6934 88.4902 10.8457 88.3418 11.0488C88.1934 11.252 88.0781 11.5 87.9961 11.793C87.9141 12.0859 87.873 12.4238 87.873 12.8066V13.0527C87.873 13.3535 87.9141 13.6367 87.9961 13.9023C88.082 14.1641 88.2051 14.3945 88.3652 14.5938C88.5293 14.793 88.7266 14.9492 88.957 15.0625C89.1914 15.1758 89.457 15.2324 89.7539 15.2324C90.1367 15.2324 90.4609 15.1543 90.7266 14.998C90.9922 14.8418 91.2246 14.6328 91.4238 14.3711L92.0801 14.8926C91.9434 15.0996 91.7695 15.2969 91.5586 15.4844C91.3477 15.6719 91.0879 15.8242 90.7793 15.9414C90.4746 16.0586 90.1133 16.1172 89.6953 16.1172ZM97.1191 14.3184C97.1191 14.1621 97.084 14.0176 97.0137 13.8848C96.9473 13.748 96.8086 13.625 96.5977 13.5156C96.3906 13.4023 96.0781 13.3047 95.6602 13.2227C95.3086 13.1484 94.9902 13.0605 94.7051 12.959C94.4238 12.8574 94.1836 12.7344 93.9844 12.5898C93.7891 12.4453 93.6387 12.2754 93.5332 12.0801C93.4277 11.8848 93.375 11.6562 93.375 11.3945C93.375 11.1445 93.4297 10.9082 93.5391 10.6855C93.6523 10.4629 93.8105 10.2656 94.0137 10.0938C94.2207 9.92188 94.4688 9.78711 94.7578 9.68945C95.0469 9.5918 95.3691 9.54297 95.7246 9.54297C96.2324 9.54297 96.666 9.63281 97.0254 9.8125C97.3848 9.99219 97.6602 10.2324 97.8516 10.5332C98.043 10.8301 98.1387 11.1602 98.1387 11.5234H97.0547C97.0547 11.3477 97.002 11.1777 96.8965 11.0137C96.7949 10.8457 96.6445 10.707 96.4453 10.5977C96.25 10.4883 96.0098 10.4336 95.7246 10.4336C95.4238 10.4336 95.1797 10.4805 94.9922 10.5742C94.8086 10.6641 94.6738 10.7793 94.5879 10.9199C94.5059 11.0605 94.4648 11.209 94.4648 11.3652C94.4648 11.4824 94.4844 11.5879 94.5234 11.6816C94.5664 11.7715 94.6406 11.8555 94.7461 11.9336C94.8516 12.0078 95 12.0781 95.1914 12.1445C95.3828 12.2109 95.627 12.2773 95.9238 12.3438C96.4434 12.4609 96.8711 12.6016 97.207 12.7656C97.543 12.9297 97.793 13.1309 97.957 13.3691C98.1211 13.6074 98.2031 13.8965 98.2031 14.2363C98.2031 14.5137 98.1445 14.7676 98.0273 14.998C97.9141 15.2285 97.748 15.4277 97.5293 15.5957C97.3145 15.7598 97.0566 15.8887 96.7559 15.9824C96.459 16.0723 96.125 16.1172 95.7539 16.1172C95.1953 16.1172 94.7227 16.0176 94.3359 15.8184C93.9492 15.6191 93.6562 15.3613 93.457 15.0449C93.2578 14.7285 93.1582 14.3945 93.1582 14.043H94.248C94.2637 14.3398 94.3496 14.5762 94.5059 14.752C94.6621 14.9238 94.8535 15.0469 95.0801 15.1211C95.3066 15.1914 95.5312 15.2266 95.7539 15.2266C96.0508 15.2266 96.2988 15.1875 96.498 15.1094C96.7012 15.0312 96.8555 14.9238 96.9609 14.7871C97.0664 14.6504 97.1191 14.4941 97.1191 14.3184ZM103.318 14.3184C103.318 14.1621 103.283 14.0176 103.213 13.8848C103.146 13.748 103.008 13.625 102.797 13.5156C102.59 13.4023 102.277 13.3047 101.859 13.2227C101.508 13.1484 101.189 13.0605 100.904 12.959C100.623 12.8574 100.383 12.7344 100.184 12.5898C99.9883 12.4453 99.8379 12.2754 99.7324 12.0801C99.627 11.8848 99.5742 11.6562 99.5742 11.3945C99.5742 11.1445 99.6289 10.9082 99.7383 10.6855C99.8516 10.4629 100.01 10.2656 100.213 10.0938C100.42 9.92188 100.668 9.78711 100.957 9.68945C101.246 9.5918 101.568 9.54297 101.924 9.54297C102.432 9.54297 102.865 9.63281 103.225 9.8125C103.584 9.99219 103.859 10.2324 104.051 10.5332C104.242 10.8301 104.338 11.1602 104.338 11.5234H103.254C103.254 11.3477 103.201 11.1777 103.096 11.0137C102.994 10.8457 102.844 10.707 102.645 10.5977C102.449 10.4883 102.209 10.4336 101.924 10.4336C101.623 10.4336 101.379 10.4805 101.191 10.5742C101.008 10.6641 100.873 10.7793 100.787 10.9199C100.705 11.0605 100.664 11.209 100.664 11.3652C100.664 11.4824 100.684 11.5879 100.723 11.6816C100.766 11.7715 100.84 11.8555 100.945 11.9336C101.051 12.0078 101.199 12.0781 101.391 12.1445C101.582 12.2109 101.826 12.2773 102.123 12.3438C102.643 12.4609 103.07 12.6016 103.406 12.7656C103.742 12.9297 103.992 13.1309 104.156 13.3691C104.32 13.6074 104.402 13.8965 104.402 14.2363C104.402 14.5137 104.344 14.7676 104.227 14.998C104.113 15.2285 103.947 15.4277 103.729 15.5957C103.514 15.7598 103.256 15.8887 102.955 15.9824C102.658 16.0723 102.324 16.1172 101.953 16.1172C101.395 16.1172 100.922 16.0176 100.535 15.8184C100.148 15.6191 99.8555 15.3613 99.6562 15.0449C99.457 14.7285 99.3574 14.3945 99.3574 14.043H100.447C100.463 14.3398 100.549 14.5762 100.705 14.752C100.861 14.9238 101.053 15.0469 101.279 15.1211C101.506 15.1914 101.73 15.2266 101.953 15.2266C102.25 15.2266 102.498 15.1875 102.697 15.1094C102.9 15.0312 103.055 14.9238 103.16 14.7871C103.266 14.6504 103.318 14.4941 103.318 14.3184Z" fill="#60AAF6"/>
</svg>
