<svg width="96" height="24" viewBox="0 0 96 24" fill="none" xmlns="http://www.w3.org/2000/svg">
<path d="M17 12V0L0 12H17Z" fill="#AFAFAF"/>
<path d="M17 0H92C94.2091 0 96 1.79086 96 4V24H17V0Z" fill="white"/>
<path d="M38.1211 7.46875V16H36.9902V7.46875H38.1211ZM41.6953 11.3066V12.2324H37.875V11.3066H41.6953ZM42.2754 7.46875V8.39453H37.875V7.46875H42.2754ZM43.043 12.9004V12.7656C43.043 12.3086 43.1094 11.8848 43.2422 11.4941C43.375 11.0996 43.5664 10.7578 43.8164 10.4688C44.0664 10.1758 44.3691 9.94922 44.7246 9.78906C45.0801 9.625 45.4785 9.54297 45.9199 9.54297C46.3652 9.54297 46.7656 9.625 47.1211 9.78906C47.4805 9.94922 47.7852 10.1758 48.0352 10.4688C48.2891 10.7578 48.4824 11.0996 48.6152 11.4941C48.748 11.8848 48.8145 12.3086 48.8145 12.7656V12.9004C48.8145 13.3574 48.748 13.7812 48.6152 14.1719C48.4824 14.5625 48.2891 14.9043 48.0352 15.1973C47.7852 15.4863 47.4824 15.7129 47.127 15.877C46.7754 16.0371 46.377 16.1172 45.9316 16.1172C45.4863 16.1172 45.0859 16.0371 44.7305 15.877C44.375 15.7129 44.0703 15.4863 43.8164 15.1973C43.5664 14.9043 43.375 14.5625 43.2422 14.1719C43.1094 13.7812 43.043 13.3574 43.043 12.9004ZM44.127 12.7656V12.9004C44.127 13.2168 44.1641 13.5156 44.2383 13.7969C44.3125 14.0742 44.4238 14.3203 44.5723 14.5352C44.7246 14.75 44.9141 14.9199 45.1406 15.0449C45.3672 15.166 45.6309 15.2266 45.9316 15.2266C46.2285 15.2266 46.4883 15.166 46.7109 15.0449C46.9375 14.9199 47.125 14.75 47.2734 14.5352C47.4219 14.3203 47.5332 14.0742 47.6074 13.7969C47.6855 13.5156 47.7246 13.2168 47.7246 12.9004V12.7656C47.7246 12.4531 47.6855 12.1582 47.6074 11.8809C47.5332 11.5996 47.4199 11.3516 47.2676 11.1367C47.1191 10.918 46.9316 10.7461 46.7051 10.6211C46.4824 10.4961 46.2207 10.4336 45.9199 10.4336C45.623 10.4336 45.3613 10.4961 45.1348 10.6211C44.9121 10.7461 44.7246 10.918 44.5723 11.1367C44.4238 11.3516 44.3125 11.5996 44.2383 11.8809C44.1641 12.1582 44.127 12.4531 44.127 12.7656ZM51.2578 10.6562V16H50.1738V9.66016H51.2285L51.2578 10.6562ZM53.2383 9.625L53.2324 10.6328C53.1426 10.6133 53.0566 10.6016 52.9746 10.5977C52.8965 10.5898 52.8066 10.5859 52.7051 10.5859C52.4551 10.5859 52.2344 10.625 52.043 10.7031C51.8516 10.7812 51.6895 10.8906 51.5566 11.0312C51.4238 11.1719 51.3184 11.3398 51.2402 11.5352C51.166 11.7266 51.1172 11.9375 51.0938 12.168L50.7891 12.3438C50.7891 11.9609 50.8262 11.6016 50.9004 11.2656C50.9785 10.9297 51.0977 10.6328 51.2578 10.375C51.418 10.1133 51.6211 9.91016 51.8672 9.76562C52.1172 9.61719 52.4141 9.54297 52.7578 9.54297C52.8359 9.54297 52.9258 9.55273 53.0273 9.57227C53.1289 9.58789 53.1992 9.60547 53.2383 9.625ZM60.9609 13.5098V7.46875H62.0859V13.5098C62.0859 14.0723 61.9707 14.5469 61.7402 14.9336C61.5098 15.3203 61.1914 15.6152 60.7852 15.8184C60.3828 16.0176 59.9199 16.1172 59.3965 16.1172C58.873 16.1172 58.4082 16.0273 58.002 15.8477C57.5957 15.668 57.2773 15.3945 57.0469 15.0273C56.8164 14.6602 56.7012 14.1973 56.7012 13.6387H57.832C57.832 13.998 57.8984 14.293 58.0312 14.5234C58.1641 14.7539 58.3477 14.9238 58.582 15.0332C58.8203 15.1426 59.0918 15.1973 59.3965 15.1973C59.6934 15.1973 59.959 15.1348 60.1934 15.0098C60.4316 14.8809 60.6191 14.6914 60.7559 14.4414C60.8926 14.1875 60.9609 13.877 60.9609 13.5098ZM63.5508 12.9004V12.7656C63.5508 12.3086 63.6172 11.8848 63.75 11.4941C63.8828 11.0996 64.0742 10.7578 64.3242 10.4688C64.5742 10.1758 64.877 9.94922 65.2324 9.78906C65.5879 9.625 65.9863 9.54297 66.4277 9.54297C66.873 9.54297 67.2734 9.625 67.6289 9.78906C67.9883 9.94922 68.293 10.1758 68.543 10.4688C68.7969 10.7578 68.9902 11.0996 69.123 11.4941C69.2559 11.8848 69.3223 12.3086 69.3223 12.7656V12.9004C69.3223 13.3574 69.2559 13.7812 69.123 14.1719C68.9902 14.5625 68.7969 14.9043 68.543 15.1973C68.293 15.4863 67.9902 15.7129 67.6348 15.877C67.2832 16.0371 66.8848 16.1172 66.4395 16.1172C65.9941 16.1172 65.5938 16.0371 65.2383 15.877C64.8828 15.7129 64.5781 15.4863 64.3242 15.1973C64.0742 14.9043 63.8828 14.5625 63.75 14.1719C63.6172 13.7812 63.5508 13.3574 63.5508 12.9004ZM64.6348 12.7656V12.9004C64.6348 13.2168 64.6719 13.5156 64.7461 13.7969C64.8203 14.0742 64.9316 14.3203 65.0801 14.5352C65.2324 14.75 65.4219 14.9199 65.6484 15.0449C65.875 15.166 66.1387 15.2266 66.4395 15.2266C66.7363 15.2266 66.9961 15.166 67.2188 15.0449C67.4453 14.9199 67.6328 14.75 67.7812 14.5352C67.9297 14.3203 68.041 14.0742 68.1152 13.7969C68.1934 13.5156 68.2324 13.2168 68.2324 12.9004V12.7656C68.2324 12.4531 68.1934 12.1582 68.1152 11.8809C68.041 11.5996 67.9277 11.3516 67.7754 11.1367C67.627 10.918 67.4395 10.7461 67.2129 10.6211C66.9902 10.4961 66.7285 10.4336 66.4277 10.4336C66.1309 10.4336 65.8691 10.4961 65.6426 10.6211C65.4199 10.7461 65.2324 10.918 65.0801 11.1367C64.9316 11.3516 64.8203 11.5996 64.7461 11.8809C64.6719 12.1582 64.6348 12.4531 64.6348 12.7656ZM70.6758 7H71.7656V14.7695L71.6719 16H70.6758V7ZM76.0488 12.7773V12.9004C76.0488 13.3613 75.9941 13.7891 75.8848 14.1836C75.7754 14.5742 75.6152 14.9141 75.4043 15.2031C75.1934 15.4922 74.9355 15.7168 74.6309 15.877C74.3262 16.0371 73.9766 16.1172 73.582 16.1172C73.1797 16.1172 72.8262 16.0488 72.5215 15.9121C72.2207 15.7715 71.9668 15.5703 71.7598 15.3086C71.5527 15.0469 71.3867 14.7305 71.2617 14.3594C71.1406 13.9883 71.0566 13.5703 71.0098 13.1055V12.5664C71.0566 12.0977 71.1406 11.6777 71.2617 11.3066C71.3867 10.9355 71.5527 10.6191 71.7598 10.3574C71.9668 10.0918 72.2207 9.89062 72.5215 9.75391C72.8223 9.61328 73.1719 9.54297 73.5703 9.54297C73.9688 9.54297 74.3223 9.62109 74.6309 9.77734C74.9395 9.92969 75.1973 10.1484 75.4043 10.4336C75.6152 10.7188 75.7754 11.0605 75.8848 11.459C75.9941 11.8535 76.0488 12.293 76.0488 12.7773ZM74.959 12.9004V12.7773C74.959 12.4609 74.9297 12.1641 74.8711 11.8867C74.8125 11.6055 74.7188 11.3594 74.5898 11.1484C74.4609 10.9336 74.291 10.7656 74.0801 10.6445C73.8691 10.5195 73.6094 10.457 73.3008 10.457C73.0273 10.457 72.7891 10.5039 72.5859 10.5977C72.3867 10.6914 72.2168 10.8184 72.0762 10.9785C71.9355 11.1348 71.8203 11.3145 71.7305 11.5176C71.6445 11.7168 71.5801 11.9238 71.5371 12.1387V13.5508C71.5996 13.8242 71.7012 14.0879 71.8418 14.3418C71.9863 14.5918 72.1777 14.7969 72.416 14.957C72.6582 15.1172 72.957 15.1973 73.3125 15.1973C73.6055 15.1973 73.8555 15.1387 74.0625 15.0215C74.2734 14.9004 74.4434 14.7344 74.5723 14.5234C74.7051 14.3125 74.8027 14.0684 74.8652 13.791C74.9277 13.5137 74.959 13.2168 74.959 12.9004Z" fill="#60AAF6"/>
</svg>
