<svg width="271" height="41" viewBox="0 0 271 41" fill="none" xmlns="http://www.w3.org/2000/svg">
<rect width="241" height="40" transform="translate(29.2344 0.30957)" fill="#60AAF6"/>
<path d="M50.8004 26.3096H48.3704L45.7064 21.8276H43.6184V26.3096H41.5124V14.3036H46.7864C49.1624 14.3036 50.7104 15.8516 50.7104 18.0656C50.7104 20.2076 49.3064 21.3596 47.8664 21.5936L50.8004 26.3096ZM46.4984 19.9736C47.6864 19.9736 48.5504 19.2176 48.5504 18.0656C48.5504 16.9136 47.6864 16.1576 46.4984 16.1576H43.6184V19.9736H46.4984ZM61.0411 26.3096H52.8151V14.3036H61.0411V16.1576H54.9211V19.2716H60.9151V21.1256H54.9211V24.4556H61.0411V26.3096ZM68.9638 26.5256C65.4178 26.5256 62.6638 24.0056 62.6638 20.3156C62.6638 16.6256 65.4178 14.1056 68.9638 14.1056C71.3938 14.1056 72.8878 15.3656 73.7878 16.8056L71.9878 17.7236C71.4118 16.7336 70.2598 15.9776 68.9638 15.9776C66.5878 15.9776 64.8238 17.7956 64.8238 20.3156C64.8238 22.8356 66.5878 24.6536 68.9638 24.6536C70.2598 24.6536 71.4118 23.9156 71.9878 22.9076L73.7878 23.8256C72.8698 25.2656 71.3938 26.5256 68.9638 26.5256ZM81.0713 26.5256C77.4713 26.5256 74.9333 23.8976 74.9333 20.3156C74.9333 16.7336 77.4713 14.1056 81.0713 14.1056C84.6713 14.1056 87.2093 16.7336 87.2093 20.3156C87.2093 23.8976 84.6713 26.5256 81.0713 26.5256ZM81.0713 24.6536C83.4833 24.6536 85.0493 22.7816 85.0493 20.3156C85.0493 17.8316 83.4833 15.9776 81.0713 15.9776C78.6413 15.9776 77.0933 17.8316 77.0933 20.3156C77.0933 22.7816 78.6413 24.6536 81.0713 24.6536ZM101.711 26.3096H99.605V17.3996L95.915 26.3096H95.015L91.343 17.3996V26.3096H89.237V14.3036H92.207L95.465 22.2056L98.741 14.3036H101.711V26.3096ZM116.74 26.3096H114.634V17.3996L110.944 26.3096H110.044L106.372 17.3996V26.3096H104.266V14.3036H107.236L110.494 22.2056L113.77 14.3036H116.74V26.3096ZM127.522 26.3096H119.296V14.3036H127.522V16.1576H121.402V19.2716H127.396V21.1256H121.402V24.4556H127.522V26.3096ZM140.088 26.3096H138.054L131.79 17.7416V26.3096H129.684V14.3036H131.844L137.982 22.6376V14.3036H140.088V26.3096ZM147.103 26.3096H142.639V14.3036H147.103C150.847 14.3036 153.385 16.7876 153.385 20.3156C153.385 23.8436 150.847 26.3096 147.103 26.3096ZM147.103 24.4556C149.713 24.4556 151.225 22.5836 151.225 20.3156C151.225 17.9936 149.785 16.1576 147.103 16.1576H144.745V24.4556H147.103ZM163.645 26.3096H155.419V14.3036H163.645V16.1576H157.525V19.2716H163.519V21.1256H157.525V24.4556H163.645V26.3096ZM170.271 26.3096H165.807V14.3036H170.271C174.015 14.3036 176.553 16.7876 176.553 20.3156C176.553 23.8436 174.015 26.3096 170.271 26.3096ZM170.271 24.4556C172.881 24.4556 174.393 22.5836 174.393 20.3156C174.393 17.9936 172.953 16.1576 170.271 16.1576H167.913V24.4556H170.271ZM185.316 26.3096H183.21V14.3036H191.436V16.1576H185.316V19.2716H191.31V21.1256H185.316V26.3096ZM198.915 26.5256C195.315 26.5256 192.777 23.8976 192.777 20.3156C192.777 16.7336 195.315 14.1056 198.915 14.1056C202.515 14.1056 205.053 16.7336 205.053 20.3156C205.053 23.8976 202.515 26.5256 198.915 26.5256ZM198.915 24.6536C201.327 24.6536 202.893 22.7816 202.893 20.3156C202.893 17.8316 201.327 15.9776 198.915 15.9776C196.485 15.9776 194.937 17.8316 194.937 20.3156C194.937 22.7816 196.485 24.6536 198.915 24.6536ZM216.369 26.3096H213.939L211.275 21.8276H209.187V26.3096H207.081V14.3036H212.355C214.731 14.3036 216.279 15.8516 216.279 18.0656C216.279 20.2076 214.875 21.3596 213.435 21.5936L216.369 26.3096ZM212.067 19.9736C213.255 19.9736 214.119 19.2176 214.119 18.0656C214.119 16.9136 213.255 16.1576 212.067 16.1576H209.187V19.9736H212.067ZM228.515 26.3096H226.409V21.3236L221.747 14.3036H224.159L227.471 19.4516L230.747 14.3036H233.159L228.515 21.3236V26.3096ZM239.345 26.5256C235.745 26.5256 233.207 23.8976 233.207 20.3156C233.207 16.7336 235.745 14.1056 239.345 14.1056C242.945 14.1056 245.483 16.7336 245.483 20.3156C245.483 23.8976 242.945 26.5256 239.345 26.5256ZM239.345 24.6536C241.757 24.6536 243.323 22.7816 243.323 20.3156C243.323 17.8316 241.757 15.9776 239.345 15.9776C236.915 15.9776 235.367 17.8316 235.367 20.3156C235.367 22.7816 236.915 24.6536 239.345 24.6536ZM252.712 26.5256C249.22 26.5256 247.51 24.5276 247.51 21.5756V14.3036H249.634V21.5036C249.634 23.4116 250.696 24.6536 252.712 24.6536C254.71 24.6536 255.772 23.4116 255.772 21.5036V14.3036H257.896V21.5576C257.896 24.5456 256.186 26.5256 252.712 26.5256Z" fill="white"/>
<path d="M29.2366 20.3499V0.232422L0 20.3499H29.2366Z" fill="#C66100"/>
</svg>
