<svg width="135" height="66" viewBox="0 0 135 66" fill="none" xmlns="http://www.w3.org/2000/svg">
<path d="M123.958 3.06831C122.249 1.81889 118.526 3.75569 116.878 4.88027C120.852 0.142112 124.062 0.321144 125.171 1.00293C128.426 2.69944 127.193 8.22157 126.361 9.48221C126.272 7.86483 125.668 4.31773 123.958 3.06831Z" fill="#60AAF6"/>
<path d="M3.55938 27.7336C4.64072 25.9133 8.82503 26.2323 10.782 26.6194C5.26695 23.8225 2.38455 25.2482 1.63273 26.3106C-0.694093 29.1491 2.60827 33.7434 3.86891 34.5758C3.31518 33.0536 2.47804 29.554 3.55938 27.7336Z" fill="#60AAF6"/>
<path d="M66.9602 42.2349C39.7345 44.1707 17.9854 37.0508 9.29702 30.4086C7.48144 30.4166 7.2331 32.1635 8.05241 33.2073C30.8838 54.5588 58.9387 54.8399 70.1122 52.3116C98.8886 47.2964 116.195 22.0457 121.252 10.0473C121.574 9.25443 122.016 7.56489 121.204 7.14948C120.392 6.73408 119.634 7.47065 119.357 7.89087C102.379 34.3342 80.2202 40.4305 66.9602 42.2349Z" fill="#60AAF6"/>
</svg>
