<svg width="683" height="701" viewBox="0 0 683 701" fill="none" xmlns="http://www.w3.org/2000/svg">
<path d="M110.727 107.419C110.727 107.419 -43.7629 301.939 27.5742 518.465C98.9114 734.992 385.737 720.517 576.856 580.056C767.974 439.594 611.859 283.919 555.144 244.927C498.429 205.934 581.139 122.928 512.165 60.3033C443.191 -2.61646 281.907 -53.2772 110.727 107.419Z" fill="#60AAF6"/>
<path opacity="0.7" d="M110.727 107.419C110.727 107.419 -43.7629 301.939 27.5742 518.465C98.9114 734.992 385.737 720.517 576.856 580.056C767.974 439.594 611.859 283.919 555.144 244.927C498.429 205.934 581.139 122.928 512.165 60.3033C443.191 -2.61646 281.907 -53.2772 110.727 107.419Z" fill="white"/>
<path d="M644.067 291.748C644.067 291.748 631.956 272.399 614.971 273.137C597.986 273.876 598.429 294.554 592.817 293.52C587.352 292.486 579.672 284.215 572.139 288.055C564.459 291.895 560.324 298.837 558.699 299.871C556.927 300.905 547.622 294.997 542.748 298.542C538.021 302.087 532.852 303.564 532.852 303.564C532.852 303.564 527.83 302.087 526.058 302.087C524.286 302.087 511.141 308.29 511.141 308.29H680.991C680.991 308.29 673.016 295.145 667.551 292.043C662.086 288.941 654.111 293.372 649.975 294.406C645.692 295.292 644.067 291.748 644.067 291.748Z" stroke="#263238" stroke-width="1.16641" stroke-miterlimit="10"/>
<path d="M140.724 101.216C140.724 101.216 128.613 81.8673 111.627 82.6058C94.6423 83.3443 95.0854 104.022 89.473 102.988C84.0082 101.954 76.328 93.6832 68.7955 97.5234C61.1153 101.364 56.9798 108.305 55.3551 109.339C53.5827 110.373 44.2779 104.465 39.4039 108.01C34.6776 111.555 29.5082 113.032 29.5082 113.032C29.5082 113.032 24.4866 111.555 22.7142 111.555C20.9419 111.555 7.79688 117.758 7.79688 117.758H177.648C177.648 117.758 169.672 104.613 164.207 101.511C158.743 98.4096 150.767 102.841 146.631 103.874C142.496 104.613 140.724 101.216 140.724 101.216Z" stroke="#263238" stroke-width="1.16641" stroke-miterlimit="10"/>
<path d="M296.664 402.226C296.664 402.226 297.698 401.931 299.47 401.635" stroke="#263238" stroke-width="1.16641" stroke-linecap="round" stroke-linejoin="round"/>
<path d="M305.396 400.454C338.48 394.251 455.603 379.038 463.135 468.543C470.52 555.538 295.353 601.325 149.577 570.751C15.9119 542.54 -88.5092 397.352 116.197 296.031C320.904 194.71 513.5 268.411 606.253 184.666C692.95 106.533 624.715 61.1899 595.619 48.7832" stroke="#263238" stroke-width="1.16641" stroke-linecap="round" stroke-linejoin="round" stroke-dasharray="4.66 4.66"/>
<path d="M592.955 47.7485C591.921 47.3056 591.035 47.0103 590.148 46.715" stroke="#263238" stroke-width="1.16641" stroke-linecap="round" stroke-linejoin="round"/>
<path d="M553.352 146.116H116.172V380.515H553.352V146.116Z" fill="#60AAF6" stroke="#263238" stroke-width="1.16641" stroke-miterlimit="10" stroke-linecap="round" stroke-linejoin="round"/>
<path d="M334.762 274.024L116.172 146.116V380.515H553.352V146.116L334.762 274.024Z" fill="#60AAF6" stroke="#263238" stroke-width="1.16641" stroke-miterlimit="10" stroke-linecap="round" stroke-linejoin="round"/>
<path d="M116.172 146.116L322.946 8.90404C330.183 4.17768 339.488 4.17768 346.725 8.90404L553.352 145.969H116.172V146.116Z" fill="#60AAF6" stroke="#263238" stroke-width="1.16641" stroke-miterlimit="10" stroke-linecap="round" stroke-linejoin="round"/>
<path d="M116.172 380.515L323.242 256.891C330.331 252.755 339.045 252.755 346.134 256.891L553.204 380.515H116.172Z" fill="#60AAF6" stroke="#263238" stroke-width="1.16641" stroke-miterlimit="10" stroke-linecap="round" stroke-linejoin="round"/>
<path d="M231.53 69.6082L134.789 133.709L155.614 303.12L541.691 255.413L525.888 127.802L405.663 48.0441L231.53 69.6082Z" fill="#263238"/>
<path d="M520.114 24.1525L134 71.8486L161.27 292.615L547.384 244.919L520.114 24.1525Z" fill="white" stroke="#263238" stroke-width="1.16641" stroke-miterlimit="10" stroke-linecap="round" stroke-linejoin="round"/>
<path d="M432.224 227.794C432.224 227.794 432.667 225.283 432.667 225.135C432.667 223.215 431.633 219.523 429.565 218.784C428.088 218.341 426.611 219.227 426.316 220.704C426.02 222.181 426.907 223.806 427.793 224.988C428.827 226.169 432.224 227.794 432.224 227.794Z" fill="#B2B2B2"/>
<path d="M462.521 194.857C462.521 195.595 462.521 196.629 462.521 197.516C462.521 199.288 462.668 201.356 462.816 203.571C462.964 205.787 463.407 208.298 463.85 210.809C464.441 213.319 465.032 215.978 466.213 218.637C466.213 218.637 466.213 218.637 466.213 218.784C465.622 218.046 463.998 216.273 463.85 216.126C461.93 214.353 457.056 212.138 454.545 213.615C452.625 214.649 452.477 217.16 453.659 218.784C454.84 220.409 457.351 221.147 459.419 221.147C461.635 221.147 466.066 219.227 466.509 219.08C467.543 221.591 468.872 224.101 470.201 226.465C471.087 227.794 471.826 229.271 472.712 230.6C472.269 230.009 471.826 229.566 471.678 229.419C469.758 227.646 464.884 225.431 462.373 226.908C460.453 227.942 460.305 230.453 461.487 232.077C462.668 233.702 465.179 234.44 467.247 234.44C469.315 234.44 473.007 232.963 474.041 232.52C474.337 233.111 474.78 233.554 475.075 234.145C476.7 236.656 478.472 239.167 479.949 241.53C480.54 242.416 480.983 243.302 481.574 244.189C481.131 243.745 480.688 243.302 480.688 243.155C478.768 241.382 473.894 239.167 471.383 240.644C469.463 241.678 469.315 244.189 470.496 245.813C471.678 247.438 474.189 248.176 476.257 248.176C478.177 248.176 481.722 246.847 482.903 246.256C483.346 247.143 483.937 248.029 484.38 249.063C484.675 249.653 484.971 250.244 485.266 250.983C485.414 251.278 485.562 251.721 485.709 252.017L487.186 251.869C487.039 251.426 486.743 250.835 486.596 250.392C486.3 249.801 486.005 249.063 485.709 248.472C484.971 246.995 484.085 245.518 483.199 244.041C484.232 243.598 488.073 242.121 489.402 240.791C490.879 239.462 492.208 237.247 491.913 235.179C491.617 233.111 489.845 231.634 487.777 232.077C484.823 232.816 482.903 237.69 482.755 240.348C482.755 240.496 482.755 242.416 482.903 243.45C482.312 242.564 481.869 241.678 481.278 240.939C479.654 238.428 477.881 236.065 476.257 233.554C475.666 232.816 475.223 232.077 474.632 231.339C475.075 231.191 479.506 229.566 481.131 227.942C482.608 226.612 483.937 224.397 483.642 222.329C483.346 220.261 481.574 218.784 479.506 219.227C476.552 219.966 474.632 224.84 474.484 227.499C474.484 227.646 474.632 230.453 474.632 231.191C473.45 229.566 472.417 227.942 471.383 226.169C469.906 223.806 468.724 221.443 467.542 219.08C467.69 219.08 472.417 217.307 474.041 215.683C475.518 214.353 476.847 212.138 476.552 210.07C476.257 208.002 474.484 206.525 472.417 206.968C469.463 207.707 467.542 212.581 467.395 215.239C467.395 215.387 467.542 218.341 467.542 218.932C467.542 218.784 467.395 218.637 467.395 218.489C466.213 215.978 465.475 213.319 464.884 210.809C464.589 209.332 464.293 208.002 464.145 206.673C465.032 206.378 469.167 205.344 470.792 204.014C472.417 202.833 474.041 200.765 473.894 198.697C473.894 196.629 472.121 194.857 470.053 195.152C467.099 195.448 464.589 200.174 464.145 202.833C464.145 202.98 463.998 204.457 463.998 205.491C463.85 204.901 463.85 204.31 463.702 203.719C463.407 201.503 463.259 199.436 463.259 197.663C463.259 196.629 463.259 195.743 463.259 194.857C463.998 194.118 467.099 191.312 467.986 189.54C468.872 187.767 469.315 185.257 468.281 183.336C467.247 181.564 465.032 180.826 463.259 182.007C460.748 183.632 460.748 189.097 461.487 191.608C461.044 191.46 462.373 194.857 462.521 194.857Z" fill="#B2B2B2"/>
<path d="M488.953 251.278L498.11 250.096C497.815 249.653 497.52 249.21 497.224 248.767C497.224 248.472 497.224 248.324 497.077 248.028C496.486 246.108 494.418 244.779 492.498 245.665C490.578 246.404 489.544 248.915 488.953 251.278Z" fill="#B2B2B2"/>
<path d="M455.694 206.23C457.909 206.821 463.079 206.082 463.079 206.082C463.079 206.082 461.602 202.833 461.454 202.685C459.977 200.469 455.989 196.924 453.035 197.811C450.967 198.402 450.081 200.617 450.82 202.537C451.558 204.458 453.774 205.639 455.694 206.23Z" fill="#B2B2B2"/>
<path d="M196.941 287.021C196.645 287.169 196.35 287.316 196.055 287.464L199.747 287.021C198.861 286.726 197.827 286.726 196.941 287.021Z" fill="#B2B2B2"/>
<path d="M477.267 252.016C476.824 252.164 476.381 252.459 475.938 252.902L480.812 252.311C479.63 251.868 478.301 251.573 477.267 252.016Z" fill="#B2B2B2"/>
<path d="M495.726 242.859C497.351 243.893 501.043 244.779 502.225 244.927C502.077 245.961 502.077 246.995 501.929 248.029C501.782 248.619 501.782 249.21 501.634 249.653L503.111 249.506C503.111 249.063 503.259 248.619 503.259 248.176C503.406 246.552 503.554 244.927 503.554 243.155C504.736 243.45 508.576 244.189 510.644 243.893C512.564 243.45 514.927 242.564 515.813 240.644C516.699 238.871 515.961 236.508 514.041 235.77C511.234 234.736 506.951 237.837 505.179 239.905C505.031 240.053 504.145 241.678 503.554 242.564C503.554 241.53 503.554 240.496 503.554 239.462C503.554 236.508 503.406 233.554 503.406 230.452C503.406 229.566 503.406 228.68 503.406 227.646C503.849 227.794 508.428 228.828 510.644 228.385C512.564 227.942 514.927 227.055 515.813 225.135C516.699 223.363 515.961 221 514.041 220.261C511.234 219.227 506.951 222.329 505.179 224.397C505.031 224.544 503.554 226.908 503.259 227.498C503.259 225.431 503.259 223.511 503.259 221.443C503.406 218.784 503.554 215.978 503.997 213.467C504.145 213.467 509.019 214.649 511.234 214.206C513.154 213.762 515.518 212.876 516.404 210.956C517.29 209.184 516.551 206.821 514.631 206.082C511.825 205.048 507.542 208.15 505.769 210.218C505.622 210.365 504.145 212.876 503.849 213.319C503.849 213.172 503.849 213.024 503.849 212.876C504.292 210.07 505.179 207.559 506.065 205.196C506.508 203.867 507.099 202.537 507.69 201.208C508.576 201.503 512.711 202.98 514.631 202.685C516.551 202.537 519.062 201.799 520.244 200.026C521.278 198.254 520.982 195.891 519.062 195.005C516.404 193.675 511.677 196.186 509.905 198.106C509.757 198.254 508.871 199.436 508.28 200.174C508.576 199.583 508.871 198.993 509.019 198.549C510.053 196.482 511.087 194.709 511.973 193.232C512.564 192.346 513.007 191.608 513.45 190.869C514.484 190.721 518.619 190.131 520.392 188.949C522.016 187.915 523.936 186.143 524.084 184.075C524.232 182.007 522.755 180.087 520.687 180.087C517.733 180.087 514.779 184.518 514.041 187.029C514.041 187.177 513.302 190.721 513.45 190.721C513.007 191.46 512.416 192.198 511.973 192.937C510.939 194.414 509.905 196.186 508.871 198.254C507.837 200.174 506.656 202.39 505.769 204.9C504.883 207.264 503.997 209.922 503.406 212.729C503.406 212.729 503.406 212.729 503.406 212.876C503.259 211.99 502.963 209.627 502.963 209.479C502.372 206.968 499.566 202.39 496.612 202.242C494.544 202.094 492.92 204.014 493.067 206.082C493.215 208.15 494.84 210.07 496.464 211.252C498.237 212.581 503.111 213.319 503.406 213.467C502.963 216.126 502.668 218.932 502.52 221.738C502.372 223.363 502.372 224.988 502.372 226.612C502.225 225.874 502.225 225.135 502.077 225.135C501.486 222.624 498.68 218.046 495.726 217.898C493.658 217.75 492.034 219.67 492.181 221.738C492.329 223.806 493.954 225.726 495.578 226.908C497.203 228.089 501.338 228.828 502.372 229.123C502.372 229.714 502.372 230.305 502.372 231.043C502.372 233.997 502.372 237.099 502.372 239.905C502.372 240.939 502.225 241.973 502.225 243.007C502.077 242.416 502.077 241.825 502.077 241.678C501.486 239.167 498.68 234.588 495.726 234.44C493.658 234.293 492.034 236.213 492.181 238.281C492.329 239.905 494.101 241.825 495.726 242.859Z" fill="#B2B2B2"/>
<path d="M508.148 200.913C508.148 200.913 508.591 197.368 508.739 197.073C508.739 194.414 507.262 189.244 504.455 188.358C502.388 187.619 500.468 189.097 500.024 191.017C499.581 193.085 500.763 195.3 502.092 196.925C503.422 198.698 508.148 200.913 508.148 200.913Z" fill="#B2B2B2"/>
<path d="M399.3 223.363C399.3 223.953 399.3 224.544 399.3 225.283C399.3 226.612 399.448 228.089 399.596 229.714C399.743 231.338 400.039 233.111 400.334 234.883C400.777 236.655 401.22 238.576 401.959 240.496C401.516 240.053 400.334 238.723 400.334 238.576C398.857 237.246 395.46 235.622 393.54 236.655C392.211 237.394 392.063 239.166 392.802 240.348C393.688 241.53 395.46 241.973 396.937 241.973C398.562 241.973 401.811 240.643 401.959 240.496C402.697 242.268 403.584 244.04 404.617 245.813C405.208 246.847 405.799 247.881 406.538 248.767C406.242 248.324 405.799 248.028 405.799 247.881C404.322 246.551 400.925 244.927 399.005 245.961C397.676 246.699 397.528 248.471 398.266 249.653C399.153 250.835 400.925 251.278 402.402 251.278C403.879 251.278 406.538 250.244 407.276 249.948C407.571 250.391 407.719 250.687 408.014 251.13C409.196 252.902 410.378 254.675 411.559 256.447C412.002 257.038 412.298 257.776 412.741 258.367C412.445 258.072 412.15 257.776 412.15 257.629C410.673 256.299 407.276 254.675 405.356 255.709C404.027 256.447 403.879 258.22 404.617 259.401C405.208 260.14 406.094 260.583 406.981 260.878L412.298 260.287C412.741 260.14 413.184 259.992 413.479 259.844C413.479 259.992 413.627 259.992 413.627 260.14L414.661 259.992C414.366 259.401 413.922 258.81 413.627 258.22C414.366 257.924 417.172 256.89 418.206 255.856C419.24 254.822 420.273 253.345 419.978 251.868C419.83 250.392 418.501 249.21 416.876 249.653C414.809 250.096 413.332 253.789 413.184 255.709C413.184 255.856 413.184 257.186 413.184 257.924C412.741 257.333 412.445 256.743 412.002 256.004C410.821 254.232 409.639 252.459 408.31 250.687C407.867 250.096 407.571 249.653 407.128 249.062C407.424 248.915 410.673 247.733 411.855 246.699C412.889 245.665 413.922 244.188 413.627 242.711C413.479 241.234 412.15 240.053 410.525 240.496C408.458 240.939 406.981 244.631 406.833 246.551C406.833 246.699 406.833 248.619 406.981 249.21C406.094 248.028 405.356 246.847 404.617 245.665C403.584 244.04 402.697 242.268 401.811 240.496C401.959 240.496 405.356 239.166 406.538 238.132C407.571 237.099 408.605 235.622 408.31 234.145C408.162 232.668 406.833 231.486 405.208 231.929C403.14 232.372 401.663 236.065 401.516 237.985C401.516 238.132 401.516 240.2 401.663 240.643C401.663 240.496 401.516 240.496 401.516 240.348C400.777 238.576 400.186 236.655 399.743 234.883C399.448 233.849 399.3 232.815 399.153 231.781C399.743 231.634 402.845 230.895 404.027 229.861C405.208 228.975 406.39 227.498 406.242 226.021C406.242 224.544 405.061 223.215 403.436 223.51C401.368 223.806 399.448 227.203 399.153 229.123C399.153 229.271 399.005 230.304 399.005 231.043C399.005 230.6 398.857 230.157 398.857 229.714C398.709 228.089 398.562 226.612 398.562 225.283C399.448 224.544 399.3 223.806 399.3 223.363C400.039 222.772 402.254 220.704 402.845 219.375C403.436 218.045 403.879 216.273 403.14 214.944C402.402 213.614 400.777 213.024 399.448 213.91C397.676 215.091 397.676 218.932 398.266 220.852C398.119 220.852 399.153 223.363 399.3 223.363Z" fill="#B2B2B2"/>
<path d="M208.477 285.987L217.191 284.953C217.043 284.658 216.748 284.215 216.452 283.919C216.452 283.624 216.452 283.476 216.305 283.181C215.714 281.261 213.794 280.079 211.726 280.818C210.101 281.408 209.067 283.772 208.477 285.987Z" fill="#B2B2B2"/>
<path d="M182.478 231.043C182.478 231.782 182.478 232.668 182.478 233.702C182.478 235.474 182.626 237.542 182.773 239.757C182.921 241.973 183.216 244.336 183.807 246.847C184.398 249.358 184.989 251.869 186.023 254.527C186.023 254.527 186.023 254.527 186.023 254.675C185.432 254.084 183.955 252.164 183.807 252.164C181.887 250.392 177.161 248.176 174.65 249.653C172.877 250.687 172.582 253.05 173.764 254.675C174.945 256.3 177.456 256.89 179.376 257.038C181.592 257.038 185.875 255.266 186.318 255.118C187.352 257.481 188.533 259.992 190.01 262.355C190.749 263.685 191.635 265.014 192.521 266.343C192.078 265.752 191.635 265.309 191.487 265.309C189.567 263.537 184.841 261.321 182.33 262.798C180.558 263.832 180.262 266.196 181.444 267.82C182.626 269.445 185.136 270.036 187.056 270.183C188.977 270.183 192.817 268.706 193.703 268.263C193.998 268.706 194.441 269.297 194.737 269.74C196.361 272.251 197.986 274.614 199.463 276.978C200.054 277.864 200.497 278.75 200.94 279.488C200.497 279.045 200.202 278.602 200.054 278.602C198.134 276.83 193.408 274.614 190.897 276.091C189.124 277.125 188.829 279.488 190.01 281.113C191.192 282.738 193.703 283.329 195.623 283.476C197.543 283.476 200.94 282.147 202.122 281.704C202.565 282.59 203.156 283.476 203.599 284.363C203.894 284.953 204.19 285.544 204.485 286.135C204.633 286.43 204.633 286.578 204.78 286.873L206.257 286.726C206.11 286.283 205.962 285.987 205.814 285.544C205.519 284.953 205.223 284.363 204.928 283.624C204.19 282.147 203.303 280.818 202.565 279.341C203.599 278.898 207.291 277.568 208.62 276.091C209.95 274.762 211.427 272.694 211.131 270.626C210.836 268.706 209.064 267.082 206.996 267.525C204.19 268.116 202.269 272.99 201.974 275.648C201.974 275.796 201.974 277.716 202.122 278.75C201.531 277.864 201.088 277.125 200.497 276.239C198.872 273.876 197.248 271.365 195.475 269.002C195.032 268.263 194.441 267.525 193.998 266.786C194.441 266.639 198.725 265.014 200.349 263.537C201.679 262.208 203.156 260.14 202.86 258.072C202.565 256.152 200.792 254.527 198.725 254.97C195.918 255.561 193.998 260.435 193.703 263.094C193.703 263.242 193.703 266.048 193.851 266.639C192.669 265.014 191.635 263.389 190.601 261.765C189.124 259.549 187.943 257.186 186.909 254.823C187.057 254.823 191.635 253.05 193.26 251.573C194.589 250.244 196.066 248.176 195.771 246.108C195.475 244.188 193.703 242.564 191.635 243.007C188.829 243.598 186.909 248.472 186.613 251.13C186.613 251.278 186.761 254.232 186.761 254.675C186.761 254.527 186.613 254.38 186.613 254.232C185.58 251.721 184.841 249.21 184.25 246.699C183.955 245.222 183.659 243.893 183.512 242.564C184.398 242.268 188.533 241.234 190.01 240.053C191.487 238.871 193.112 236.951 193.112 234.883C193.112 232.815 191.487 231.191 189.42 231.486C186.613 231.782 184.103 236.508 183.659 239.019C183.659 239.167 183.512 240.644 183.512 241.677C183.364 241.087 183.364 240.496 183.216 239.905C182.921 237.69 182.773 235.769 182.773 233.997C182.773 232.963 182.773 232.077 182.773 231.191C183.512 230.452 186.613 227.794 187.352 226.021C188.09 224.249 188.681 221.738 187.647 219.966C186.761 218.193 184.398 217.455 182.773 218.636C180.41 220.261 180.41 225.431 181.149 227.941C181.149 227.794 182.478 231.043 182.478 231.043Z" fill="#B2B2B2"/>
<path d="M175.976 242.269C178.191 242.859 183.213 242.121 183.213 242.121C183.213 242.121 181.736 239.019 181.588 238.724C180.259 236.508 176.271 233.111 173.465 233.849C171.397 234.44 170.511 236.508 171.249 238.428C171.84 240.496 174.056 241.678 175.976 242.269Z" fill="#B2B2B2"/>
<path d="M215.111 278.012C216.588 279.045 220.28 279.784 221.609 280.079C221.462 281.113 221.462 282.147 221.314 283.033C221.314 283.476 221.166 283.92 221.166 284.363L222.643 284.215C222.643 283.92 222.643 283.624 222.791 283.329C222.939 281.704 223.086 280.079 223.086 278.455C224.12 278.75 228.108 279.489 229.881 279.193C231.801 278.75 234.164 277.864 235.05 275.944C235.936 274.171 235.198 271.808 233.278 271.217C230.619 270.184 226.336 273.285 224.711 275.205C224.563 275.353 223.677 276.978 223.086 277.864C223.086 276.83 223.086 275.944 223.086 274.91C223.086 271.956 222.939 269.15 222.939 266.196C222.939 265.309 222.939 264.423 222.939 263.537C223.382 263.685 227.961 264.719 230.028 264.276C231.948 263.832 234.312 262.946 235.198 261.026C236.084 259.254 235.345 256.891 233.425 256.3C230.767 255.266 226.484 258.368 224.859 260.288C224.711 260.435 223.382 262.799 222.939 263.389C222.939 261.469 222.939 259.401 222.939 257.481C223.086 254.823 223.234 252.164 223.677 249.653C223.825 249.653 228.699 250.835 230.767 250.392C232.687 249.949 235.05 249.063 235.936 247.142C236.822 245.37 236.084 243.007 234.164 242.416C231.505 241.382 227.222 244.484 225.597 246.404C225.45 246.552 223.973 249.062 223.677 249.506C223.677 249.358 223.677 249.21 223.677 249.063C224.12 246.404 225.007 243.893 225.745 241.53C226.188 240.201 226.779 238.871 227.37 237.69C228.256 237.985 232.244 239.314 234.164 239.167C236.084 239.019 238.447 238.28 239.629 236.508C240.663 234.883 240.219 232.52 238.447 231.486C235.789 230.157 231.21 232.668 229.437 234.588C229.29 234.736 228.404 235.77 227.813 236.656C228.108 236.065 228.404 235.474 228.551 235.031C229.585 233.111 230.619 231.339 231.505 229.862C232.096 228.975 232.539 228.237 232.982 227.498C234.016 227.351 238.004 226.76 239.776 225.726C241.401 224.692 243.173 222.92 243.321 220.852C243.469 218.784 241.992 217.012 239.924 217.012C236.97 217.012 234.164 221.443 233.425 223.806C233.425 223.954 232.687 227.498 232.835 227.498C232.391 228.237 231.948 228.975 231.358 229.714C230.471 231.191 229.29 232.963 228.256 234.883C227.222 236.803 226.188 239.019 225.302 241.382C224.416 243.745 223.53 246.256 222.939 249.063C222.939 249.063 222.939 249.063 222.939 249.21C222.791 248.324 222.496 245.961 222.496 245.813C221.905 243.302 219.099 238.871 216.292 238.724C214.225 238.576 212.748 240.348 212.748 242.416C212.895 244.484 214.52 246.256 216.145 247.438C217.917 248.619 222.643 249.506 222.939 249.653C222.496 252.312 222.2 254.97 222.053 257.777C221.905 259.401 221.905 260.878 221.905 262.503C221.757 261.765 221.757 261.174 221.757 261.026C221.166 258.515 218.36 254.084 215.554 253.937C213.486 253.789 212.009 255.561 212.009 257.629C212.157 259.697 213.781 261.469 215.406 262.651C217.031 263.832 221.019 264.571 222.053 264.719C222.053 265.309 222.053 265.9 222.053 266.491C222.053 269.445 222.053 272.399 222.053 275.205C222.053 276.239 221.905 277.273 221.905 278.159C221.757 277.568 221.757 276.978 221.757 276.83C221.166 274.319 218.36 269.888 215.554 269.74C213.486 269.593 212.009 271.365 212.009 273.433C211.714 275.058 213.486 276.978 215.111 278.012Z" fill="#B2B2B2"/>
<path d="M394.413 231.634C396.037 232.077 399.73 231.634 399.73 231.634C399.73 231.634 398.696 229.271 398.548 229.123C397.514 227.498 394.56 224.987 392.493 225.578C391.016 226.021 390.277 227.646 390.868 228.976C391.311 230.305 392.936 231.191 394.413 231.634Z" fill="#B2B2B2"/>
<path d="M227.242 236.952C227.242 236.952 227.685 233.407 227.685 233.259C227.685 230.6 226.208 225.578 223.55 224.692C221.63 223.953 219.562 225.431 219.119 227.351C218.676 229.419 219.857 231.634 221.039 233.111C222.516 234.884 227.242 236.952 227.242 236.952Z" fill="#B2B2B2"/>
<path d="M423.229 258.072C423.82 258.515 425.001 258.958 426.035 259.106L428.989 258.81C428.989 258.663 428.989 258.515 428.989 258.367C429.284 258.367 429.728 258.515 430.318 258.663L436.522 257.924C437.113 257.629 437.556 257.186 437.703 256.595C438.294 255.266 437.851 253.641 436.374 253.05C434.306 252.312 431.205 254.527 430.023 256.004C430.023 256.152 429.285 257.333 428.841 257.924C428.841 257.186 428.841 256.447 428.841 255.709C428.841 253.641 428.841 251.425 428.694 249.21C428.694 248.619 428.694 247.881 428.694 247.29C428.989 247.29 432.386 248.176 433.863 247.881C435.192 247.585 436.965 246.847 437.703 245.517C438.294 244.188 437.851 242.563 436.374 241.973C434.306 241.234 431.205 243.45 430.023 244.927C429.875 245.074 428.841 246.699 428.694 247.142C428.694 245.665 428.694 244.188 428.694 242.859C428.694 240.939 428.989 239.019 429.285 237.099C429.432 237.099 432.977 237.985 434.602 237.689C435.931 237.394 437.703 236.656 438.442 235.326C439.033 233.997 438.589 232.372 437.113 231.781C435.045 231.043 431.943 233.258 430.761 234.735C430.614 234.883 429.58 236.656 429.432 236.951C429.432 236.803 429.432 236.656 429.432 236.656C429.728 234.735 430.318 232.815 431.057 231.043C431.352 230.009 431.795 229.123 432.238 228.237C432.829 228.532 435.783 229.418 437.26 229.271C438.737 229.123 440.51 228.68 441.248 227.35C441.987 226.169 441.691 224.396 440.362 223.658C438.442 222.772 435.045 224.544 433.715 225.873C433.715 226.021 432.977 226.76 432.534 227.35C432.682 226.907 432.977 226.464 433.125 226.169C433.863 224.692 434.602 223.51 435.34 222.329C435.783 221.738 436.079 221.147 436.374 220.556C437.113 220.409 440.067 219.965 441.396 219.227C442.577 218.489 443.907 217.159 444.054 215.682C444.202 214.205 443.168 212.876 441.543 212.876C439.476 212.876 437.26 216.125 436.669 217.898C436.669 218.045 436.079 220.556 436.226 220.556C435.931 220.999 435.488 221.59 435.192 222.181C434.454 223.363 433.715 224.544 432.977 226.021C432.238 227.498 431.5 228.975 430.761 230.748C430.023 232.52 429.432 234.292 428.989 236.36C428.989 235.769 428.694 233.997 428.694 233.849C428.251 231.929 426.183 228.68 424.115 228.532C422.638 228.384 421.457 229.714 421.457 231.191C421.457 232.668 422.786 233.997 423.967 234.883C425.297 235.769 428.694 236.36 428.989 236.508C428.694 238.428 428.398 240.348 428.251 242.416C428.251 243.597 428.103 244.779 428.103 245.961C427.955 245.37 427.955 244.927 427.955 244.927C427.512 243.007 425.444 239.757 423.377 239.61C421.9 239.462 420.718 240.791 420.718 242.268C420.718 243.745 422.047 245.074 423.229 245.961C424.41 246.847 427.364 247.438 428.103 247.585C428.103 248.028 428.103 248.471 428.103 248.915C428.103 251.13 428.103 253.198 428.103 255.413C428.103 256.152 428.103 256.89 427.955 257.629C427.955 257.186 427.808 256.743 427.808 256.743C427.364 254.823 425.297 251.573 423.229 251.425C421.752 251.278 420.57 252.607 420.57 254.084C420.866 255.856 422.047 257.186 423.229 258.072Z" fill="#B2B2B2"/>
<path d="M349.542 213.024C359.438 189.54 332.114 192.937 347.474 213.319C332.114 192.937 321.332 218.341 346.736 215.239C321.479 218.341 338.022 240.348 347.917 216.864C338.022 240.348 365.346 236.951 349.985 216.569C365.346 236.951 376.128 211.547 350.724 214.649C375.98 211.547 359.438 189.54 349.542 213.024Z" fill="#60AAF6"/>
<path d="M355.305 214.206C354.862 210.513 351.465 207.854 347.772 208.445C344.08 208.888 341.421 212.286 342.012 215.978C342.455 219.671 345.852 222.33 349.545 221.739C353.089 221.148 355.748 217.898 355.305 214.206Z" fill="white"/>
<path d="M466.829 59.7125C475.247 39.9208 452.206 42.7271 465.056 59.8602C452.059 42.7271 443.049 64.1435 464.318 61.4849C443.049 64.1435 456.933 82.6059 465.352 62.8142C456.933 82.6059 479.974 79.7996 467.124 62.6665C480.121 79.7996 489.131 58.3832 467.862 61.0418C489.131 58.5309 475.247 40.0685 466.829 59.7125Z" fill="#60AAF6"/>
<path d="M471.703 60.7467C471.26 57.6448 468.454 55.4292 465.352 55.8723C462.251 56.3154 460.035 59.1219 460.478 62.2238C460.921 65.3257 463.728 67.5413 466.829 67.0982C469.931 66.655 472.147 63.8486 471.703 60.7467Z" fill="white"/>
<path d="M280.735 243.745C299.788 237.69 283.836 223.215 279.553 242.711C283.836 223.215 263.306 229.714 278.076 243.155C263.306 229.714 258.728 250.835 277.781 244.779C258.728 250.835 274.679 265.309 278.962 245.813C274.679 265.309 295.209 258.811 280.439 245.37C295.209 258.811 299.788 237.69 280.735 243.745Z" fill="#60AAF6"/>
<path d="M283.095 247.734C285.015 245.666 284.868 242.269 282.8 240.348C280.732 238.428 277.335 238.576 275.415 240.644C273.495 242.712 273.642 246.109 275.71 248.029C277.778 250.097 281.175 249.95 283.095 247.734Z" fill="white"/>
<path d="M317.618 93.24C336.671 87.1844 320.719 72.7098 316.436 92.2061C320.719 72.7098 300.189 79.2086 314.959 92.6492C300.189 79.2086 295.611 100.33 314.664 94.2739C295.611 100.33 311.562 114.804 315.845 95.3078C311.562 114.804 332.092 108.305 317.322 94.8647C331.944 108.158 336.523 87.1844 317.618 93.24Z" fill="#60AAF6"/>
<path d="M319.845 97.2285C321.765 95.1606 321.618 91.7633 319.55 89.8431C317.482 87.9229 314.085 88.0706 312.165 90.1385C310.245 92.2064 310.392 95.6037 312.46 97.5239C314.676 99.5919 317.925 99.4441 319.845 97.2285Z" fill="white"/>
<path d="M180.887 181.564C194.032 188.949 193.884 172.702 180.887 180.382C193.884 172.702 179.705 164.726 179.853 179.792C179.705 164.726 165.674 172.998 178.819 180.382C165.674 172.998 165.822 189.244 178.819 181.564C165.822 189.244 180.001 197.22 179.853 182.155C180.001 197.368 194.032 188.949 180.887 181.564Z" fill="#60AAF6"/>
<path d="M179.855 184.962C182.071 184.962 183.843 183.189 183.843 180.974C183.843 178.758 182.071 176.986 179.855 176.986C177.64 176.986 175.867 178.758 175.867 180.974C175.867 183.189 177.64 184.962 179.855 184.962Z" fill="white"/>
<path d="M412.462 65.621C421.619 70.7908 421.471 59.4172 412.462 64.7347C421.471 59.4172 411.575 53.8043 411.723 64.2916C411.575 53.8043 401.827 59.5649 410.985 64.7347C401.827 59.5649 401.975 70.9385 410.985 65.621C401.975 70.9385 411.871 76.5514 411.723 66.0641C411.723 76.5514 421.471 70.6431 412.462 65.621Z" fill="#60AAF6"/>
<path d="M411.724 67.8363C413.201 67.8363 414.53 66.5069 414.382 65.0298C414.382 63.5528 413.053 62.2234 411.576 62.3711C410.099 62.3711 408.77 63.7005 408.917 65.1775C408.917 66.6546 410.247 67.984 411.724 67.8363Z" fill="white"/>
<path d="M495.462 153.502C504.619 158.672 504.471 147.298 495.462 152.615C504.471 147.298 494.575 141.685 494.723 152.172C494.575 141.685 484.827 147.446 493.985 152.615C484.827 147.446 484.975 158.819 493.985 153.502C484.975 158.819 494.871 164.432 494.723 153.945C494.871 164.432 504.619 158.672 495.462 153.502Z" fill="#60AAF6"/>
<path d="M494.724 155.865C496.201 155.865 497.53 154.536 497.382 153.058C497.382 151.581 496.053 150.252 494.576 150.4C493.099 150.4 491.77 151.729 491.917 153.206C491.917 154.683 493.247 155.865 494.724 155.865Z" fill="white"/>
<path d="M265.493 81.72C274.65 86.8898 274.502 75.5162 265.493 80.8337C274.502 75.5162 264.607 69.9033 264.754 80.3906C264.607 69.9033 254.859 75.6639 264.016 80.8337C254.859 75.6639 255.006 87.0375 264.016 81.72C255.006 87.0375 264.902 92.6504 264.754 82.1631C264.902 92.5027 274.65 86.7421 265.493 81.72Z" fill="#60AAF6"/>
<path d="M264.755 83.9353C266.232 83.9353 267.561 82.6059 267.414 81.1288C267.414 79.6517 266.084 78.3223 264.607 78.4701C263.13 78.4701 261.801 79.7994 261.949 81.2765C261.949 82.7536 263.278 84.083 264.755 83.9353Z" fill="white"/>
<path d="M210.403 128.54C223.548 135.925 223.4 119.678 210.403 127.359C223.4 119.678 209.221 111.703 209.369 126.768C209.221 111.703 195.19 119.974 208.335 127.359C195.19 119.974 195.337 136.221 208.335 128.54C195.337 136.221 209.516 144.196 209.369 129.131C209.516 144.196 223.548 135.925 210.403 128.54Z" fill="#60AAF6"/>
<path d="M209.371 131.79C211.586 131.79 213.359 130.018 213.359 127.802C213.359 125.586 211.586 123.814 209.371 123.814C207.155 123.814 205.383 125.586 205.383 127.802C205.383 130.018 207.155 131.938 209.371 131.79Z" fill="white"/>
<path d="M171.119 91.3201C182.196 97.5235 182.049 83.7874 171.119 90.2862C182.049 83.7874 170.085 76.9933 170.233 89.8431C170.085 76.9933 158.269 84.0828 169.346 90.4339C158.269 84.2305 158.417 97.9666 169.346 91.4678C158.417 97.9666 170.38 104.761 170.233 91.9109C170.38 104.613 182.196 97.5235 171.119 91.3201Z" fill="#60AAF6"/>
<path d="M170.217 94.1267C172.137 94.1267 173.614 92.6497 173.614 90.7295C173.614 88.8092 172.137 87.3322 170.217 87.3322C168.297 87.3322 166.82 88.8092 166.82 90.7295C166.82 92.6497 168.445 94.1267 170.217 94.1267Z" fill="white"/>
<path d="M507.457 104.465C520.602 111.85 520.455 95.6034 507.457 103.284C520.455 95.6034 506.276 87.6276 506.423 102.693C506.276 87.6276 492.244 95.8988 505.389 103.284C492.244 95.8988 492.392 112.146 505.389 104.465C492.392 112.146 506.571 120.121 506.423 105.056C506.571 120.269 520.602 111.85 507.457 104.465Z" fill="#60AAF6"/>
<path d="M506.425 107.863C508.641 107.863 510.413 106.091 510.413 103.875C510.413 101.659 508.641 99.8869 506.425 99.8869C504.21 99.8869 502.438 101.659 502.438 103.875C502.438 106.091 504.21 107.863 506.425 107.863Z" fill="white"/>
<path d="M248.062 184.371L243.484 146.855L235.803 147.741L235.508 144.787L254.266 142.424L254.561 145.378L247.176 146.264L251.755 183.78L248.062 184.371Z" fill="#263238"/>
<path d="M263.709 182.45L258.688 141.981L262.528 141.538L264.743 159.409L277.445 157.785L275.23 139.913L279.07 139.47L284.092 179.792L280.251 180.235L277.888 160.591L265.186 162.216L267.549 181.86L263.709 182.45Z" fill="#263238"/>
<path d="M288.969 179.349L292.514 137.845L296.501 137.402L310.09 176.69L306.397 177.133L303 166.499L293.4 167.68L292.661 178.758L288.969 179.349ZM293.547 165.022L302.114 163.988L295.024 142.719L293.547 165.022Z" fill="#263238"/>
<path d="M314.834 176.099L309.812 135.778L312.619 135.482L329.309 165.317L325.469 134.005L328.718 133.562L333.74 173.884L331.081 174.179L314.243 144.049L318.231 175.804L314.834 176.099Z" fill="#263238"/>
<path d="M340.811 172.85L335.789 132.528L339.629 132.085L342.288 153.501L350.411 130.756L354.104 130.313L347.9 148.627L360.898 170.487L357.205 170.93L345.833 151.877L343.026 158.966L344.651 172.555L340.811 172.85Z" fill="#263238"/>
<path d="M380.992 167.976L379.368 154.535L366.961 128.688L370.653 128.245L380.697 149.809L384.832 126.473L388.525 126.029L382.912 154.092L384.537 167.533L380.992 167.976Z" fill="#263238"/>
<path d="M407.581 165.17C404.922 165.465 402.707 165.17 401.082 164.431C399.458 163.545 398.128 162.216 397.39 160.443C396.504 158.671 395.913 156.455 395.617 154.092L393.55 137.402C393.254 134.891 393.254 132.823 393.697 130.903C394.14 128.983 395.027 127.506 396.356 126.325C397.685 125.143 399.753 124.405 402.264 124.109C404.922 123.814 406.99 123.961 408.615 124.848C410.24 125.586 411.569 126.915 412.307 128.688C413.194 130.46 413.784 132.528 414.08 135.039L416.147 151.877C416.443 154.24 416.443 156.455 416 158.375C415.557 160.296 414.671 161.92 413.341 163.102C412.307 163.988 410.24 164.874 407.581 165.17ZM407.138 162.068C408.91 161.772 410.24 161.329 411.126 160.443C412.012 159.557 412.455 158.523 412.75 157.194C412.898 155.865 412.898 154.388 412.75 152.615L410.387 134.448C410.24 132.823 409.796 131.346 409.353 130.017C408.91 128.836 408.024 127.949 407.138 127.359C406.104 126.768 404.775 126.62 402.855 126.768C401.082 126.915 399.753 127.506 398.867 128.245C397.981 128.983 397.537 130.165 397.242 131.346C397.094 132.676 397.094 134.153 397.242 135.777L399.458 154.092C399.605 155.717 400.048 157.194 400.491 158.523C400.935 159.705 401.821 160.739 402.855 161.329C404.036 162.216 405.366 162.363 407.138 162.068Z" fill="#263238"/>
<path d="M434.008 161.92C431.35 162.216 429.134 162.068 427.51 161.182C425.885 160.443 424.703 159.114 423.817 157.489C423.079 155.865 422.488 153.797 422.192 151.581L418.5 122.189L422.192 121.746L425.885 151.286C426.033 152.911 426.476 154.24 426.919 155.422C427.362 156.603 428.248 157.637 429.282 158.228C430.316 158.819 431.793 158.966 433.565 158.819C435.338 158.671 436.667 158.08 437.405 157.194C438.292 156.308 438.882 155.274 439.03 153.945C439.325 152.615 439.325 151.138 439.03 149.661L435.338 120.121L439.03 119.678L442.723 149.07C443.018 151.286 443.018 153.354 442.575 155.126C442.132 156.899 441.246 158.376 439.916 159.557C438.735 160.739 436.667 161.477 434.008 161.92Z" fill="#263238"/>
<path d="M367.862 429.403C367.862 429.403 369.487 463.078 367.271 465.885C361.806 472.236 344.969 463.964 344.969 463.964L367.862 429.403Z" fill="white" stroke="#263238" stroke-width="1.16641" stroke-miterlimit="10" stroke-linecap="round" stroke-linejoin="round"/>
<path d="M360.898 413.747L375.816 496.754" stroke="#263238" stroke-width="1.16641" stroke-miterlimit="10" stroke-linecap="round" stroke-linejoin="round"/>
<path d="M361.811 498.969C361.811 498.969 372.15 486.415 374.808 490.402C377.467 494.39 385.59 508.274 382.046 517.727C378.501 527.18 362.254 529.395 360.925 528.509C359.595 527.623 361.811 498.969 361.811 498.969Z" fill="#263238" stroke="#263238" stroke-width="1.16641" stroke-miterlimit="10" stroke-linecap="round" stroke-linejoin="round"/>
<path d="M318.372 335.171C318.372 335.171 312.021 334.728 308.477 339.897C305.08 345.067 309.363 346.396 310.692 347.873C312.169 349.35 309.511 350.088 310.397 352.156C311.283 354.224 314.237 352.452 314.237 352.452L322.803 345.214C322.803 345.214 340.38 331.626 338.016 330.592C335.949 329.263 328.564 327.047 318.372 335.171Z" fill="#263238" stroke="#263238" stroke-width="1.16641" stroke-miterlimit="10" stroke-linecap="round" stroke-linejoin="round"/>
<path d="M334.459 394.25L313.781 427.335L324.711 463.965" stroke="#263238" stroke-width="1.16641" stroke-miterlimit="10" stroke-linecap="round" stroke-linejoin="round"/>
<path d="M313.794 427.335C313.794 427.335 310.25 425.71 309.659 427.335C309.068 428.96 309.364 439.151 310.25 439.742C311.136 440.333 316.305 443.286 316.896 441.957C317.487 440.628 316.896 429.846 316.896 429.846L313.794 427.335Z" fill="white" stroke="#263238" stroke-width="1.16641" stroke-miterlimit="10" stroke-linecap="round" stroke-linejoin="round"/>
<path d="M314.369 422.609C314.369 422.609 311.562 424.233 311.562 425.415C311.562 426.597 315.403 433.391 317.027 432.357C318.652 431.471 320.277 431.028 319.243 428.812C318.061 426.154 319.538 428.222 314.369 422.609Z" fill="white" stroke="#263238" stroke-width="1.16641" stroke-miterlimit="10" stroke-linecap="round" stroke-linejoin="round"/>
<path d="M334.454 394.25C334.454 394.25 324.115 415.667 321.605 420.098C319.241 424.529 315.401 427.187 315.106 432.8C314.663 438.412 319.684 447.274 319.684 447.274L316.14 475.337L354.984 471.202C354.984 471.202 368.13 432.652 369.163 424.972C370.493 415.076 371.97 405.18 367.243 398.386C362.222 391.149 352.03 384.65 352.03 384.65L334.454 394.25Z" fill="#60AAF6" stroke="#263238" stroke-width="1.16641" stroke-miterlimit="10" stroke-linecap="round" stroke-linejoin="round"/>
<path d="M296.922 539.438C296.922 539.438 283.777 590.542 283.482 595.269C283.334 598.37 280.675 632.046 276.983 654.348C274.915 666.46 270.78 673.992 270.78 673.992C270.78 673.992 252.908 683.593 251.136 684.774C249.364 685.956 237.696 686.842 236.809 689.501C235.923 692.159 236.514 696.295 237.696 697.329C238.877 698.215 256.158 699.692 256.158 699.692C256.158 699.692 273.438 699.397 274.324 699.397C275.211 699.397 290.128 700.874 293.082 698.51C296.036 696.147 295.15 692.307 293.968 687.433C292.786 682.707 290.128 674.583 290.423 672.22C290.719 669.857 305.931 623.627 305.636 614.913C305.341 606.198 306.227 593.053 306.227 593.053L338.425 541.654L296.922 539.438Z" fill="white" stroke="#263238" stroke-width="1.16641" stroke-miterlimit="10" stroke-linecap="round" stroke-linejoin="round"/>
<path d="M236.653 689.648C235.767 692.307 236.358 696.443 237.539 697.476C238.721 698.363 256.002 699.84 256.002 699.84C256.002 699.84 273.282 699.544 274.169 699.544C275.055 699.544 289.972 701.021 292.926 698.658C295.88 696.295 294.994 692.455 293.813 687.581C293.074 684.331 291.597 679.752 290.711 676.355C288.791 676.798 286.28 677.537 283.326 678.719C277.123 681.082 274.907 678.719 274.907 678.719L270.476 674.288C270.476 674.288 252.605 683.888 250.832 685.07C249.208 685.956 237.539 686.842 236.653 689.648Z" fill="white" stroke="#263238" stroke-width="1.16641" stroke-miterlimit="10" stroke-linecap="round" stroke-linejoin="round"/>
<path d="M284.07 694.669C289.535 693.931 292.637 692.897 292.637 692.897" stroke="#263238" stroke-width="1.16641" stroke-miterlimit="10" stroke-linecap="round" stroke-linejoin="round"/>
<path d="M237.531 693.193C237.531 693.193 243.144 693.784 261.754 695.261C268.105 695.852 273.865 695.704 278.591 695.261" stroke="#263238" stroke-width="1.16641" stroke-miterlimit="10" stroke-linecap="round" stroke-linejoin="round"/>
<path d="M332.953 548.153C332.953 548.153 359.095 605.46 361.902 607.971C364.708 610.63 406.654 644.157 412.857 651.247C419.208 658.337 423.786 668.085 423.786 668.085C423.786 668.085 416.549 682.855 413.595 684.775C410.641 686.695 404.29 689.501 405.029 692.455C405.767 695.409 405.915 697.477 408.278 698.215C410.641 698.954 426.593 699.545 431.024 697.625C435.454 695.557 457.313 675.027 458.052 672.22C458.79 669.562 455.246 665.721 452.144 662.915C449.042 660.109 439.147 654.939 435.75 652.724C432.353 650.508 412.709 616.242 402.37 607.676C392.032 599.109 379.33 592.167 379.33 592.167L367.809 544.904L332.953 548.153Z" fill="white" stroke="#263238" stroke-width="1.16641" stroke-miterlimit="10" stroke-linecap="round" stroke-linejoin="round"/>
<path d="M458.208 672.368C458.946 669.709 455.402 665.869 452.3 663.062C450.675 661.585 446.983 659.37 443.438 657.302C442.257 660.699 440.189 665.573 437.826 667.641C434.133 671.186 428.816 671.186 428.816 671.186L423.942 668.232C423.942 668.232 416.705 683.002 413.751 684.922C410.797 686.842 404.446 689.648 405.184 692.602C405.923 695.556 406.07 697.624 408.434 698.363C410.797 699.101 426.748 699.692 431.179 697.772C435.61 695.704 457.47 675.026 458.208 672.368Z" fill="white" stroke="#263238" stroke-width="1.16641" stroke-miterlimit="10" stroke-linecap="round" stroke-linejoin="round"/>
<path d="M420.406 694.227C423.213 694.079 426.019 693.489 428.234 692.455C435.471 688.762 453.195 668.971 453.195 668.971" stroke="#263238" stroke-width="1.16641" stroke-miterlimit="10" stroke-linecap="round" stroke-linejoin="round"/>
<path d="M407.672 693.341C407.672 693.341 412.251 694.374 417.42 694.374" stroke="#263238" stroke-width="1.16641" stroke-miterlimit="10" stroke-linecap="round" stroke-linejoin="round"/>
<path d="M417.769 622.15C405.954 605.608 380.55 587.884 380.55 587.884L370.802 545.938C370.802 545.938 371.984 517.875 370.802 509.899C369.62 501.923 355.146 471.349 355.146 471.349L314.382 473.713L311.28 494.243L311.576 499.56L294.886 538.7C294.886 538.7 280.559 583.601 280.559 589.509C280.559 595.417 272.289 654.644 268.744 662.915C265.199 671.187 262.836 674.141 262.836 674.141C262.836 674.141 282.627 690.092 294 687.434C305.372 684.775 305.372 684.775 305.372 684.775C305.372 684.775 305.372 654.644 313.053 635.739C320.733 616.833 334.321 569.422 334.321 569.422C334.321 569.422 340.82 601.916 345.546 611.959C350.272 622.003 365.633 635 382.765 647.998C399.898 660.995 411.123 675.765 411.123 675.765C411.123 675.765 421.757 677.538 428.847 671.039C435.936 664.54 443.469 657.155 443.469 657.155C443.469 657.155 429.585 638.693 417.769 622.15Z" fill="#263238" stroke="#263238" stroke-width="1.16641" stroke-miterlimit="10" stroke-linecap="round" stroke-linejoin="round"/>
<path d="M318.814 339.897C318.814 339.897 314.679 345.658 314.383 350.679C314.236 353.042 314.679 355.406 314.826 358.064C315.122 361.166 313.349 362.495 314.088 366.04C314.236 366.779 315.565 368.699 316.156 369.88C318.371 374.459 321.325 380.367 322.507 381.401C323.984 382.73 329.301 381.844 329.301 381.844C331.221 380.81 336.981 389.229 334.322 394.251C332.846 397.057 334.913 397.352 334.913 397.352C334.913 397.352 342.151 390.706 344.366 389.229C346.581 387.752 351.899 384.65 351.899 384.65L348.354 369.142C348.354 369.142 352.785 361.904 350.126 357.178C347.468 352.599 335.799 342.999 331.073 340.636C326.494 338.273 323.097 337.829 322.211 337.829C321.62 337.682 318.814 339.897 318.814 339.897Z" fill="white" stroke="#263238" stroke-width="1.16641" stroke-miterlimit="10" stroke-linecap="round" stroke-linejoin="round"/>
<path d="M329.305 381.992C329.305 381.992 332.997 380.515 336.69 378.595Z" fill="white"/>
<path d="M329.305 381.992C329.305 381.992 332.997 380.515 336.69 378.595" stroke="#263238" stroke-width="1.16641" stroke-miterlimit="10" stroke-linecap="round" stroke-linejoin="round"/>
<path d="M347.022 366.779C347.022 366.779 345.249 369.585 343.92 369.585L342 369.29V372.096" fill="white"/>
<path d="M347.022 366.779C347.022 366.779 345.249 369.585 343.92 369.585L342 369.29V372.096" stroke="#263238" stroke-width="1.16641" stroke-miterlimit="10" stroke-linecap="round" stroke-linejoin="round"/>
<path d="M319.992 355.11C321.026 356.144 321.321 362.053 319.549 363.234C317.629 364.416 318.662 366.779 319.992 367.223C321.321 367.666 323.241 367.223 323.241 367.223" stroke="#263238" stroke-width="1.16641" stroke-miterlimit="10" stroke-linecap="round" stroke-linejoin="round"/>
<path d="M320.281 371.948C320.281 371.948 325.303 374.607 330.029 370.028" stroke="#263238" stroke-width="1.16641" stroke-miterlimit="10" stroke-linecap="round" stroke-linejoin="round"/>
<path d="M318.078 353.189C318.078 353.189 316.749 351.565 314.977 351.565" stroke="#263238" stroke-width="1.16641" stroke-miterlimit="10" stroke-linecap="round" stroke-linejoin="round"/>
<path d="M322.797 352.599C322.797 352.599 326.932 349.794 330.625 352.894" stroke="#263238" stroke-width="1.16641" stroke-miterlimit="10" stroke-linecap="round" stroke-linejoin="round"/>
<path d="M327.235 360.871C328.051 360.871 328.712 359.813 328.712 358.507C328.712 357.202 328.051 356.144 327.235 356.144C326.419 356.144 325.758 357.202 325.758 358.507C325.758 359.813 326.419 360.871 327.235 360.871Z" fill="#263238"/>
<path d="M318.362 358.508C318.362 359.689 317.772 360.575 317.181 360.575C316.443 360.575 316 359.689 316 358.508C316 357.326 316.591 356.44 317.181 356.44C317.772 356.44 318.362 357.326 318.362 358.508Z" fill="#263238"/>
<path d="M323.234 336.648C323.234 336.648 328.847 338.863 329.142 343.294C329.438 347.725 339.481 357.917 344.355 358.507C349.229 359.098 348.786 363.677 347.013 366.779C345.241 369.88 344.06 379.481 348.49 383.321C352.921 387.161 357.352 388.638 360.306 391.592C363.26 394.546 366.509 398.682 365.919 401.931C365.328 405.18 366.953 408.43 369.906 410.054C372.86 411.679 381.574 410.498 387.039 399.863C392.504 389.377 395.31 384.946 388.812 378.151C382.313 371.505 376.553 369.585 376.553 369.585C376.553 369.585 379.211 368.994 377.144 358.36C375.076 347.725 361.931 349.498 361.488 349.498C361.045 349.498 357.352 342.851 353.955 336.057C350.558 329.263 343.026 326.014 337.856 327.786C332.539 329.706 324.416 333.989 323.234 336.648Z" fill="#263238" stroke="#263238" stroke-width="1.16641" stroke-miterlimit="10" stroke-linecap="round" stroke-linejoin="round"/>
<path d="M277.163 419.064L267.562 396.762L278.935 402.817L288.831 424.677L277.163 419.064Z" fill="#263238" stroke="#263238" stroke-width="1.16641" stroke-miterlimit="10" stroke-linecap="round" stroke-linejoin="round"/>
<path d="M338.293 406.953L330.908 448.309C330.908 448.309 316.434 444.912 308.606 440.333C300.778 435.754 295.608 429.551 295.608 429.551C295.608 429.551 293.393 419.803 292.064 418.621C290.587 417.439 288.076 414.781 287.042 413.599C286.008 412.418 284.383 410.35 283.645 411.679C282.906 413.009 282.759 414.19 284.088 415.519C285.417 416.849 287.485 421.427 287.485 421.427L282.463 418.769C282.463 418.769 279.509 411.827 278.623 410.35C277.589 408.873 274.045 404.294 272.42 404.59C270.795 404.885 272.568 407.839 272.568 407.839L273.011 409.759C273.011 409.759 272.125 416.11 272.272 418.178C272.42 420.393 273.454 422.461 273.454 422.461C273.454 422.461 275.226 428.665 276.851 430.437C278.476 432.209 286.894 436.936 286.894 436.936C286.894 436.936 304.322 451.41 313.037 456.875C321.751 462.34 333.123 467.066 336.077 467.953C338.883 468.691 341.247 467.657 343.019 464.408C344.791 461.306 347.893 453.478 347.893 453.478L359.709 409.464C361.924 402.817 355.278 388.047 344.791 395.875C341.247 398.682 339.031 402.67 338.293 406.953Z" fill="white" stroke="#263238" stroke-width="1.16641" stroke-miterlimit="10" stroke-linecap="round" stroke-linejoin="round"/>
<path d="M330.914 448.309C330.914 448.309 334.754 449.49 336.527 451.558" stroke="#263238" stroke-width="1.16641" stroke-miterlimit="10" stroke-linecap="round" stroke-linejoin="round"/>
<path d="M272.984 409.759C272.984 409.759 275.495 414.486 276.086 416.554C276.677 418.622 278.449 421.428 278.449 421.428" stroke="#263238" stroke-width="1.16641" stroke-miterlimit="10" stroke-linecap="round" stroke-linejoin="round"/>
<path d="M572.561 27.8093L569.312 47.1579L483.5 14.8117L572.561 27.8093Z" fill="#263238" stroke="#263238" stroke-width="1.16641" stroke-miterlimit="10" stroke-linecap="round" stroke-linejoin="round"/>
<path d="M572.561 7.57471L483.5 14.812L572.561 27.8095V7.57471Z" fill="#60AAF6" stroke="#263238" stroke-width="1.16641" stroke-miterlimit="10" stroke-linecap="round" stroke-linejoin="round"/>
<path d="M483.5 14.8117L556.905 64.291L569.312 47.1579L483.5 14.8117Z" fill="#263238" stroke="#263238" stroke-width="1.16641" stroke-miterlimit="10" stroke-linecap="round" stroke-linejoin="round"/>
<path d="M483.5 14.8117L575.81 63.4048L572.856 35.785L483.5 14.8117Z" fill="#60AAF6" stroke="#263238" stroke-width="1.16641" stroke-miterlimit="10" stroke-linecap="round" stroke-linejoin="round"/>
</svg>
