<svg width="61" height="60" viewBox="0 0 61 60" fill="none" xmlns="http://www.w3.org/2000/svg">
<mask id="path-1-inside-1_5670_35557" fill="white">
<path d="M26.4791 10.9442C26.4791 10.6956 26.5779 10.4571 26.7537 10.2813C26.9295 10.1055 27.168 10.0067 27.4166 10.0067H42.0787C42.3273 10.0067 42.5658 10.1055 42.7416 10.2813C42.9174 10.4571 43.0162 10.6956 43.0162 10.9442C43.0162 11.1928 42.9174 11.4313 42.7416 11.6071C42.5658 11.7829 42.3273 11.8817 42.0787 11.8817H27.4166C27.168 11.8817 26.9295 11.7829 26.7537 11.6071C26.5779 11.4313 26.4791 11.1928 26.4791 10.9442ZM18.7503 12.9435C18.9333 13.1266 19.1732 13.2181 19.4132 13.2181C19.6532 13.2181 19.8931 13.1266 20.0761 12.9435L22.9499 10.0697C23.0386 9.98305 23.1091 9.87963 23.1576 9.76548C23.206 9.65132 23.2313 9.5287 23.2319 9.4047C23.2326 9.28071 23.2087 9.15781 23.1616 9.04312C23.1145 8.92842 23.0451 8.82422 22.9574 8.73654C22.8697 8.64886 22.7655 8.57945 22.6508 8.53232C22.5361 8.48519 22.4132 8.46128 22.2892 8.46197C22.1652 8.46266 22.0426 8.48795 21.9284 8.53636C21.8143 8.58477 21.7109 8.65535 21.6242 8.744L19.4133 10.955L18.6393 10.181C18.5526 10.0923 18.4492 10.0217 18.335 9.97331C18.2209 9.9249 18.0982 9.89962 17.9742 9.89892C17.8503 9.89823 17.7273 9.92214 17.6127 9.96927C17.498 10.0164 17.3938 10.0858 17.3061 10.1735C17.2184 10.2612 17.149 10.3654 17.1019 10.4801C17.0547 10.5948 17.0308 10.7177 17.0315 10.8417C17.0322 10.9657 17.0575 11.0883 17.1059 11.2024C17.1543 11.3166 17.2249 11.42 17.3135 11.5067L18.7503 12.9435ZM27.4166 21.881H42.0787C42.3273 21.881 42.5658 21.7822 42.7416 21.6064C42.9174 21.4306 43.0162 21.1921 43.0162 20.9435C43.0162 20.6948 42.9174 20.4564 42.7416 20.2805C42.5658 20.1047 42.3273 20.006 42.0787 20.006H27.4166C27.168 20.006 26.9295 20.1047 26.7537 20.2805C26.5779 20.4564 26.4791 20.6948 26.4791 20.9435C26.4791 21.1921 26.5779 21.4306 26.7537 21.6064C26.9295 21.7822 27.168 21.881 27.4166 21.881ZM18.7503 23.0432C18.9333 23.2263 19.1732 23.3178 19.4132 23.3178C19.6532 23.3178 19.8931 23.2263 20.0761 23.0432L22.9499 20.1694C23.0386 20.0827 23.1091 19.9793 23.1576 19.8652C23.206 19.751 23.2313 19.6284 23.2319 19.5044C23.2326 19.3804 23.2087 19.2575 23.1616 19.1428C23.1145 19.0281 23.0451 18.9239 22.9574 18.8362C22.8697 18.7486 22.7655 18.6791 22.6508 18.632C22.5361 18.5849 22.4132 18.561 22.2892 18.5617C22.1652 18.5624 22.0426 18.5876 21.9284 18.636C21.8143 18.6845 21.7109 18.755 21.6242 18.8437L19.4133 21.0547L18.6393 20.2806C18.5526 20.192 18.4492 20.1214 18.335 20.073C18.2209 20.0246 18.0982 19.9993 17.9742 19.9986C17.8503 19.9979 17.7273 20.0218 17.6127 20.069C17.498 20.1161 17.3938 20.1855 17.3061 20.2732C17.2184 20.3609 17.149 20.4651 17.1019 20.5798C17.0547 20.6944 17.0308 20.8173 17.0315 20.9413C17.0322 21.0653 17.0575 21.188 17.1059 21.3021C17.1543 21.4163 17.2249 21.5197 17.3135 21.6064L18.7503 23.0432ZM55.9341 39.6741L51.7883 42.0676C51.3657 42.3127 50.8858 42.4419 50.3972 42.4421C50.1531 42.4421 49.9074 42.4101 49.6649 42.3451C48.9414 42.1512 48.3375 41.6887 47.9648 41.0431L47.8513 40.8467L45.7541 41.9176C46.3812 42.9118 46.2905 44.1378 45.7395 45.0851C45.4624 45.5613 45.0666 45.9715 44.5923 46.2549C44.8674 46.7051 45.0135 47.2213 45.0115 47.7711C45.0073 48.9105 44.3657 50.0124 43.3769 50.5784C42.8275 50.8928 42.2199 51.0148 41.6116 50.9445C41.5804 51.4557 41.423 51.9579 41.1658 52.3996C40.6218 53.3336 39.6203 54.0092 38.4685 53.9797C38.4562 54.5317 38.295 55.0782 38.0176 55.5543C37.4863 56.4664 36.5196 57.1354 35.4007 57.1354C34.8911 57.1354 34.3498 56.9965 33.8038 56.6786L31.3279 55.2369L30.8462 55.9217C30.2428 56.7795 29.3587 57.256 28.3895 57.256C28.3007 57.256 28.2112 57.252 28.121 57.2439C27.0095 57.1442 25.986 56.4384 25.4941 55.4381C24.4498 55.9777 23.2353 55.7813 22.3382 55.1504C21.7589 54.7429 21.3053 54.1497 21.0984 53.4667C20.2371 53.6551 19.335 53.4276 18.6292 52.9311C17.7501 52.3127 17.1606 51.2662 17.2833 50.1278C16.7305 50.0698 16.196 49.8618 15.7425 49.5428C14.4858 48.6587 13.8212 46.8994 14.9829 45.248L15.0626 45.1347L11.9547 41.2536C11.579 41.7889 11.0322 42.1731 10.3901 42.3452C10.1513 42.4094 9.9051 42.4421 9.6578 42.4422C9.17335 42.4422 8.69605 42.3156 8.26655 42.0677L4.12093 39.6741C2.78429 38.9026 2.32468 37.1873 3.09636 35.8505L10.3723 23.2482C10.5881 22.8737 10.8882 22.5547 11.2487 22.3164V3.68115C11.2487 3.43251 11.3475 3.19406 11.5233 3.01824C11.6991 2.84242 11.9376 2.74365 12.1862 2.74365H47.8687C48.1173 2.74365 48.3558 2.84242 48.5316 3.01824C48.7074 3.19406 48.8062 3.43251 48.8062 3.68115V22.3164C49.1668 22.5546 49.4668 22.8736 49.6826 23.2481L56.9585 35.8504C57.7302 37.1873 57.2706 38.9024 55.9341 39.6741ZM13.1237 4.61865V21.8682C13.5017 21.9121 13.8666 22.0331 14.1959 22.2236L18.3416 24.6172C18.9873 24.9899 19.4498 25.5937 19.6436 26.3173C19.7634 26.76 19.7723 27.2254 19.6696 27.6724L24.8673 29.5291C27.0597 27.5695 28.6769 26.8733 32.0128 27.6076C35.1402 28.296 37.7635 28.3024 40.3735 27.6155C40.2838 27.1858 40.2967 26.741 40.4112 26.3172C40.605 25.5936 41.0674 24.9897 41.7133 24.6171L45.8589 22.2235C46.1882 22.033 46.5531 21.9121 46.931 21.8682V4.61865H13.1237ZM10.4664 40.1056L17.7423 27.5033C17.8647 27.2913 17.8968 27.0425 17.8326 26.8027C17.7684 26.563 17.6161 26.3634 17.4041 26.241L13.2585 23.8475C13.0462 23.7251 12.794 23.692 12.5574 23.7554C12.3207 23.8188 12.1188 23.9736 11.9962 24.1857L4.72023 36.788C4.46546 37.2294 4.61722 37.7956 5.05843 38.0503L9.20417 40.4439C9.30918 40.5046 9.42519 40.5438 9.54547 40.5592C9.66574 40.5747 9.7879 40.5661 9.90484 40.534C10.1446 40.4698 10.3441 40.3177 10.4664 40.1056ZM18.5079 47.7282L20.6625 44.665L20.6629 44.6644C21.3176 43.7304 20.5219 43.1006 20.3557 42.9837C20.1894 42.8668 19.3268 42.3312 18.6695 43.2657L16.5164 46.3265C15.8589 47.2613 16.6551 47.8921 16.8214 48.0091C16.9875 48.1262 17.8497 48.6619 18.5073 47.7289L18.5079 47.7282ZM21.5776 50.8558L24.5875 46.5768L25.0451 45.9262C25.7026 44.9914 24.9064 44.3606 24.7401 44.2436C24.5737 44.1265 23.7108 43.5904 23.0532 44.5251L22.1969 45.7426L22.1965 45.7431L22.1962 45.7437L20.0416 48.8069L19.403 49.7147C18.7455 50.6497 19.5417 51.2805 19.708 51.3974C19.8743 51.5143 20.7373 52.0503 21.3948 51.1158L21.5776 50.8558ZM25.785 52.3661L25.7871 52.3633L26.8668 50.8283L28.1121 49.0578C28.7694 48.1232 27.9735 47.4924 27.8073 47.3753C27.6413 47.2586 26.7795 46.7226 26.1221 47.6544L26.1211 47.6558L23.1114 51.9346L23.1108 51.9356C22.4549 52.8697 23.2506 53.5 23.4169 53.617C23.5832 53.7339 24.4462 54.2702 25.1036 53.3354L25.785 52.3661ZM30.0869 51.6256C29.9206 51.5085 29.0582 50.9726 28.4009 51.9064L28.4004 51.9071L27.3208 53.4421C27.0463 53.8324 26.9938 54.2173 27.1649 54.5863C27.3613 55.0099 27.8234 55.3349 28.2884 55.3765C28.6934 55.4129 29.038 55.2333 29.3126 54.8431L30.3921 53.3083C31.0494 52.3735 30.2532 51.7426 30.0869 51.6256ZM43.6933 42.4864L32.1003 35.7759C31.0581 35.174 30.0279 35.6077 28.4332 36.3646C28.3558 36.4013 28.2784 36.4381 28.2008 36.4747C28.0845 36.7083 27.9671 36.9592 27.8448 37.2203C27.2427 38.5068 26.5602 39.9647 25.3797 40.602C23.9902 41.3519 22.7502 41.4664 21.8882 40.924C21.4914 40.6743 20.8354 40.0537 20.8995 38.7016L21.1477 33.4762C21.159 33.238 21.2607 33.0131 21.432 32.8472C21.9196 32.3751 22.3571 31.944 22.7802 31.5271C22.9737 31.3366 23.1599 31.1532 23.3417 30.9751L18.8328 29.3643L12.9692 39.5205L16.1859 43.5374L17.1359 42.1867C18.2971 40.5356 20.177 40.5663 21.4339 41.4494C21.843 41.7369 22.1894 42.117 22.4305 42.556C23.5228 41.8553 24.8543 42.0313 25.8188 42.7097C26.6281 43.2789 27.1919 44.2112 27.1807 45.2436C27.7916 45.2743 28.388 45.4908 28.8865 45.8417C29.9986 46.6244 30.6468 48.0922 29.9758 49.5642C30.4033 49.66 30.8076 49.8393 31.1657 50.0917C32.2362 50.8449 32.8762 52.2325 32.3253 53.6478L34.7473 55.0581C35.7351 55.6331 36.2952 54.786 36.3975 54.6104C36.4998 54.4348 36.9599 53.5304 35.9747 52.9549L35.9734 52.954L35.9731 52.9538H35.973L32.852 51.1367C32.7444 51.0754 32.65 50.9934 32.5742 50.8954C32.4985 50.7973 32.4429 50.6853 32.4108 50.5657C32.3786 50.4461 32.3704 50.3213 32.3867 50.1985C32.4031 50.0757 32.4436 49.9574 32.5059 49.8503C32.5682 49.7433 32.6512 49.6497 32.7499 49.5749C32.8486 49.5001 32.9612 49.4456 33.0811 49.4145C33.201 49.3835 33.3259 49.3765 33.4485 49.394C33.5711 49.4115 33.6891 49.4531 33.7955 49.5165L36.9164 51.3337L36.9169 51.3339L36.9173 51.3342L36.9194 51.3353L37.8953 51.9038C38.8828 52.4786 39.4431 51.6316 39.5455 51.456C39.6478 51.2804 40.1078 50.3759 39.1226 49.8004L39.1212 49.7996L39.121 49.7995L39.1203 49.799L35.2943 47.5713C35.1867 47.51 35.0923 47.4279 35.0165 47.3299C34.9408 47.2319 34.8852 47.1199 34.8531 47.0003C34.8209 46.8806 34.8127 46.7558 34.829 46.6331C34.8454 46.5103 34.8859 46.3919 34.9482 46.2849C35.0105 46.1779 35.0935 46.0842 35.1922 46.0094C35.2909 45.9346 35.4035 45.8801 35.5234 45.8491C35.6433 45.8181 35.7682 45.8111 35.8908 45.8286C36.0134 45.8461 36.1314 45.8877 36.2378 45.951L40.0648 48.1794L40.065 48.1795C40.0657 48.1799 40.0664 48.1803 40.0671 48.1808L41.292 48.894C41.7045 49.1342 42.0925 49.1533 42.4455 48.9513C42.8507 48.7194 43.1349 48.2312 43.1365 47.7643C43.138 47.3575 42.9297 47.0295 42.5173 46.7894L41.528 46.2133L41.5272 46.2128L41.5264 46.2124L41.5259 46.212L37.7367 44.0058C37.6291 43.9445 37.5347 43.8625 37.459 43.7645C37.3832 43.6665 37.3277 43.5544 37.2955 43.4348C37.2633 43.3152 37.2551 43.1904 37.2715 43.0676C37.2878 42.9448 37.3283 42.8265 37.3906 42.7195C37.453 42.6124 37.5359 42.5188 37.6346 42.444C37.7333 42.3692 37.8459 42.3147 37.9658 42.2837C38.0857 42.2526 38.2106 42.2456 38.3332 42.2631C38.4558 42.2806 38.5738 42.3223 38.6802 42.3856L42.4694 44.5918C43.4571 45.1655 44.0166 44.3183 44.1188 44.1426C44.2207 43.9668 44.6805 43.0613 43.6933 42.4864ZM46.9125 39.2207L41.2036 29.3324C37.2662 30.444 33.8693 29.9362 31.6098 29.4387C28.309 28.7125 27.5003 29.5093 24.0962 32.8631C23.7329 33.2216 23.3685 33.5791 23.003 33.9355L22.7724 38.7909C22.7573 39.1092 22.8189 39.2947 22.8867 39.3373C23.0453 39.4369 23.6208 39.421 24.4891 38.9522C25.1247 38.6091 25.6676 37.4492 26.1467 36.4257C26.3205 36.0542 26.5003 35.6703 26.6855 35.3214C26.7818 35.1404 26.9347 34.9958 27.1209 34.9099C27.2907 34.8312 27.4601 34.7515 27.6291 34.6708C29.2513 33.9006 31.09 33.0277 33.0387 34.1526L44.1931 40.6092L46.9125 39.2207ZM55.3347 36.7879L48.0589 24.1857C47.8041 23.7444 47.2377 23.5927 46.7965 23.8475L42.6508 26.241C42.4388 26.3634 42.2867 26.563 42.2223 26.8027C42.1581 27.0425 42.1901 27.2913 42.3126 27.5033L49.5885 40.1057C49.7108 40.3177 49.9104 40.4698 50.1502 40.534C50.2671 40.5662 50.3892 40.5748 50.5095 40.5594C50.6298 40.5439 50.7458 40.5046 50.8507 40.4439L54.9966 38.0504C55.4378 37.7956 55.5896 37.2292 55.3347 36.7879Z"/>
</mask>
<path d="M26.4791 10.9442C26.4791 10.6956 26.5779 10.4571 26.7537 10.2813C26.9295 10.1055 27.168 10.0067 27.4166 10.0067H42.0787C42.3273 10.0067 42.5658 10.1055 42.7416 10.2813C42.9174 10.4571 43.0162 10.6956 43.0162 10.9442C43.0162 11.1928 42.9174 11.4313 42.7416 11.6071C42.5658 11.7829 42.3273 11.8817 42.0787 11.8817H27.4166C27.168 11.8817 26.9295 11.7829 26.7537 11.6071C26.5779 11.4313 26.4791 11.1928 26.4791 10.9442ZM18.7503 12.9435C18.9333 13.1266 19.1732 13.2181 19.4132 13.2181C19.6532 13.2181 19.8931 13.1266 20.0761 12.9435L22.9499 10.0697C23.0386 9.98305 23.1091 9.87963 23.1576 9.76548C23.206 9.65132 23.2313 9.5287 23.2319 9.4047C23.2326 9.28071 23.2087 9.15781 23.1616 9.04312C23.1145 8.92842 23.0451 8.82422 22.9574 8.73654C22.8697 8.64886 22.7655 8.57945 22.6508 8.53232C22.5361 8.48519 22.4132 8.46128 22.2892 8.46197C22.1652 8.46266 22.0426 8.48795 21.9284 8.53636C21.8143 8.58477 21.7109 8.65535 21.6242 8.744L19.4133 10.955L18.6393 10.181C18.5526 10.0923 18.4492 10.0217 18.335 9.97331C18.2209 9.9249 18.0982 9.89962 17.9742 9.89892C17.8503 9.89823 17.7273 9.92214 17.6127 9.96927C17.498 10.0164 17.3938 10.0858 17.3061 10.1735C17.2184 10.2612 17.149 10.3654 17.1019 10.4801C17.0547 10.5948 17.0308 10.7177 17.0315 10.8417C17.0322 10.9657 17.0575 11.0883 17.1059 11.2024C17.1543 11.3166 17.2249 11.42 17.3135 11.5067L18.7503 12.9435ZM27.4166 21.881H42.0787C42.3273 21.881 42.5658 21.7822 42.7416 21.6064C42.9174 21.4306 43.0162 21.1921 43.0162 20.9435C43.0162 20.6948 42.9174 20.4564 42.7416 20.2805C42.5658 20.1047 42.3273 20.006 42.0787 20.006H27.4166C27.168 20.006 26.9295 20.1047 26.7537 20.2805C26.5779 20.4564 26.4791 20.6948 26.4791 20.9435C26.4791 21.1921 26.5779 21.4306 26.7537 21.6064C26.9295 21.7822 27.168 21.881 27.4166 21.881ZM18.7503 23.0432C18.9333 23.2263 19.1732 23.3178 19.4132 23.3178C19.6532 23.3178 19.8931 23.2263 20.0761 23.0432L22.9499 20.1694C23.0386 20.0827 23.1091 19.9793 23.1576 19.8652C23.206 19.751 23.2313 19.6284 23.2319 19.5044C23.2326 19.3804 23.2087 19.2575 23.1616 19.1428C23.1145 19.0281 23.0451 18.9239 22.9574 18.8362C22.8697 18.7486 22.7655 18.6791 22.6508 18.632C22.5361 18.5849 22.4132 18.561 22.2892 18.5617C22.1652 18.5624 22.0426 18.5876 21.9284 18.636C21.8143 18.6845 21.7109 18.755 21.6242 18.8437L19.4133 21.0547L18.6393 20.2806C18.5526 20.192 18.4492 20.1214 18.335 20.073C18.2209 20.0246 18.0982 19.9993 17.9742 19.9986C17.8503 19.9979 17.7273 20.0218 17.6127 20.069C17.498 20.1161 17.3938 20.1855 17.3061 20.2732C17.2184 20.3609 17.149 20.4651 17.1019 20.5798C17.0547 20.6944 17.0308 20.8173 17.0315 20.9413C17.0322 21.0653 17.0575 21.188 17.1059 21.3021C17.1543 21.4163 17.2249 21.5197 17.3135 21.6064L18.7503 23.0432ZM55.9341 39.6741L51.7883 42.0676C51.3657 42.3127 50.8858 42.4419 50.3972 42.4421C50.1531 42.4421 49.9074 42.4101 49.6649 42.3451C48.9414 42.1512 48.3375 41.6887 47.9648 41.0431L47.8513 40.8467L45.7541 41.9176C46.3812 42.9118 46.2905 44.1378 45.7395 45.0851C45.4624 45.5613 45.0666 45.9715 44.5923 46.2549C44.8674 46.7051 45.0135 47.2213 45.0115 47.7711C45.0073 48.9105 44.3657 50.0124 43.3769 50.5784C42.8275 50.8928 42.2199 51.0148 41.6116 50.9445C41.5804 51.4557 41.423 51.9579 41.1658 52.3996C40.6218 53.3336 39.6203 54.0092 38.4685 53.9797C38.4562 54.5317 38.295 55.0782 38.0176 55.5543C37.4863 56.4664 36.5196 57.1354 35.4007 57.1354C34.8911 57.1354 34.3498 56.9965 33.8038 56.6786L31.3279 55.2369L30.8462 55.9217C30.2428 56.7795 29.3587 57.256 28.3895 57.256C28.3007 57.256 28.2112 57.252 28.121 57.2439C27.0095 57.1442 25.986 56.4384 25.4941 55.4381C24.4498 55.9777 23.2353 55.7813 22.3382 55.1504C21.7589 54.7429 21.3053 54.1497 21.0984 53.4667C20.2371 53.6551 19.335 53.4276 18.6292 52.9311C17.7501 52.3127 17.1606 51.2662 17.2833 50.1278C16.7305 50.0698 16.196 49.8618 15.7425 49.5428C14.4858 48.6587 13.8212 46.8994 14.9829 45.248L15.0626 45.1347L11.9547 41.2536C11.579 41.7889 11.0322 42.1731 10.3901 42.3452C10.1513 42.4094 9.9051 42.4421 9.6578 42.4422C9.17335 42.4422 8.69605 42.3156 8.26655 42.0677L4.12093 39.6741C2.78429 38.9026 2.32468 37.1873 3.09636 35.8505L10.3723 23.2482C10.5881 22.8737 10.8882 22.5547 11.2487 22.3164V3.68115C11.2487 3.43251 11.3475 3.19406 11.5233 3.01824C11.6991 2.84242 11.9376 2.74365 12.1862 2.74365H47.8687C48.1173 2.74365 48.3558 2.84242 48.5316 3.01824C48.7074 3.19406 48.8062 3.43251 48.8062 3.68115V22.3164C49.1668 22.5546 49.4668 22.8736 49.6826 23.2481L56.9585 35.8504C57.7302 37.1873 57.2706 38.9024 55.9341 39.6741ZM13.1237 4.61865V21.8682C13.5017 21.9121 13.8666 22.0331 14.1959 22.2236L18.3416 24.6172C18.9873 24.9899 19.4498 25.5937 19.6436 26.3173C19.7634 26.76 19.7723 27.2254 19.6696 27.6724L24.8673 29.5291C27.0597 27.5695 28.6769 26.8733 32.0128 27.6076C35.1402 28.296 37.7635 28.3024 40.3735 27.6155C40.2838 27.1858 40.2967 26.741 40.4112 26.3172C40.605 25.5936 41.0674 24.9897 41.7133 24.6171L45.8589 22.2235C46.1882 22.033 46.5531 21.9121 46.931 21.8682V4.61865H13.1237ZM10.4664 40.1056L17.7423 27.5033C17.8647 27.2913 17.8968 27.0425 17.8326 26.8027C17.7684 26.563 17.6161 26.3634 17.4041 26.241L13.2585 23.8475C13.0462 23.7251 12.794 23.692 12.5574 23.7554C12.3207 23.8188 12.1188 23.9736 11.9962 24.1857L4.72023 36.788C4.46546 37.2294 4.61722 37.7956 5.05843 38.0503L9.20417 40.4439C9.30918 40.5046 9.42519 40.5438 9.54547 40.5592C9.66574 40.5747 9.7879 40.5661 9.90484 40.534C10.1446 40.4698 10.3441 40.3177 10.4664 40.1056ZM18.5079 47.7282L20.6625 44.665L20.6629 44.6644C21.3176 43.7304 20.5219 43.1006 20.3557 42.9837C20.1894 42.8668 19.3268 42.3312 18.6695 43.2657L16.5164 46.3265C15.8589 47.2613 16.6551 47.8921 16.8214 48.0091C16.9875 48.1262 17.8497 48.6619 18.5073 47.7289L18.5079 47.7282ZM21.5776 50.8558L24.5875 46.5768L25.0451 45.9262C25.7026 44.9914 24.9064 44.3606 24.7401 44.2436C24.5737 44.1265 23.7108 43.5904 23.0532 44.5251L22.1969 45.7426L22.1965 45.7431L22.1962 45.7437L20.0416 48.8069L19.403 49.7147C18.7455 50.6497 19.5417 51.2805 19.708 51.3974C19.8743 51.5143 20.7373 52.0503 21.3948 51.1158L21.5776 50.8558ZM25.785 52.3661L25.7871 52.3633L26.8668 50.8283L28.1121 49.0578C28.7694 48.1232 27.9735 47.4924 27.8073 47.3753C27.6413 47.2586 26.7795 46.7226 26.1221 47.6544L26.1211 47.6558L23.1114 51.9346L23.1108 51.9356C22.4549 52.8697 23.2506 53.5 23.4169 53.617C23.5832 53.7339 24.4462 54.2702 25.1036 53.3354L25.785 52.3661ZM30.0869 51.6256C29.9206 51.5085 29.0582 50.9726 28.4009 51.9064L28.4004 51.9071L27.3208 53.4421C27.0463 53.8324 26.9938 54.2173 27.1649 54.5863C27.3613 55.0099 27.8234 55.3349 28.2884 55.3765C28.6934 55.4129 29.038 55.2333 29.3126 54.8431L30.3921 53.3083C31.0494 52.3735 30.2532 51.7426 30.0869 51.6256ZM43.6933 42.4864L32.1003 35.7759C31.0581 35.174 30.0279 35.6077 28.4332 36.3646C28.3558 36.4013 28.2784 36.4381 28.2008 36.4747C28.0845 36.7083 27.9671 36.9592 27.8448 37.2203C27.2427 38.5068 26.5602 39.9647 25.3797 40.602C23.9902 41.3519 22.7502 41.4664 21.8882 40.924C21.4914 40.6743 20.8354 40.0537 20.8995 38.7016L21.1477 33.4762C21.159 33.238 21.2607 33.0131 21.432 32.8472C21.9196 32.3751 22.3571 31.944 22.7802 31.5271C22.9737 31.3366 23.1599 31.1532 23.3417 30.9751L18.8328 29.3643L12.9692 39.5205L16.1859 43.5374L17.1359 42.1867C18.2971 40.5356 20.177 40.5663 21.4339 41.4494C21.843 41.7369 22.1894 42.117 22.4305 42.556C23.5228 41.8553 24.8543 42.0313 25.8188 42.7097C26.6281 43.2789 27.1919 44.2112 27.1807 45.2436C27.7916 45.2743 28.388 45.4908 28.8865 45.8417C29.9986 46.6244 30.6468 48.0922 29.9758 49.5642C30.4033 49.66 30.8076 49.8393 31.1657 50.0917C32.2362 50.8449 32.8762 52.2325 32.3253 53.6478L34.7473 55.0581C35.7351 55.6331 36.2952 54.786 36.3975 54.6104C36.4998 54.4348 36.9599 53.5304 35.9747 52.9549L35.9734 52.954L35.9731 52.9538H35.973L32.852 51.1367C32.7444 51.0754 32.65 50.9934 32.5742 50.8954C32.4985 50.7973 32.4429 50.6853 32.4108 50.5657C32.3786 50.4461 32.3704 50.3213 32.3867 50.1985C32.4031 50.0757 32.4436 49.9574 32.5059 49.8503C32.5682 49.7433 32.6512 49.6497 32.7499 49.5749C32.8486 49.5001 32.9612 49.4456 33.0811 49.4145C33.201 49.3835 33.3259 49.3765 33.4485 49.394C33.5711 49.4115 33.6891 49.4531 33.7955 49.5165L36.9164 51.3337L36.9169 51.3339L36.9173 51.3342L36.9194 51.3353L37.8953 51.9038C38.8828 52.4786 39.4431 51.6316 39.5455 51.456C39.6478 51.2804 40.1078 50.3759 39.1226 49.8004L39.1212 49.7996L39.121 49.7995L39.1203 49.799L35.2943 47.5713C35.1867 47.51 35.0923 47.4279 35.0165 47.3299C34.9408 47.2319 34.8852 47.1199 34.8531 47.0003C34.8209 46.8806 34.8127 46.7558 34.829 46.6331C34.8454 46.5103 34.8859 46.3919 34.9482 46.2849C35.0105 46.1779 35.0935 46.0842 35.1922 46.0094C35.2909 45.9346 35.4035 45.8801 35.5234 45.8491C35.6433 45.8181 35.7682 45.8111 35.8908 45.8286C36.0134 45.8461 36.1314 45.8877 36.2378 45.951L40.0648 48.1794L40.065 48.1795C40.0657 48.1799 40.0664 48.1803 40.0671 48.1808L41.292 48.894C41.7045 49.1342 42.0925 49.1533 42.4455 48.9513C42.8507 48.7194 43.1349 48.2312 43.1365 47.7643C43.138 47.3575 42.9297 47.0295 42.5173 46.7894L41.528 46.2133L41.5272 46.2128L41.5264 46.2124L41.5259 46.212L37.7367 44.0058C37.6291 43.9445 37.5347 43.8625 37.459 43.7645C37.3832 43.6665 37.3277 43.5544 37.2955 43.4348C37.2633 43.3152 37.2551 43.1904 37.2715 43.0676C37.2878 42.9448 37.3283 42.8265 37.3906 42.7195C37.453 42.6124 37.5359 42.5188 37.6346 42.444C37.7333 42.3692 37.8459 42.3147 37.9658 42.2837C38.0857 42.2526 38.2106 42.2456 38.3332 42.2631C38.4558 42.2806 38.5738 42.3223 38.6802 42.3856L42.4694 44.5918C43.4571 45.1655 44.0166 44.3183 44.1188 44.1426C44.2207 43.9668 44.6805 43.0613 43.6933 42.4864ZM46.9125 39.2207L41.2036 29.3324C37.2662 30.444 33.8693 29.9362 31.6098 29.4387C28.309 28.7125 27.5003 29.5093 24.0962 32.8631C23.7329 33.2216 23.3685 33.5791 23.003 33.9355L22.7724 38.7909C22.7573 39.1092 22.8189 39.2947 22.8867 39.3373C23.0453 39.4369 23.6208 39.421 24.4891 38.9522C25.1247 38.6091 25.6676 37.4492 26.1467 36.4257C26.3205 36.0542 26.5003 35.6703 26.6855 35.3214C26.7818 35.1404 26.9347 34.9958 27.1209 34.9099C27.2907 34.8312 27.4601 34.7515 27.6291 34.6708C29.2513 33.9006 31.09 33.0277 33.0387 34.1526L44.1931 40.6092L46.9125 39.2207ZM55.3347 36.7879L48.0589 24.1857C47.8041 23.7444 47.2377 23.5927 46.7965 23.8475L42.6508 26.241C42.4388 26.3634 42.2867 26.563 42.2223 26.8027C42.1581 27.0425 42.1901 27.2913 42.3126 27.5033L49.5885 40.1057C49.7108 40.3177 49.9104 40.4698 50.1502 40.534C50.2671 40.5662 50.3892 40.5748 50.5095 40.5594C50.6298 40.5439 50.7458 40.5046 50.8507 40.4439L54.9966 38.0504C55.4378 37.7956 55.5896 37.2292 55.3347 36.7879Z" fill="#60AAF6" stroke="white" stroke-width="0.2" mask="url(#path-1-inside-1_5670_35557)"/>
</svg>
