<svg width="61" height="60" viewBox="0 0 61 60" fill="none" xmlns="http://www.w3.org/2000/svg">
<g clip-path="url(#clip0_5670_35515)">
<path fill-rule="evenodd" clip-rule="evenodd" d="M22.9679 34.9164H37.0859C37.5503 34.9164 37.9259 35.292 37.9259 35.7564V59.16C37.9259 59.6244 37.5503 60 37.0859 60H22.9679C22.5035 60 22.1279 59.6244 22.1279 59.16V35.7564C22.1279 35.292 22.5047 34.9164 22.9679 34.9164ZM48.2663 4.6572V4.1484C48.2663 3.684 48.6419 3.3084 49.1063 3.3084C49.5707 3.3084 49.9463 3.684 49.9463 4.1484V4.6572C50.3435 4.7892 50.6999 5.0124 50.9903 5.3028C51.4727 5.7852 51.7703 6.4512 51.7703 7.1868C51.7703 7.6512 51.3947 8.0268 50.9303 8.0268C50.4659 8.0268 50.0903 7.6512 50.0903 7.1868C50.0903 6.9156 49.9799 6.6696 49.8023 6.4908C49.6247 6.312 49.3787 6.2028 49.1063 6.2028C48.8351 6.2028 48.5891 6.3132 48.4103 6.4908C48.3188 6.58212 48.2463 6.69062 48.1968 6.81006C48.1474 6.9295 48.1221 7.05754 48.1223 7.1868C48.1223 7.9128 48.7115 8.0532 49.2995 8.1936C50.5343 8.4876 51.7703 8.7816 51.7703 10.8348C51.7703 11.5704 51.4715 12.2364 50.9903 12.7188C50.697 13.0119 50.3396 13.233 49.9463 13.3644V13.8732C49.9463 14.3376 49.5707 14.7132 49.1063 14.7132C48.6419 14.7132 48.2663 14.3376 48.2663 13.8732V13.3644C47.8691 13.2324 47.5127 13.0092 47.2223 12.7188C46.7399 12.2364 46.4423 11.5704 46.4423 10.8348C46.4423 10.3704 46.8179 9.9948 47.2823 9.9948C47.7467 9.9948 48.1223 10.3704 48.1223 10.8348C48.1223 11.106 48.2327 11.352 48.4103 11.5308C48.595 11.7151 48.8453 11.8186 49.1063 11.8186C49.3672 11.8186 49.6175 11.7151 49.8023 11.5308C49.894 11.4396 49.9667 11.3312 50.0161 11.2117C50.0656 11.0922 50.0908 10.9641 50.0903 10.8348C50.0903 10.1088 49.5011 9.9684 48.9131 9.828C47.6783 9.534 46.4423 9.24 46.4423 7.1868C46.4423 6.4512 46.7399 5.7852 47.2223 5.3028C47.5127 5.0124 47.8691 4.7892 48.2663 4.6572ZM49.1063 0C46.6187 0 44.3663 1.008 42.7355 2.6388C41.1047 4.2696 40.0967 6.522 40.0967 9.0096C40.0967 11.4972 41.1047 13.7496 42.7355 15.3804C44.3663 17.0112 46.6187 18.0192 49.1063 18.0192C51.5939 18.0192 53.8463 17.0112 55.4771 15.3804C57.1079 13.7496 58.1159 11.4972 58.1159 9.0096C58.1159 6.522 57.1079 4.2696 55.4771 2.6388C53.8463 1.008 51.5939 0 49.1063 0ZM54.2891 3.8268C52.9631 2.5008 51.1307 1.68 49.1063 1.68C47.0819 1.68 45.2495 2.5008 43.9235 3.8268C42.5975 5.1528 41.7767 6.9852 41.7767 9.0096C41.7767 11.034 42.5975 12.8664 43.9235 14.1924C45.2495 15.5184 47.0819 16.3392 49.1063 16.3392C51.1307 16.3392 52.9631 15.5184 54.2891 14.1924C55.6151 12.8664 56.4359 11.034 56.4359 9.0096C56.4359 6.9852 55.6151 5.1528 54.2891 3.8268ZM29.1875 17.2188V16.71C29.1875 16.2456 29.5631 15.87 30.0275 15.87C30.4919 15.87 30.8675 16.2456 30.8675 16.71V17.2188C31.2647 17.3508 31.6211 17.574 31.9115 17.8644C32.3939 18.3468 32.6915 19.0128 32.6915 19.7484C32.6915 20.2128 32.3159 20.5884 31.8515 20.5884C31.3871 20.5884 31.0115 20.2128 31.0115 19.7484C31.0115 19.4772 30.9011 19.2312 30.7235 19.0524C30.5459 18.8736 30.2999 18.7644 30.0275 18.7644C29.7563 18.7644 29.5103 18.8748 29.3315 19.0524C29.24 19.1437 29.1675 19.2522 29.118 19.3717C29.0686 19.4911 29.0433 19.6191 29.0435 19.7484C29.0435 20.4744 29.6327 20.6148 30.2207 20.7552C31.4555 21.0492 32.6915 21.3432 32.6915 23.3964C32.6915 24.132 32.3927 24.798 31.9115 25.2804C31.6182 25.5735 31.2608 25.7946 30.8675 25.926V26.4348C30.8675 26.8992 30.4919 27.2748 30.0275 27.2748C29.5631 27.2748 29.1875 26.8992 29.1875 26.4348V25.926C28.7903 25.794 28.4339 25.5708 28.1435 25.2804C27.6611 24.798 27.3635 24.132 27.3635 23.3964C27.3635 22.932 27.7391 22.5564 28.2035 22.5564C28.6679 22.5564 29.0435 22.932 29.0435 23.3964C29.0435 23.6676 29.1539 23.9136 29.3315 24.0924C29.5091 24.27 29.7551 24.3804 30.0275 24.3804C30.1567 24.3805 30.2847 24.3551 30.4042 24.3057C30.5236 24.2563 30.6321 24.1838 30.7235 24.0924C30.8149 24.001 30.8874 23.8925 30.9368 23.7731C30.9862 23.6536 31.0116 23.5256 31.0115 23.3964C31.0115 22.6704 30.4223 22.53 29.8343 22.3896C28.5995 22.0956 27.3635 21.8016 27.3635 19.7484C27.3635 19.0128 27.6611 18.3468 28.1435 17.8644C28.4339 17.574 28.7903 17.3508 29.1875 17.2188ZM30.0275 12.5616C27.5399 12.5616 25.2875 13.5696 23.6567 15.2004C22.0259 16.8312 21.0179 19.0836 21.0179 21.5712C21.0179 24.0588 22.0259 26.3112 23.6567 27.942C25.2875 29.5728 27.5399 30.5808 30.0275 30.5808C32.5151 30.5808 34.7675 29.5728 36.3983 27.942C38.0291 26.3112 39.0371 24.0588 39.0371 21.5712C39.0371 19.0836 38.0291 16.8312 36.3983 15.2004C34.7675 13.5708 32.5151 12.5616 30.0275 12.5616ZM35.2103 16.3884C33.8843 15.0624 32.0519 14.2416 30.0275 14.2416C28.0031 14.2416 26.1707 15.0624 24.8447 16.3884C23.5187 17.7144 22.6979 19.5468 22.6979 21.5712C22.6979 23.5956 23.5187 25.428 24.8447 26.754C26.1707 28.08 28.0031 28.9008 30.0275 28.9008C32.0519 28.9008 33.8843 28.08 35.2103 26.754C36.5363 25.428 37.3571 23.5956 37.3571 21.5712C37.3571 19.5468 36.5363 17.7144 35.2103 16.3884ZM10.1087 7.9344V7.4256C10.1087 6.9612 10.4843 6.5856 10.9487 6.5856C11.4131 6.5856 11.7887 6.9612 11.7887 7.4256V7.9344C12.1859 8.0664 12.5423 8.2896 12.8327 8.58C13.3151 9.0624 13.6127 9.7284 13.6127 10.464C13.6127 10.9284 13.2371 11.304 12.7727 11.304C12.3083 11.304 11.9327 10.9284 11.9327 10.464C11.9327 10.1928 11.8223 9.9468 11.6447 9.768C11.4599 9.58369 11.2096 9.48018 10.9487 9.48018C10.6877 9.48018 10.4374 9.58369 10.2527 9.768C10.1612 9.85932 10.0887 9.96782 10.0392 10.0873C9.98981 10.2067 9.96448 10.3347 9.96469 10.464C9.96469 11.19 10.5539 11.3304 11.1419 11.4708C12.3767 11.7648 13.6127 12.0588 13.6127 14.112C13.6127 14.8476 13.3139 15.5136 12.8327 15.996C12.5394 16.2891 12.182 16.5102 11.7887 16.6416V17.1504C11.7887 17.6148 11.4131 17.9904 10.9487 17.9904C10.4843 17.9904 10.1087 17.6148 10.1087 17.1504V16.6416C9.71149 16.5096 9.35509 16.2864 9.06469 15.996C8.58229 15.5136 8.28469 14.8476 8.28469 14.112C8.28469 13.6476 8.66029 13.272 9.12469 13.272C9.58909 13.272 9.96469 13.6476 9.96469 14.112C9.96469 14.3832 10.0751 14.6292 10.2527 14.808C10.4374 14.9923 10.6877 15.0958 10.9487 15.0958C11.2096 15.0958 11.4599 14.9923 11.6447 14.808C11.7362 14.7167 11.8087 14.6082 11.8581 14.4887C11.9076 14.3693 11.9329 14.2413 11.9327 14.112C11.9327 13.386 11.3435 13.2456 10.7555 13.1052C9.52069 12.8112 8.28469 12.5172 8.28469 10.464C8.28469 9.7284 8.58229 9.0624 9.06469 8.58C9.35509 8.2896 9.71029 8.0664 10.1087 7.9344ZM10.9487 3.2772C8.46109 3.2772 6.20869 4.2852 4.57789 5.916C2.94709 7.5468 1.93909 9.7992 1.93909 12.2868C1.93909 14.7744 2.94709 17.0268 4.57789 18.6576C6.20869 20.2884 8.46109 21.2964 10.9487 21.2964C13.4363 21.2964 15.6887 20.2884 17.3195 18.6576C18.9503 17.0268 19.9583 14.7744 19.9583 12.2868C19.9583 9.7992 18.9503 7.5468 17.3195 5.916C15.6887 4.2852 13.4363 3.2772 10.9487 3.2772ZM16.1315 7.104C14.8055 5.778 12.9731 4.9572 10.9487 4.9572C8.92429 4.9572 7.09189 5.7768 5.76589 7.104C4.43989 8.4312 3.61909 10.2624 3.61909 12.2868C3.61909 14.3112 4.43989 16.1436 5.76589 17.4696C7.09189 18.7956 8.92429 19.6164 10.9487 19.6164C12.9731 19.6164 14.8055 18.7956 16.1315 17.4696C17.4575 16.1436 18.2783 14.3112 18.2783 12.2868C18.2771 10.2624 17.4575 8.43 16.1315 7.104ZM3.88909 25.4568H18.0071C18.4715 25.4568 18.8471 25.8324 18.8471 26.2968V59.16C18.8471 59.6244 18.4715 60 18.0071 60H3.88909C3.42469 60 3.04909 59.6244 3.04909 59.16V26.2968C3.04909 25.8324 3.42589 25.4568 3.88909 25.4568ZM17.1683 27.1368H4.72909V58.32H17.1671V27.1368H17.1683ZM56.1659 60H42.0467C41.5823 60 41.2067 59.6244 41.2067 59.16V24.054C41.2067 23.5896 41.5823 23.214 42.0467 23.214H56.1647C56.6291 23.214 57.0047 23.5896 57.0047 24.054V59.16C57.0059 59.6244 56.6291 60 56.1659 60ZM42.8867 58.32H55.3247V24.894H42.8867V58.32ZM36.2471 36.5964H23.8079V58.32H36.2459V36.5964H36.2471Z" fill="#60AAF6" stroke="#60AAF6" stroke-width="0.2"/>
</g>
<defs>
<clipPath id="clip0_5670_35515">
<rect width="60" height="60" fill="white" transform="translate(0.0274658)"/>
</clipPath>
</defs>
</svg>
