<svg width="61" height="60" viewBox="0 0 61 60" fill="none" xmlns="http://www.w3.org/2000/svg">
<path d="M30.0274 16.5938C27.6423 16.5926 25.3 17.228 23.2425 18.4345C21.185 19.641 19.4868 21.3748 18.3232 23.4569C17.1597 25.539 16.573 27.894 16.6236 30.2786C16.6743 32.6632 17.3605 34.9911 18.6115 37.0219C18.6357 37.0696 18.6646 37.1148 18.6977 37.1569C19.7646 38.8382 21.19 40.2629 22.8719 41.3288C22.913 41.3615 22.9573 41.3899 23.0041 41.4136C24.769 42.501 26.7619 43.1644 28.8264 43.3515C30.8909 43.5386 32.9706 43.2445 34.9022 42.4922C36.8338 41.7398 38.5647 40.5498 39.9587 39.0156C41.3528 37.4814 42.372 35.6449 42.9365 33.6502C43.5009 31.6556 43.5951 29.5573 43.2116 27.5201C42.8282 25.4829 41.9775 23.5624 40.7265 21.9095C39.4755 20.2566 37.8583 18.9163 36.0018 17.994C34.1454 17.0716 32.1004 16.5923 30.0274 16.5938ZM20.3988 36.7523L22.9301 34.2211C23.0497 34.1014 23.1295 33.9477 23.1583 33.781C23.1872 33.6142 23.1638 33.4426 23.0913 33.2897C22.4541 31.9509 22.2185 30.4563 22.4128 28.9864C22.6071 27.5165 23.2232 26.1345 24.1864 25.0073C25.1496 23.8802 26.4187 23.0562 27.8403 22.6351C29.2619 22.214 30.7751 22.2138 32.1968 22.6345L27.4291 27.4022C27.353 27.4783 27.2926 27.5687 27.2514 27.6682C27.2102 27.7677 27.189 27.8744 27.1891 27.982V32.018C27.1891 32.2355 27.2756 32.4442 27.4294 32.598C27.5832 32.7519 27.7919 32.8383 28.0094 32.8383H32.0459C32.1536 32.8383 32.2602 32.817 32.3597 32.7758C32.4592 32.7345 32.5496 32.674 32.6257 32.5978L37.3929 27.8311C37.8141 29.253 37.8141 30.7666 37.3931 32.1885C36.9721 33.6105 36.148 34.88 35.0206 35.8435C33.8931 36.8069 32.5107 37.423 31.0404 37.6171C29.5702 37.8113 28.0752 37.5752 26.7363 36.9375C26.5835 36.8647 26.4118 36.8411 26.245 36.87C26.0781 36.8988 25.9244 36.9788 25.8049 37.0988L23.2737 39.63C22.157 38.8433 21.1844 37.8698 20.3988 36.7523ZM30.0274 41.7656C28.1847 41.7675 26.3677 41.3338 24.7244 40.5L26.5699 38.6541C28.3093 39.3515 30.2187 39.508 32.0485 39.1031C33.8783 38.6983 35.5434 37.7509 36.8262 36.3848C38.1091 35.0187 38.9501 33.2974 39.2392 31.4458C39.5284 29.5942 39.2523 27.6985 38.4471 26.0063C38.3909 25.8875 38.3069 25.7839 38.2023 25.7044C38.0977 25.6248 37.9755 25.5716 37.846 25.5492C37.7165 25.5268 37.5835 25.5358 37.4582 25.5755C37.3329 25.6153 37.2191 25.6845 37.1262 25.7775L31.706 31.1977H28.8298V28.3219L34.2499 22.9013C34.3429 22.8084 34.4121 22.6945 34.4519 22.5692C34.4916 22.4439 34.5006 22.3109 34.4782 22.1814C34.4558 22.0519 34.4026 21.9297 34.323 21.8251C34.2435 21.7205 34.1399 21.6365 34.0212 21.5803C32.3289 20.7751 30.4332 20.499 28.5816 20.7882C26.73 21.0773 25.0087 21.9183 23.6426 23.2012C22.2765 24.484 21.3291 26.1492 20.9243 27.9789C20.5194 29.8087 20.6759 31.7181 21.3734 33.4575L19.5274 35.3034C18.3726 33.0165 17.9958 30.4152 18.4542 27.8946C18.9127 25.374 20.1813 23.0719 22.0674 21.3381C23.9535 19.6043 26.354 18.5335 28.9042 18.2884C31.4544 18.0432 34.0149 18.6372 36.1967 19.98C38.3786 21.3228 40.0625 23.3411 40.9927 25.7282C41.9229 28.1153 42.0485 30.7408 41.3504 33.2058C40.6524 35.6708 39.1688 37.8406 37.1251 39.3855C35.0815 40.9305 32.5894 41.7662 30.0274 41.7656Z" fill="#60AAF6" stroke="#60AAF6" stroke-width="0.5"/>
<path d="M57.0711 24.6878H51.7817C51.2404 22.4608 50.3569 20.3313 49.1628 18.3751L52.9067 14.6317C53.0604 14.4778 53.1468 14.2692 53.1468 14.0516C53.1468 13.8341 53.0604 13.6254 52.9067 13.4715L46.5542 7.12092C46.3975 6.97256 46.1899 6.88989 45.9741 6.88989C45.7583 6.88989 45.5507 6.97256 45.394 7.12092L41.6525 10.8644C39.6962 9.67038 37.5667 8.78692 35.3398 8.24545V2.95654C35.3399 2.8488 35.3187 2.7421 35.2775 2.64255C35.2363 2.543 35.1759 2.45254 35.0997 2.37636C35.0235 2.30017 34.933 2.23975 34.8335 2.19855C34.7339 2.15734 34.6272 2.13617 34.5195 2.13623H25.5354C25.3179 2.13623 25.1092 2.22266 24.9554 2.37649C24.8015 2.53033 24.7151 2.73898 24.7151 2.95654V8.24545C22.4882 8.78692 20.3587 9.67038 18.4025 10.8644L14.659 7.12092C14.5829 7.04468 14.4925 6.9842 14.3929 6.94293C14.2934 6.90167 14.1867 6.88043 14.0789 6.88043C13.9712 6.88043 13.8645 6.90167 13.765 6.94293C13.6654 6.9842 13.575 7.04468 13.4989 7.12092L7.14824 13.4734C7.072 13.5496 7.01152 13.64 6.97026 13.7395C6.92899 13.8391 6.90775 13.9457 6.90775 14.0535C6.90775 14.1612 6.92899 14.2679 6.97026 14.3675C7.01152 14.467 7.072 14.5574 7.14824 14.6336L10.8917 18.3751C9.6977 20.3314 8.81424 22.4609 8.27277 24.6878H2.9834C2.76588 24.6879 2.5573 24.7744 2.40349 24.9282C2.24968 25.082 2.16321 25.2906 2.16309 25.5081V34.4922C2.16321 34.7097 2.24968 34.9183 2.40349 35.0721C2.5573 35.2259 2.76588 35.3124 2.9834 35.3125H8.27277C8.81424 37.5394 9.6977 39.6689 10.8917 41.6251L7.14824 45.3686C7.072 45.4447 7.01152 45.5351 6.97026 45.6347C6.92899 45.7342 6.90775 45.8409 6.90775 45.9487C6.90775 46.0564 6.92899 46.1631 6.97026 46.2626C7.01152 46.3622 7.072 46.4526 7.14824 46.5287L13.5007 52.8812C13.5769 52.9575 13.6673 53.0179 13.7668 53.0592C13.8664 53.1005 13.9731 53.1217 14.0808 53.1217C14.1886 53.1217 14.2953 53.1005 14.3948 53.0592C14.4943 53.0179 14.5848 52.9575 14.6609 52.8812L18.4043 49.1378C20.3599 50.3317 22.4888 51.215 24.7151 51.7562V57.0456C24.7151 57.2632 24.8015 57.4718 24.9554 57.6257C25.1092 57.7795 25.3179 57.8659 25.5354 57.8659H34.5195C34.6272 57.866 34.7339 57.8448 34.8335 57.8036C34.933 57.7624 35.0235 57.702 35.0997 57.6258C35.1759 57.5496 35.2363 57.4592 35.2775 57.3596C35.3187 57.26 35.3399 57.1533 35.3398 57.0456V51.7544C37.5668 51.2132 39.6963 50.3299 41.6525 49.1359L45.3959 52.8794C45.5526 53.0277 45.7602 53.1104 45.976 53.1104C46.1918 53.1104 46.3994 53.0277 46.5561 52.8794L52.9086 46.5269C53.0623 46.373 53.1487 46.1643 53.1487 45.9468C53.1487 45.7292 53.0623 45.5206 52.9086 45.3667L49.1628 41.6251C50.3567 39.6696 51.2402 37.5407 51.7817 35.3144H57.0711C57.2886 35.3144 57.4973 35.2279 57.6511 35.0741C57.8049 34.9203 57.8914 34.7116 57.8914 34.494V25.5081C57.8914 25.2905 57.8049 25.0819 57.6511 24.9281C57.4973 24.7742 57.2886 24.6878 57.0711 24.6878ZM56.2507 33.6719H51.1273C50.9392 33.6717 50.7567 33.7362 50.6105 33.8545C50.4643 33.9729 50.3633 34.138 50.3243 34.322C49.7987 36.8043 48.8181 39.1679 47.4321 41.2933C47.3295 41.4508 47.2841 41.6388 47.3037 41.8258C47.3232 42.0128 47.4065 42.1874 47.5395 42.3203L51.1681 45.947L45.9739 51.1408L42.3476 47.5145C42.2148 47.3814 42.0402 47.2981 41.8532 47.2785C41.6662 47.2588 41.4782 47.3041 41.3206 47.4067C39.1954 48.7927 36.832 49.7732 34.3498 50.2989C34.1658 50.3377 34.0006 50.4386 33.8822 50.5848C33.7637 50.7309 33.6991 50.9133 33.6992 51.1014V56.2248H26.3557V51.1014C26.3562 50.9131 26.2918 50.7303 26.1734 50.5838C26.055 50.4374 25.8898 50.3361 25.7056 50.297C23.2232 49.7715 20.8596 48.7909 18.7343 47.4048C18.5767 47.3024 18.3887 47.2572 18.2017 47.2768C18.0148 47.2965 17.8402 47.3797 17.7073 47.5126L14.0806 51.1408L8.88684 45.947L12.5131 42.3203C12.6462 42.1875 12.7295 42.0129 12.7491 41.8259C12.7688 41.6389 12.7235 41.4508 12.6209 41.2933C11.2354 39.1678 10.2555 36.8042 9.73059 34.322C9.69143 34.1382 9.59038 33.9733 9.44433 33.855C9.29828 33.7367 9.11606 33.672 8.92809 33.6719H3.80371V26.3284H8.92762C9.11567 26.3284 9.298 26.2638 9.44415 26.1454C9.5903 26.0271 9.69141 25.8622 9.73059 25.6783C10.2561 23.1959 11.2367 20.8323 12.6228 18.707C12.7254 18.5494 12.7707 18.3614 12.751 18.1744C12.7314 17.9874 12.648 17.8128 12.515 17.68L8.88684 14.0533L14.0806 8.85951L17.7073 12.4858C17.8401 12.6188 18.0147 12.7022 18.2017 12.7218C18.3887 12.7415 18.5768 12.6962 18.7343 12.5936C20.8599 11.2083 23.2234 10.2284 25.7056 9.70326C25.8895 9.66418 26.0544 9.56316 26.1727 9.41709C26.291 9.27102 26.3557 9.08875 26.3557 8.90076V3.77686H33.6992V8.90029C33.6991 9.08845 33.7637 9.27093 33.8821 9.41712C34.0006 9.56331 34.1657 9.66434 34.3498 9.70326C36.8319 10.229 39.1953 11.2096 41.3206 12.5955C41.4782 12.6979 41.6662 12.7431 41.8532 12.7234C42.0402 12.7038 42.2147 12.6206 42.3476 12.4876L45.9739 8.85951L51.1681 14.0533L47.5414 17.68C47.4084 17.8129 47.3251 17.9875 47.3055 18.1745C47.286 18.3615 47.3314 18.5495 47.434 18.707C48.8193 20.8325 49.7993 23.1961 50.3243 25.6783C50.3633 25.8622 50.4642 26.0272 50.6103 26.1456C50.7564 26.264 50.9388 26.3285 51.1268 26.3284H56.2503L56.2507 33.6719Z" fill="#60AAF6" stroke="#60AAF6" stroke-width="0.5"/>
</svg>
