<svg width="61" height="60" viewBox="0 0 61 60" fill="none" xmlns="http://www.w3.org/2000/svg">
<path d="M30.865 21.5521V21.6531L30.966 21.6521C33.0434 21.6309 35.0704 21.5399 37.0028 21.3834L37.0989 21.3756L37.0947 21.2793C37.0261 19.722 36.817 18.174 36.4701 16.6542L36.451 16.5706L36.3655 16.5767C34.6253 16.7008 32.8162 16.7727 30.964 16.7909L30.865 16.7919V16.8909V21.5521ZM37.1113 23.165L37.1139 23.0543L37.0034 23.063C35.0652 23.2169 33.038 23.3061 30.964 23.327L30.865 23.328V23.427V28.2498V28.3509L30.9661 28.3498C32.8345 28.3303 34.674 28.2531 36.4455 28.1216L36.5201 28.1161L36.5359 28.0429C36.8805 26.4386 37.0732 24.8055 37.1113 23.165ZM30.865 15.016V15.117L30.966 15.116C32.6499 15.0991 34.2956 15.0369 35.8843 14.931L36.0116 14.9225L35.973 14.801C35.5964 13.6134 35.1118 12.4628 34.5254 11.3636L34.4881 11.2937L34.4115 11.314C33.2836 11.6132 32.1266 11.7891 30.9607 11.8386L30.865 11.8426V11.9385V15.016ZM34.8688 9.39646L35.1308 9.3045L34.8703 9.20829C33.3198 8.63576 31.6805 8.34099 30.0277 8.3375L30.0273 8.3375C28.3744 8.34099 26.7352 8.63576 25.1847 9.20829L24.9241 9.3045L25.1862 9.39646C26.7412 9.94212 28.3797 10.2113 30.0275 10.1919C31.6753 10.2113 33.3138 9.94212 34.8688 9.39646ZM25.2837 11.2014L25.206 11.1782L25.1673 11.2495C24.5572 12.374 24.0548 13.5537 23.6666 14.7727L23.6281 14.8937L23.7547 14.9028C25.4709 15.0263 27.258 15.0976 29.089 15.116L29.19 15.117V15.016V11.9385V11.8426L29.0942 11.8386C27.8026 11.7842 26.5227 11.5702 25.2837 11.2014ZM22.5379 21.2449L22.5336 21.3408L22.6292 21.3491C24.6868 21.5272 26.86 21.6293 29.089 21.6521L29.19 21.6531V21.5521V16.8909V16.7919L29.091 16.7909C27.0914 16.7713 25.1389 16.6913 23.2727 16.5484L23.1869 16.5418L23.1676 16.6257C22.8192 18.1434 22.6084 19.6894 22.5379 21.2449ZM29.19 23.427V23.328L29.091 23.327C26.8653 23.3046 24.6926 23.2036 22.6275 23.0285L22.5167 23.0191L22.5191 23.1303C22.5553 24.7714 22.746 26.4054 23.0887 28.0107L23.1043 28.0835L23.1786 28.0895C25.0809 28.2411 27.0689 28.3287 29.0889 28.3498L29.19 28.3509V28.2498V23.427ZM23.0924 10.2301L23.0412 10.1974L22.9887 10.2277C21.2567 11.2266 19.7543 12.5788 18.5791 14.1964L18.4822 14.3298L18.6453 14.3541C19.6702 14.5066 20.7431 14.6358 21.8508 14.7438L21.9329 14.7518L21.9564 14.6728C22.3713 13.2751 22.9219 11.9213 23.6002 10.6307L23.6463 10.5429L23.5589 10.496C23.3956 10.4086 23.2373 10.3225 23.0924 10.2301ZM17.5959 15.8798L17.5246 15.8681L17.4911 15.9321C16.7693 17.3106 16.2815 18.7995 16.0477 20.3379L16.0334 20.4322L16.1269 20.451C17.5503 20.7367 19.1026 20.9757 20.7576 21.1628L20.8634 21.1748L20.8687 21.0685C20.9458 19.5322 21.1513 18.0051 21.4828 16.503L21.507 16.3936L21.3955 16.382C20.0685 16.2448 18.802 16.0774 17.5959 15.8798ZM15.865 22.5L15.865 22.5002C15.8683 24.1041 16.1458 25.6956 16.6856 27.2059L16.705 27.2601L16.7616 27.2706C18.1433 27.5263 19.6376 27.7413 21.2198 27.9094L21.3538 27.9236L21.3286 27.7913C21.0249 26.1927 20.861 24.5707 20.8387 22.9436L20.8375 22.8553L20.7497 22.8456C19.057 22.6587 17.4622 22.4208 15.9977 22.1342L15.8808 22.1113L15.8786 22.2304C15.8778 22.2691 15.8751 22.3074 15.8721 22.3489L15.8714 22.3589C15.8682 22.4032 15.865 22.4508 15.865 22.5ZM22.9888 34.7723L23.0413 34.8025L23.0924 34.77C23.2373 34.6776 23.3956 34.5914 23.5589 34.5039L23.6463 34.4571L23.6002 34.3693C22.8237 32.8886 22.2131 31.3267 21.7796 29.7119L21.7617 29.645L21.6927 29.6383C20.2998 29.5028 18.9605 29.3358 17.7023 29.1347L17.5004 29.1025L17.5989 29.2817C18.8583 31.5713 20.7229 33.4708 22.9888 34.7723ZM29.19 30.1247V30.0258L29.091 30.0247C27.2518 30.0059 25.4382 29.9325 23.6861 29.8067L23.5414 29.7963L23.5832 29.9353C23.9815 31.257 24.5121 32.5351 25.1672 33.7502L25.2057 33.8218L25.2837 33.7986C26.5227 33.4298 27.8026 33.2158 29.0942 33.1614L29.19 33.1574V33.0615V30.1247ZM25.1862 35.6035L24.9242 35.6954L25.1847 35.7917C26.7352 36.3642 28.3745 36.659 30.0273 36.6625H30.0277C31.6805 36.659 33.3198 36.3642 34.8702 35.7917L35.1308 35.6954L34.8687 35.6035C33.3137 35.0578 31.6753 34.7887 30.0275 34.8081C28.3797 34.7887 26.7412 35.0578 25.1862 35.6035ZM34.4115 33.686L34.4883 33.7063L34.5255 33.6362C35.147 32.4651 35.6539 31.2366 36.039 29.9679L36.081 29.8295L35.9367 29.839C34.3197 29.9465 32.6514 30.0074 30.9639 30.0247L30.865 30.0258V30.1247V33.0615V33.1574L30.9607 33.1614C32.1266 33.2109 33.2836 33.3868 34.4115 33.686ZM36.9625 34.7699L37.0136 34.8026L37.0661 34.7724C39.3321 33.4708 41.1966 31.5714 42.456 29.2817L42.5546 29.1025L42.3526 29.1348C40.9632 29.3568 39.4776 29.5392 37.9271 29.681L37.8578 29.6873L37.8397 29.7545C37.4246 31.2901 36.85 32.7782 36.1252 34.1942L36.0784 34.2857L36.1711 34.33C36.4436 34.4603 36.7079 34.6072 36.9625 34.7699ZM44.19 22.5002V22.5C44.19 22.4508 44.1868 22.4032 44.1836 22.3589L44.1829 22.3488C44.1799 22.3074 44.1771 22.2691 44.1764 22.2304L44.1741 22.1113L44.0572 22.1342C42.4709 22.4446 40.7313 22.698 38.881 22.8912L38.7927 22.9004L38.7914 22.9891C38.7666 24.6152 38.6 26.2361 38.2937 27.8333L38.2684 27.965L38.4019 27.9517C40.1423 27.7773 41.787 27.5493 43.2933 27.2706L43.3499 27.2601L43.3693 27.2059C43.9091 25.6956 44.1867 24.1041 44.19 22.5002ZM43.928 20.451L44.0215 20.4322L44.0072 20.3379C43.7734 18.7995 43.2857 17.3106 42.5638 15.9321L42.5303 15.8681L42.459 15.8798C41.1286 16.0978 39.7203 16.2795 38.2453 16.4211L38.133 16.4318L38.1572 16.542C38.4866 18.0462 38.6896 19.5753 38.7641 21.1134L38.7693 21.2192L38.8747 21.208C40.6866 21.0144 42.3846 20.7609 43.928 20.451ZM37.6857 14.7093L37.7089 14.7881L37.7907 14.7806C39.0445 14.6655 40.2587 14.5253 41.4097 14.3541L41.5728 14.3298L41.4759 14.1964C40.3007 12.5788 38.7983 11.2266 37.0663 10.2277L37.0137 10.1974L36.9625 10.2301C36.7079 10.3928 36.4436 10.5397 36.1711 10.67L36.0783 10.7143L36.1252 10.8058C36.7659 12.0555 37.2884 13.3624 37.6857 14.7093ZM21.2286 9.3316C23.8331 7.59136 26.8951 6.66251 30.0274 6.6625C34.2264 6.6672 38.252 8.3373 41.2211 11.3064C44.1902 14.2755 45.8603 18.3012 45.865 22.5001C45.865 25.6324 44.9361 28.6944 43.1959 31.2988C41.4556 33.9033 38.9821 35.9332 36.0882 37.1319C33.1943 38.3306 30.0099 38.6443 26.9377 38.0332C23.8656 37.4221 21.0436 35.9137 18.8287 33.6988C16.6138 31.4839 15.1054 28.6619 14.4943 25.5897C13.8832 22.5176 14.1968 19.3332 15.3955 16.4392C16.5942 13.5453 18.6242 11.0718 21.2286 9.3316Z" fill="#60AAF6" stroke="white" stroke-width="0.2"/>
<mask id="path-2-inside-1_5670_35524" fill="white">
<path d="M55.34 11.2499V9.24176C56.2237 9.01358 56.9939 8.47092 57.5062 7.7155C58.0184 6.96009 58.2376 6.04377 58.1226 5.13832C58.0076 4.23287 57.5663 3.40045 56.8814 2.79708C56.1966 2.19372 55.3152 1.86084 54.4025 1.86084C53.4897 1.86084 52.6084 2.19372 51.9235 2.79708C51.2387 3.40045 50.7974 4.23287 50.6824 5.13832C50.5674 6.04377 50.7865 6.96009 51.2988 7.7155C51.8111 8.47092 52.5812 9.01358 53.465 9.24176V10.3124H46.6528C44.9334 7.96036 42.7344 6.00008 40.2011 4.56111C37.6678 3.12214 34.858 2.23727 31.9572 1.96498C29.0565 1.6927 26.1311 2.03921 23.3742 2.98161C20.6174 3.92401 18.092 5.44083 15.965 7.4318V5.62489C15.965 5.50176 15.9408 5.37984 15.8937 5.26608C15.8466 5.15233 15.7775 5.04896 15.6905 4.9619C15.6034 4.87484 15.5 4.80579 15.3863 4.75868C15.2725 4.71158 15.1506 4.68735 15.0275 4.68739H9.26935C9.04117 3.80364 8.49851 3.03346 7.74309 2.5212C6.98767 2.00894 6.07136 1.78977 5.16591 1.90478C4.26046 2.01978 3.42804 2.46107 2.82467 3.14592C2.22131 3.83077 1.88843 4.71216 1.88843 5.62489C1.88843 6.53761 2.22131 7.419 2.82467 8.10385C3.42804 8.7887 4.26046 9.22999 5.16591 9.345C6.07136 9.46 6.98767 9.24084 7.74309 8.72858C8.49851 8.21631 9.04117 7.44613 9.26935 6.56239H14.09V9.37489H14.1295C11.0701 13.064 9.39787 17.7073 9.40247 22.4999C9.5447 27.838 11.1684 33.0314 14.0921 37.4999H6.58997V35.4918C7.47372 35.2636 8.2439 34.7209 8.75616 33.9655C9.26843 33.2101 9.48759 32.2938 9.37259 31.3883C9.25758 30.4829 8.81629 29.6504 8.13144 29.0471C7.44659 28.4437 6.5652 28.1108 5.65247 28.1108C4.73975 28.1108 3.85836 28.4437 3.17351 29.0471C2.48866 29.6504 2.04737 30.4829 1.93236 31.3883C1.81736 32.2938 2.03652 33.2101 2.54879 33.9655C3.06105 34.7209 3.83123 35.2636 4.71497 35.4918V38.4374C4.71494 38.5605 4.73917 38.6824 4.78627 38.7962C4.83337 38.9099 4.90243 39.0133 4.98949 39.1004C5.07655 39.1874 5.17991 39.2565 5.29367 39.3036C5.40743 39.3507 5.52935 39.3749 5.65247 39.3749H15.4007C15.7593 39.8492 16.1266 40.3152 16.5115 40.7619C17.1356 41.4904 17.6814 42.2824 18.1401 43.1249H13.1525C13.0294 43.1249 12.9074 43.1491 12.7937 43.1962C12.6799 43.2433 12.5766 43.3123 12.4895 43.3994C12.4024 43.4865 12.3334 43.5898 12.2863 43.7036C12.2392 43.8173 12.2149 43.9393 12.215 44.0624V50.6249H10.2068C9.97867 49.7411 9.43601 48.971 8.68059 48.4587C7.92517 47.9464 7.00886 47.7273 6.10341 47.8423C5.19796 47.9573 4.36554 48.3986 3.76217 49.0834C3.15881 49.7683 2.82593 50.6497 2.82593 51.5624C2.82593 52.4751 3.15881 53.3565 3.76217 54.0414C4.36554 54.7262 5.19796 55.1675 6.10341 55.2825C7.00886 55.3975 7.92517 55.1783 8.68059 54.6661C9.43601 54.1538 9.97867 53.3836 10.2068 52.4999H13.1525C13.2756 52.4999 13.3975 52.4757 13.5113 52.4286C13.625 52.3815 13.7284 52.3124 13.8155 52.2254C13.9025 52.1383 13.9716 52.0349 14.0187 51.9212C14.0658 51.8074 14.09 51.6855 14.09 51.5624V44.9999H18.9878C19.4617 46.3021 19.7077 47.6763 19.715 49.0621V49.4814C19.3403 49.814 19.0621 50.2413 18.9097 50.7186C18.7572 51.1959 18.7362 51.7054 18.8488 52.1936C18.9613 52.6818 19.2033 53.1306 19.5493 53.493C19.8953 53.8553 20.3325 54.1178 20.815 54.2527C20.7104 54.5345 20.6554 54.8323 20.6525 55.1329V55.4918C20.6533 56.19 20.9311 56.8593 21.4248 57.3529C21.9185 57.8465 22.5878 58.1242 23.286 58.1249H36.769C37.4671 58.1242 38.1365 57.8465 38.6302 57.3529C39.1239 56.8593 39.4016 56.19 39.4025 55.4918V55.1329C39.3995 54.8323 39.3445 54.5345 39.2399 54.2527C39.7224 54.1178 40.1596 53.8553 40.5056 53.493C40.8516 53.1306 41.0936 52.6818 41.2062 52.1936C41.3187 51.7054 41.2977 51.1959 41.1453 50.7186C40.9929 50.2414 40.7147 49.814 40.34 49.4814V49.0621C40.3802 46.0012 41.5168 43.0562 43.5434 40.7619C43.6697 40.6154 43.7897 40.462 43.9132 40.3124H46.9025V49.6874C46.9024 49.8105 46.9267 49.9324 46.9738 50.0462C47.0209 50.1599 47.0899 50.2633 47.177 50.3504C47.2641 50.4374 47.3674 50.5065 47.4812 50.5536C47.5949 50.6007 47.7169 50.6249 47.84 50.6249H50.7856C51.0138 51.5086 51.5564 52.2788 52.3119 52.7911C53.0673 53.3033 53.9836 53.5225 54.889 53.4075C55.7945 53.2925 56.6269 52.8512 57.2303 52.1664C57.8336 51.4815 58.1665 50.6001 58.1665 49.6874C58.1665 48.7747 57.8336 47.8933 57.2303 47.2084C56.6269 46.5236 55.7945 46.0823 54.889 45.9673C53.9836 45.8523 53.0673 46.0714 52.3119 46.5837C51.5564 47.096 51.0138 47.8661 50.7856 48.7499H48.7775V39.3749C48.7775 39.2518 48.7533 39.1298 48.7062 39.0161C48.6591 38.9023 48.59 38.799 48.503 38.7119C48.4159 38.6248 48.3125 38.5558 48.1988 38.5087C48.085 38.4616 47.9631 38.4374 47.84 38.4374H45.3351C47.6892 35.0522 49.3334 31.2253 50.1684 27.1874H53.465V29.1955C52.5812 29.4237 51.8111 29.9664 51.2988 30.7218C50.7865 31.4772 50.5674 32.3935 50.6824 33.2989C50.7974 34.2044 51.2387 35.0368 51.9235 35.6402C52.6084 36.2436 53.4897 36.5764 54.4025 36.5764C55.3152 36.5764 56.1966 36.2436 56.8814 35.6402C57.5663 35.0368 58.0076 34.2044 58.1226 33.2989C58.2376 32.3935 58.0184 31.4772 57.5062 30.7218C56.9939 29.9664 56.2237 29.4237 55.34 29.1955V26.2499C55.34 26.1268 55.3158 26.0048 55.2687 25.8911C55.2216 25.7773 55.1525 25.674 55.0655 25.5869C54.9784 25.4998 54.875 25.4308 54.7613 25.3837C54.6475 25.3366 54.5256 25.3124 54.4025 25.3124H50.4669C50.5864 24.3796 50.6484 23.4403 50.6525 22.4999C50.6553 18.8776 49.6979 15.3192 47.8777 12.1874H54.4025C54.5256 12.1874 54.6475 12.1632 54.7613 12.1161C54.875 12.069 54.9784 11.9999 55.0655 11.9129C55.1525 11.8258 55.2216 11.7224 55.2687 11.6087C55.3158 11.4949 55.34 11.373 55.34 11.2499ZM5.65247 7.49989C5.28163 7.49989 4.91912 7.38992 4.61078 7.18389C4.30244 6.97786 4.06211 6.68503 3.9202 6.34242C3.77829 5.99981 3.74115 5.62281 3.8135 5.25909C3.88585 4.89538 4.06443 4.56128 4.32665 4.29906C4.58887 4.03684 4.92297 3.85826 5.28668 3.78591C5.65039 3.71357 6.02739 3.7507 6.37001 3.89261C6.71262 4.03453 7.00545 4.27485 7.21148 4.58319C7.41751 4.89153 7.52747 5.25405 7.52747 5.62489C7.52691 6.12199 7.32918 6.59858 6.97767 6.95008C6.62616 7.30159 6.14958 7.49932 5.65247 7.49989ZM3.77747 31.8749C3.77747 31.504 3.88744 31.1415 4.09347 30.8332C4.2995 30.5248 4.59233 30.2845 4.93494 30.1426C5.27755 30.0007 5.65455 29.9636 6.01827 30.0359C6.38198 30.1083 6.71608 30.2868 6.9783 30.5491C7.24052 30.8113 7.4191 31.1454 7.49145 31.5091C7.56379 31.8728 7.52666 32.2498 7.38475 32.5924C7.24283 32.935 7.00251 33.2279 6.69417 33.4339C6.38583 33.6399 6.02331 33.7499 5.65247 33.7499C5.15537 33.7493 4.67878 33.5516 4.32728 33.2001C3.97577 32.8486 3.77804 32.372 3.77747 31.8749ZM6.58997 53.4374C6.21913 53.4374 5.85662 53.3274 5.54828 53.1214C5.23994 52.9154 4.99961 52.6225 4.8577 52.2799C4.71579 51.9373 4.67865 51.5603 4.751 51.1966C4.82335 50.8329 5.00193 50.4988 5.26415 50.2366C5.52637 49.9743 5.86047 49.7958 6.22418 49.7234C6.58789 49.6511 6.96489 49.6882 7.30751 49.8301C7.65012 49.972 7.94295 50.2123 8.14898 50.5207C8.35501 50.829 8.46497 51.1915 8.46497 51.5624C8.46441 52.0595 8.26668 52.5361 7.91517 52.8876C7.56366 53.2391 7.08708 53.4368 6.58997 53.4374ZM54.4025 47.8124C54.7733 47.8124 55.1358 47.9223 55.4442 48.1284C55.7525 48.3344 55.9928 48.6272 56.1348 48.9699C56.2767 49.3125 56.3138 49.6895 56.2414 50.0532C56.1691 50.4169 55.9905 50.751 55.7283 51.0132C55.4661 51.2754 55.132 51.454 54.7683 51.5264C54.4046 51.5987 54.0276 51.5616 53.6849 51.4197C53.3423 51.2777 53.0495 51.0374 52.8435 50.7291C52.6374 50.4207 52.5275 50.0582 52.5275 49.6874C52.528 49.1903 52.7258 48.7137 53.0773 48.3622C53.4288 48.0107 53.9054 47.813 54.4025 47.8124ZM56.2775 32.8124C56.2775 33.1832 56.1675 33.5457 55.9615 33.8541C55.7555 34.1624 55.4626 34.4027 55.12 34.5447C54.7774 34.6866 54.4004 34.7237 54.0367 34.6514C53.673 34.579 53.3389 34.4004 53.0766 34.1382C52.8144 33.876 52.6358 33.5419 52.5635 33.1782C52.4912 32.8145 52.5283 32.4375 52.6702 32.0949C52.8121 31.7522 53.0524 31.4594 53.3608 31.2534C53.6691 31.0473 54.0316 30.9374 54.4025 30.9374C54.8996 30.938 55.3762 31.1357 55.7277 31.4872C56.0792 31.8387 56.2769 32.3153 56.2775 32.8124ZM37.5275 55.4918C37.5273 55.6929 37.4473 55.8857 37.3051 56.0278C37.1628 56.1699 36.97 56.2498 36.769 56.2499H23.286C23.0849 56.2498 22.8921 56.1699 22.7499 56.0278C22.6077 55.8857 22.5277 55.6929 22.5275 55.4918V55.1329C22.5277 54.9319 22.6077 54.7391 22.7499 54.597C22.8921 54.4548 23.0849 54.375 23.286 54.3749H36.769C36.97 54.375 37.1628 54.4548 37.3051 54.597C37.4473 54.7391 37.5273 54.9319 37.5275 55.1329V55.4918ZM38.465 52.4999H21.59C21.3413 52.4999 21.1029 52.4011 20.9271 52.2253C20.7512 52.0495 20.6525 51.811 20.6525 51.5624C20.6525 51.3137 20.7512 51.0753 20.9271 50.8995C21.1029 50.7237 21.3413 50.6249 21.59 50.6249H38.465C38.7136 50.6249 38.9521 50.7237 39.1279 50.8995C39.3037 51.0753 39.4025 51.3137 39.4025 51.5624C39.4025 51.811 39.3037 52.0495 39.1279 52.2253C38.9521 52.4011 38.7136 52.4999 38.465 52.4999ZM48.7775 22.4999C48.5732 28.7728 46.2247 34.7861 42.1234 39.5369C39.8763 42.0928 38.5847 45.3486 38.4686 48.7499H21.5863C21.4702 45.3486 20.1786 42.0928 17.9315 39.5369C13.8303 34.7861 11.4817 28.7728 11.2775 22.4999C11.2775 17.5271 13.2529 12.7579 16.7692 9.24163C20.2855 5.72533 25.0547 3.74989 30.0275 3.74989C35.0003 3.74989 39.7694 5.72533 43.2857 9.24163C46.802 12.7579 48.7775 17.5271 48.7775 22.4999ZM52.5275 5.62489C52.5275 5.25405 52.6374 4.89153 52.8435 4.58319C53.0495 4.27485 53.3423 4.03453 53.6849 3.89261C54.0276 3.7507 54.4046 3.71357 54.7683 3.78591C55.132 3.85826 55.4661 4.03684 55.7283 4.29906C55.9905 4.56128 56.1691 4.89538 56.2414 5.25909C56.3138 5.62281 56.2767 5.99981 56.1348 6.34242C55.9928 6.68503 55.7525 6.97786 55.4442 7.18389C55.1358 7.38992 54.7733 7.49989 54.4025 7.49989C53.9054 7.49932 53.4288 7.30159 53.0773 6.95008C52.7258 6.59858 52.528 6.12199 52.5275 5.62489Z"/>
</mask>
<path d="M55.34 11.2499V9.24176C56.2237 9.01358 56.9939 8.47092 57.5062 7.7155C58.0184 6.96009 58.2376 6.04377 58.1226 5.13832C58.0076 4.23287 57.5663 3.40045 56.8814 2.79708C56.1966 2.19372 55.3152 1.86084 54.4025 1.86084C53.4897 1.86084 52.6084 2.19372 51.9235 2.79708C51.2387 3.40045 50.7974 4.23287 50.6824 5.13832C50.5674 6.04377 50.7865 6.96009 51.2988 7.7155C51.8111 8.47092 52.5812 9.01358 53.465 9.24176V10.3124H46.6528C44.9334 7.96036 42.7344 6.00008 40.2011 4.56111C37.6678 3.12214 34.858 2.23727 31.9572 1.96498C29.0565 1.6927 26.1311 2.03921 23.3742 2.98161C20.6174 3.92401 18.092 5.44083 15.965 7.4318V5.62489C15.965 5.50176 15.9408 5.37984 15.8937 5.26608C15.8466 5.15233 15.7775 5.04896 15.6905 4.9619C15.6034 4.87484 15.5 4.80579 15.3863 4.75868C15.2725 4.71158 15.1506 4.68735 15.0275 4.68739H9.26935C9.04117 3.80364 8.49851 3.03346 7.74309 2.5212C6.98767 2.00894 6.07136 1.78977 5.16591 1.90478C4.26046 2.01978 3.42804 2.46107 2.82467 3.14592C2.22131 3.83077 1.88843 4.71216 1.88843 5.62489C1.88843 6.53761 2.22131 7.419 2.82467 8.10385C3.42804 8.7887 4.26046 9.22999 5.16591 9.345C6.07136 9.46 6.98767 9.24084 7.74309 8.72858C8.49851 8.21631 9.04117 7.44613 9.26935 6.56239H14.09V9.37489H14.1295C11.0701 13.064 9.39787 17.7073 9.40247 22.4999C9.5447 27.838 11.1684 33.0314 14.0921 37.4999H6.58997V35.4918C7.47372 35.2636 8.2439 34.7209 8.75616 33.9655C9.26843 33.2101 9.48759 32.2938 9.37259 31.3883C9.25758 30.4829 8.81629 29.6504 8.13144 29.0471C7.44659 28.4437 6.5652 28.1108 5.65247 28.1108C4.73975 28.1108 3.85836 28.4437 3.17351 29.0471C2.48866 29.6504 2.04737 30.4829 1.93236 31.3883C1.81736 32.2938 2.03652 33.2101 2.54879 33.9655C3.06105 34.7209 3.83123 35.2636 4.71497 35.4918V38.4374C4.71494 38.5605 4.73917 38.6824 4.78627 38.7962C4.83337 38.9099 4.90243 39.0133 4.98949 39.1004C5.07655 39.1874 5.17991 39.2565 5.29367 39.3036C5.40743 39.3507 5.52935 39.3749 5.65247 39.3749H15.4007C15.7593 39.8492 16.1266 40.3152 16.5115 40.7619C17.1356 41.4904 17.6814 42.2824 18.1401 43.1249H13.1525C13.0294 43.1249 12.9074 43.1491 12.7937 43.1962C12.6799 43.2433 12.5766 43.3123 12.4895 43.3994C12.4024 43.4865 12.3334 43.5898 12.2863 43.7036C12.2392 43.8173 12.2149 43.9393 12.215 44.0624V50.6249H10.2068C9.97867 49.7411 9.43601 48.971 8.68059 48.4587C7.92517 47.9464 7.00886 47.7273 6.10341 47.8423C5.19796 47.9573 4.36554 48.3986 3.76217 49.0834C3.15881 49.7683 2.82593 50.6497 2.82593 51.5624C2.82593 52.4751 3.15881 53.3565 3.76217 54.0414C4.36554 54.7262 5.19796 55.1675 6.10341 55.2825C7.00886 55.3975 7.92517 55.1783 8.68059 54.6661C9.43601 54.1538 9.97867 53.3836 10.2068 52.4999H13.1525C13.2756 52.4999 13.3975 52.4757 13.5113 52.4286C13.625 52.3815 13.7284 52.3124 13.8155 52.2254C13.9025 52.1383 13.9716 52.0349 14.0187 51.9212C14.0658 51.8074 14.09 51.6855 14.09 51.5624V44.9999H18.9878C19.4617 46.3021 19.7077 47.6763 19.715 49.0621V49.4814C19.3403 49.814 19.0621 50.2413 18.9097 50.7186C18.7572 51.1959 18.7362 51.7054 18.8488 52.1936C18.9613 52.6818 19.2033 53.1306 19.5493 53.493C19.8953 53.8553 20.3325 54.1178 20.815 54.2527C20.7104 54.5345 20.6554 54.8323 20.6525 55.1329V55.4918C20.6533 56.19 20.9311 56.8593 21.4248 57.3529C21.9185 57.8465 22.5878 58.1242 23.286 58.1249H36.769C37.4671 58.1242 38.1365 57.8465 38.6302 57.3529C39.1239 56.8593 39.4016 56.19 39.4025 55.4918V55.1329C39.3995 54.8323 39.3445 54.5345 39.2399 54.2527C39.7224 54.1178 40.1596 53.8553 40.5056 53.493C40.8516 53.1306 41.0936 52.6818 41.2062 52.1936C41.3187 51.7054 41.2977 51.1959 41.1453 50.7186C40.9929 50.2414 40.7147 49.814 40.34 49.4814V49.0621C40.3802 46.0012 41.5168 43.0562 43.5434 40.7619C43.6697 40.6154 43.7897 40.462 43.9132 40.3124H46.9025V49.6874C46.9024 49.8105 46.9267 49.9324 46.9738 50.0462C47.0209 50.1599 47.0899 50.2633 47.177 50.3504C47.2641 50.4374 47.3674 50.5065 47.4812 50.5536C47.5949 50.6007 47.7169 50.6249 47.84 50.6249H50.7856C51.0138 51.5086 51.5564 52.2788 52.3119 52.7911C53.0673 53.3033 53.9836 53.5225 54.889 53.4075C55.7945 53.2925 56.6269 52.8512 57.2303 52.1664C57.8336 51.4815 58.1665 50.6001 58.1665 49.6874C58.1665 48.7747 57.8336 47.8933 57.2303 47.2084C56.6269 46.5236 55.7945 46.0823 54.889 45.9673C53.9836 45.8523 53.0673 46.0714 52.3119 46.5837C51.5564 47.096 51.0138 47.8661 50.7856 48.7499H48.7775V39.3749C48.7775 39.2518 48.7533 39.1298 48.7062 39.0161C48.6591 38.9023 48.59 38.799 48.503 38.7119C48.4159 38.6248 48.3125 38.5558 48.1988 38.5087C48.085 38.4616 47.9631 38.4374 47.84 38.4374H45.3351C47.6892 35.0522 49.3334 31.2253 50.1684 27.1874H53.465V29.1955C52.5812 29.4237 51.8111 29.9664 51.2988 30.7218C50.7865 31.4772 50.5674 32.3935 50.6824 33.2989C50.7974 34.2044 51.2387 35.0368 51.9235 35.6402C52.6084 36.2436 53.4897 36.5764 54.4025 36.5764C55.3152 36.5764 56.1966 36.2436 56.8814 35.6402C57.5663 35.0368 58.0076 34.2044 58.1226 33.2989C58.2376 32.3935 58.0184 31.4772 57.5062 30.7218C56.9939 29.9664 56.2237 29.4237 55.34 29.1955V26.2499C55.34 26.1268 55.3158 26.0048 55.2687 25.8911C55.2216 25.7773 55.1525 25.674 55.0655 25.5869C54.9784 25.4998 54.875 25.4308 54.7613 25.3837C54.6475 25.3366 54.5256 25.3124 54.4025 25.3124H50.4669C50.5864 24.3796 50.6484 23.4403 50.6525 22.4999C50.6553 18.8776 49.6979 15.3192 47.8777 12.1874H54.4025C54.5256 12.1874 54.6475 12.1632 54.7613 12.1161C54.875 12.069 54.9784 11.9999 55.0655 11.9129C55.1525 11.8258 55.2216 11.7224 55.2687 11.6087C55.3158 11.4949 55.34 11.373 55.34 11.2499ZM5.65247 7.49989C5.28163 7.49989 4.91912 7.38992 4.61078 7.18389C4.30244 6.97786 4.06211 6.68503 3.9202 6.34242C3.77829 5.99981 3.74115 5.62281 3.8135 5.25909C3.88585 4.89538 4.06443 4.56128 4.32665 4.29906C4.58887 4.03684 4.92297 3.85826 5.28668 3.78591C5.65039 3.71357 6.02739 3.7507 6.37001 3.89261C6.71262 4.03453 7.00545 4.27485 7.21148 4.58319C7.41751 4.89153 7.52747 5.25405 7.52747 5.62489C7.52691 6.12199 7.32918 6.59858 6.97767 6.95008C6.62616 7.30159 6.14958 7.49932 5.65247 7.49989ZM3.77747 31.8749C3.77747 31.504 3.88744 31.1415 4.09347 30.8332C4.2995 30.5248 4.59233 30.2845 4.93494 30.1426C5.27755 30.0007 5.65455 29.9636 6.01827 30.0359C6.38198 30.1083 6.71608 30.2868 6.9783 30.5491C7.24052 30.8113 7.4191 31.1454 7.49145 31.5091C7.56379 31.8728 7.52666 32.2498 7.38475 32.5924C7.24283 32.935 7.00251 33.2279 6.69417 33.4339C6.38583 33.6399 6.02331 33.7499 5.65247 33.7499C5.15537 33.7493 4.67878 33.5516 4.32728 33.2001C3.97577 32.8486 3.77804 32.372 3.77747 31.8749ZM6.58997 53.4374C6.21913 53.4374 5.85662 53.3274 5.54828 53.1214C5.23994 52.9154 4.99961 52.6225 4.8577 52.2799C4.71579 51.9373 4.67865 51.5603 4.751 51.1966C4.82335 50.8329 5.00193 50.4988 5.26415 50.2366C5.52637 49.9743 5.86047 49.7958 6.22418 49.7234C6.58789 49.6511 6.96489 49.6882 7.30751 49.8301C7.65012 49.972 7.94295 50.2123 8.14898 50.5207C8.35501 50.829 8.46497 51.1915 8.46497 51.5624C8.46441 52.0595 8.26668 52.5361 7.91517 52.8876C7.56366 53.2391 7.08708 53.4368 6.58997 53.4374ZM54.4025 47.8124C54.7733 47.8124 55.1358 47.9223 55.4442 48.1284C55.7525 48.3344 55.9928 48.6272 56.1348 48.9699C56.2767 49.3125 56.3138 49.6895 56.2414 50.0532C56.1691 50.4169 55.9905 50.751 55.7283 51.0132C55.4661 51.2754 55.132 51.454 54.7683 51.5264C54.4046 51.5987 54.0276 51.5616 53.6849 51.4197C53.3423 51.2777 53.0495 51.0374 52.8435 50.7291C52.6374 50.4207 52.5275 50.0582 52.5275 49.6874C52.528 49.1903 52.7258 48.7137 53.0773 48.3622C53.4288 48.0107 53.9054 47.813 54.4025 47.8124ZM56.2775 32.8124C56.2775 33.1832 56.1675 33.5457 55.9615 33.8541C55.7555 34.1624 55.4626 34.4027 55.12 34.5447C54.7774 34.6866 54.4004 34.7237 54.0367 34.6514C53.673 34.579 53.3389 34.4004 53.0766 34.1382C52.8144 33.876 52.6358 33.5419 52.5635 33.1782C52.4912 32.8145 52.5283 32.4375 52.6702 32.0949C52.8121 31.7522 53.0524 31.4594 53.3608 31.2534C53.6691 31.0473 54.0316 30.9374 54.4025 30.9374C54.8996 30.938 55.3762 31.1357 55.7277 31.4872C56.0792 31.8387 56.2769 32.3153 56.2775 32.8124ZM37.5275 55.4918C37.5273 55.6929 37.4473 55.8857 37.3051 56.0278C37.1628 56.1699 36.97 56.2498 36.769 56.2499H23.286C23.0849 56.2498 22.8921 56.1699 22.7499 56.0278C22.6077 55.8857 22.5277 55.6929 22.5275 55.4918V55.1329C22.5277 54.9319 22.6077 54.7391 22.7499 54.597C22.8921 54.4548 23.0849 54.375 23.286 54.3749H36.769C36.97 54.375 37.1628 54.4548 37.3051 54.597C37.4473 54.7391 37.5273 54.9319 37.5275 55.1329V55.4918ZM38.465 52.4999H21.59C21.3413 52.4999 21.1029 52.4011 20.9271 52.2253C20.7512 52.0495 20.6525 51.811 20.6525 51.5624C20.6525 51.3137 20.7512 51.0753 20.9271 50.8995C21.1029 50.7237 21.3413 50.6249 21.59 50.6249H38.465C38.7136 50.6249 38.9521 50.7237 39.1279 50.8995C39.3037 51.0753 39.4025 51.3137 39.4025 51.5624C39.4025 51.811 39.3037 52.0495 39.1279 52.2253C38.9521 52.4011 38.7136 52.4999 38.465 52.4999ZM48.7775 22.4999C48.5732 28.7728 46.2247 34.7861 42.1234 39.5369C39.8763 42.0928 38.5847 45.3486 38.4686 48.7499H21.5863C21.4702 45.3486 20.1786 42.0928 17.9315 39.5369C13.8303 34.7861 11.4817 28.7728 11.2775 22.4999C11.2775 17.5271 13.2529 12.7579 16.7692 9.24163C20.2855 5.72533 25.0547 3.74989 30.0275 3.74989C35.0003 3.74989 39.7694 5.72533 43.2857 9.24163C46.802 12.7579 48.7775 17.5271 48.7775 22.4999ZM52.5275 5.62489C52.5275 5.25405 52.6374 4.89153 52.8435 4.58319C53.0495 4.27485 53.3423 4.03453 53.6849 3.89261C54.0276 3.7507 54.4046 3.71357 54.7683 3.78591C55.132 3.85826 55.4661 4.03684 55.7283 4.29906C55.9905 4.56128 56.1691 4.89538 56.2414 5.25909C56.3138 5.62281 56.2767 5.99981 56.1348 6.34242C55.9928 6.68503 55.7525 6.97786 55.4442 7.18389C55.1358 7.38992 54.7733 7.49989 54.4025 7.49989C53.9054 7.49932 53.4288 7.30159 53.0773 6.95008C52.7258 6.59858 52.528 6.12199 52.5275 5.62489Z" fill="#60AAF6" stroke="white" stroke-width="0.4" mask="url(#path-2-inside-1_5670_35524)"/>
<path d="M32.84 43.125H30.965V45H32.84V43.125Z" fill="#60AAF6"/>
<path d="M30.965 41.25H29.09V43.125H30.965V41.25Z" fill="#60AAF6"/>
<path d="M29.09 43.125H27.215V45H29.09V43.125Z" fill="#60AAF6"/>
<path d="M34.715 45H32.84V46.875H34.715V45Z" fill="#60AAF6"/>
<path d="M27.215 45H25.34V46.875H27.215V45Z" fill="#60AAF6"/>
</svg>
