<svg width="60" height="60" viewBox="0 0 60 60" fill="none" xmlns="http://www.w3.org/2000/svg">
<g clip-path="url(#clip0_5670_35492)">
<path d="M50.7462 30.9375V29.0625C51.2637 29.0625 51.6837 28.6428 51.6837 28.125V22.5C51.6837 21.9822 51.2637 21.5625 50.7462 21.5625H45.6837L45.502 20.8582C45.0877 19.2475 44.4435 17.7048 43.5893 16.2776L43.2143 15.6504L46.8087 12.0498C47.1706 11.6873 47.1706 11.0998 46.8087 10.7373L42.8272 6.75C42.6503 6.58127 42.4153 6.48714 42.1708 6.48714C41.9263 6.48714 41.6913 6.58127 41.5144 6.75L37.9134 10.3509L37.2865 9.97594C35.8574 9.12152 34.3127 8.47711 32.7001 8.0625L31.9962 7.87941V2.8125C31.9962 2.29472 31.5765 1.875 31.0587 1.875H25.4337C24.9159 1.875 24.4962 2.29472 24.4962 2.8125V7.875L23.792 8.05697C22.1812 8.47131 20.6383 9.11498 19.2107 9.96825L18.5834 10.3436L14.9834 6.75C14.8063 6.57996 14.5703 6.48501 14.3248 6.48501C14.0793 6.48501 13.8433 6.57996 13.6662 6.75L9.68372 10.7315C9.59699 10.8179 9.52818 10.9207 9.48123 11.0338C9.43429 11.1469 9.41012 11.2682 9.41012 11.3907C9.41012 11.5131 9.43429 11.6344 9.48123 11.7475C9.52818 11.8607 9.59699 11.9634 9.68372 12.0499L13.2847 15.6503L12.9097 16.2777C12.0556 17.7049 11.4116 19.2476 10.9973 20.8583L10.8134 21.5625H5.74622C5.22843 21.5625 4.80872 21.9822 4.80872 22.5V28.125C4.80872 28.6428 5.22843 29.0625 5.74622 29.0625V30.9375C4.19315 30.9375 2.93372 29.6781 2.93372 28.125V22.5C2.93372 20.9469 4.19315 19.6875 5.74622 19.6875H9.3735C9.76016 18.3913 10.2831 17.1396 10.9336 15.9536L8.35547 13.3755C7.82812 12.8493 7.53187 12.1352 7.53187 11.3906C7.53187 10.6461 7.82812 9.93197 8.35547 9.40613L12.3398 5.42175C13.4498 4.35938 15.2 4.35938 16.31 5.42175L18.8873 7.99875C20.0734 7.34896 21.3251 6.82667 22.6212 6.44062V2.8125C22.6212 1.25944 23.8807 0 25.4337 0H31.0587C32.6118 0 33.8712 1.25944 33.8712 2.8125V6.44062C35.1674 6.82706 36.419 7.34973 37.6051 7.99988L40.1832 5.42175C41.2936 4.35938 43.0433 4.35938 44.1537 5.42175L48.1373 9.405C48.3982 9.66544 48.6052 9.97478 48.7464 10.3153C48.8876 10.6558 48.9602 11.0209 48.9602 11.3895C48.9603 11.7582 48.8876 12.1233 48.7465 12.4639C48.6053 12.8045 48.3983 13.1139 48.1373 13.3744L45.5592 15.9525C46.2092 17.1391 46.732 18.3911 47.1189 19.6875H50.7462C52.2993 19.6875 53.5587 20.9469 53.5587 22.5V28.125C53.5587 29.6781 52.2993 30.9375 50.7462 30.9375Z" fill="#60AAF6"/>
<path d="M41.3712 25.3125H39.4962C39.4962 19.0994 34.4593 14.0625 28.2462 14.0625C22.0331 14.0625 16.9962 19.0994 16.9962 25.3125H15.1212C15.1212 18.0638 20.9975 12.1875 28.2462 12.1875C35.4946 12.1875 41.3712 18.0638 41.3712 25.3125Z" fill="#60AAF6"/>
<path d="M28.2462 32.8125C25.1396 32.8125 22.6212 30.2937 22.6212 27.1875C22.6212 24.0809 25.1396 21.5625 28.2462 21.5625C31.3531 21.5625 33.8712 24.0809 33.8712 27.1875C33.8679 30.293 31.3517 32.8092 28.2462 32.8125ZM28.2462 23.4375C26.1753 23.4375 24.4962 25.1166 24.4962 27.1875C24.4962 29.2584 26.1753 30.9375 28.2462 30.9375C30.3172 30.9375 31.9962 29.2584 31.9962 27.1875C31.9962 25.1166 30.3172 23.4375 28.2462 23.4375ZM44.1837 36.5625C41.0771 36.5625 38.5587 34.0437 38.5587 30.9375C38.5587 27.8309 41.0771 25.3125 44.1837 25.3125C47.2903 25.3125 49.8087 27.8309 49.8087 30.9375C49.8054 34.043 47.2892 36.5592 44.1837 36.5625ZM44.1837 27.1875C42.1128 27.1875 40.4337 28.8666 40.4337 30.9375C40.4337 33.0084 42.1128 34.6875 44.1837 34.6875C46.2547 34.6875 47.9337 33.0084 47.9337 30.9375C47.9337 28.8666 46.2547 27.1875 44.1837 27.1875ZM12.3087 36.5625C9.20212 36.5625 6.68372 34.0437 6.68372 30.9375C6.68372 27.8309 9.20212 25.3125 12.3087 25.3125C15.4156 25.3125 17.9337 27.8309 17.9337 30.9375C17.9304 34.043 15.4142 36.5592 12.3087 36.5625ZM12.3087 27.1875C10.2378 27.1875 8.55872 28.8666 8.55872 30.9375C8.55872 33.0084 10.2378 34.6875 12.3087 34.6875C14.3797 34.6875 16.0587 33.0084 16.0587 30.9375C16.0587 28.8666 14.3797 27.1875 12.3087 27.1875Z" fill="#60AAF6"/>
<path d="M52.6827 38.9678C51.2856 38.0074 49.6291 37.4954 47.9337 37.5001H40.4337C39.9776 37.5041 39.5226 37.5454 39.0732 37.6234C38.4732 36.6852 37.6928 35.8755 36.7775 35.2412C36.6402 35.1375 36.4958 35.0436 36.3453 34.9604C35.0338 34.1663 33.5294 33.7477 31.9962 33.7501H24.4962C23.0858 33.7451 21.6971 34.0978 20.4599 34.7751C19.2227 35.4525 18.1775 36.4325 17.4218 37.6234C16.9716 37.5454 16.5157 37.5041 16.0587 37.5001H8.55872C6.86441 37.4954 5.20885 38.0068 3.81225 38.966C2.6756 39.7394 1.74515 40.7789 1.10186 41.9939C0.458573 43.2089 0.121927 44.5627 0.121216 45.9376V49.6876C0.124497 52.2474 1.6139 54.5721 3.939 55.6444C4.79724 56.0486 5.73508 56.2556 6.68372 56.2501H16.0587V54.3751H7.62122V44.0626H5.74622V54.2809C5.39331 54.2101 5.05044 54.0962 4.72528 53.9418C3.91199 53.5669 3.22292 52.9671 2.73937 52.2133C2.25581 51.4595 1.99796 50.5831 1.99622 49.6876V45.9376C1.99735 44.8676 2.25979 43.8142 2.76073 42.8688C3.26167 41.9234 3.98595 41.1147 4.87059 40.5129C5.95598 39.7681 7.24235 39.3712 8.55872 39.3751H16.0587C16.2239 39.3751 16.3831 39.3927 16.5443 39.4036C16.2271 40.2977 16.0629 41.2389 16.0587 42.1876V51.5626C16.062 54.1502 18.1589 56.2468 20.7462 56.2501H23.5587V41.2501H21.6837V54.3751H20.7462C19.1932 54.3751 17.9337 53.1156 17.9337 51.5626V42.1876C17.9337 38.5628 20.8722 35.6251 24.4962 35.6251H31.9962C33.2024 35.6259 34.3849 35.9597 35.4134 36.5897C35.5085 36.6417 35.5999 36.7001 35.6869 36.7647C36.5653 37.3661 37.2862 38.17 37.7889 39.1084C38.2942 40.0561 38.5585 41.1136 38.5587 42.1876V51.5626C38.5587 53.1156 37.2993 54.3751 35.7462 54.3751H34.8087V41.2501H32.9337V56.2501H35.7462C38.3339 56.2468 40.4304 54.1502 40.4337 51.5626V42.1876C40.4294 41.239 40.2655 40.2979 39.9488 39.4036C40.1104 39.3926 40.2697 39.3751 40.4337 39.3751H47.9337C49.2511 39.3715 50.5384 39.769 51.6244 40.5147C52.5082 41.1166 53.2318 41.9252 53.7322 42.8703C54.2327 43.8153 54.495 44.8682 54.4962 45.9376V49.6876C54.4946 50.5861 54.2351 51.4653 53.7485 52.2207C53.262 52.9761 52.5689 53.576 51.7515 53.9491C51.4313 54.1006 51.0937 54.2121 50.7462 54.281V44.0626H48.8712V54.3751H40.4337V56.2501H49.8087C50.7516 56.256 51.6839 56.0516 52.5378 55.6516C54.8705 54.5827 56.3675 52.2536 56.3712 49.6876V45.9376C56.3705 44.5633 56.0341 43.2099 55.3913 41.9953C54.7485 40.7806 53.8187 39.7413 52.6827 38.9678Z" fill="#60AAF6"/>
<path d="M24.4962 54.375H31.9962V56.25H24.4962V54.375Z" fill="#60AAF6"/>
</g>
<defs>
<clipPath id="clip0_5670_35492">
<rect width="60" height="60" fill="white" transform="translate(0.0274658)"/>
</clipPath>
</defs>
</svg>
