<svg width="61" height="60" viewBox="0 0 61 60" fill="none" xmlns="http://www.w3.org/2000/svg">
<g clip-path="url(#clip0_5670_35538)">
<path d="M43.3517 35.2259C43.3516 34.2327 42.8498 33.3546 42.0866 32.8316C42.3735 32.3724 42.5254 31.8416 42.5247 31.3001C42.5247 29.7008 41.2236 28.3997 39.6243 28.3997H34.7339C34.4448 28.3997 34.1619 28.4421 33.8923 28.5238C34.0583 28.1387 34.1723 27.7508 34.2238 27.378C34.2296 27.3356 34.2325 27.2927 34.2325 27.25V24.0547C34.2325 20.814 31.5957 18.1775 28.3547 18.1775C28.106 18.1775 27.8676 18.2763 27.6917 18.4521C27.5159 18.6279 27.4172 18.8664 27.4172 19.115V23.2339C27.4172 25.6485 25.4984 27.0009 23.467 28.4329C23.164 28.646 22.863 28.8618 22.5638 29.0802H17.6408C17.3921 29.0802 17.1537 29.179 16.9779 29.3548C16.8021 29.5306 16.7033 29.7691 16.7033 30.0177V43.586C16.7033 43.8347 16.8021 44.0731 16.9779 44.2489C17.1537 44.4247 17.3921 44.5235 17.6408 44.5235H22.5041C24.2998 46.1285 26.1022 46.65 28.192 46.65C29.7997 46.65 31.5778 46.3417 33.6526 45.9819L34.0925 45.9057C34.303 45.9536 34.5181 45.9778 34.734 45.9779H37.9032C38.6756 45.9779 39.4034 45.6757 39.9521 45.1268C40.5011 44.5779 40.8034 43.8502 40.8034 43.0777C40.804 42.597 40.6844 42.1239 40.4555 41.7013C41.3594 41.2095 41.9742 40.251 41.9742 39.1516C41.9742 38.687 41.8643 38.2475 41.6693 37.8579C42.6617 37.3968 43.3516 36.3904 43.3517 35.2259ZM34.7341 30.2747H39.6243C40.1898 30.2747 40.6497 30.7346 40.6497 31.3001C40.6497 31.8655 40.1897 32.3255 39.6242 32.3255H34.7341C34.1687 32.3255 33.7087 31.8655 33.7087 31.3001C33.7087 31.0283 33.8159 30.7713 34.0107 30.5766C34.2055 30.3819 34.4623 30.2747 34.7341 30.2747ZM21.9381 42.6488H18.5783V30.9554H21.9343C21.94 37.992 21.94 41.2596 21.9381 42.6488ZM23.8118 43.1769L23.8128 42.7388C23.8139 42.1727 23.8143 41.3241 23.8143 40.1926C23.8143 38.0113 23.8125 34.7754 23.8089 30.491C24.054 30.3142 24.3002 30.139 24.5475 29.9653C26.7716 28.3976 29.2923 26.6207 29.2923 23.2339V20.1633C31.0487 20.5863 32.3577 22.1706 32.3577 24.0547V27.1781C32.2697 27.6855 31.9041 28.4596 31.2618 29.1022C31.1073 29.2569 31.0117 29.4608 30.9915 29.6785C30.9714 29.8963 31.028 30.1142 31.1516 30.2946C31.724 31.1304 31.9187 31.9028 31.7466 32.6559C31.4107 34.1275 29.7423 35.2236 29.0406 35.6266C28.827 35.7515 28.6714 35.9558 28.6078 36.1948C28.5441 36.4339 28.5776 36.6884 28.7008 36.903C28.824 37.1175 29.027 37.2747 29.2656 37.3402C29.5041 37.4057 29.7589 37.3743 29.9744 37.2527C30.4207 36.9968 30.8479 36.7087 31.2525 36.3909C31.4714 36.8876 31.8245 37.3133 32.2721 37.6202C31.9851 38.0795 31.8333 38.6102 31.8338 39.1518C31.8339 39.9084 32.1252 40.5983 32.6015 41.1154C32.1056 41.653 31.8338 42.3451 31.8339 43.0775C31.8339 43.5225 31.9347 43.9522 32.1246 44.3419C28.2654 44.9917 26.067 45.1562 23.8118 43.1769ZM37.903 42.0523C38.4684 42.0523 38.9284 42.5123 38.9284 43.0778C38.9284 43.3494 38.8211 43.6064 38.6264 43.8012C38.4317 43.9958 38.1748 44.103 37.9031 44.103H34.7341C34.4625 44.103 34.2055 43.9958 34.0108 43.8012C33.8161 43.6064 33.7088 43.3495 33.7088 43.0775C33.7088 42.8059 33.8161 42.549 34.0107 42.3543C34.2055 42.1595 34.4623 42.0523 34.7342 42.0523H37.903ZM34.7341 40.1773C34.1687 40.1772 33.7087 39.7172 33.7087 39.1519C33.7087 38.5864 34.1688 38.1264 34.7342 38.1264H39.0738C39.6392 38.1264 40.0992 38.5863 40.0992 39.1518C40.0992 39.7172 39.6391 40.1773 39.0738 40.1773H34.7341ZM33.9072 36.2514C33.3418 36.2514 32.8817 35.7914 32.8817 35.226C32.8817 34.6605 33.3418 34.2005 33.9072 34.2005H40.4512C41.0166 34.2005 41.4767 34.6605 41.4767 35.2259C41.4767 35.7913 41.0166 36.2514 40.4512 36.2514H33.9072ZM21.9718 15.4144C21.9434 15.679 22.0288 15.943 22.2066 16.1408C22.3845 16.3386 22.638 16.4516 22.9039 16.4516H37.1511C37.2826 16.4516 37.4127 16.4239 37.5328 16.3704C37.6529 16.3168 37.7604 16.2386 37.8483 16.1407C37.9362 16.0429 38.0026 15.9277 38.043 15.8025C38.0835 15.6774 38.0972 15.5451 38.0832 15.4144C37.7598 12.3916 35.8108 9.9157 33.1583 8.80863C34.0375 7.97684 34.5877 6.80062 34.5877 5.49762C34.5877 2.98312 32.5421 0.9375 30.0276 0.9375C27.5131 0.9375 25.4675 2.98312 25.4675 5.49762C25.4675 6.80062 26.0177 7.97684 26.897 8.80863C24.2442 9.9157 22.2952 12.3916 21.9718 15.4144ZM27.3425 5.49762C27.3425 4.01695 28.547 2.8125 30.0276 2.8125C31.5083 2.8125 32.7127 4.01695 32.7127 5.49762C32.7127 6.97746 31.5096 8.18145 30.03 8.18273H30.0253C28.5457 8.18145 27.3425 6.97746 27.3425 5.49762ZM30.0252 10.0577H30.0301C32.8607 10.0588 35.2746 11.9399 36.0189 14.5767H24.0362C24.7804 11.9398 27.1944 10.0588 30.0252 10.0577ZM59.0846 58.0252C58.7612 55.0024 56.8122 52.5265 54.1596 51.4195C55.0388 50.5877 55.5891 49.4115 55.5891 48.1084C55.5891 45.5939 53.5435 43.5483 51.029 43.5483C48.5145 43.5483 46.4689 45.5939 46.4689 48.1084C46.4689 49.4115 47.0191 50.5877 47.8985 51.4195C45.2457 52.5265 43.2966 55.0024 42.9732 58.0252C42.9448 58.2898 43.0302 58.5538 43.208 58.7516C43.3859 58.9494 43.6394 59.0624 43.9053 59.0624H58.1525C58.284 59.0624 58.4141 59.0347 58.5342 58.9811C58.6543 58.9276 58.7618 58.8493 58.8497 58.7515C58.9376 58.6537 59.004 58.5385 59.0445 58.4133C59.0849 58.2882 59.0986 58.1559 59.0846 58.0252ZM48.3439 48.1084C48.3439 46.6277 49.5484 45.4233 51.029 45.4233C52.5097 45.4233 53.7141 46.6277 53.7141 48.1084C53.7141 49.5891 52.5097 50.7935 51.029 50.7935C49.5484 50.7935 48.3439 49.5891 48.3439 48.1084ZM45.0376 57.1875C45.7821 54.5498 48.1972 52.6685 51.029 52.6685C53.8607 52.6685 56.2757 54.5498 57.0202 57.1875H45.0376ZM12.1569 51.4195C13.0361 50.5877 13.5863 49.4115 13.5863 48.1085C13.5863 45.594 11.5407 43.5484 9.02621 43.5484C6.51172 43.5484 4.4661 45.594 4.4661 48.1085C4.4661 49.4115 5.01629 50.5877 5.89555 51.4195C3.24278 52.5266 1.29383 55.0025 0.970394 58.0253C0.956422 58.156 0.970118 58.2883 1.01059 58.4134C1.05106 58.5386 1.11741 58.6538 1.20531 58.7516C1.29322 58.8494 1.40072 58.9277 1.52084 58.9812C1.64095 59.0348 1.77099 59.0625 1.9025 59.0625L16.1498 59.0624C16.2814 59.0624 16.4114 59.0348 16.5316 58.9813C16.6517 58.9277 16.7593 58.8495 16.8472 58.7517C16.9351 58.6538 17.0015 58.5386 17.0419 58.4134C17.0824 58.2882 17.096 58.1559 17.0819 58.0252C16.7584 55.0024 14.8094 52.5265 12.1569 51.4195ZM6.3411 48.1084C6.3411 46.6277 7.54555 45.4233 9.02621 45.4233C10.5069 45.4233 11.7113 46.6277 11.7113 48.1084C11.7113 49.5882 10.5082 50.7922 9.02856 50.7935H9.02387C7.54426 50.7922 6.3411 49.5882 6.3411 48.1084ZM3.03477 57.1875C3.77903 54.5507 6.19297 52.6696 9.02375 52.6685H9.02868C11.8593 52.6696 14.2732 54.5505 15.0175 57.1874L3.03477 57.1875ZM6.25028 41.1171C4.63508 37.6455 3.81618 33.9294 3.81618 30.0718C3.81618 19.9419 9.63618 10.8212 18.5822 6.48328L17.8693 6.34371C17.7485 6.32005 17.6335 6.27282 17.531 6.20473C17.4284 6.13664 17.3402 6.04901 17.2715 5.94685C17.1328 5.74053 17.0817 5.48755 17.1295 5.24355C17.1773 4.99956 17.32 4.78454 17.5264 4.6458C17.7327 4.50706 17.9857 4.45596 18.2297 4.50375L21.9975 5.24133C22.1506 5.27132 22.2939 5.33909 22.4143 5.43847C22.5346 5.53786 22.6282 5.66573 22.6867 5.81047C22.7451 5.95521 22.7664 6.11224 22.7488 6.26733C22.7312 6.42241 22.6751 6.57064 22.5856 6.69855L20.3853 9.84516C20.2989 9.96893 20.1838 10.07 20.0499 10.1397C19.916 10.2094 19.7673 10.2457 19.6163 10.2455C19.4449 10.2453 19.2768 10.1982 19.1303 10.1092C18.9838 10.0202 18.8645 9.89277 18.7854 9.74071C18.7063 9.58865 18.6703 9.41781 18.6815 9.24676C18.6927 9.07571 18.7506 8.911 18.8489 8.77055L19.1988 8.27004C11.0076 12.3364 5.69129 20.7428 5.69129 30.0717C5.69129 33.654 6.45137 37.1041 7.95032 40.326C8.0552 40.5514 8.06625 40.8093 7.98102 41.0428C7.8958 41.2764 7.72128 41.4665 7.49586 41.5714C7.38425 41.6235 7.26349 41.653 7.14047 41.6583C7.01745 41.6636 6.89458 41.6446 6.7789 41.6024C6.66322 41.5602 6.55699 41.4957 6.46629 41.4124C6.37558 41.3291 6.30218 41.2288 6.25028 41.1171ZM37.2295 5.82059C37.395 5.33004 37.9271 5.06613 38.4177 5.2323C49.0772 8.83148 56.2389 18.8138 56.2389 30.0718C56.2389 32.8212 55.8205 35.4987 54.9963 38.0678L55.5695 37.6591C55.6696 37.5861 55.7833 37.5336 55.9038 37.5048C56.0244 37.4759 56.1495 37.4713 56.2719 37.4911C56.3943 37.5109 56.5115 37.5548 56.6168 37.6202C56.7221 37.6857 56.8134 37.7713 56.8853 37.8723C56.9573 37.9732 57.0085 38.0874 57.0361 38.2083C57.0636 38.3292 57.0669 38.4543 57.0457 38.5765C57.0246 38.6986 56.9794 38.8154 56.9128 38.92C56.8463 39.0245 56.7596 39.1149 56.6579 39.1857L53.5317 41.4146C53.4046 41.5053 53.2568 41.5628 53.1019 41.5818C52.9469 41.6009 52.7897 41.581 52.6444 41.5239C52.4991 41.4668 52.3704 41.3743 52.2699 41.2548C52.1694 41.1353 52.1003 40.9927 52.0689 40.8397L51.297 37.0785C51.2723 36.9579 51.2715 36.8336 51.2948 36.7127C51.3181 36.5918 51.365 36.4767 51.4328 36.3739C51.5006 36.2711 51.5879 36.1827 51.6899 36.1137C51.7918 36.0446 51.9064 35.9964 52.027 35.9716C52.5337 35.8672 53.0297 36.1943 53.1338 36.7016L53.2632 37.332C53.9936 34.9972 54.3638 32.5665 54.3638 30.0718C54.3638 19.6188 47.7145 10.3505 37.8177 7.00863C37.701 6.96926 37.5933 6.90729 37.5006 6.82627C37.4079 6.74525 37.3321 6.64677 37.2775 6.53644C37.2229 6.42612 37.1905 6.30612 37.1823 6.18329C37.174 6.06046 37.1901 5.93721 37.2295 5.82059ZM30.0275 56.2833C25.9026 56.2833 21.8916 55.328 18.2597 53.4994L18.5197 53.9931C18.6355 54.2131 18.6593 54.4701 18.5856 54.7076C18.512 54.9451 18.347 55.1436 18.127 55.2594C18.0181 55.3168 17.8989 55.3522 17.7763 55.3635C17.6537 55.3749 17.5301 55.3619 17.4125 55.3255C17.2949 55.289 17.1856 55.2297 17.091 55.1511C16.9963 55.0724 16.918 54.9758 16.8607 54.8668L15.0717 51.4696C14.999 51.3315 14.9619 51.1774 14.9638 51.0213C14.9657 50.8652 15.0065 50.7121 15.0826 50.5758C15.1587 50.4395 15.2676 50.3244 15.3994 50.2409C15.5313 50.1573 15.6819 50.108 15.8376 50.0974L19.6682 49.8374C19.7911 49.8287 19.9145 49.8445 20.0313 49.8836C20.1481 49.9228 20.256 49.9847 20.3488 50.0657C20.4416 50.1467 20.5175 50.2452 20.5721 50.3557C20.6267 50.4661 20.659 50.5862 20.667 50.7091C20.6754 50.832 20.6595 50.9552 20.6202 51.0719C20.5809 51.1886 20.519 51.2964 20.4381 51.3891C20.3571 51.4819 20.2587 51.5578 20.1484 51.6125C20.0381 51.6672 19.9181 51.6996 19.7953 51.7079L18.9827 51.7631C22.3857 53.5 26.152 54.4083 30.0274 54.4083C34.7481 54.4083 39.3261 53.0554 43.2664 50.4957C43.4749 50.3603 43.7287 50.3132 43.9719 50.3649C44.2151 50.4166 44.4279 50.5627 44.5633 50.7712C44.6988 50.9798 44.7458 51.2335 44.6942 51.4768C44.6425 51.72 44.4963 51.9327 44.2878 52.0682C40.0428 54.8258 35.1117 56.2833 30.0275 56.2833ZM14.6806 18.4377C14.9293 18.4377 15.1677 18.5365 15.3435 18.7123C15.5194 18.8881 15.6181 19.1266 15.6181 19.3752C15.6181 19.6238 15.5194 19.8623 15.3435 20.0381C15.1677 20.2139 14.9293 20.3127 14.6806 20.3127H12.0341C11.7854 20.3127 11.547 20.2139 11.3712 20.0381C11.1953 19.8623 11.0966 19.6238 11.0966 19.3752C11.0966 19.1266 11.1953 18.8881 11.3712 18.7123C11.547 18.5365 11.7854 18.4377 12.0341 18.4377H14.6806ZM17.5182 19.3752C17.5182 19.1266 17.617 18.8881 17.7928 18.7123C17.9686 18.5365 18.2071 18.4377 18.4557 18.4377H21.1024C21.351 18.4377 21.5895 18.5365 21.7653 18.7123C21.9411 18.8881 22.0399 19.1266 22.0399 19.3752C22.0399 19.6238 21.9411 19.8623 21.7653 20.0381C21.5895 20.2139 21.351 20.3127 21.1024 20.3127H18.4557C18.2071 20.3127 17.9686 20.2139 17.7928 20.0381C17.617 19.8623 17.5182 19.6238 17.5182 19.3752ZM15.6307 21.2627C15.6307 21.0141 15.7294 20.7756 15.9053 20.5998C16.0811 20.424 16.3195 20.3252 16.5682 20.3252C16.8168 20.3252 17.0553 20.424 17.2311 20.5998C17.4069 20.7756 17.5057 21.0141 17.5057 21.2627V23.9093C17.5057 24.1579 17.4069 24.3964 17.2311 24.5722C17.0553 24.748 16.8168 24.8468 16.5682 24.8468C16.3195 24.8468 16.0811 24.748 15.9053 24.5722C15.7294 24.3964 15.6307 24.1579 15.6307 23.9093V21.2627ZM15.6307 17.4878V14.8411C15.6307 14.5925 15.7294 14.354 15.9053 14.1782C16.0811 14.0024 16.3195 13.9036 16.5682 13.9036C16.8168 13.9036 17.0553 14.0024 17.2311 14.1782C17.4069 14.354 17.5057 14.5925 17.5057 14.8411V17.4878C17.5057 17.7364 17.4069 17.9749 17.2311 18.1507C17.0553 18.3265 16.8168 18.4253 16.5682 18.4253C16.3195 18.4253 16.0811 18.3265 15.9053 18.1507C15.7294 17.9749 15.6307 17.7364 15.6307 17.4878ZM51.6313 26.3962C51.6313 26.6449 51.5325 26.8833 51.3567 27.0592C51.1808 27.235 50.9424 27.3337 50.6938 27.3337H48.0472C47.7985 27.3337 47.5601 27.235 47.3843 27.0592C47.2085 26.8833 47.1097 26.6449 47.1097 26.3962C47.1097 26.1476 47.2085 25.9092 47.3843 25.7333C47.5601 25.5575 47.7985 25.4587 48.0472 25.4587H50.6938C50.9424 25.4587 51.1808 25.5575 51.3567 25.7333C51.5325 25.9092 51.6313 26.1476 51.6313 26.3962ZM44.272 27.3337H41.6254C41.3768 27.3337 41.1383 27.235 40.9625 27.0592C40.7867 26.8833 40.6879 26.6449 40.6879 26.3962C40.6879 26.1476 40.7867 25.9092 40.9625 25.7333C41.1383 25.5575 41.3768 25.4587 41.6254 25.4587H44.272C44.5206 25.4587 44.7591 25.5575 44.9349 25.7333C45.1107 25.9092 45.2095 26.1476 45.2095 26.3962C45.2095 26.6449 45.1107 26.8833 44.9349 27.0592C44.7591 27.235 44.5206 27.3337 44.272 27.3337ZM47.097 28.2838V30.9304C47.097 31.179 46.9983 31.4174 46.8224 31.5933C46.6466 31.7691 46.4082 31.8679 46.1595 31.8679C45.9109 31.8679 45.6724 31.7691 45.4966 31.5933C45.3208 31.4174 45.222 31.179 45.222 30.9304V28.2838C45.222 28.0351 45.3208 27.7967 45.4966 27.6209C45.6724 27.4451 45.9109 27.3463 46.1595 27.3463C46.4082 27.3463 46.6466 27.4451 46.8224 27.6209C46.9983 27.7967 47.097 28.0351 47.097 28.2838ZM47.097 24.5088C47.097 24.7575 46.9983 24.9959 46.8224 25.1717C46.6466 25.3476 46.4082 25.4463 46.1595 25.4463C45.9109 25.4463 45.6724 25.3476 45.4966 25.1717C45.3208 24.9959 45.222 24.7575 45.222 24.5088V21.8621C45.222 21.6135 45.3208 21.3751 45.4966 21.1992C45.6724 21.0234 45.9109 20.9246 46.1595 20.9246C46.4082 20.9246 46.6466 21.0234 46.8224 21.1992C46.9983 21.3751 47.097 21.6135 47.097 21.8621V24.5088Z" fill="#60AAF6"/>
</g>
<defs>
<clipPath id="clip0_5670_35538">
<rect width="60" height="60" fill="white" transform="translate(0.0274658)"/>
</clipPath>
</defs>
</svg>
