<svg width="61" height="60" viewBox="0 0 61 60" fill="none" xmlns="http://www.w3.org/2000/svg">
<g clip-path="url(#clip0_5670_35505)">
<path d="M54.1137 30.8182V19.7273C54.1137 19.4545 54.1137 19.1818 54.0228 18.9091C54.1137 18.7273 54.1137 18.4545 54.0228 18.2727L49.0228 2.54545C48.6591 1.09091 47.2046 0 45.6591 0C35.9319 0 18.5682 0.0909091 8.93187 0.181818C7.38642 0.181818 5.93187 1.27273 5.56824 2.72727L0.568236 18.2727C0.477327 18.4545 0.568236 18.7273 0.568236 18.9091V45.4545C0.568236 47.5455 2.29551 49.2727 4.38642 49.2727H29.1137C31.2955 55.5455 37.2955 60 44.2955 60C53.2955 60 60.5682 52.7273 60.5682 43.7273C60.5682 38.5455 58.0228 33.8182 54.1137 30.8182ZM45.5682 1.81818C46.2955 1.81818 47.0228 2.36364 47.2046 3.09091L51.2046 15.4545C50.6592 15.1818 50.0228 15.0909 49.3864 15.0909H33.841L33.3864 1.90909L45.5682 1.81818ZM32.3864 25.5455C32.3864 26.0909 31.841 26.6364 31.1137 26.6364H23.6591C22.9319 26.6364 22.3864 26.1818 22.3864 25.6364L22.7501 16.9091H32.2046L32.3864 25.5455ZM22.6591 15L23.1137 1.81818H31.4773L31.9319 15H22.6591ZM7.29551 3.18182C7.47733 2.54545 8.2046 2 8.93187 2L21.3864 1.90909L20.9319 15H5.2046C4.56824 15 3.93187 15.0909 3.38642 15.3636L7.29551 3.18182ZM4.38642 47.4545C3.29551 47.4545 2.38642 46.5455 2.38642 45.4545V19.7273C2.38642 18.1818 3.65915 16.9091 5.2046 16.9091H20.7501L20.3864 25.5455C20.3864 27.1818 21.7501 28.4545 23.4773 28.4545H30.9319C32.6591 28.4545 34.0228 27.1818 34.0228 25.5455L33.6591 16.9091H49.2046C50.7501 16.9091 52.0228 18.1818 52.0228 19.7273V29.6364C49.9319 28.4545 47.4773 27.7273 44.9319 27.5455V26.3636H47.7501C48.2955 26.3636 48.6592 26 48.6592 25.4545V22C48.6592 21.4545 48.2955 21.0909 47.7501 21.0909H40.4773C39.9319 21.0909 39.5682 21.4545 39.5682 22V25.4545C39.5682 26 39.9319 26.3636 40.4773 26.3636H43.1137V27.5455C34.5682 28 27.7501 35.0909 27.7501 43.7273C27.7501 45 27.9319 46.1818 28.2046 47.3636H4.38642V47.4545ZM41.6591 24.5455V22.9091H47.1137V24.5455H41.6591ZM44.2955 58.1818C36.3864 58.1818 29.841 51.7273 29.841 43.7273C29.841 35.8182 36.2955 29.2727 44.2955 29.2727C52.2046 29.2727 58.7501 35.7273 58.7501 43.7273C58.7501 51.7273 52.2955 58.1818 44.2955 58.1818Z" fill="#60AAF6"/>
<path d="M44.2955 33.7273C44.8409 33.7273 45.2046 33.3636 45.2046 32.8182V31C45.2046 30.4545 44.8409 30.0909 44.2955 30.0909C43.75 30.0909 43.3864 30.4545 43.3864 31V32.8182C43.3864 33.2727 43.8409 33.7273 44.2955 33.7273ZM44.2955 53.8182C43.75 53.8182 43.3864 54.1818 43.3864 54.7273V56.5455C43.3864 57.0909 43.75 57.4545 44.2955 57.4545C44.8409 57.4545 45.2046 57.0909 45.2046 56.5455V54.7273C45.2046 54.1818 44.8409 53.8182 44.2955 53.8182ZM57.1137 42.8182H55.2955C54.75 42.8182 54.3864 43.1818 54.3864 43.7273C54.3864 44.2727 54.75 44.6364 55.2955 44.6364H57.1137C57.6591 44.6364 58.0228 44.2727 58.0228 43.7273C58.0228 43.2727 57.5682 42.8182 57.1137 42.8182ZM33.3864 42.8182H31.5682C31.0228 42.8182 30.6591 43.1818 30.6591 43.7273C30.6591 44.2727 31.0228 44.6364 31.5682 44.6364H33.3864C33.9319 44.6364 34.2955 44.2727 34.2955 43.7273C34.2955 43.2727 33.8409 42.8182 33.3864 42.8182ZM52.6591 34.0909L51.4773 35.3636C51.1137 35.7273 51.1137 36.2727 51.4773 36.6364C51.8409 37 52.3864 37 52.75 36.6364L54.0228 35.3636C54.3864 35 54.3864 34.4545 54.0228 34.0909C53.6591 33.7273 53.0228 33.7273 52.6591 34.0909ZM35.9319 50.9091L34.6591 52.1818C34.2955 52.5455 34.2955 53.0909 34.6591 53.4545C35.0228 53.8182 35.5682 53.8182 35.9319 53.4545L37.2046 52.1818C37.5682 51.8182 37.5682 51.2727 37.2046 50.9091C36.8409 50.5455 36.2955 50.5455 35.9319 50.9091ZM52.75 50.9091C52.3864 50.5455 51.8409 50.5455 51.4773 50.9091C51.1137 51.2727 51.1137 51.8182 51.4773 52.1818L52.75 53.4545C53.1137 53.8182 53.6591 53.8182 54.0228 53.4545C54.3864 53.0909 54.3864 52.5455 54.0228 52.1818L52.75 50.9091ZM35.9319 34.0909C35.5682 33.7273 35.0228 33.7273 34.6591 34.0909C34.2955 34.4545 34.2955 35 34.6591 35.3636L35.9319 36.6364C36.2955 37 36.8409 37 37.2046 36.6364C37.5682 36.2727 37.5682 35.7273 37.2046 35.3636L35.9319 34.0909ZM46.4773 45.7273C46.9319 45.1818 47.2955 44.5455 47.2955 43.7273C47.2955 42.4545 46.4773 41.3636 45.2955 40.9091V35.2727C45.2955 34.7273 44.9319 34.3636 44.3864 34.3636C43.8409 34.3636 43.4773 34.7273 43.4773 35.2727V40.9091C42.2955 41.2727 41.4773 42.3636 41.4773 43.7273C41.4773 45.3636 42.75 46.6364 44.3864 46.6364C44.5682 46.6364 44.75 46.6364 44.9319 46.5455L48.2046 51.6364C48.4773 52.0909 49.0228 52.1818 49.4773 51.9091C49.9319 51.6364 50.0228 51.0909 49.75 50.6364L46.4773 45.7273ZM43.2955 43.7273C43.2955 43.0909 43.75 42.6364 44.3864 42.6364C44.9319 42.6364 45.4773 43.1818 45.4773 43.7273C45.4773 44.3636 45.0228 44.8182 44.3864 44.8182C43.75 44.9091 43.2955 44.3636 43.2955 43.7273ZM8.02277 33.5455H9.75004V40.0909C9.75004 40.6364 10.1137 41 10.6591 41H15.2046C15.75 41 16.1137 40.6364 16.1137 40.0909V33.5455H17.8409C18.2046 33.5455 18.4773 33.3636 18.6591 33.0909C18.8409 32.8182 18.75 32.4545 18.5682 32.1818L13.6591 25.0909C13.2955 24.6364 12.4773 24.6364 12.2046 25.0909L7.29549 32.1818C7.11368 32.4545 7.11368 32.8182 7.20458 33.0909C7.3864 33.3636 7.65913 33.5455 8.02277 33.5455ZM12.9319 27.0909L16.1137 31.6364H15.2046C14.6591 31.6364 14.2955 32 14.2955 32.5455V39.0909H11.5682V32.5455C11.5682 32 11.2046 31.6364 10.6591 31.6364H9.75004L12.9319 27.0909ZM19.0228 42.8182H6.93186C6.3864 42.8182 6.02277 43.1818 6.02277 43.7273C6.02277 44.2727 6.3864 44.6364 6.93186 44.6364H19.0228C19.5682 44.6364 19.9319 44.2727 19.9319 43.7273C19.9319 43.2727 19.4773 42.8182 19.0228 42.8182Z" fill="#60AAF6"/>
</g>
<defs>
<clipPath id="clip0_5670_35505">
<rect width="60" height="60" fill="white" transform="translate(0.568237)"/>
</clipPath>
</defs>
</svg>
