<svg width="61" height="60" viewBox="0 0 61 60" fill="none" xmlns="http://www.w3.org/2000/svg">
<path d="M58.0465 23.4375H51.1729L49.8634 20.2763L54.7238 15.416C54.8109 15.329 54.8799 15.2256 54.9271 15.1118C54.9742 14.9981 54.9984 14.8762 54.9984 14.753C54.9984 14.6299 54.9742 14.508 54.9271 14.3942C54.8799 14.2805 54.8109 14.1771 54.7238 14.09L46.7689 6.13512C46.593 5.95933 46.3546 5.86057 46.106 5.86057C45.8574 5.86057 45.6189 5.95933 45.4431 6.13512L40.5828 10.9955L37.4215 9.68602V2.8125C37.4215 2.56386 37.3227 2.3254 37.1469 2.14959C36.9711 1.97377 36.7327 1.875 36.484 1.875H25.234C24.9854 1.875 24.7469 1.97377 24.5711 2.14959C24.3953 2.3254 24.2965 2.56386 24.2965 2.8125V9.68602L21.1353 10.9955L16.2749 6.13512C16.0991 5.95933 15.8607 5.86057 15.612 5.86057C15.3634 5.86057 15.125 5.95933 14.9492 6.13512L6.99425 14.09C6.90717 14.1771 6.83809 14.2805 6.79097 14.3942C6.74384 14.508 6.71958 14.6299 6.71958 14.753C6.71958 14.8762 6.74384 14.9981 6.79097 15.1118C6.83809 15.2256 6.90717 15.329 6.99425 15.416L11.8546 20.2763L10.5451 23.4375H3.67151C3.42287 23.4375 3.18441 23.5363 3.0086 23.7121C2.83278 23.8879 2.73401 24.1264 2.73401 24.375V35.625C2.73401 35.8736 2.83278 36.1121 3.0086 36.2879C3.18441 36.4637 3.42287 36.5625 3.67151 36.5625H8.54393L6.90143 37.6575C6.77303 37.7431 6.66775 37.8591 6.59493 37.9952C6.52211 38.1312 6.48401 38.2832 6.48401 38.4375V40.3125C6.48401 40.5611 6.58278 40.7996 6.7586 40.9754C6.93441 41.1512 7.17287 41.25 7.42151 41.25H8.35901V42.5572C8.36039 44.4086 7.85733 46.2255 6.90389 47.8125H6.48401C6.23537 47.8125 5.99691 47.9113 5.8211 48.0871C5.64528 48.2629 5.54651 48.5014 5.54651 48.75V49.8724C5.5469 50.2381 5.45682 50.5981 5.28429 50.9205C5.11175 51.2428 4.86213 51.5175 4.55768 51.72C3.99618 52.0935 3.53582 52.6 3.21762 53.1946C2.89942 53.7892 2.73328 54.4532 2.73401 55.1276V57.1875C2.73401 57.4361 2.83278 57.6746 3.0086 57.8504C3.18441 58.0262 3.42287 58.125 3.67151 58.125H36.484C36.7327 58.125 36.9711 58.0262 37.1469 57.8504C37.3227 57.6746 37.4215 57.4361 37.4215 57.1875V50.314L40.5828 49.0045L45.4431 53.8649C45.6189 54.0407 45.8574 54.1394 46.106 54.1394C46.3546 54.1394 46.593 54.0407 46.7689 53.8649L54.7238 45.91C54.8109 45.8229 54.8799 45.7195 54.9271 45.6058C54.9742 45.492 54.9984 45.3701 54.9984 45.247C54.9984 45.1238 54.9742 45.0019 54.9271 44.8882C54.8799 44.7744 54.8109 44.671 54.7238 44.584L49.8634 39.7238L51.1729 36.5625H58.0465C58.2952 36.5625 58.5336 36.4637 58.7094 36.2879C58.8852 36.1121 58.984 35.8736 58.984 35.625V24.375C58.984 24.1264 58.8852 23.8879 58.7094 23.7121C58.5336 23.5363 58.2952 23.4375 58.0465 23.4375ZM46.1059 8.12379L52.7352 14.7531L48.3712 19.1169C46.6951 16.4312 44.4278 14.1639 41.7421 12.4879L46.1059 8.12379ZM4.60901 25.3125H11.1715C11.3569 25.3125 11.5382 25.2575 11.6923 25.1545C11.8465 25.0515 11.9667 24.9051 12.0376 24.7338L13.8265 20.4151C13.8975 20.2438 13.9161 20.0553 13.8799 19.8734C13.8437 19.6915 13.7544 19.5245 13.6233 19.3934L8.98292 14.7531L15.6121 8.12379L20.2524 12.7643C20.3834 12.8955 20.5505 12.9848 20.7324 13.0209C20.9142 13.0571 21.1027 13.0384 21.274 12.9674L25.5927 11.1786C25.764 11.1077 25.9105 10.9875 26.0135 10.8334C26.1165 10.6792 26.1715 10.4979 26.1715 10.3125V3.75H35.5465V9.91266C34.0097 9.5546 32.4369 9.3742 30.859 9.375V11.25C41.1978 11.25 49.609 19.6611 49.609 30C49.6088 34.4855 48.0008 38.8224 45.0767 42.2238C42.1526 45.6253 38.1062 47.8659 33.6715 48.5393V41.25C33.6711 41.1333 33.6488 41.0177 33.6059 40.9091C35.3302 40.4749 36.9271 39.6381 38.2655 38.4673C39.6039 37.2966 40.6457 35.8252 41.3055 34.174C41.9653 32.5227 42.2242 30.7386 42.0611 28.9679C41.898 27.1972 41.3175 25.4904 40.3671 23.9874C39.4168 22.4845 38.1237 21.2282 36.594 20.3217C35.0642 19.4152 33.3414 18.8842 31.5667 18.7722C29.792 18.6603 28.0161 18.9707 26.3846 19.6779C24.7531 20.385 23.3124 21.4689 22.1808 22.8405L23.6266 24.0345C24.6018 22.8515 25.8523 21.9257 27.2685 21.3383C28.6847 20.7509 30.2233 20.5198 31.7495 20.6651C33.2758 20.8105 34.7431 21.328 36.0229 22.1722C37.3027 23.0165 38.3559 24.1617 39.0903 25.5075C39.8246 26.8534 40.2177 28.3588 40.2351 29.8918C40.2525 31.4249 39.8936 32.9388 39.19 34.301C38.4863 35.6631 37.4593 36.8319 36.199 37.7049C34.9387 38.578 33.4835 39.1286 31.9609 39.3086L28.8719 36.5625H33.6715C33.9202 36.5625 34.1586 36.4637 34.3344 36.2879C34.5102 36.1121 34.609 35.8736 34.609 35.625V32.8125C34.609 32.6894 34.5848 32.5675 34.5377 32.4537C34.4906 32.34 34.4215 32.2366 34.3344 32.1496L29.9215 27.7368V25.3125C29.9215 25.0639 29.8227 24.8254 29.6469 24.6496C29.4711 24.4738 29.2327 24.375 28.984 24.375C28.0519 24.3741 27.1394 24.6428 26.3565 25.1487C25.5736 25.6546 24.9536 26.3761 24.5714 27.2263C23.2046 27.3902 21.945 28.049 21.0307 29.0782C20.1165 30.1074 19.6107 31.4358 19.609 32.8125V44.0625C19.609 44.1817 19.6318 44.2999 19.676 44.4105L21.484 48.9305V49.8724C21.4844 50.238 21.3943 50.5981 21.2218 50.9205C21.0493 51.2428 20.7997 51.5175 20.4953 51.72C20.3496 51.8175 20.2104 51.9243 20.0783 52.0396C19.9459 51.9242 19.8063 51.8175 19.6602 51.72C19.3558 51.5175 19.1062 51.2428 18.9337 50.9205C18.7612 50.5981 18.6711 50.238 18.6715 49.8724V48.75C18.6715 48.5014 18.5727 48.2629 18.3969 48.0871C18.2211 47.9113 17.9827 47.8125 17.734 47.8125H17.3141C16.3607 46.2255 15.8576 44.4086 15.859 42.5572V41.25H16.7965C17.0452 41.25 17.2836 41.1512 17.4594 40.9754C17.6352 40.7996 17.734 40.5611 17.734 40.3125V38.4375C17.734 38.2832 17.6959 38.1312 17.623 37.9952C17.5502 37.8591 17.4449 37.7431 17.3165 37.6575L15.2558 36.2837C15.8951 35.7046 16.3623 34.9604 16.6058 34.1329C16.8493 33.3055 16.8598 32.4269 16.6361 31.5938C16.4124 30.7608 15.9631 30.0056 15.3378 29.4114C14.7125 28.8173 13.9354 28.4072 13.092 28.2263C12.2487 28.0454 11.3717 28.1007 10.5578 28.3862C9.74381 28.6716 9.02439 29.1761 8.47871 29.8441C7.93303 30.5121 7.58225 31.3177 7.46498 32.1723C7.34772 33.0268 7.46852 33.8972 7.81409 34.6875H4.60901V25.3125ZM34.6603 51.72C34.2044 51.4167 33.877 50.9553 33.7411 50.4248C34.3498 50.3396 34.9516 50.2276 35.5465 50.0888V52.521C35.2918 52.2121 34.9933 51.9423 34.6603 51.72ZM23.0562 47.8125L21.484 43.8819V32.8125C21.4851 31.8183 21.8806 30.8651 22.5836 30.1621C23.2866 29.4591 24.2398 29.0636 25.234 29.0625C25.4308 29.0625 25.6226 29.0006 25.7822 28.8856C25.9418 28.7705 26.0612 28.6082 26.1235 28.4215L26.1715 28.2771C26.3167 27.8402 26.5617 27.4432 26.8872 27.1175C27.2127 26.7919 27.6096 26.5467 28.0465 26.4014V28.125C28.0465 28.2481 28.0708 28.37 28.1179 28.4838C28.165 28.5975 28.234 28.7009 28.3211 28.7879L32.734 33.2007V34.6875H26.7624L24.9194 33.0492L23.6737 34.4508L31.7965 41.6711V47.8125H23.0562ZM9.29651 32.8125C9.29651 32.2562 9.46146 31.7125 9.7705 31.25C10.0795 30.7874 10.5188 30.427 11.0327 30.2141C11.5466 30.0012 12.1121 29.9455 12.6577 30.054C13.2033 30.1626 13.7044 30.4304 14.0978 30.8238C14.4911 31.2171 14.759 31.7182 14.8675 32.2638C14.976 32.8094 14.9203 33.3749 14.7074 33.8888C14.4946 34.4027 14.1341 34.842 13.6716 35.151C13.209 35.46 12.6653 35.625 12.109 35.625C11.3633 35.6242 10.6485 35.3276 10.1212 34.8003C9.59393 34.273 9.29735 33.5582 9.29651 32.8125ZM8.35901 38.9392L10.5178 37.5H13.7002L15.859 38.9392V39.375H8.35901V38.9392ZM10.234 42.5572V41.25H13.984V42.5572C13.9827 44.3772 14.3934 46.1738 15.1853 47.8125H9.03272C9.82459 46.1738 10.2353 44.3772 10.234 42.5572ZM19.609 56.25H4.60901V55.1276C4.60861 54.762 4.69867 54.4019 4.87118 54.0795C5.0437 53.7572 5.29329 53.4825 5.59772 53.28C6.15924 52.9066 6.61963 52.4 6.93785 51.8054C7.25607 51.2108 7.42223 50.5468 7.42151 49.8724V49.6875H16.7965V49.8724C16.7958 50.5468 16.9619 51.2108 17.2801 51.8054C17.5983 52.4 18.0587 52.9065 18.6202 53.28C18.9246 53.4825 19.1743 53.7572 19.3468 54.0795C19.5193 54.4019 19.6094 54.7619 19.609 55.1276V56.25ZM21.484 56.25V55.1276C21.4839 54.5954 21.38 54.0684 21.1782 53.576C21.2865 53.4651 21.4062 53.3659 21.5352 53.28C22.0967 52.9066 22.5571 52.4 22.8754 51.8054C23.1936 51.2108 23.3597 50.5468 23.359 49.8724V49.6875H31.7965V49.8724C31.7958 50.5468 31.962 51.2108 32.2802 51.8054C32.5984 52.4 33.0588 52.9066 33.6203 53.28C33.9247 53.4825 34.1743 53.7572 34.3468 54.0795C34.5194 54.4019 34.6094 54.762 34.609 55.1276V56.25H21.484ZM52.7351 45.2469L46.1059 51.8762L41.7492 47.5194C44.4361 45.8447 46.7036 43.5767 48.3777 40.8895L52.7351 45.2469ZM57.109 34.6875H50.9466C51.6633 31.6036 51.6632 28.3964 50.9464 25.3125H57.109V34.6875Z" fill="#60AAF6"/>
</svg>
