<svg width="100" height="101" viewBox="0 0 100 101" fill="none" xmlns="http://www.w3.org/2000/svg">
<rect width="100" height="100" transform="translate(0 0.857422)" fill="white"/>
<path d="M70.1968 28.2223L64.1225 35.9297L59.5874 42.0861C57.0966 45.4738 55.0445 48.2426 55.0327 48.2426C55.0171 48.2387 53.0158 45.4738 50.5838 42.094L46.1622 35.9453H45.1635H44.1688L44.2275 36.0393C44.2784 36.1098 53.6307 49.0964 53.9009 49.4606L53.9753 49.5664L48.7235 56.7528C45.8332 60.7084 43.4717 63.9511 43.4717 63.9628C43.4717 63.9746 43.926 63.9863 44.4821 63.9863H45.4886L50.2626 57.4265L55.0327 50.8666L55.158 51.035C55.2285 51.1251 57.3669 54.078 59.9164 57.5909L64.5494 63.9863H65.5873C66.4058 63.9863 66.6173 63.9746 66.5938 63.9354C66.5742 63.9119 64.24 60.6849 61.3968 56.7685C58.5574 52.8522 56.2233 49.6212 56.2155 49.5938C56.2037 49.5664 60.6683 43.0809 66.21 35.0759C71.7163 27.1218 76.2397 20.5894 76.2632 20.5619C76.2828 20.5384 76.2945 20.5149 76.2828 20.5149C76.275 20.5149 73.5374 23.9848 70.1968 28.2223Z" fill="black"/>
<path d="M0 49.9657V63.9862H0.857679H1.71536L1.73886 53.3025C1.7506 47.4279 1.7741 41.6043 1.79368 40.3629L1.8211 38.0992L10.6916 50.9918L19.5621 63.8844L25.5463 71.8346C28.8399 76.2091 31.5618 79.8161 31.5931 79.8474C31.6714 79.9218 31.8399 80.1686 15.728 56.1731L2.16574 35.9648L1.08091 35.9531L0 35.9452V49.9657Z" fill="black"/>
<path d="M23.5762 49.9658V63.9863H33.1125H42.6488V63.2422V62.4981L33.9858 62.4903L25.3189 62.4785L25.3072 56.3181L25.2994 50.1616H33.367H41.4347V49.4175V48.6734L33.3788 48.6656L25.3189 48.6539L25.3072 43.0417L25.2994 37.4335H33.8761H42.4529V36.6894V35.9453H33.0146H23.5762V49.9658Z" fill="black"/>
<path d="M67.3692 36.6777L67.3809 37.414L72.3077 37.4257L77.2305 37.4335V50.7099V63.9863H78.1117H78.9929V50.7099V37.4335L83.9392 37.4257L88.8816 37.414L88.8934 36.6777L88.9012 35.9453H78.1313H67.3613L67.3692 36.6777Z" fill="black"/>
<path d="M97.2157 55.816C96.6322 55.9296 96.2249 56.1372 95.9351 56.4701C95.5004 56.9674 95.4103 57.7703 95.7236 58.3577C95.9781 58.8316 96.358 59.0392 97.5408 59.3407C98.4337 59.5718 98.6922 59.6736 98.8802 59.889C98.9859 60.0104 99.0838 60.2376 99.0838 60.3629C99.0838 60.4961 98.982 60.7232 98.8567 60.8564C98.5238 61.2284 97.8815 61.3733 97.2431 61.2206C96.7967 61.1188 96.4364 60.8289 96.3385 60.5039L96.2915 60.3433H95.8254H95.3633L95.3868 60.5078C95.4494 60.9229 95.6923 61.342 96.0095 61.6005C96.2366 61.7806 96.6753 61.9804 97.0081 62.0508C97.4585 62.1448 98.2575 62.1096 98.6804 61.9725C99.2679 61.7806 99.7222 61.389 99.9102 60.9034C99.9806 60.7232 99.9963 60.594 100 60.265C100.004 59.7441 99.9337 59.5209 99.6673 59.2311C99.3345 58.8669 99.0133 58.722 97.9794 58.4635C97.6269 58.3734 97.2431 58.2677 97.1256 58.2246C96.7027 58.0679 96.499 57.8329 96.499 57.5079C96.499 56.9596 96.9651 56.6189 97.7053 56.6189C98.3945 56.6189 98.8214 56.8734 98.9741 57.3747L99.0172 57.5236H99.4637H99.9062V57.3943C99.9062 57.0653 99.6595 56.6032 99.3345 56.3134C98.8449 55.8826 97.9598 55.675 97.2157 55.816Z" fill="black"/>
<path d="M93.2093 58.0599C93.2093 59.2661 93.1936 60.3079 93.1701 60.441C93.0879 60.9541 92.7707 61.2243 92.2537 61.2204C91.772 61.2204 91.4274 60.958 91.3491 60.5272L91.3216 60.3823H90.8752H90.4287V60.5507C90.4287 60.6447 90.4561 60.817 90.4914 60.9345C90.7107 61.6708 91.3686 62.1055 92.2694 62.1055C93.037 62.1055 93.6284 61.7882 93.9103 61.2282C94.1257 60.7935 94.1218 60.8209 94.1375 58.2753L94.1532 55.9177H93.6832H93.2093V58.0599Z" fill="black"/>
<path d="M88.5676 60.8132C88.2739 60.8798 88.1016 61.1069 88.1016 61.4281C88.1016 62.0508 88.9514 62.2662 89.2412 61.714C89.3548 61.5025 89.3548 61.3458 89.2451 61.1265C89.1159 60.8759 88.8457 60.7466 88.5676 60.8132Z" fill="black"/>
</svg>
