<svg width="100" height="101" viewBox="0 0 100 101" fill="none" xmlns="http://www.w3.org/2000/svg">
<g clip-path="url(#clip0_4444_17135)">
<g clip-path="url(#clip1_4444_17135)">
<path d="M92.3516 23.9274C88.6259 18.0926 80.6146 15.6689 69.8198 17.0603C69.4382 17.1047 69.0343 17.1725 68.6528 17.2169C68.4959 16.8585 68.3391 16.499 68.1593 16.1406C63.5141 6.28808 57.1629 0.857422 50.2509 0.857422C43.3388 0.857422 36.9654 6.2883 32.3422 16.1406C32.1851 16.499 32.0056 16.8585 31.8485 17.2169C31.4445 17.1505 31.063 17.1047 30.6817 17.0601C19.8651 15.6462 11.8756 18.0928 8.14987 23.9277C4.425 29.7625 5.56908 38.043 11.359 47.2441C12.1384 48.4831 12.9696 49.6887 13.8505 50.8576C12.9528 52.069 12.1227 53.2587 11.3592 54.4701C5.56908 63.6712 4.425 71.9746 8.14987 77.7876C11.1795 82.545 17.0599 85.0363 24.9811 85.0363C26.8797 85.026 28.776 84.8987 30.6588 84.6541C31.0403 84.6094 31.4443 84.5419 31.8258 84.4972C31.9836 84.8568 32.1404 85.2154 32.3202 85.5747C36.9656 95.4261 43.3166 100.858 50.228 100.858C57.14 100.858 63.5141 95.4261 68.1364 85.5747C68.2935 85.2151 68.473 84.8565 68.6301 84.4975C69.0341 84.5648 69.4156 84.6097 69.7978 84.6541C71.6794 84.909 73.576 85.0367 75.4748 85.0365C83.3967 85.0365 89.2764 82.545 92.3061 77.7876C96.0316 71.9528 94.8869 63.6712 89.0976 54.4701C88.318 53.2316 87.4868 52.0264 86.6061 50.8576C87.5038 49.6451 88.3341 48.4564 89.0976 47.2441C94.9544 38.0212 96.0994 29.7394 92.3516 23.9274ZM36.4046 18.0482C40.1968 9.96918 45.2461 5.34575 50.2506 5.34575C55.2551 5.34575 60.3047 9.96918 64.0971 18.0482C64.0998 18.0651 64.1077 18.0807 64.1198 18.0928C59.3531 19.2394 54.7027 20.8243 50.228 22.8274C45.7574 20.8142 41.1063 19.229 36.3368 18.0928C36.3817 18.0928 36.3817 18.0699 36.4044 18.048L36.4046 18.0482ZM70.471 50.8576C70.4719 54.4483 70.2773 58.0372 69.8871 61.6067C67.09 63.864 64.1679 65.9618 61.1348 67.8904C57.6346 70.1383 53.9912 72.1551 50.228 73.9279C46.472 72.1413 42.8297 70.125 39.3218 67.8904C36.2922 65.9566 33.3705 63.8589 30.5695 61.6067C29.7911 54.4615 29.7911 47.2529 30.5695 40.1076C36.6184 35.2467 43.2163 31.1118 50.2282 27.7874C53.9845 29.5733 57.6271 31.5892 61.1351 33.8238C64.1646 35.7576 67.0863 37.8552 69.8873 40.1074C70.2773 43.6775 70.4722 47.2663 70.4712 50.8576H70.471ZM74.7569 44.3267C76.9546 46.3736 79.0233 48.5547 80.951 50.8576C79.023 53.16 76.9544 55.3408 74.7569 57.3875C74.8918 55.2338 74.9593 53.0571 74.9593 50.8576C74.9593 48.6581 74.892 46.4815 74.7569 44.3267ZM68.9667 67.9808C68.2582 71.8665 67.2299 75.6869 65.8922 79.4032C62.4068 78.616 58.9861 77.5657 55.6595 76.2614C58.3599 74.8417 61.0024 73.3146 63.5807 71.6837C65.4216 70.4941 67.217 69.2598 68.9667 67.9808ZM44.842 76.2614C41.5212 77.5826 38.0991 78.6333 34.609 79.4032C33.2714 75.6869 32.2432 71.8665 31.5347 67.9808C33.2627 69.2598 35.0581 70.4941 36.9207 71.6608C39.5464 73.344 42.1945 74.87 44.842 76.2614ZM25.7443 57.3875C23.5471 55.3405 21.4785 53.1598 19.5502 50.8576C21.4782 48.5549 23.5469 46.3738 25.7443 44.3267C25.6095 46.4815 25.5419 48.6581 25.5419 50.8576C25.5419 53.0571 25.6092 55.2338 25.7443 57.3875ZM31.5347 33.7344C32.243 29.8488 33.2714 26.0283 34.6092 22.3121C38.0949 23.0983 41.5157 24.1487 44.842 25.4539C42.1416 26.8736 39.4991 28.4007 36.9207 30.0316C35.0903 31.214 33.2942 32.4488 31.5347 33.7344ZM63.559 30.0316C60.9553 28.3713 58.307 26.8224 55.6366 25.4539C58.9577 24.1325 62.3801 23.0818 65.8705 22.3121C67.2075 26.0286 68.2359 29.849 68.945 33.7344C67.217 32.4553 65.4216 31.221 63.559 30.0316ZM15.1523 44.8431C10.394 37.3022 9.22729 30.5477 11.9203 26.3287C14.0749 22.9624 18.743 21.1442 25.0487 21.1442C26.7369 21.1514 28.4237 21.2645 30.098 21.4809H30.1427C28.3273 26.7594 27.0641 32.212 26.3732 37.751C22.9149 40.6363 19.6951 43.7961 16.7452 47.1994C16.1842 46.4369 15.6458 45.6514 15.1523 44.8431ZM30.076 80.2115C28.4016 80.4288 26.7152 80.5413 25.0267 80.5482C18.7201 80.5482 14.0522 78.7528 11.8983 75.3637C9.2053 71.1447 10.3723 64.3902 15.1294 56.8493C15.6232 56.0639 16.1622 55.2555 16.7232 54.4701C19.6723 57.8739 22.8918 61.0336 26.3503 63.9185C27.0417 69.4575 28.3053 74.9101 30.1207 80.1887C30.1207 80.2115 30.098 80.2115 30.076 80.2115ZM64.0971 83.6671C60.3047 91.7461 55.2553 96.3695 50.2506 96.3695C45.2459 96.3695 40.1968 91.7461 36.4044 83.6671C36.4017 83.6501 36.3938 83.6344 36.3817 83.6222C41.1485 82.4758 45.7989 80.8907 50.2735 78.887C54.7438 80.9007 59.395 82.4862 64.1645 83.6222C64.1198 83.6222 64.1198 83.6442 64.0971 83.6671ZM85.3492 56.8722C90.1075 64.412 91.2742 71.1673 88.5812 75.3866C85.8882 79.6047 79.2679 81.3783 70.4255 80.2115H70.3806C72.1962 74.933 73.4598 69.4805 74.151 63.9413C77.6094 61.0563 80.829 57.8966 83.7785 54.493C84.3175 55.2784 84.8557 56.0639 85.3494 56.8722H85.3492ZM74.1283 37.7739C73.4376 32.2348 72.1744 26.7823 70.3588 21.5037H70.4037C79.2452 20.3588 85.8655 22.1097 88.5585 26.3287C91.2515 30.5477 90.0846 37.3022 85.3272 44.8431C84.8337 45.6285 84.2946 46.4369 83.7336 47.2223C80.7979 43.8133 77.5852 40.6531 74.1283 37.7739Z" fill="url(#paint0_linear_4444_17135)"/>
<path d="M50.2504 41.9709C45.3424 41.9709 41.3633 45.9498 41.3633 50.8578C41.3633 55.7663 45.3422 59.7443 50.2504 59.7443C55.1588 59.7443 59.1377 55.7663 59.1377 50.858C59.1342 45.9507 55.157 41.9745 50.2504 41.9709ZM50.2504 55.2559C47.8213 55.2559 45.8516 53.2871 45.8516 50.858C45.8516 48.429 47.8213 46.459 50.2504 46.459C52.6795 46.459 54.6494 48.429 54.6494 50.858C54.6449 53.2853 52.6779 55.2526 50.2504 55.2559Z" fill="url(#paint1_linear_4444_17135)"/>
</g>
</g>
<defs>
<linearGradient id="paint0_linear_4444_17135" x1="50.2574" y1="-3.00254" x2="50.2574" y2="105.797" gradientUnits="userSpaceOnUse">
<stop stop-color="#00EFD1"/>
<stop offset="1" stop-color="#00ACEA"/>
</linearGradient>
<linearGradient id="paint1_linear_4444_17135" x1="50.2504" y1="-3.00214" x2="50.2504" y2="105.797" gradientUnits="userSpaceOnUse">
<stop stop-color="#00EFD1"/>
<stop offset="1" stop-color="#00ACEA"/>
</linearGradient>
<clipPath id="clip0_4444_17135">
<rect width="100" height="100" fill="white" transform="translate(0 0.857422)"/>
</clipPath>
<clipPath id="clip1_4444_17135">
<rect width="100" height="100" fill="white" transform="translate(0 0.857422)"/>
</clipPath>
</defs>
</svg>
